<?xml version="1.0" standalone="no"?>
<!DOCTYPE svg PUBLIC "-//W3C//DTD SVG 1.1//EN" "http://www.w3.org/Graphics/SVG/1.1/DTD/svg11.dtd">
<svg xmlns="http://www.w3.org/2000/svg">
  <defs>
    <font id="AtkinsonHyperlegible" horiz-adv-x="577">
      <font-face font-family="Atkinson Hyperlegible" units-per-em="1000" panose-1="0 0 0 0 0 0 0 0 0 0" ascent="950" descent="-290" alphabetic="0"/>
      <glyph unicode=" " glyph-name="space" horiz-adv-x="320"/>
      <glyph unicode="!" glyph-name="exclam" horiz-adv-x="298" d="M71,243L83,496l37,172H318L281,496L186,243H71ZM97-12Q57-12 28,17T-1,86q0,41 29,69.5T97,184t68.5-28.5T194,86q0-40-28.5-69T97-12Z"/>
      <glyph unicode="&quot;" glyph-name="quotedbl" horiz-adv-x="444" d="M305,434L290,668H432L418,434H305Zm-189,0L102,668H244L230,434H116Z"/>
      <glyph unicode="#" glyph-name="numbersign" horiz-adv-x="750" d="M118,0l18,127H8L28,266H156l20,135H48L68,541H196l19,127H355L336,541H473l19,127H633L614,541H743L722,402H594L575,267H703L683,127H554L536,0H395l18,127H277L259,0H118ZM297,267H434l19,134H316L297,267Z"/>
      <glyph unicode="$" glyph-name="dollar" horiz-adv-x="643" d="M188-86L207-1Q135,16 84,56.5T10,157l155,53q6-29 25.5-49T235,130l31,150q-37,12-73,27t-66,37T79,398T61,476q0,88 69,143.5T325,679q10,1 16,1t11,0l14,67h75l-16-76q55-13 103-45t79-90L452,484q-7,19-21.5,32.5T397,538L367,398q65-17 115-40t78.5-59T589,205q0-69-38.5-117.5T448,13.5T305-12q-6,0-12.5,0T280-11L264-86H188ZM296,421l28,131q-49-1-74.5-17.5T224,493q0-27 20.5-43.5T296,421Zm30-307q41,2 70,19.5T425,179q0,29-25,46.5T337,256L307,115q5-1 10-1t9,0Z"/>
      <glyph unicode="%" glyph-name="percent" horiz-adv-x="1043" d="M234,286q-51,0-91,23.5t-63.5,63T56,461q0,60 30.5,109.5T167,650t108,30q51,0 91.5-23.5T430,593t23-90q0-59-30.5-108.5t-80.5-79T234,286ZM226,0L693,668H820L352,0H226Zm20,405q35,0 61.5,25.5T334,492q0,29-20.5,49T263,561q-35,0-61.5-26T175,474q0-30 20.5-49.5T246,405ZM769-12q-51,0-91,23.5T615,75t-23,90q0,59 30.5,108.5t80.5,79T811,382q51,0 91-23.5T965,295t23-90q0-59-30.5-108.5T877,17.5T769-12Zm13,119q34,0 60.5,25T869,192q0,30-20,50.5T798,263q-34,0-60.5-25.5T711,177q0-30 20-50t51-20Z"/>
      <glyph unicode="&amp;" glyph-name="ampersand" horiz-adv-x="683" d="M199-10Q136-10 89.5,15T18,81T-7,169q0,61 45,121.5T181,389q-42,63-42,132q0,54 27.5,96t76,65.5T353,706q52,0 92.5-21.5t64.5-58T534,544q0-52-36-105T383,348l68-104q30,29 55,65.5T549,389H676q-28-74-70-136.5T515,146L608,0H442L407,53Q349,19 296.5,4.5T199-10ZM326,437q45,22 63.5,48T408,534q0,24-16.5,41T350,592q-31,0-51.5-16T278,531q0-19 11.5-43T326,437ZM239,116q26,0 49.5,7T343,147L247,290q-48-15-69-41.5T157,196q0-31 23.5-55.5T239,116Z"/>
      <glyph unicode="&apos;" glyph-name="quotesingle" horiz-adv-x="258" d="M103,434L89,668H231L217,434H103Z"/>
      <glyph unicode="(" glyph-name="parenleft" horiz-adv-x="377" d="M89-161Q50-68 32,14.5T14,171q0,97 28,182.5T120,517T236,669H387Q278,537 218.5,412.5T159,155q0-146 79-316H89Z"/>
      <glyph unicode=")" glyph-name="parenright" horiz-adv-x="378" d="M-42-161Q67-29 126.5,95.5T186,353q0,146-79,316H256q39-93 57-175.5T331,337q0-97-28-182.5T225.5-9T109-161H-42Z"/>
      <glyph unicode="*" glyph-name="asterisk" horiz-adv-x="443" d="M263,336l-41,92l-74-67L89,426l75,68L76,544l44,75l87-50l21,99l86-18l-21-99l99,11l10-87L302,464l41-92l-80-36Z"/>
      <glyph unicode="+" glyph-name="plus" horiz-adv-x="645" d="M231,0V184H39V312H231V496H359V312H551V184H359V0H231Z"/>
      <glyph unicode="," glyph-name="comma" horiz-adv-x="282" d="M-40-145L51-3Q24,8 7.5,32.5T-9,85q0,44 29.5,71T90,183q41,0 69-27.5T187,88q0-18-5.5-33T162,17L59-145H-40Z"/>
      <glyph unicode="-" glyph-name="hyphen" horiz-adv-x="376" d="M10,184L38,313H364L336,184H10Z"/>
      <glyph unicode="." glyph-name="period" horiz-adv-x="247" d="M82-12Q42-12 13,17T-16,86q0,41 29,69t69,28t68.5-28T179,86q0-40-28.5-69T82-12Z"/>
      <glyph unicode="/" glyph-name="slash" horiz-adv-x="442" d="M-55,0L348,668H499L98,0H-55Z"/>
      <glyph unicode="0" glyph-name="zero" horiz-adv-x="659" d="M300-12Q174-12 110.5,64T47,271q0,31 3,64q17,161 99.5,253T372,680q126,0 189.5-74.5T625,398q0-30-3-63q-11-106-51.5-184T462,30.5T300-12ZM444,227q8,23 13.5,50t8.5,58q2,14 3,29.5t1,31.5q0,40-8.5,79T429,540.5T360,567q-37,0-69-23L444,227ZM312,101q40,0 73,27L230,450q-8-24-14.5-52.5T206,335q-1-16-2.5-31.5T202,273q0-74 25.5-123T312,101Z"/>
      <glyph unicode="1" glyph-name="one" horiz-adv-x="455" d="M132,0l96,449H72L98,571q54,0 92,7.5T256.5,607T310,668H428L287,0H132Z"/>
      <glyph unicode="2" glyph-name="two" horiz-adv-x="587" d="M-35,0L-9,125q127,65 223.5,128t151,123T420,490q0,38-25.5,58T334,568q-33,0-67.5-19T208,489L81,539q27,48 70.5,79T247,664.5T350,680q60,0 112-20t84-59.5T578,502q0-55-29.5-107t-81-99.5t-119-90T204,125H504L478,0H-35Z"/>
      <glyph unicode="3" glyph-name="three" horiz-adv-x="619" d="M267-12Q211-12 160,1.5T69,48T6,140l149,50q8-49 41-69t72-20q46,0 79.5,24T381,190q0,33-16,53t-42.5,30.5t-57.5,14T205,291l22,106q84,0 138,21t54,70q0,40-27.5,59.5T326,567q-40,0-74.5-17.5T204,485L77,535q44,83 113,114t154,31q64,0 117.5-19.5T547,604t32-91q0-48-16-80t-41.5-52T465,349q41-23 59.5-62.5T539,200q-6-70-44.5-117.5T396,11.5T267-12Z"/>
      <glyph unicode="4" glyph-name="four" horiz-adv-x="646" d="M294,0l30,141H-16L7,252L421,668H592L508,275h92L572,141H480L450,0H294ZM193,275H352l42,194L193,275Z"/>
      <glyph unicode="5" glyph-name="five" horiz-adv-x="616" d="M268-12Q212-12 159.5,5.5T69,57.5T17,142l139,47q8-44 41.5-66.5T269,100q53,0 86,34t33,89q0,39-16,64.5T330.5,325T277,337q-33,0-63-15.5T168,276L41,327L156,668H586L560,544H259L217,419q25,14 55,21.5t61,7.5q52,0 100.5-21.5t79.5-67T544,242q0-80-37-137T407.5,18T268-12Z"/>
      <glyph unicode="6" glyph-name="six" horiz-adv-x="629" d="M289-12q-86,0-140.5,34.5T68.5,118T43,258q0,86 22,162t63.5,134.5t102.5,92T370,680q74,0 123-27t74-70L429,535q-11,17-30,26t-47,9q-52,0-87-44T220,409q26,20 55,31.5T349,452q58,0 106.5-25T533,355t29-112q0-72-35.5-130T429,21.5T289-12Zm4,113q48,0 80.5,36T407,227q0,57-27,84.5T308,339q-58,0-87-37t-29-93q0-47 27.5-77.5T293,101Z"/>
      <glyph unicode="7" glyph-name="seven" horiz-adv-x="561" d="M13,0L400,543H53L80,668H593L567,543L194,0H13Z"/>
      <glyph unicode="8" glyph-name="eight" horiz-adv-x="623" d="M274-12q-81,0-139.5,25T44,83T12,186q0,68 35.5,113T147,378q-12,22-19,46.5T121,477q0,51 26,97.5t74,76T334,680q52,0 91-24.5T486,593t22-81q0-34-15-75t-38-64q44-23 72.5-60T556,211q0-64-35.5-114.5T421.5,17T274-12Zm33,429q29,0 52,23t23,54q0,26-17.5,43.5T321,555q-29,0-52-22t-23-54q0-26 17.5-44T307,417ZM280,114q54,0 88,28.5T402,215q0,38-31.5,58.5T291,294q-55,0-89.5-25T167,198q0-37 31.5-60.5T280,114Z"/>
      <glyph unicode="9" glyph-name="nine" horiz-adv-x="576" d="M106,0L271,222H254q-60,2-103,30T85,324.5T62,420q0,53 21.5,100.5t59,83.5t86,56.5T332,681q64,0 114.5-27.5t80-75T556,472q0-35-12.5-73.5T502,319q-18-26-43.5-62.5T405,180t-53.5-77T307,38.5T280,0H106ZM297,336q37,0 64,17.5t41.5,44T417,452q0,42-24,68t-66,26q-37,0-65-17t-44-45t-16-62q0-42 28.5-64T297,336Z"/>
      <glyph unicode=":" glyph-name="colon" horiz-adv-x="247" d="M142,316q-40,0-69,28.5T44,413q0,41 29,69.5T142,511q41,0 69-28.5T239,413q0-40-28-68.5T142,316ZM72-12Q32-12 3,17T-26,86q0,41 29,69t69,28t68.5-28T169,86q0-40-28.5-69T72-12Z"/>
      <glyph unicode=";" glyph-name="semicolon" horiz-adv-x="247" d="M-57-145L34-3Q7,8-9.5,32.5T-26,85q0,44 29.5,71T73,183q41,0 69-27.5T170,88q0-18-5.5-33T145,17L42-145H-57ZM141,316q-40,0-69,29T43,414q0,41 29,69t69,28t68.5-28T238,414q0-40-28.5-69T141,316Z"/>
      <glyph unicode="&lt;" glyph-name="less" horiz-adv-x="640" d="M527-12L34,200v99L527,510V368L203,250L527,130V-12Z"/>
      <glyph unicode="=" glyph-name="equal" horiz-adv-x="685" d="M60,283V410H572V283H60ZM60,96V225H572V96H60Z"/>
      <glyph unicode="&gt;" glyph-name="greater" horiz-adv-x="638" d="M78-12V130L403,250L78,368V510L571,299V200L78-12Z"/>
      <glyph unicode="?" glyph-name="question" horiz-adv-x="634" d="M185,243q3,23 10,41q16,44 50.5,75T326,411q25,12 53,24t48,27t21,35q2,29-22.5,42T356,552q-48,0-83.5-17T223,486L85,541q43,76 116,107.5T368,680q46,0 91-8t82-25.5T600.5,600T623,529q0-49-21-83.5T546,387t-78-42q-39-16-64-31t-41-38q-4-7-8.5-15T346,243H185ZM237-12q-40,0-68.5,29T140,86q0,41 28.5,69T237,183q41,0 69.5-28T335,86q0-40-28.5-69T237-12Z"/>
      <glyph unicode="@" glyph-name="at" horiz-adv-x="753" d="M386-12Q285-12 207,30T85,147.5T41,323q0,72 27,136t74.5,114t110,78.5T386,680q60,0 119-22t107.5-63t78-98.5T720,368q0-60-22-109t-62-77.5T541,153q-39,0-70,18.5T430,224q-28-36-62.5-53.5T299,153q-47,0-82.5,32T181,276q0,70 31.5,124.5t87.5,86T428,518q31,0 61-5.5T545,498L509,330q-4-22-6-32t-2-18q0-28 15.5-38.5T551,231q32,0 53.5,18.5T637,298t11,65q0,72-36.5,128T515,578.5T386,610q-58,0-108-23.5T190,523t-59-91.5T110,323q0-82 35.5-142t98-92.5T386,56q38,0 71.5,9.5T522,94V16Q458-12 386-12ZM325,250q25,0 51,22.5T411,339q9,42 12.5,60t4.5,22t1,4q-13,3-29,3q-36,0-62.5-19t-41-48.5T282,298q0-24 12.5-36T325,250Z"/>
      <glyph unicode="A" glyph-name="A" horiz-adv-x="698" d="M-65,0L329,668H512L623,0H458L442,119H187L121,0H-65ZM255,247H427L395,501L255,247Z"/>
      <glyph unicode="B" glyph-name="B" horiz-adv-x="643" d="M-23,0L119,668H413q59,0 109-12t80.5-43T633,524q0-56-28.5-100.5T523,355q35-16 56-46.5T600,229q0-80-43.5-130.5T441,24T283,0H-23ZM224,404H363q44,0 72.5,21.5T464,484q0,25-18,40t-55,15H253L224,404ZM166,131H313q53,0 86.5,26.5T433,222q0,29-25,44.5T339,282H198L166,131Z"/>
      <glyph unicode="C" glyph-name="C" horiz-adv-x="673" d="M322-12q-82,0-148,30.5t-104,92T32,265q0,89 27,164.5T136,561t121.5,87.5T417,680q52,0 103.5-14.5T612,617t59-92L525,476q-18,42-50.5,58T401,550q-47,0-84-22.5T254,467t-40-85.5T200,283q0-81 38.5-121.5T338,120q38,0 74,16t68,58l136-53Q570,70 497,29T322-12Z"/>
      <glyph unicode="D" glyph-name="D" horiz-adv-x="690" d="M-23,0L119,668H313q188,0 279-91t59-265q-16-89-60.5-149.5T483,66.5t-136-51T200,0H-23ZM167,133h63q81,0 135.5,28.5t85,79T488,355q12,102-28.5,142T311,537H253L167,133Z"/>
      <glyph unicode="E" glyph-name="E" horiz-adv-x="582" d="M-23,0L119,668H637L607,529H251L226,413H443L414,274H197L168,139H524L495,0H-23Z"/>
      <glyph unicode="F" glyph-name="F" horiz-adv-x="545" d="M-23,0L119,668H600L571,529H251L226,413H546L517,274H197L138,0H-23Z"/>
      <glyph unicode="G" glyph-name="G" horiz-adv-x="733" d="M282-12q-67,0-124,31T66,111T31,261T58.5,426.5t79,133.5T261,648.5T422,680q88,0 155.5-34T677,535L529,478q-10,26-43.5,49T400,550q-49,0-86.5-23.5t-63-62.5T212,376.5T199,278q0-80 39.5-120.5T344,117q34,0 68,12.5T471.5,167T505,231l4,19H359l27,128H698L617,0H510l-6,74Q421-12 282-12Z"/>
      <glyph unicode="H" glyph-name="H" horiz-adv-x="695" d="M-23,0L119,668H279L226,413H502l54,255H717L575,0H414l58,274H197L138,0H-23Z"/>
      <glyph unicode="I" glyph-name="I" horiz-adv-x="459" d="M-13,0L13,124h92l90,420H103l26,124H474L447,544H355L267,124h91L331,0H-13Z"/>
      <glyph unicode="J" glyph-name="J" horiz-adv-x="566" d="M195-12Q127-12 78,13T2,80.5T-28,176l157,52q-1-7-1-13t0-12q0-41 18-65.5T212,113q55,0 83,32t44,111l87,412H588L500,256Q478,153 437.5,94.5T336.5,12T195-12Z"/>
      <glyph unicode="K" glyph-name="K" horiz-adv-x="657" d="M-23,0L119,668H279L229,426L501,668H715L384,377L577,0H411L270,277l-90-80L138,0H-23Z"/>
      <glyph unicode="L" glyph-name="L" horiz-adv-x="543" d="M-23,0L119,668H279L168,139H488L458,0H-23Z"/>
      <glyph unicode="M" glyph-name="M" horiz-adv-x="858" d="M-23,0L119,668H356l38-475L635,668H880L737,0H581L690,510L426,0H294L247,533L134,0H-23Z"/>
      <glyph unicode="N" glyph-name="N" horiz-adv-x="715" d="M-23,0L119,668H318L478,183L582,668H737L595,0H396L236,485L133,0H-23Z"/>
      <glyph unicode="O" glyph-name="O" horiz-adv-x="763" d="M335-12q-96,0-163.5,35.5T68,122.5T32,269q0,86 29,160.5t82,131t125,88T426,680q91,0 159.5-33T693,550t39-157q0-87-29.5-160.5T619.5,104t-126-85.5T335-12Zm14,130q65,0 113,36.5T537,251t27,128q0,59-21.5,96.5t-55.5,56T414,550q-49,0-88.5-22.5T258,467t-42.5-85T201,286q0-46 16.5-84T267,141t82-23Z"/>
      <glyph unicode="P" glyph-name="P" horiz-adv-x="628" d="M-23,0L119,668H379q97,0 153.5-21.5t81-61.5T638,490q0-91-42-148T479,258.5T304,232H187L138,0H-23ZM216,363H319q69,0 110,25t41,80q0,67-115,67H252L216,363Z"/>
      <glyph unicode="Q" glyph-name="Q" horiz-adv-x="774" d="M617-55L523,56q-40-20-86.5-31T340,14q-96,0-163.5,36T73,149.5T37,295q0,86 29,160.5t81.5,131t124.5,88T431,706q90,0 159-33t108-97t39-156q0-81-29.5-158.5T622,127L709,25L617-55ZM354,145q42,0 79,17L330,285l91,78L524,243q21,35 33,78t12,84q0,59-21.5,97T492,558t-73,18q-49,0-88.5-22.5T263,493t-42.5-85.5T206,311q0-45 16.5-82.5T272,168t82-23Z"/>
      <glyph unicode="R" glyph-name="R" horiz-adv-x="644" d="M-23,0L119,668H369q122,0 191.5-40.5T630,489q0-102-54.5-153.5T420,269L557,0H391L263,252H192L138,0H-23ZM220,384H323q39,0 70.5,6.5t50.5,26T463,473q0,38-32.5,50T346,535H252L220,384Z"/>
      <glyph unicode="S" glyph-name="S" horiz-adv-x="642" d="M306-12Q197-12 119,33T10,157l155,52q8-33 31-54t54.5-31T313,114q44,0 77.5,17T424,179q0,25-19.5,42t-52,29T281,274t-77.5,27t-71,37.5T80.5,394T61,475q0,54 23.5,92.5t63,63.5T237,668t104,12q50,0 100-13.5T534.5,621T606,535L451,483q-13,35-49,51.5T329,551q-51,0-78-16.5T224,492q0-27 19.5-43.5t52-28.5T367,397.5t78-24T516.5,339t52-53T588,206q0-72-40-120.5t-104.5-73T306-12Z"/>
      <glyph unicode="T" glyph-name="T" horiz-adv-x="617" d="M158,0L270,529H57L87,668H673L644,529H430L319,0H158Z"/>
      <glyph unicode="U" glyph-name="U" horiz-adv-x="679" d="M266-12q-90,0-142.5,26t-75,71T26,187q0,25 3.5,51T39,292l81,376H281L198,279q-4-21-7-39.5T188,204q0-40 22.5-63.5T294,117q55,0 86.5,20t49,56.5T457,279l83,389H701L621,292q-20-94-50.5-153.5T497.5,46T397.5,0.5T266-12Z"/>
      <glyph unicode="V" glyph-name="V" horiz-adv-x="662" d="M166,0L82,668H240l49-491L546,668H724L356,0H166Z"/>
      <glyph unicode="W" glyph-name="W" horiz-adv-x="889" d="M101,0L82,668H235l-5-446L419,668H588V205L783,668H951L648,0H468V470L266,0H101Z"/>
      <glyph unicode="X" glyph-name="X" horiz-adv-x="706" d="M-60,0L270,356L115,668H286l96-191L558,668H768L456,331L621,0H448L343,210L151,0H-60Z"/>
      <glyph unicode="Y" glyph-name="Y" horiz-adv-x="700" d="M191,0l51,241L82,668H253l86-277L558,668H762L404,241L354,0H191Z"/>
      <glyph unicode="Z" glyph-name="Z" horiz-adv-x="632" d="M-38,0l26,121L411,529H100l30,139H668L642,547L221,139H560L530,0H-38Z"/>
      <glyph unicode="[" glyph-name="bracketleft" horiz-adv-x="340" d="M-57-161L119,668H378L353,552H226L99-46H227L202-161H-57Z"/>
      <glyph unicode="\" glyph-name="backslash" horiz-adv-x="584" d="M348,0L87,668H240L499,0H348Z"/>
      <glyph unicode="]" glyph-name="bracketright" horiz-adv-x="342" d="M-71-161L-46-46H82L209,552H81l24,116H364L188-161H-71Z"/>
      <glyph unicode="^" glyph-name="asciicircum" horiz-adv-x="589" d="M49,312L234,668H347L532,312H389L291,506L192,312H49Z"/>
      <glyph unicode="_" glyph-name="underscore" horiz-adv-x="457" d="M-30-128V0H380V-128H-30Z"/>
      <glyph unicode="`" glyph-name="grave" horiz-adv-x="315" d="M206,574q0,0-13,11t-29,25.5T139,635q-12,17-12,35q0,26 21,44q14,13 35,13q27,0 43-21q9-12 24-33.5T279.5,628T304,589.5T314,574H206Z"/>
      <glyph unicode="a" glyph-name="a" horiz-adv-x="545" d="M130-12Q92-12 58,3.5T3,48.5T-18,118q0,56 32,91.5T99,266t115.5,32T338,315q4,15 5,24t1,15q0,29-19,41t-53,12q-32,0-60-14.5T170,348L53,394q38,59 97,87.5T293,510q58,0 103.5-17.5T468,440t26-87q0-20-5.5-50T476,243.5T465,193q-7-32-12.5-69T444,54.5T441,0H297l-5,59Q258,18 220.5,3T130-12ZM208,91q41,0 70.5,26.5T325,213l3,12q-84-7-134.5-26.5T143,138q0-22 19-34.5T208,91Z"/>
      <glyph unicode="b" glyph-name="b" horiz-adv-x="592" d="M293-12q-41,0-79,18T149,66L115,0H-21L121,668H276L227,436q28,38 67,56t79,18q50,0 91-23.5T529.5,417T554,303q0-62-18.5-119T483,83T401,13.5T293-12ZM266,105q33,0 62.5,20t48,58T395,275q0,53-21,85t-64,32q-46,0-76-28.5t-44.5-71T175,208q0-52 27-77.5T266,105Z"/>
      <glyph unicode="c" glyph-name="c" horiz-adv-x="531" d="M223-12Q118-12 60,45.5T2,194q0,90 40.5,161.5T154,468.5T316,510q65,0 116.5-27.5T511,382L378,336q-7,32-28,44t-51,12q-48,0-79.5-29.5T172,288t-16-90q0-50 24-71.5T236,105t57,10t48,39l123-47Q416,40 351.5,14T223-12Z"/>
      <glyph unicode="d" glyph-name="d" horiz-adv-x="592" d="M187-12Q105-12 54,42.5T3,191q0,63 18,120.5t52.5,102t83,70.5T266,510q48,0 85.5-24T405,421l53,247H613q0,0-6-26.5t-15.5-70T571,475T548.5,368.5t-21-99.5T512,193q-7-37-15-88T488,0H339l-5,63Q303,23 265,5.5T187-12Zm64,117q42,0 71.5,28.5t44.5,71T382,289q0,38-14,60.5T333.5,382T293,392q-45,0-74-25.5t-43-66T162,216q0-46 21.5-78.5T251,105Z"/>
      <glyph unicode="e" glyph-name="e" horiz-adv-x="567" d="M229-12Q124-12 63.5,42.5T3,196q0,66 22.5,123T89,419t96.5,67T307,510q107,0 165-57.5T530,298q0-21-2.5-43T519,209H154q-1-6-1.5-11T152,188q0-44 31-63t71-19q30,0 58.5,9.5T358,142L472,98Q429,45 367,16.5T229-12ZM168,299H395q1,4 1,7t0,7q0,44-28,65t-66,21q-40,0-80-25t-54-75Z"/>
      <glyph unicode="f" glyph-name="f" horiz-adv-x="379" d="M18,0L99,380H19L43,496h81l11,51q12,54 26.5,89.5t39,55T265,719t101,8h68L409,608H368q-31,0-46-5t-22-22.5T285,527l-7-31H385L360,380H253L173,0H18Z"/>
      <glyph unicode="g" glyph-name="g" horiz-adv-x="594" d="M194-207q-50,0-95,15T22-149.5T-22-85L112-41q7-22 31-34.5T196-88q39,0 76,22.5T319,6l18,85q-31-37-70-55.5T187,17q-47,0-88.5,23.5T31.5,108T6,214q0,57 18.5,110t53,95.5t81.5,67T262,511q48,0 88-21t59-61l34,67H577q-25-119-50-239T476,18q-18-80-62.5-129.5T311-184T194-207Zm53,338q46,0 76,24.5T368.5,219T384,301q0,47-25,70.5T296,395q-43,0-72.5-22.5T179,313t-15-79q0-49 23.5-76T247,131Z"/>
      <glyph unicode="h" glyph-name="h" horiz-adv-x="580" d="M-21,0L121,668H272L222,432q21,29 64.5,53.5T396,510q59,0 95.5-33.5T528,366q0-19-2.5-40T518,281L458,0H302l56,263q9,39 9,65q0,34-14,49t-42,15q-95,0-122-138L135,0H-21Z"/>
      <glyph unicode="i" glyph-name="i" horiz-adv-x="338" d="M266,578q-37,0-63,26.5T177,668t26,63t63,26q38,0 64-26t26-63t-26-63.5T266,578ZM48,0l81,380H26L51,496H309L204,0H48Z"/>
      <glyph unicode="j" glyph-name="j" horiz-adv-x="263" d="M206,578q-37,0-63.5,26.5T116,668q0,38 26.5,64T206,758t63.5-26T296,668q0-37-26.5-63.5T206,578ZM-74-162q-31,0-54,0.5t-46,1.5l26,118h61q30,0 45.5,6.5t23,24T-4,39L93,496H249L148,23q-13-61-29.5-97.5T77.5-130t-61-25.5T-74-162Z"/>
      <glyph unicode="k" glyph-name="k" horiz-adv-x="562" d="M-21,0L121,668H276L203,327L388,496H586L342,283L487,0H324L229,184l-68-60L135,0H-21Z"/>
      <glyph unicode="l" glyph-name="l" horiz-adv-x="317" d="M147,0Q81,0 42.5,22T4,99q0,9 1.5,19.5T9,140L121,668H277L179,204q-3-13-5-24.5T172,159q0-17 11.5-26t43.5-9h43L244,0H147Z"/>
      <glyph unicode="m" glyph-name="m" horiz-adv-x="895" d="M-20,0L85,496H221l5-64q23,28 62.5,53T384,510q59,0 92-20.5T523,427q36,44 81,63.5T701,510q75,0 109.5-37T845,370q0-18-2.5-38T835,290L773,0H617l56,263q5,23 8,42t3,33q0,29-13.5,41.5T628,392q-91,0-119-131L454,0H298l56,263q9,44 9,69q0,35-14,47.5T309,392q-46,0-75-34.5T191,258L136,0H-20Z"/>
      <glyph unicode="n" glyph-name="n" horiz-adv-x="581" d="M-20,0L85,496H221l5-64q21,29 63,53.5T397,510q59,0 95.5-33.5T529,366q0-19-2.5-40T519,281L459,0H303l56,263q9,39 9,65q0,34-14,49t-42,15q-93,0-122-138L136,0H-20Z"/>
      <glyph unicode="o" glyph-name="o" horiz-adv-x="576" d="M239-13q-70,0-123,26.5T34,89T5,204q0,88 37,157T146,470t156,40q66,0 119-24t84-72t31-119q0-88-36.5-158T396.5,27T239-13Zm6,118q46,0 76,26.5t45,69T381,292q0,55-24,77.5T292,392q-46,0-75.5-27.5t-43.5-70T159,206q0-25 7.5-48.5t26-38T245,105Z"/>
      <glyph unicode="p" glyph-name="p" horiz-adv-x="590" d="M-55-161L85,496H219l6-68q26,44 68,63t83,19q53,0 92.5-26T530,412t22-107q0-63-18.5-120t-53-101.5T397,13T287-13q-40,0-76.5,20T150,70L101-161H-55ZM261,105q45,0 74.5,25t44,65.5T394,282q0,54-23,82t-63,28q-44,0-74-27.5t-45-69T174,210q0-52 25.5-78.5T261,105Z"/>
      <glyph unicode="q" glyph-name="q" horiz-adv-x="601" d="M183-12Q101-12 52.5,45T4,196q0,62 18.5,118.5T75,415t82,69.5T263,510q41,0 79.5-19T404,427l36,69H575q-23-109-46.5-218.5T482,58q-4-16-6.5-30.5T473,2q0-17 10-26.5T520-34q32,0 88,13L580-151q-24-10-55-16t-63-6q-39,0-74.5,11.5t-57.5,39T308-48q0,25 5,44.5T326,56Q298,22 261,5T183-12Zm67,118q30,0 58.5,18.5t48.5,57T380,279q4,57-22.5,85.5T291,393q-54,0-91-41.5T162,224q-1-64 23.5-91T250,106Z"/>
      <glyph unicode="r" glyph-name="r" horiz-adv-x="391" d="M-20,0L85,496H208l7-87q26,46 61.5,73T377,510h26L371,358q-25,3-46,3q-65,0-96-34t-44-96L136,0H-20Z"/>
      <glyph unicode="s" glyph-name="s" horiz-adv-x="515" d="M229-13q-38,0-84.5,9t-88,37T-10,116l130,44q8-34 39-49t65-15q32,0 57,12t25,31q0,18-20,29t-51.5,20T168,208t-66.5,28.5T50,283T30,357q0,44 28,78.5T134.5,490T243,510q72,0 132.5-24T471,400L339,355q-10,26-36.5,35T241,399t-51-12t-16-25q0-19 20-31t52-20.5T314,292t68-26t52-42.5T454,156q0-77-60.5-123T229-13Z"/>
      <glyph unicode="t" glyph-name="t" horiz-adv-x="391" d="M193,0Q128,0 89,21.5T50,98q0,18 7,52l49,230H28L53,496h78l26,124H312L286,496H394L370,380H261L224,205q-3-13-5-24.5T217,160q0-17 11.5-26.5T272,124h43L289,0H193Z"/>
      <glyph unicode="u" glyph-name="u" horiz-adv-x="578" d="M159-12Q104-12 73,8T29.5,61.5T17,134q0,22 3,43.5T27,220L86,496H241L186,235q-2-10-4.5-26.5T179,175q0-26 10.5-47.5T231,106q39,0 72,30t47,98l56,262H561L456,0H321l-5,64Q295,30 255,9T159-12Z"/>
      <glyph unicode="v" glyph-name="v" horiz-adv-x="533" d="M107,0L35,496H186l33-339L398,496H568L285,0H107Z"/>
      <glyph unicode="w" glyph-name="w" horiz-adv-x="727" d="M54,0L35,496H181l4-321L313,496H463l-8-337L604,496H762L533,0H359l3,356L214,0H54Z"/>
      <glyph unicode="x" glyph-name="x" horiz-adv-x="536" d="M-71,0L179,270L66,496H216l60-120L387,496H571L340,246L464,0H313L242,141L113,0H-71Z"/>
      <glyph unicode="y" glyph-name="y" horiz-adv-x="527" d="M-44-161L-21-51H10q42,0 62.5,4.5t30,16T121,0L35,496H190l30-316L386,496H562L266,0q-33-56-57-88.5t-49-48t-61-20T5-161H-44Z"/>
      <glyph unicode="z" glyph-name="z" horiz-adv-x="528" d="M-40,0l26,121L296,375H65L91,496H539L513,375L203,121H462L437,0H-40Z"/>
      <glyph unicode="{" glyph-name="braceleft" horiz-adv-x="373" d="M180-162q-91,0-132,42T23,1L44,97q11,47 2.5,71T-6,192L20,315q47,0 64,25.5T110,409l21,96q13,58 33,91t48,48t63.5,19t79.5,4h55L384,548H351q-32,0-50-8.5T277,503L251,380q-14-63-48-89t-72-36l-1-3q47-13 62.5-44t4.5-81L172,13q-7-31 3-43t45-12h40L234-162H180Z"/>
      <glyph unicode="|" glyph-name="bar" horiz-adv-x="299" d="M59-161V668H205V-161H59Z"/>
      <glyph unicode="}" glyph-name="braceright" horiz-adv-x="373" d="M-70-162L-45-42h34q32,0 50.5,8.5T64,2L90,126q14,64 48,90t72,36l1,3q-46,14-61.5,44T144,379l26,119q6,29-5,39.5T120,548H81l25,119h55q88,0 130-39.5T316,505l-20-96q-10-48-1.5-71T346,315L320,192q-46,0-64-26T229,97L210,1q-12-58-32-91t-48.5-48.5T65-158t-81-4H-70Z"/>
      <glyph unicode="~" glyph-name="asciitilde" horiz-adv-x="533" d="M324,167q-26,0-46.5,9T239,197t-36,21t-39,9q-18,0-34-15t-24-66L9,184q22,77 61,121.5T180,350q28,0 50-9t40-21t34.5-21t34.5-9q17,0 33.5,15.5T396,370l98-37q-22-77-60.5-121.5T324,167Z"/>
      <glyph unicode="&#xa0;" glyph-name="uni00A0" horiz-adv-x="320"/>
      <glyph unicode="&#xa1;" glyph-name="exclamdown" horiz-adv-x="297" d="M166,324q-40,0-68.5,28T69,420q0,41 28.5,69.5T166,518q41,0 69-28.5T263,420q0-40-28-68t-69-28ZM-55-162L-18,11L77,264H192L180,11L143-162H-55Z"/>
      <glyph unicode="&#xa2;" glyph-name="cent" horiz-adv-x="531" d="M155-87L172-8Q90,6 46,60.5T2,195q0,14 1.5,28T7,251q21,111 94,179t181,78l13,63h73l-14-64q53-7 93.5-35.5T511,381L378,335q-6,23-18.5,36T329,388L270,109q20,4 37.5,14.5T341,155l123-48Q420,45 362,18.5T245-12L229-87H155Zm43,201l57,269q-30-13-55.5-44T162,250q-6-30-6-52q0-34 11.5-54.5T198,114Z"/>
      <glyph unicode="&#xa3;" glyph-name="sterling" horiz-adv-x="617" d="M33-12L2,104q83,36 119.5,84.5T158,277q0,10-3,18H43l15,73h75q-7,25-13.5,53T113,478q0,53 24,91.5T201,632t88.5,35.5T388,679q177,0 244-142L485,487q-22,38-48,53.5T374,556q-49,0-76-21t-27-64q0-41 27-103H458l-15-73H315q2-8 2-16q0-33-33.5-78.5T181,117q23,12 45,14.5t43,2.5q38,0 72.5-10.5T407,113q27,0 54.5,8T517,144L535,23Q497,6 456.5-3T367-12q-35,0-66.5,9t-62,18T175,24q-22,0-57.5-6T33-12Z"/>
      <glyph unicode="&#xa4;" glyph-name="currency" horiz-adv-x="678" d="M144,75L92,127l67,67q-19,27-30,59t-11,68q0,35 11,66.5T159,446L92,513l52,52l67-67q27,20 59,30.5T337,539q36,0 67.5-10.5T463,498l67,67l52-52l-67-67q40-55 40-125q0-36-10.5-68T515,194l67-67L530,75l-67,67q-55-40-126-40T211,142L144,75ZM337,221q41,0 70,29.5T436,321t-29,69.5T337,419t-70-28.5T238,321t29-70.5T337,221Z"/>
      <glyph unicode="&#xa5;" glyph-name="yen" horiz-adv-x="700" d="M191,0l16,75H83l16,73H222l14,64H112l16,74h97L82,667H253l86-277L558,667H762L442,286H544l-16-74H398l-13-64H515L499,75H370L354,0H191Z"/>
      <glyph unicode="&#xa6;" glyph-name="brokenbar" horiz-adv-x="281" d="M59,358V668H187V358H59Zm0-519V150H187V-161H59Z"/>
      <glyph unicode="&#xa7;" glyph-name="section" horiz-adv-x="563" d="M138-174q-72,0-126.5,32T-59-49L81-2q3-27 24.5-39.5T152-54q29,0 54,15.5T231,5q0,21-18.5,39.5t-46,37T112,120q-16,12-39,31T32.5,197T15,261q0,46 19.5,77.5t52,53.5T159,429q-12,29-12,61q0,46 24.5,89T246,650.5T371,679q65,0 120-22t80-79L432,532q-5,16-24,23.5T367,563q-25,0-46.5-10T299,523q0-22 29.5-42.5T407,422q12-9 31.5-23t40-33t34-42.5T526,271q0-50-31.5-96T375,97q13-23 13-57q0-35-16-72.5T324-102t-78.5-52T138-174ZM304,177q61,25 61,55q0,12-10.5,25T325,284q-10,8-28,21t-35.5,26T233,352q-30-6-46-20t-16-31q0-23 27-44q9-7 26-20t35.5-26.5T291,187t13-10Z"/>
      <glyph unicode="&#xa8;" glyph-name="dieresis" horiz-adv-x="455" d="M199,578q-29,0-50,20.5T128,648t21,50t50,21t49.5-21T269,648t-20.5-49.5T199,578Zm194,0q-29,0-50,20.5T322,648t21,50t50,21t49-21t20-50t-20-49.5T393,578Z"/>
      <glyph unicode="&#xa9;" glyph-name="copyright" horiz-adv-x="814" d="M407-12q-71,0-133.5,27t-110,74.5T89,199.5T62,334q0,71 27,133.5t74.5,110t110,74.5T407,679q72,0 135-27t110.5-74.5t74.5-110T754,334q0-72-27-134.5t-74.5-110T542,15T407-12Zm0,69q57,0 107.5,21.5T603,138t59.5,88.5T684,334T662.5,441T603,529t-88.5,59.5T407,610T300.5,588.5T213,529t-59.5-88T132,334t21.5-107.5T213,138t87.5-59.5T407,57Zm3,88q-88,0-135.5,52T227,334q0,57 23.5,99T315,498.5T410,522q47,0 92.5-20.5T573,428l-92-34q-9,23-26,33t-39,10q-29,0-53-23.5T339,334q0-58 24.5-81T416,230q47,0 66,34l90-33q-28-48-73-67t-89-19Z"/>
      <glyph unicode="&#xaa;" glyph-name="ordfeminine" horiz-adv-x="395" d="M174,396q-43,0-65.5,23.5T86,477q0,43 29.5,64T192,570.5T289,582q2,3 3.5,8.5T294,601q0,10-10,17t-30,7q-13,0-27-6t-20-20l-80,32q21,31 54,46t85,15q32,0 59.5-8.5t45-29.5T388,596q0-21-6-47q-9-39-14.5-73.5T358,403H272l-2,32q-14-16-37-27.5T174,396Zm48,68q17,0 32.5,11T277,510l5,18l-26-3q-31-4-47-11.5T193,491q-1-13 8-20t21-7Z"/>
      <glyph unicode="&#xab;" glyph-name="guillemotleft" horiz-adv-x="665" d="M379,40L276,250L469,460H640L443,244L543,40H379ZM139,40L36,250L229,460H400L203,244L303,40H139Z"/>
      <glyph unicode="&#xac;" glyph-name="logicalnot" horiz-adv-x="696" d="M457,56V295H73V422H585V56H457Z"/>
      <glyph unicode="&#xad;" glyph-name="uni00AD" horiz-adv-x="376" d="M10,184L38,313H364L336,184H10Z"/>
      <glyph unicode="&#xae;" glyph-name="registered" horiz-adv-x="814" d="M407-12q-71,0-133.5,27t-110,74.5T89,199.5T62,334q0,71 27,133.5t74.5,110t110,74.5T407,679q72,0 135-27t110.5-74.5t74.5-110T754,334q0-72-27-134.5t-74.5-110T542,15T407-12Zm0,69q57,0 107.5,21.5T603,138t59.5,88.5T684,334T662.5,441T603,529t-88.5,59.5T407,610T300.5,588.5T213,529t-59.5-88T132,334t21.5-107.5T213,138t87.5-59.5T407,57ZM250,161V529H401q48,0 85.5-9.5t59.5-34T568,415q0-31-17.5-61T481,310L588,161H480L379,300H347V161H250Zm97,214h52q29,0 48.5,7.5T467,414t-19.5,31.5T399,453H347V375Z"/>
      <glyph unicode="&#xaf;" glyph-name="macron" horiz-adv-x="405" d="M104,570l21,98H424l-21-98H104Z"/>
      <glyph unicode="&#xb0;" glyph-name="degree" horiz-adv-x="411" d="M245,354q-44,0-81,22t-59,59T83,517t22,81.5T164,657t81,22q45,0 82-22t58.5-58.5T407,517t-21.5-82T327,376t-82-22Zm0,90q31,0 52,21.5T318,517t-21,51.5T245,590q-30,0-51.5-21.5T172,517t21.5-51.5T245,444Z"/>
      <glyph unicode="&#xb1;" glyph-name="plusminus" horiz-adv-x="701" d="M248,180V283H56V391H248V495H376V391H568V283H376V180H248ZM56,0V128H568V0H56Z"/>
      <glyph unicode="&#xb2;" glyph-name="uni00B2" horiz-adv-x="407" d="M70,403l17,81q40,22 81,45.5T243.5,577t56,49T321,675q0,18-13.5,27T277,711q-45,0-61-44l-84,33q43,88 156,88q59,0 99-22.5T427,689q0-39-28-77t-70.5-69.5T240,491H388l-18-88H70Z"/>
      <glyph unicode="&#xb3;" glyph-name="uni00B3" horiz-adv-x="425" d="M253,396q-50,0-91,21T98,478l98,33q14-39 58-39q23,0 37,13t14,29q0,21-18.5,29.5T233,552H218l18,84h15q32,0 52.5,10.5T324,680q0,13-11.5,23T278,713q-18,0-34-7t-27-30l-83,33q23,39 60,59t92,20q59,0 100.5-25T428,688q0-34-18.5-57T362,599q20-10 34-30.5T410,521q0-40-21.5-68t-57-42.5T253,396Z"/>
      <glyph unicode="&#xb4;" glyph-name="acute" horiz-adv-x="320" d="M105,574q0,0 14.5,14T155,623t42,42t35.5,35.5T248,715q15,12 34,12q28,0 44-21q13-14 13-35q0-26-21-43q-2-2-16-10.5T271,599t-30-17.5T228,574H105Z"/>
      <glyph unicode="&#xb5;" glyph-name="uni00B5" horiz-adv-x="599" d="M-53-161L86,496H241L186,235q-9-40-9-73q0-25 14.5-40.5T231,106q39,0 72,30t47,98l56,262H561L490,163q-9-39 36-39q7,0 13.5,1t14.5,5L528,6q-19-4-33-5T466,0q-62,0-97,17T326,72q-24-31-61.5-57.5T171-12q-26,0-47,7q0-24-1-46.5T117-95l-14-66H-53Z"/>
      <glyph unicode="&#xb6;" glyph-name="paragraph" horiz-adv-x="530" d="M62-161l97,457q-49,14-78.5,52T51,438q0,10 1,20t3,20q12,53 46.5,96t83,68.5T285,668H572l-15-68H509L347-161H252L413,600H320L158-161H62Z"/>
      <glyph unicode="&#xb7;" glyph-name="periodcentered" horiz-adv-x="305" d="M136,151q-40,0-69,28.5T38,248q0,41 29,69t69,28t68.5-28T233,248q0-40-28.5-68.5T136,151Z"/>
      <glyph unicode="&#xb8;" glyph-name="cedilla" horiz-adv-x="322" d="M61-195q-31,0-57,5.5T-35-178l26,50q29-13 60-13q21,0 36.5,8T103-109q0,11-11,18T64-84q-13,0-18-2.5T35-89q-7,0-13,4.5T16-71q0,7 6,14L91,26L127,1L87-47q15,3 28,3q35,0 57-16.5T194-103q0-36-20.5-56T122-187t-61-8Z"/>
      <glyph unicode="&#xb9;" glyph-name="uni00B9" horiz-adv-x="294" d="M153,403l52,244H121l19,88q40,0 67,6.5T255,779h82L257,403H153Z"/>
      <glyph unicode="&#xba;" glyph-name="ordmasculine" horiz-adv-x="412" d="M240,396q-58,0-98,30.5T102,521q0,76 46.5,122T271,689q58,0 97.5-30T408,565q0-58-23.5-95.5T323,414t-83-18Zm8,77q23,0 40,20.5T305,557q0,28-12,41.5T263,612q-23,0-40.5-20T205,528q0-28 12-41.5T248,473Z"/>
      <glyph unicode="&#xbb;" glyph-name="guillemotright" horiz-adv-x="666" d="M232,40L429,256L329,460H493L596,250L403,40H232ZM-8,40L189,256L89,460H253L356,250L163,40H-8Z"/>
      <glyph unicode="&#xbc;" glyph-name="onequarter" horiz-adv-x="930" d="M129,292l52,244H97l19,87q40,0 67,7t48,38h82L233,292H129ZM129,0L597,667H724L256,0H129ZM646,0l16,75H470l17,77L715,375H829L784,161h57L822,75H765L749,0H646ZM602,161h78l20,96l-98-96Z"/>
      <glyph unicode="&#xbd;" glyph-name="onehalf" horiz-adv-x="919" d="M129,292l52,244H97l19,87q40,0 67,7t48,38h82L233,292H129ZM129,0L597,667H724L256,0H129ZM496,0l17,81q39,21 80,44.5T669,173t56.5,49T747,272q0,18-14,27t-31,9q-45,0-60-44l-84,33q41,87 156,87q59,0 99.5-22.5T854,286q0-39-28-77t-71-69.5T666,88H815L796,0H496Z"/>
      <glyph unicode="&#xbe;" glyph-name="threequarters" horiz-adv-x="958" d="M230,287q-50,0-91,21T75,369l98,33q14-39 58-39q23,0 37,13t14,29q0,21-18.5,29.5T210,443H195l18,84h15q32,0 52.5,10.5T301,571q0,13-11.5,23T255,604q-18,0-34-7t-27-30l-83,33q23,39 60,59t92,20q59,0 100.5-25T405,579q0-34-18.5-57T339,490q20-10 34-30.5T387,412q0-40-21.5-68t-57-42.5T230,287ZM198,0L666,667H793L325,0H198ZM674,0l16,75H499l16,77L744,375H858L812,161h57L851,75H794L778,0H674ZM630,161h79l20,96l-99-96Z"/>
      <glyph unicode="&#xbf;" glyph-name="questiondown" horiz-adv-x="634" d="M364,325q-40,0-68,28t-28,68q0,41 28,69.5T364,519q41,0 69.5-28.5T462,421q0-40-28.5-68T364,325Zm53-60q-3-23-10-41q-16-43-50.5-74.5T276,97q-25-11-53-23.5T175,46T154,11q-1-28 23-41.5T246-44q48,0 84,17t49,49L517-33q-43-76-116-107.5T234-172q-46,0-91,8T61-138.5T1.5-92T-21-21q0,49 21,83.5T56.5,121T134,163q39,17 64,32t41,37q5,7 9,15t8,18H417Z"/>
      <glyph unicode="&#xc0;" glyph-name="Agrave" horiz-adv-x="698" d="M-65,0L329,668H512L623,0H458L442,119H187L121,0H-65ZM255,247H427L395,501L255,247ZM396,731q-5,4-18,15t-26.5,24T330,793q-13,16-13,37q0,23 16.5,38.5T372,884q28,0 44-21q10-12 23.5-32T467,789.5t24-38T504,731H396Z"/>
      <glyph unicode="&#xc1;" glyph-name="Aacute" horiz-adv-x="698" d="M-65,0L329,668H512L623,0H458L442,119H187L121,0H-65ZM255,247H427L395,501L255,247ZM370,746q0,0 14.5,14T420,795t42,42t35.5,35.5T513,887q15,12 34,12q28,0 44-21q13-14 13-35q0-26-21-43q-2-2-16-10.5T536,771t-30-17.5T493,746H370Z"/>
      <glyph unicode="&#xc2;" glyph-name="Acircumflex" horiz-adv-x="698" d="M-65,0L329,668H512L623,0H458L442,119H187L121,0H-65ZM255,247H427L395,501L255,247ZM237,731L426,868q20,15 44,15q33,0 55-25L643,731H527l-59,61l-84-61H237Z"/>
      <glyph unicode="&#xc3;" glyph-name="Atilde" horiz-adv-x="698" d="M-65,0L329,668H512L623,0H458L442,119H187L121,0H-65ZM255,247H427L395,501L255,247ZM528,725q-28,0-46.5,6T449,744.5T421,758t-34,6q-31,0-51-33H247q9,29 28.5,55.5t47,43T383,846q40,0 63-10t39.5-20.5T522,805q22,0 33,8t20,18t24,14q3,1 6,1.5t6,0.5q16,0 27.5-11.5T650,808q0-15-10-28q-10-15-36.5-35T528,725Z"/>
      <glyph unicode="&#xc4;" glyph-name="Adieresis" horiz-adv-x="698" d="M-65,0L329,668H512L623,0H458L442,119H187L121,0H-65ZM255,247H427L395,501L255,247ZM358,726q-29,0-50,20.5T287,796t21,50t50,21t49.5-21T428,796t-20.5-49.5T358,726Zm194,0q-29,0-50,20.5T481,796t21,50t50,21t49-21t20-50t-20-49.5T552,726Z"/>
      <glyph unicode="&#xc5;" glyph-name="Aring" horiz-adv-x="698" d="M-65,0L329,668H512L623,0H458L442,119H187L121,0H-65ZM255,247H427L395,501L255,247ZM432,614q-36,0-66,18t-48,48.5T300,747q0,37 18,66.5T366,861t66,18q37,0 67-18t48-47.5T565,747q0-36-18-66.5T499,632t-67-18Zm0,86q20,0 33.5,14T479,747q0,20-13.5,33.5T432,794q-19,0-33-13.5T385,747q0-19 14-33t33-14Z"/>
      <glyph unicode="&#xc6;" glyph-name="AE" horiz-adv-x="1016" d="M-65,0L553,668h518l-29-139H685L660,413H879L849,275H631L602,139H959L929,0H411l26,119H241L136,0H-65ZM354,247H464l37,174L354,247Z"/>
      <glyph unicode="&#xc7;" glyph-name="Ccedilla" horiz-adv-x="673" d="M322-12q-82,0-148,30.5t-104,92T32,265q0,89 27,164.5T136,561t121.5,87.5T417,680q52,0 103.5-14.5T612,617t59-92L525,476q-18,42-50.5,58T401,550q-47,0-84-22.5T254,467t-40-85.5T200,283q0-81 38.5-121.5T338,120q38,0 74,16t68,58l136-53Q570,70 497,29T322-12ZM262-195q-31,0-57,5.5T166-178l26,50q29-13 60-13q21,0 36.5,8T304-109q0,11-11,18t-28,7q-13,0-18-2.5T236-89q-7,0-13,4.5T217-71q0,7 6,14l69,83L328,1L288-47q15,3 28,3q35,0 57-16.5T395-103q0-36-20.5-56T323-187t-61-8Z"/>
      <glyph unicode="&#xc8;" glyph-name="Egrave" horiz-adv-x="582" d="M-23,0L119,668H637L607,529H251L226,413H443L414,274H197L168,139H524L495,0H-23ZM353,731q-5,4-18,15t-26.5,24T287,793q-13,16-13,37q0,23 16.5,38.5T329,884q28,0 44-21q10-12 23.5-32T424,789.5t24-38T461,731H353Z"/>
      <glyph unicode="&#xc9;" glyph-name="Eacute" horiz-adv-x="582" d="M-23,0L119,668H637L607,529H251L226,413H443L414,274H197L168,139H524L495,0H-23ZM311,731q36,35 70.5,69.5T445,863q14,14 24.5,17.5T489,884q26,0 41-17.5T545,828q0-26-20-43q-5-4-19.5-13t-31-18.5t-28.5-16T434,731H311Z"/>
      <glyph unicode="&#xca;" glyph-name="Ecircumflex" horiz-adv-x="582" d="M-23,0L119,668H637L607,529H251L226,413H443L414,274H197L168,139H524L495,0H-23ZM194,731L383,868q20,15 44,15q33,0 55-25L600,731H484l-59,61l-84-61H194Z"/>
      <glyph unicode="&#xcb;" glyph-name="Edieresis" horiz-adv-x="582" d="M-23,0L119,668H637L607,529H251L226,413H443L414,274H197L168,139H524L495,0H-23ZM315,726q-29,0-50,20.5T244,796t21,50t50,21t49.5-21T385,796t-20.5-49.5T315,726Zm194,0q-29,0-50,20.5T438,796t21,50t50,21t49-21t20-50t-20-49.5T509,726Z"/>
      <glyph unicode="&#xcc;" glyph-name="Igrave" horiz-adv-x="459" d="M-13,0L13,124h92l90,420H103l26,124H474L447,544H355L267,124h91L331,0H-13ZM270,731q-5,4-18,15t-26.5,24T204,793q-13,16-13,37q0,23 16.5,38.5T246,884q28,0 44-21q10-12 23.5-32T341,789.5t24-38T378,731H270Z"/>
      <glyph unicode="&#xcd;" glyph-name="Iacute" horiz-adv-x="459" d="M-13,0L13,124h92l90,420H103l26,124H474L447,544H355L267,124h91L331,0H-13ZM228,731q36,35 70.5,69.5T362,863q14,14 24.5,17.5T406,884q26,0 41-17.5T462,828q0-26-20-43q-5-4-19.5-13t-31-18.5t-28.5-16T351,731H228Z"/>
      <glyph unicode="&#xce;" glyph-name="Icircumflex" horiz-adv-x="459" d="M-13,0L13,124h92l90,420H103l26,124H474L447,544H355L267,124h91L331,0H-13ZM111,731L300,868q20,15 44,15q33,0 55-25L517,731H401l-59,61l-84-61H111Z"/>
      <glyph unicode="&#xcf;" glyph-name="Idieresis" horiz-adv-x="459" d="M-13,0L13,124h92l90,420H103l26,124H474L447,544H355L267,124h91L331,0H-13ZM232,726q-29,0-50,20.5T161,796t21,50t50,21t49.5-21T302,796t-20.5-49.5T232,726Zm194,0q-29,0-50,20.5T355,796t21,50t50,21t49-21t20-50t-20-49.5T426,726Z"/>
      <glyph unicode="&#xd0;" glyph-name="Eth" horiz-adv-x="738" d="M24,0L82,275H6L36,412h76l54,256H360q176,0 261-74t85-201q0-130-59-217.5T484.5,44T247,0H24ZM214,133h63q128,0 194.5,72.5T538,402q0,68-38,101.5T358,537H300L273,412H389L359,275H244L214,133Z"/>
      <glyph unicode="&#xd1;" glyph-name="Ntilde" horiz-adv-x="715" d="M-23,0L119,668H318L478,183L582,668H737L595,0H396L236,485L133,0H-23ZM557,725q-28,0-46.5,6T478,744.5T450,758t-34,6q-31,0-51-33H276q9,29 28.5,55.5t47,43T412,846q40,0 63-10t39.5-20.5T551,805q22,0 33,8t20,18t24,14q3,1 6,1.5t6,0.5q16,0 27.5-11.5T679,808q0-15-10-28q-10-15-36.5-35T557,725Z"/>
      <glyph unicode="&#xd2;" glyph-name="Ograve" horiz-adv-x="763" d="M335-12q-96,0-163.5,35.5T68,122.5T32,269q0,86 29,160.5t82,131t125,88T426,680q91,0 159.5-33T693,550t39-157q0-87-29.5-160.5T619.5,104t-126-85.5T335-12Zm14,130q65,0 113,36.5T537,251t27,128q0,59-21.5,96.5t-55.5,56T414,550q-49,0-88.5-22.5T258,467t-42.5-85T201,286q0-46 16.5-84T267,141t82-23Zm76,613q-5,4-18,15t-26.5,24T359,793q-13,16-13,37q0,23 16.5,38.5T401,884q28,0 44-21q10-12 23.5-32T496,789.5t24-38T533,731H425Z"/>
      <glyph unicode="&#xd3;" glyph-name="Oacute" horiz-adv-x="763" d="M335-12q-96,0-163.5,35.5T68,122.5T32,269q0,86 29,160.5t82,131t125,88T426,680q91,0 159.5-33T693,550t39-157q0-87-29.5-160.5T619.5,104t-126-85.5T335-12Zm14,130q65,0 113,36.5T537,251t27,128q0,59-21.5,96.5t-55.5,56T414,550q-49,0-88.5-22.5T258,467t-42.5-85T201,286q0-46 16.5-84T267,141t82-23Zm37,613q36,35 70.5,69.5T520,863q14,14 24.5,17.5T564,884q26,0 41-17.5T620,828q0-26-20-43q-5-4-19.5-13t-31-18.5t-28.5-16T509,731H386Z"/>
      <glyph unicode="&#xd4;" glyph-name="Ocircumflex" horiz-adv-x="763" d="M335-12q-96,0-163.5,35.5T68,122.5T32,269q0,86 29,160.5t82,131t125,88T426,680q91,0 159.5-33T693,550t39-157q0-87-29.5-160.5T619.5,104t-126-85.5T335-12Zm14,130q65,0 113,36.5T537,251t27,128q0,59-21.5,96.5t-55.5,56T414,550q-49,0-88.5-22.5T258,467t-42.5-85T201,286q0-46 16.5-84T267,141t82-23ZM266,731L455,868q20,15 44,15q33,0 55-25L672,731H556l-59,61l-84-61H266Z"/>
      <glyph unicode="&#xd5;" glyph-name="Otilde" horiz-adv-x="763" d="M335-12q-96,0-163.5,35.5T68,122.5T32,269q0,86 29,160.5t82,131t125,88T426,680q91,0 159.5-33T693,550t39-157q0-87-29.5-160.5T619.5,104t-126-85.5T335-12Zm14,130q65,0 113,36.5T537,251t27,128q0,59-21.5,96.5t-55.5,56T414,550q-49,0-88.5-22.5T258,467t-42.5-85T201,286q0-46 16.5-84T267,141t82-23ZM557,725q-28,0-46.5,6T478,744.5T450,758t-34,6q-31,0-51-33H276q9,29 28.5,55.5t47,43T412,846q40,0 63-10t39.5-20.5T551,805q22,0 33,8t20,18t24,14q3,1 6,1.5t6,0.5q16,0 27.5-11.5T679,808q0-15-10-28q-10-15-36.5-35T557,725Z"/>
      <glyph unicode="&#xd6;" glyph-name="Odieresis" horiz-adv-x="763" d="M335-12q-96,0-163.5,35.5T68,122.5T32,269q0,86 29,160.5t82,131t125,88T426,680q91,0 159.5-33T693,550t39-157q0-87-29.5-160.5T619.5,104t-126-85.5T335-12Zm14,130q65,0 113,36.5T537,251t27,128q0,59-21.5,96.5t-55.5,56T414,550q-49,0-88.5-22.5T258,467t-42.5-85T201,286q0-46 16.5-84T267,141t82-23Zm38,608q-29,0-50,20.5T316,796t21,50t50,21t49.5-21T457,796t-20.5-49.5T387,726Zm194,0q-29,0-50,20.5T510,796t21,50t50,21t49-21t20-50t-20-49.5T581,726Z"/>
      <glyph unicode="&#xd7;" glyph-name="multiply" horiz-adv-x="618" d="M149,22L58,112L194,248L55,385l91,91L284,337L421,476l91-91L373,248L509,112L418,22L284,158L149,22Z"/>
      <glyph unicode="&#xd8;" glyph-name="Oslash" horiz-adv-x="761" d="M333-12Q268-12 215,5.5T124,54L55-11L4,43l71,66Q30,177 30,269q0,13 1.5,26T34,321q14,109 68,189.5t137.5,125T425,680q122,0 201-58l69,64l51-53l-68-64q52-69 52-175q0-23-3-49q-11-105-64-185.5T525,33.5T333-12ZM206,231L510,514q-20,18-45.5,27T413,550q-49,0-94-25.5T242.5,448T201,321q-1-9-1.5-18T199,286q0-31 7-55ZM348,118q56,0 101,29.5T523.5,228T560,345q1,9 1.5,18t0.5,17q0,20-3,37.5T551,451L241,163q19-21 45.5-33T348,118Z"/>
      <glyph unicode="&#xd9;" glyph-name="Ugrave" horiz-adv-x="679" d="M266-12q-90,0-142.5,26t-75,71T26,187q0,25 3.5,51T39,292l81,376H281L198,279q-4-21-7-39.5T188,204q0-40 22.5-63.5T294,117q55,0 86.5,20t49,56.5T457,279l83,389H701L621,292q-20-94-50.5-153.5T497.5,46T397.5,0.5T266-12ZM383,731q-5,4-18,15t-26.5,24T317,793q-13,16-13,37q0,23 16.5,38.5T359,884q28,0 44-21q10-12 23.5-32T454,789.5t24-38T491,731H383Z"/>
      <glyph unicode="&#xda;" glyph-name="Uacute" horiz-adv-x="679" d="M266-12q-90,0-142.5,26t-75,71T26,187q0,25 3.5,51T39,292l81,376H281L198,279q-4-21-7-39.5T188,204q0-40 22.5-63.5T294,117q55,0 86.5,20t49,56.5T457,279l83,389H701L621,292q-20-94-50.5-153.5T497.5,46T397.5,0.5T266-12Zm75,743q36,35 70.5,69.5T475,863q14,14 24.5,17.5T519,884q26,0 41-17.5T575,828q0-26-20-43q-5-4-19.5-13t-31-18.5t-28.5-16T464,731H341Z"/>
      <glyph unicode="&#xdb;" glyph-name="Ucircumflex" horiz-adv-x="679" d="M266-12q-90,0-142.5,26t-75,71T26,187q0,25 3.5,51T39,292l81,376H281L198,279q-4-21-7-39.5T188,204q0-40 22.5-63.5T294,117q55,0 86.5,20t49,56.5T457,279l83,389H701L621,292q-20-94-50.5-153.5T497.5,46T397.5,0.5T266-12ZM224,731L413,868q20,15 44,15q33,0 55-25L630,731H514l-59,61l-84-61H224Z"/>
      <glyph unicode="&#xdc;" glyph-name="Udieresis" horiz-adv-x="679" d="M266-12q-90,0-142.5,26t-75,71T26,187q0,25 3.5,51T39,292l81,376H281L198,279q-4-21-7-39.5T188,204q0-40 22.5-63.5T294,117q55,0 86.5,20t49,56.5T457,279l83,389H701L621,292q-20-94-50.5-153.5T497.5,46T397.5,0.5T266-12Zm79,738q-29,0-50,20.5T274,796t21,50t50,21t49.5-21T415,796t-20.5-49.5T345,726Zm194,0q-29,0-50,20.5T468,796t21,50t50,21t49-21t20-50t-20-49.5T539,726Z"/>
      <glyph unicode="&#xdd;" glyph-name="Yacute" horiz-adv-x="700" d="M191,0l51,241L82,668H253l86-277L558,668H762L404,241L354,0H191ZM330,731q36,35 70.5,69.5T464,863q14,14 24.5,17.5T508,884q26,0 41-17.5T564,828q0-26-20-43q-5-4-19.5-13t-31-18.5t-28.5-16T453,731H330Z"/>
      <glyph unicode="&#xde;" glyph-name="Thorn" horiz-adv-x="623" d="M-23,0L119,668H280L259,563h88q79,0 138.5-15.5t93-53T612,389q0-21-3-45q-10-73-45-116t-86-64.5T369,135t-114-7H166L139,0H-23ZM196,269h98q56,0 86,11t43.5,28.5T441,347q3,14 3,25q0,27-23.5,40.5T332,426H230L196,269Z"/>
      <glyph unicode="&#xdf;" glyph-name="germandbls" horiz-adv-x="631" d="M303-13q-13,0-25.5,0.5T253-11L241,123q41-11 71-11q52,0 82,26.5T424,214q0,84-117,84H277l25,117h26q54,0 86,23t36,60q3,26-16,47t-69,21q-60,0-92-30T224,424L134,0H-23L70,435q20,91 59,144.5T229.5,656T376,679q63,0 114-17.5T571.5,609T602,520q0-50-21.5-87T516,368q32-16 51-51.5T586,232q0-82-35.5-136.5T451.5,14T303-13Z"/>
      <glyph unicode="&#xe0;" glyph-name="agrave" horiz-adv-x="545" d="M130-12Q92-12 58,3.5T3,48.5T-18,118q0,56 32,91.5T99,266t115.5,32T338,315q4,15 5,24t1,15q0,29-19,41t-53,12q-32,0-60-14.5T170,348L53,394q38,59 97,87.5T293,510q58,0 103.5-17.5T468,440t26-87q0-20-5.5-50T476,243.5T465,193q-7-32-12.5-69T444,54.5T441,0H297l-5,59Q258,18 220.5,3T130-12ZM208,91q41,0 70.5,26.5T325,213l3,12q-84-7-134.5-26.5T143,138q0-22 19-34.5T208,91Zm45,483q0,0-13,11t-29,25.5T186,635q-12,17-12,35q0,26 21,44q14,13 35,13q27,0 43-21q9-12 24-33.5T326.5,628T351,589.5T361,574H253Z"/>
      <glyph unicode="&#xe1;" glyph-name="aacute" horiz-adv-x="545" d="M130-12Q92-12 58,3.5T3,48.5T-18,118q0,56 32,91.5T99,266t115.5,32T338,315q4,15 5,24t1,15q0,29-19,41t-53,12q-32,0-60-14.5T170,348L53,394q38,59 97,87.5T293,510q58,0 103.5-17.5T468,440t26-87q0-20-5.5-50T476,243.5T465,193q-7-32-12.5-69T444,54.5T441,0H297l-5,59Q258,18 220.5,3T130-12ZM208,91q41,0 70.5,26.5T325,213l3,12q-84-7-134.5-26.5T143,138q0-22 19-34.5T208,91Zm33,483q0,0 14.5,14T291,623t42,42t35.5,35.5T384,715q15,12 34,12q28,0 44-21q13-14 13-35q0-26-21-43q-2-2-16-10.5T407,599t-30-17.5T364,574H241Z"/>
      <glyph unicode="&#xe2;" glyph-name="acircumflex" horiz-adv-x="545" d="M130-12Q92-12 58,3.5T3,48.5T-18,118q0,56 32,91.5T99,266t115.5,32T338,315q4,15 5,24t1,15q0,29-19,41t-53,12q-32,0-60-14.5T170,348L53,394q38,59 97,87.5T293,510q58,0 103.5-17.5T468,440t26-87q0-20-5.5-50T476,243.5T465,193q-7-32-12.5-69T444,54.5T441,0H297l-5,59Q258,18 220.5,3T130-12ZM208,91q41,0 70.5,26.5T325,213l3,12q-84-7-134.5-26.5T143,138q0-22 19-34.5T208,91ZM112,574L301,711q20,15 44,15q33,0 55-25L518,574H402l-59,61l-84-61H112Z"/>
      <glyph unicode="&#xe3;" glyph-name="atilde" horiz-adv-x="545" d="M130-12Q92-12 58,3.5T3,48.5T-18,118q0,56 32,91.5T99,266t115.5,32T338,315q4,15 5,24t1,15q0,29-19,41t-53,12q-32,0-60-14.5T170,348L53,394q38,59 97,87.5T293,510q58,0 103.5-17.5T468,440t26-87q0-20-5.5-50T476,243.5T465,193q-7-32-12.5-69T444,54.5T441,0H297l-5,59Q258,18 220.5,3T130-12ZM208,91q41,0 70.5,26.5T325,213l3,12q-84-7-134.5-26.5T143,138q0-22 19-34.5T208,91ZM402,568q-28,0-46.5,6T323,587.5T295,601t-34,6q-31,0-51-33H121q9,29 28.5,55.5t47,43T257,689q40,0 63-10t39.5-20.5T396,648q22,0 33,8t20,18t24,14q3,1 6,1.5t6,0.5q16,0 27.5-11.5T524,651q0-15-10-28q-10-15-36.5-35T402,568Z"/>
      <glyph unicode="&#xe4;" glyph-name="adieresis" horiz-adv-x="545" d="M130-12Q92-12 58,3.5T3,48.5T-18,118q0,56 32,91.5T99,266t115.5,32T338,315q4,15 5,24t1,15q0,29-19,41t-53,12q-32,0-60-14.5T170,348L53,394q38,59 97,87.5T293,510q58,0 103.5-17.5T468,440t26-87q0-20-5.5-50T476,243.5T465,193q-7-32-12.5-69T444,54.5T441,0H297l-5,59Q258,18 220.5,3T130-12ZM208,91q41,0 70.5,26.5T325,213l3,12q-84-7-134.5-26.5T143,138q0-22 19-34.5T208,91Zm16,487q-29,0-50,20.5T153,648t21,50t50,21t49.5-21T294,648t-20.5-49.5T224,578Zm194,0q-29,0-50,20.5T347,648t21,50t50,21t49-21t20-50t-20-49.5T418,578Z"/>
      <glyph unicode="&#xe5;" glyph-name="aring" horiz-adv-x="545" d="M130-12Q92-12 58,3.5T3,48.5T-18,118q0,56 32,91.5T99,266t115.5,32T338,315q4,15 5,24t1,15q0,29-19,41t-53,12q-32,0-60-14.5T170,348L53,394q38,59 97,87.5T293,510q58,0 103.5-17.5T468,440t26-87q0-20-5.5-50T476,243.5T465,193q-7-32-12.5-69T444,54.5T441,0H297l-5,59Q258,18 220.5,3T130-12ZM208,91q41,0 70.5,26.5T325,213l3,12q-84-7-134.5-26.5T143,138q0-22 19-34.5T208,91ZM315,535q-36,0-66,18t-48,48.5T183,668q0,37 18,66.5T249,782t66,18q37,0 67-18t48-47.5T448,668q0-36-18-66.5T382,553t-67-18Zm0,86q20,0 33.5,14T362,668q0,20-13.5,33.5T315,715q-19,0-33-13.5T268,668q0-19 14-33t33-14Z"/>
      <glyph unicode="&#xe6;" glyph-name="ae" horiz-adv-x="886" d="M165-13Q113-13 71.5,2T6,46t-24,72q0,57 32.5,92.5T100,265t117.5,26.5T345,299q5,25 7,36.5t2,17.5q0,29-19,41.5T282,407q-31,0-59-14.5T181,348L63,394q38,58 97,87t143,29q49,0 85-16t54-42q35,28 79,43t106,15q107,0 165-58t58-155q0-21-3-43t-8-45H473q-1-6-1.5-11T471,188q0-44 31-63t71-19q30,0 59,10t46,27L791,98Q749,45 687,16.5T549-12q-64,0-108,25T372,78Q329,30 275,8.5T165-13ZM487,299H715q1,4 1,7t0,7q0,43-28,64t-66,21q-41,0-81-24.5T487,299ZM212,91q34,3 55.5,17T302,141t19.5,37.5T332,209q-87,1-135-9.5T144,145q-3-25 15.5-41T212,91Z"/>
      <glyph unicode="&#xe7;" glyph-name="ccedilla" horiz-adv-x="531" d="M223-12Q118-12 60,45.5T2,194q0,90 40.5,161.5T154,468.5T316,510q65,0 116.5-27.5T511,382L378,336q-7,32-28,44t-51,12q-48,0-79.5-29.5T172,288t-16-90q0-50 24-71.5T236,105t57,10t48,39l123-47Q416,40 351.5,14T223-12ZM169-194q-31,0-57,5.5T73-177l26,50q29-13 60-13q21,0 36.5,8T211-108q0,11-11,18t-28,7q-13,0-18-2.5T143-88q-7,0-13,4.5T124-70q0,7 6,14l69,83L235,2L195-46q15,3 28,3q35,0 57-16.5T302-102q0-36-20.5-56T230-186t-61-8Z"/>
      <glyph unicode="&#xe8;" glyph-name="egrave" horiz-adv-x="567" d="M229-12Q124-12 63.5,42.5T3,196q0,66 22.5,123T89,419t96.5,67T307,510q107,0 165-57.5T530,298q0-21-2.5-43T519,209H154q-1-6-1.5-11T152,188q0-44 31-63t71-19q30,0 58.5,9.5T358,142L472,98Q429,45 367,16.5T229-12ZM168,299H395q1,4 1,7t0,7q0,44-28,65t-66,21q-40,0-80-25t-54-75ZM276,574q0,0-13,11t-29,25.5T209,635q-12,17-12,35q0,26 21,44q14,13 35,13q27,0 43-21q9-12 24-33.5T349.5,628T374,589.5T384,574H276Z"/>
      <glyph unicode="&#xe9;" glyph-name="eacute" horiz-adv-x="567" d="M229-12Q124-12 63.5,42.5T3,196q0,66 22.5,123T89,419t96.5,67T307,510q107,0 165-57.5T530,298q0-21-2.5-43T519,209H154q-1-6-1.5-11T152,188q0-44 31-63t71-19q30,0 58.5,9.5T358,142L472,98Q429,45 367,16.5T229-12ZM168,299H395q1,4 1,7t0,7q0,44-28,65t-66,21q-40,0-80-25t-54-75Zm96,275q0,0 14.5,14T314,623t42,42t35.5,35.5T407,715q15,12 34,12q28,0 44-21q13-14 13-35q0-26-21-43q-2-2-16-10.5T430,599t-30-17.5T387,574H264Z"/>
      <glyph unicode="&#xea;" glyph-name="ecircumflex" horiz-adv-x="567" d="M229-12Q124-12 63.5,42.5T3,196q0,66 22.5,123T89,419t96.5,67T307,510q107,0 165-57.5T530,298q0-21-2.5-43T519,209H154q-1-6-1.5-11T152,188q0-44 31-63t71-19q30,0 58.5,9.5T358,142L472,98Q429,45 367,16.5T229-12ZM168,299H395q1,4 1,7t0,7q0,44-28,65t-66,21q-40,0-80-25t-54-75ZM135,574L324,711q20,15 44,15q33,0 55-25L541,574H425l-59,61l-84-61H135Z"/>
      <glyph unicode="&#xeb;" glyph-name="edieresis" horiz-adv-x="567" d="M229-12Q124-12 63.5,42.5T3,196q0,66 22.5,123T89,419t96.5,67T307,510q107,0 165-57.5T530,298q0-21-2.5-43T519,209H154q-1-6-1.5-11T152,188q0-44 31-63t71-19q30,0 58.5,9.5T358,142L472,98Q429,45 367,16.5T229-12ZM168,299H395q1,4 1,7t0,7q0,44-28,65t-66,21q-40,0-80-25t-54-75Zm79,279q-29,0-50,20.5T176,648t21,50t50,21t49.5-21T317,648t-20.5-49.5T247,578Zm194,0q-29,0-50,20.5T370,648t21,50t50,21t49-21t20-50t-20-49.5T441,578Z"/>
      <glyph unicode="&#xec;" glyph-name="igrave" horiz-adv-x="326" d="M48,0l81,380H26L51,496H309L204,0H48ZM157,574q0,0-13,11t-29,25.5T90,635q-12,17-12,35q0,26 21,44q14,13 35,13q27,0 43-21q9-12 24-33.5T230.5,628T255,589.5T265,574H157Z"/>
      <glyph unicode="&#xed;" glyph-name="iacute" horiz-adv-x="359" d="M48,0l81,380H26L51,496H309L204,0H48Zm97,574q0,0 14.5,14T195,623t42,42t35.5,35.5T288,715q15,12 34,12q28,0 44-21q13-14 13-35q0-26-21-43q-2-2-16-10.5T311,599t-30-17.5T268,574H145Z"/>
      <glyph unicode="&#xee;" glyph-name="icircumflex" horiz-adv-x="326" d="M48,0l81,380H26L51,496H309L204,0H48ZM16,574L205,711q20,15 44,15q33,0 55-25L422,574H306l-59,61l-84-61H16Z"/>
      <glyph unicode="&#xef;" glyph-name="idieresis" horiz-adv-x="405" d="M76,0l81,380H54L79,496H337L232,0H76Zm80,578q-29,0-50,20.5T85,648t21,50t50,21t49.5-21T226,648t-20.5-49.5T156,578Zm194,0q-29,0-50,20.5T279,648t21,50t50,21t49-21t20-50t-20-49.5T350,578Z"/>
      <glyph unicode="&#xf0;" glyph-name="eth" horiz-adv-x="581" d="M228-12Q166-12 122.5,6.5T52.5,56T14,125T2,201q0,74 33.5,131.5t92,90.5T262,456q41,0 84-19.5T409,384q2,21 0,48q-2,29-11,59.5T366,547l-77-64l-37,47l63,54q-19,9-46,14.5T207,604l26,122q62-2 109-16t82-37l74,61l37-48l-65-53q45-49 63.5-118.5T547,371q-8-136-53.5-220.5T379,27T228-12Zm9,113q62,0 91,39.5T357,238q0,47-26,73.5T261,338q-52,0-86-37.5T141,205q0-45 27-74.5T237,101Z"/>
      <glyph unicode="&#xf1;" glyph-name="ntilde" horiz-adv-x="581" d="M-20,0L85,496H221l5-64q21,29 63,53.5T397,510q59,0 95.5-33.5T529,366q0-19-2.5-40T519,281L459,0H303l56,263q9,39 9,65q0,34-14,49t-42,15q-93,0-122-138L136,0H-20ZM448,568q-28,0-46.5,6T369,587.5T341,601t-34,6q-31,0-51-33H167q9,29 28.5,55.5t47,43T303,689q40,0 63-10t39.5-20.5T442,648q22,0 33,8t20,18t24,14q3,1 6,1.5t6,0.5q16,0 27.5-11.5T570,651q0-15-10-28q-10-15-36.5-35T448,568Z"/>
      <glyph unicode="&#xf2;" glyph-name="ograve" horiz-adv-x="576" d="M239-13q-70,0-123,26.5T34,89T5,204q0,88 37,157T146,470t156,40q66,0 119-24t84-72t31-119q0-88-36.5-158T396.5,27T239-13Zm6,118q46,0 76,26.5t45,69T381,292q0,55-24,77.5T292,392q-46,0-75.5-27.5t-43.5-70T159,206q0-25 7.5-48.5t26-38T245,105Zm27,469q0,0-13,11t-29,25.5T205,635q-12,17-12,35q0,26 21,44q14,13 35,13q27,0 43-21q9-12 24-33.5T345.5,628T370,589.5T380,574H272Z"/>
      <glyph unicode="&#xf3;" glyph-name="oacute" horiz-adv-x="576" d="M239-13q-70,0-123,26.5T34,89T5,204q0,88 37,157T146,470t156,40q66,0 119-24t84-72t31-119q0-88-36.5-158T396.5,27T239-13Zm6,118q46,0 76,26.5t45,69T381,292q0,55-24,77.5T292,392q-46,0-75.5-27.5t-43.5-70T159,206q0-25 7.5-48.5t26-38T245,105Zm15,469q0,0 14.5,14T310,623t42,42t35.5,35.5T403,715q15,12 34,12q28,0 44-21q13-14 13-35q0-26-21-43q-2-2-16-10.5T426,599t-30-17.5T383,574H260Z"/>
      <glyph unicode="&#xf4;" glyph-name="ocircumflex" horiz-adv-x="576" d="M239-13q-70,0-123,26.5T34,89T5,204q0,88 37,157T146,470t156,40q66,0 119-24t84-72t31-119q0-88-36.5-158T396.5,27T239-13Zm6,118q46,0 76,26.5t45,69T381,292q0,55-24,77.5T292,392q-46,0-75.5-27.5t-43.5-70T159,206q0-25 7.5-48.5t26-38T245,105ZM131,574L320,711q20,15 44,15q33,0 55-25L537,574H421l-59,61l-84-61H131Z"/>
      <glyph unicode="&#xf5;" glyph-name="otilde" horiz-adv-x="576" d="M239-13q-70,0-123,26.5T34,89T5,204q0,88 37,157T146,470t156,40q66,0 119-24t84-72t31-119q0-88-36.5-158T396.5,27T239-13Zm6,118q46,0 76,26.5t45,69T381,292q0,55-24,77.5T292,392q-46,0-75.5-27.5t-43.5-70T159,206q0-25 7.5-48.5t26-38T245,105ZM421,568q-28,0-46.5,6T342,587.5T314,601t-34,6q-31,0-51-33H140q9,29 28.5,55.5t47,43T276,689q40,0 63-10t39.5-20.5T415,648q22,0 33,8t20,18t24,14q3,1 6,1.5t6,0.5q16,0 27.5-11.5T543,651q0-15-10-28q-10-15-36.5-35T421,568Z"/>
      <glyph unicode="&#xf6;" glyph-name="odieresis" horiz-adv-x="576" d="M239-13q-70,0-123,26.5T34,89T5,204q0,88 37,157T146,470t156,40q66,0 119-24t84-72t31-119q0-88-36.5-158T396.5,27T239-13Zm6,118q46,0 76,26.5t45,69T381,292q0,55-24,77.5T292,392q-46,0-75.5-27.5t-43.5-70T159,206q0-25 7.5-48.5t26-38T245,105Zm-2,473q-29,0-50,20.5T172,648t21,50t50,21t49.5-21T313,648t-20.5-49.5T243,578Zm194,0q-29,0-50,20.5T366,648t21,50t50,21t49-21t20-50t-20-49.5T437,578Z"/>
      <glyph unicode="&#xf7;" glyph-name="divide" horiz-adv-x="645" d="M296,351q-32,0-55.5,23.5T217,431t23.5,56T296,510t55.5-23T375,431t-23.5-56.5T296,351ZM40,186V314H552V186H40ZM296-12q-32,0-55.5,23.5T217,68q0,32 23.5,55.5T296,147t55.5-23.5T375,68q0-33-23.5-56.5T296-12Z"/>
      <glyph unicode="&#xf8;" glyph-name="oslash" horiz-adv-x="577" d="M242-12Q149-12 88,32L26-27L-25,27L38,85q-16,25-24.5,55T5,204q0,88 37.5,157t105,109T304,510q42,0 79.5-10T451,470l63,59l51-54l-62-57q17-25 26-55t9-68q0-88-36.5-157.5T398.5,28T242-12ZM161,200L351,376q-22,16-55,16q-49,0-81.5-33T170,274q-5-19-7-38t-2-36Zm87-94q49,0 81.5,33T374,222q5,20 7,41t1,43L189,125q11-9 25-14t34-5Z"/>
      <glyph unicode="&#xf9;" glyph-name="ugrave" horiz-adv-x="578" d="M159-12Q104-12 73,8T29.5,61.5T17,134q0,22 3,43.5T27,220L86,496H241L186,235q-2-10-4.5-26.5T179,175q0-26 10.5-47.5T231,106q39,0 72,30t47,98l56,262H561L456,0H321l-5,64Q295,30 255,9T159-12ZM277,574q0,0-13,11t-29,25.5T210,635q-12,17-12,35q0,26 21,44q14,13 35,13q27,0 43-21q9-12 24-33.5T350.5,628T375,589.5T385,574H277Z"/>
      <glyph unicode="&#xfa;" glyph-name="uacute" horiz-adv-x="578" d="M159-12Q104-12 73,8T29.5,61.5T17,134q0,22 3,43.5T27,220L86,496H241L186,235q-2-10-4.5-26.5T179,175q0-26 10.5-47.5T231,106q39,0 72,30t47,98l56,262H561L456,0H321l-5,64Q295,30 255,9T159-12ZM265,574q0,0 14.5,14T315,623t42,42t35.5,35.5T408,715q15,12 34,12q28,0 44-21q13-14 13-35q0-26-21-43q-2-2-16-10.5T431,599t-30-17.5T388,574H265Z"/>
      <glyph unicode="&#xfb;" glyph-name="ucircumflex" horiz-adv-x="578" d="M159-12Q104-12 73,8T29.5,61.5T17,134q0,22 3,43.5T27,220L86,496H241L186,235q-2-10-4.5-26.5T179,175q0-26 10.5-47.5T231,106q39,0 72,30t47,98l56,262H561L456,0H321l-5,64Q295,30 255,9T159-12ZM136,574L325,711q20,15 44,15q33,0 55-25L542,574H426l-59,61l-84-61H136Z"/>
      <glyph unicode="&#xfc;" glyph-name="udieresis" horiz-adv-x="578" d="M159-12Q104-12 73,8T29.5,61.5T17,134q0,22 3,43.5T27,220L86,496H241L186,235q-2-10-4.5-26.5T179,175q0-26 10.5-47.5T231,106q39,0 72,30t47,98l56,262H561L456,0H321l-5,64Q295,30 255,9T159-12Zm89,590q-29,0-50,20.5T177,648t21,50t50,21t49.5-21T318,648t-20.5-49.5T248,578Zm194,0q-29,0-50,20.5T371,648t21,50t50,21t49-21t20-50t-20-49.5T442,578Z"/>
      <glyph unicode="&#xfd;" glyph-name="yacute" horiz-adv-x="527" d="M-44-161L-21-51H10q42,0 62.5,4.5t30,16T121,0L35,496H190l30-316L386,496H562L266,0q-33-56-57-88.5t-49-48t-61-20T5-161H-44ZM245,574q0,0 14.5,14T295,623t42,42t35.5,35.5T388,715q15,12 34,12q28,0 44-21q13-14 13-35q0-26-21-43q-2-2-16-10.5T411,599t-30-17.5T368,574H245Z"/>
      <glyph unicode="&#xfe;" glyph-name="thorn" horiz-adv-x="589" d="M-55-161L121,668H276L227,434q28,41 68,59t81,18q27,0 57.5-9T491,470t43.5-62.5T551,306T533,187T480.5,85t-83-71T287-12q-26,0-54,10.5t-50,30T151,75L101-161H-55ZM261,107q40,0 65.5,18t40,45T387,225t6,48q0,65-23,92t-64,27q-43,0-72.5-27t-45-68T173,214q0-52 27-79.5T261,107Z"/>
      <glyph unicode="&#xff;" glyph-name="ydieresis" horiz-adv-x="527" d="M-44-161L-21-51H10q42,0 62.5,4.5t30,16T121,0L35,496H190l30-316L386,496H562L266,0q-33-56-57-88.5t-49-48t-61-20T5-161H-44ZM228,578q-29,0-50,20.5T157,648t21,50t50,21t49.5-21T298,648t-20.5-49.5T228,578Zm194,0q-29,0-50,20.5T351,648t21,50t50,21t49-21t20-50t-20-49.5T422,578Z"/>
      <glyph unicode="&#x2013;" glyph-name="endash" horiz-adv-x="536" d="M38,185V313H464V185H38Z"/>
      <glyph unicode="&#x2014;" glyph-name="emdash" horiz-adv-x="870" d="M38,185V313H798V185H38Z"/>
      <glyph unicode="&#x2018;" glyph-name="quoteleft" horiz-adv-x="281" d="M162,340q-41,0-68,29T67,438q0,27 14,50L193,668h99L203,526q26-11 42-35t16-53q0-43-29.5-70.5T162,340Z"/>
      <glyph unicode="&#x2019;" glyph-name="quoteright" horiz-adv-x="282" d="M66,351l89,142q-25,12-41.5,36T97,582q0,43 29.5,70.5T195,680q41,0 69.5-29T293,584q0-12-4-27t-11-26L165,351H66Z"/>
      <glyph unicode="&#x201a;" glyph-name="quotesinglbase" horiz-adv-x="282" d="M-40-145L49-3Q24,9 7.5,33T-9,86q0,42 29.5,70T89,184q41,0 69.5-29T187,88q0-12-4-27T172,35L59-145H-40Z"/>
      <glyph unicode="&#x201c;" glyph-name="quotedblleft" horiz-adv-x="505" d="M162,340q-40,0-67.5,27.5T67,435q0,18 5.5,33T92,506L193,668h99L203,526q26-11 42-35t16-53q0-43-29.5-70.5T162,340Zm224,0q-41,0-68,28t-27,61q0,20 3.5,34T305,488L417,668h99L427,526q26-12 42-36.5T485,436q0-42-29.5-69T386,340Z"/>
      <glyph unicode="&#x201d;" glyph-name="quotedblright" horiz-adv-x="505" d="M290,350l89,142q-26,11-42,35.5T321,580q0,44 29.5,71T420,678t67.5-27.5T515,583q0-18-5.5-33T490,512L389,350H290ZM66,350l89,142q-26,12-42,36.5T97,582q0,42 29.5,69T196,678q41,0 68-28t27-61q0-19-3.5-33.5T277,530L165,350H66Z"/>
      <glyph unicode="&#x201e;" glyph-name="quotedblbase" horiz-adv-x="505" d="M183-145L272-3Q246,8 230,32.5T214,85q0,44 29.5,71T313,183t67.5-27.5T408,88q0-18-5.5-33T383,17L282-145H183Zm-224,0L48-3Q22,9 6,33.5T-10,87q0,42 29.5,69T89,183q41,0 68-28t27-61q0-19-3.5-33.5T170,35L58-145H-41Z"/>
      <glyph unicode="&#x2022;" glyph-name="bullet" horiz-adv-x="446" d="M207,88q-46,0-83.5,22.5T63.5,171T41,254q0,46 22.5,83.5t60,60T207,420t83.5-22.5t60-60T373,254q0-45-22.5-83t-60-60.5T207,88Z"/>
      <glyph unicode="&#x2039;" glyph-name="guilsinglleft" horiz-adv-x="401" d="M127,40L24,250L217,460H388L191,244L291,40H127Z"/>
      <glyph unicode="&#x203a;" glyph-name="guilsinglright" horiz-adv-x="402" d="M-20,40L177,256L77,460H241L344,250L151,40H-20Z"/>
    </font>
</defs>
</svg>
