<?xml version="1.0" standalone="no"?>
<!DOCTYPE svg PUBLIC "-//W3C//DTD SVG 1.1//EN" "http://www.w3.org/Graphics/SVG/1.1/DTD/svg11.dtd">
<svg xmlns="http://www.w3.org/2000/svg">
  <defs>
    <font id="AtkinsonHyperlegible" horiz-adv-x="534">
      <font-face font-family="Atkinson Hyperlegible" units-per-em="1000" panose-1="0 0 0 0 0 0 0 0 0 0" ascent="950" descent="-290" alphabetic="0"/>
      <glyph unicode=" " glyph-name="space" horiz-adv-x="280"/>
      <glyph unicode="!" glyph-name="exclam" horiz-adv-x="281" d="M114,195L96,496V668h89V496L167,195H114ZM140-12Q114-12 95,7T76,52q0,27 19,46t45,19q27,0 46-19t19-46q0-26-19-45T140-12Z"/>
      <glyph unicode="&quot;" glyph-name="quotedbl" horiz-adv-x="301" d="M195,447L181,668h80L247,447H195ZM54,447L40,668h80L106,447H54Z"/>
      <glyph unicode="#" glyph-name="numbersign" horiz-adv-x="655" d="M137,0l25,172H38l11,81H173l23,162H72l11,81H207l24,172h82L289,496H412l24,172h82L494,496H617l-11-81H482L460,253H583l-11-81H448L424,0H342l24,172H243L219,0H137ZM255,253H378l22,162H277L255,253Z"/>
      <glyph unicode="$" glyph-name="dollar" horiz-adv-x="594" d="M267-87v76Q181-3 123,38T40,146l87,26Q161,83 267,69V308l-36,7q-46,9-88,30.5t-69,59T47,498q0,44 19.5,77t52,55t71,34T267,679v63h50V679q67-5 122.5-35T523,555l-86-25q-19,32-52,48.5T317,599V386l12-3q38-10 77.5-23t73-34t54-54T554,188q0-62-33-106T434,14.5T317-12V-87H267Zm0,485V600q-26-2-55-12.5T163,557t-20-54q0-44 31.5-68.5T252,401l15-3ZM317,68q67,4 103.5,35T457,180q0,52-39,77.5T317,297V68Z"/>
      <glyph unicode="%" glyph-name="percent" horiz-adv-x="927" d="M220,317q-50,0-91.5,24.5T62.5,407T38,498q0,51 24.5,92t66,65.5T220,680t91-24.5T376.5,590T401,498q0-50-24.5-91T311,341.5T220,317ZM186,0L654,668h88L274,0H186Zm34,391q44,0 75.5,31.5T327,498q0,45-31.5,76.5T220,606q-45,0-76.5-31.5T112,498q0-44 32-75.5T220,391ZM708-12q-50,0-91.5,24.5t-66,66T526,170t24.5,91.5t66,66T708,352t91-24.5t65.5-66T889,170T864.5,78.5T799,12.5T708-12Zm0,74q44,0 75.5,32T815,170t-31.5,75.5T708,277q-45,0-76.5-31.5T600,170t31.5-76T708,62Z"/>
      <glyph unicode="&amp;" glyph-name="ampersand" horiz-adv-x="705" d="M263-12q-69,0-119.5,26t-78,70T38,183q0,77 47,127.5T209,387q-34,38-54,75t-20,76q0,65 51.5,103.5T317,680q41,0 81-13.5t66.5-45T491,536q0-63-39-105T351,363L487,219q13,31 22,66.5T521,361h87q-4-54-19.5-106.5T546,157L695,0H576L494,87Q451,41 393,14.5T263-12Zm37,427q49,18 79,47t30,69q0,41-26.5,58T319,606t-65.5-16T225,540q0-27 16.5-53.5t35-45.5T300,415ZM263,62q53,0 98,21t79,60L259,334q-60-21-95.5-56T128,187q0-38 19-66.5T197,77t66-15Z"/>
      <glyph unicode="&apos;" glyph-name="quotesingle" horiz-adv-x="160" d="M54,447L40,668h80L106,447H54Z"/>
      <glyph unicode="(" glyph-name="parenleft" horiz-adv-x="300" d="M189-161Q120-63 85,50.5T50,280q0,102 27.5,201T160,668h75q-49-70-80-172T124,278q0-109 32.5-222.5T265-161H189Z"/>
      <glyph unicode=")" glyph-name="parenright" horiz-adv-x="300" d="M35-161Q111-58 144,56t33,223q0,115-30.5,217T66,668h75q56-88 82.5-187T250,281q0-117-35-230.5T112-161H35Z"/>
      <glyph unicode="*" glyph-name="asterisk" horiz-adv-x="433" d="M153,388l-46,34l62,86L68,540l18,55l101-33V668h57V562l101,33l18-55L261,508l63-86l-46-34l-63,86l-62-86Z"/>
      <glyph unicode="+" glyph-name="plus" horiz-adv-x="602" d="M261,0V208H53v80H261V496h80V288H549V208H341V0H261Z"/>
      <glyph unicode="," glyph-name="comma" horiz-adv-x="205" d="M45-133L92-11Q69-7 53.5,11T38,53q0,26 19,45t45,19q27,0 46-19t19-45q0-12-5-25L100-133H45Z"/>
      <glyph unicode="-" glyph-name="hyphen" horiz-adv-x="368" d="M38,208v81H330V208H38Z"/>
      <glyph unicode="." glyph-name="period" horiz-adv-x="205" d="M102-12Q76-12 57,7T38,52q0,27 19,46t45,19q27,0 46-19t19-46q0-26-19-45T102-12Z"/>
      <glyph unicode="/" glyph-name="slash" horiz-adv-x="377" d="M15,0L275,668h87L102,0H15Z"/>
      <glyph unicode="0" glyph-name="zero" horiz-adv-x="648" d="M324-12Q195-12 127.5,77.5T60,335q0,167 67.5,256T324,680t196.5-89T588,335q0-168-67.5-257.5T324-12ZM480,190q17,60 17,145q0,131-42.5,201T324,606q-65,0-107-40L480,190ZM324,62q69,0 111,45L171,486q-10-31-15-69t-5-82q0-131 42.5-202T324,62Z"/>
      <glyph unicode="1" glyph-name="one" horiz-adv-x="402" d="M220,0V504H42v67q48,0 89.5,7t72,28T248,668h56V0H220Z"/>
      <glyph unicode="2" glyph-name="two" horiz-adv-x="549" d="M34,0V75q118,87 201.5,160t128,136.5T408,494q0,52-33,84t-92,32q-47,0-87.5-25.5T143,498L59,522q18,73 78,115.5T285,680q62,0 109.5-20.5t75-59.5T497,505q0-58-28-113.5t-77-108t-112-104T147,77H515V0H34Z"/>
      <glyph unicode="3" glyph-name="three" horiz-adv-x="574" d="M272-12q-67,0-114.5,22T82,69T42,151l83,24q11-52 47.5-84.5T273,58q66,0 108.5,33.5T424,187q0,38-16,62.5T367,287t-53.5,19t-54,7T218,314v76q28,0 60.5,3t62,13.5t48,33T407,501q0,54-38.5,81.5T277,610q-61,0-97-31t-46-81L52,522q18,71 76.5,114.5T279,680q58,0 107-16.5t79-54T495,510q0-51-28-92t-81-63q75-23 101.5-68.5T514,188q0-67-34-111.5T391,10T272-12Z"/>
      <glyph unicode="4" glyph-name="four" horiz-adv-x="614" d="M370,0V165H38v79L369,668h85V244H576V165H454V0H370ZM129,244H370V553L129,244Z"/>
      <glyph unicode="5" glyph-name="five" horiz-adv-x="583" d="M284-12q-67,0-114,22T95,69T54,151l82,24q12-55 47.5-86T284,58q40,0 74,19t54.5,55T433,219q0,56-22.5,91t-57,51.5T283,378q-52,0-85-24.5T154,304L72,328l41,340H496V587H181L158,400q26,26 64.5,38T302,450q59,0 108.5-27t80-78T521,220q0-76-33.5-128T400,14T284-12Z"/>
      <glyph unicode="6" glyph-name="six" horiz-adv-x="598" d="M303-12Q178-12 119,72T60,310q0,71 13.5,137t44,118.5T198,649t123,31q74,0 120-31t68-76l-85-25q-15,29-44,45.5T311,610q-78,0-119.5-71T147,352q23,39 66,66t110,27q62,0 110.5-29T510,336t28-118q0-62-29-114.5t-81.5-84T303-12Zm0,71q66,0 105.5,43.5T448,215T408.5,327.5T303,371q-67,0-106.5-43.5T157,215t39.5-112.5T303,59Z"/>
      <glyph unicode="7" glyph-name="seven" horiz-adv-x="510" d="M93,0L383,587H15v81H476V587L198,0H93Z"/>
      <glyph unicode="8" glyph-name="eight" horiz-adv-x="615" d="M307-12q-69,0-125,23.5t-89,68T60,188q0,65 34,110.5T183,366q-26,25-41.5,59T126,499q0,50 24.5,91T216,655.5T307,680q51,0 92-24.5T464.5,590T489,499q0-40-15.5-74T432,366q56-22 89.5-67.5T555,188q0-64-33-108.5t-89-68T307-12Zm0,403q44,0 75.5,31.5T414,500q0,44-31.5,75T307,606t-75.5-31T200,500q0-46 31.5-77.5T307,391Zm0-329q72,0 114.5,34T464,188q0,59-42.5,94T307,317q-71,0-113.5-35T151,188q0-58 42.5-92T307,62Z"/>
      <glyph unicode="9" glyph-name="nine" horiz-adv-x="598" d="M213,0q0,0 13.5,19t35,50T307,136.5T352,207q-25-6-53-6q-65,0-119.5,32.5t-87,87T60,441T92,561t86.5,86T299,679q69,0 123-32.5t85-87T538,439q0-46-18-91q-5-12-23-46.5T451.5,218t-62-105.5T317,0H213Zm86,287q43,0 78,21t56,56t21,77t-21,77t-56,55.5T299,594q-42,0-77-20.5T166.5,518T146,441t20.5-77T222,308t77-21Z"/>
      <glyph unicode=":" glyph-name="colon" horiz-adv-x="205" d="M102,375q-26,0-45,19T38,440q0,26 19,45t45,19q27,0 46-19t19-45q0-27-19-46t-46-19Zm0-387Q76-12 57,7T38,52q0,27 19,46t45,19q27,0 46-19t19-46q0-26-19-45T102-12Z"/>
      <glyph unicode=";" glyph-name="semicolon" horiz-adv-x="205" d="M102,375q-26,0-45,19T38,440q0,26 19,45t45,19q27,0 46-19t19-45q0-27-19-46t-46-19ZM45-133L92-11Q69-7 53.5,11T38,53q0,26 19,45t45,19q27,0 46-19t19-45q0-12-5-25L100-133H45Z"/>
      <glyph unicode="&lt;" glyph-name="less" horiz-adv-x="553" d="M513,0L40,213v70L513,496V406L145,248L513,90V0Z"/>
      <glyph unicode="=" glyph-name="equal" horiz-adv-x="602" d="M53,307v79H549V307H53Zm0-186v79H549V121H53Z"/>
      <glyph unicode="&gt;" glyph-name="greater" horiz-adv-x="553" d="M40,0V90L408,248L40,406v90L513,283V213L40,0Z"/>
      <glyph unicode="?" glyph-name="question" horiz-adv-x="520" d="M182,190v37q0,39 12.5,65.5t38,48.5T296,387q36,23 61,52t25,69q0,48-35,75t-90,27q-45,0-73-16.5T141.5,552T122,501L40,524q15,72 75.5,114T261,680q52,0 100-17.5T439.5,609T470,516q0-43-18-78t-46.5-62T345,328q-28-18-45-32t-24.5-30T268,224V190H182ZM227-12q-25,0-45,18T162,52q0,27 19,46t46,19t45.5-19.5T291,52T272,7T227-12Z"/>
      <glyph unicode="@" glyph-name="at" horiz-adv-x="780" d="M398-12q-66,0-128.5,25t-112,70.5T79,193T50,335q0,71 27,133.5t74.5,110t110,74.5T396,680q57,0 115.5-20.5t108-61t80-99T730,366q0-77-23.5-123.5t-59-67T575,155q-34,0-63,16t-39,42q-24-29-54.5-43.5T357,155q-35,0-67,18.5t-52,55T218,318q0,76 28,120t72.5,62.5T413,519q30,0 60.5-5.5T532,499V273q0-22 12.5-33T575,229q31,0 51.5,19.5t31,51T668,366q0,51-21,96.5T588.5,543T502,598T396,618q-58,0-109.5-22t-91-60.5t-61.5-90T112,335q0-64 23.5-116.5T199,128t91-58.5T396,49q72,0 136,36V16Q500,2 466-5t-68-7ZM369,229q29,0 55.5,27.5T451,338V441q-10,2-21.5,3T406,445q-25,0-49-10t-39.5-38.5T302,313q0-43 20.5-63.5T369,229Z"/>
      <glyph unicode="A" glyph-name="A" horiz-adv-x="626" d="M10,0L261,669H366L616,0H516L465,146H161L110,0H10ZM190,227H436L313,574L190,227Z"/>
      <glyph unicode="B" glyph-name="B" horiz-adv-x="619" d="M76,0V668H345q73,0 118.5-24t67-61.5T552,502q0-40-18-79t-52-68q50-26 74.5-70.5T581,192t-24.5-92T483,28T361,0H76Zm94,382H355q51,0 76.5,32T457,484q0,26-11.5,50t-34,39.5T355,589H170V382Zm0-303H371q37,0 62,17t38,43.5T484,195t-12.5,54.5t-38,42T370,308H170V79Z"/>
      <glyph unicode="C" glyph-name="C" horiz-adv-x="656" d="M353-12q-95,0-163,44.5T86,155T50,335q0,104 38.5,181.5T197,637t164,43q84,0 151.5-39T614,529l-82-30q-22,45-66.5,73.5T356,601q-59,0-106.5-30T174,481.5T146,335q0-84 27-144t75.5-92T359,67q65,0 109.5,28T536,169l82-30Q582,65 512,26.5T353-12Z"/>
      <glyph unicode="D" glyph-name="D" horiz-adv-x="673" d="M76,0V668H258q80,0 146.5-16.5T520,597t76-102.5T623,335q0-96-27-160.5t-76-103t-115.5-55T258,0H76Zm94,79h86q52,0 100.5,8.5t87,34t61,77T527,335T504.5,470.5t-61,76t-87,34T256,589H170V79Z"/>
      <glyph unicode="E" glyph-name="E" horiz-adv-x="567" d="M76,0V668H529V587H170V384H435V303H170V81H529V0H76Z"/>
      <glyph unicode="F" glyph-name="F" horiz-adv-x="548" d="M76,0V668H510V587H170V384H510V303H170V0H76Z"/>
      <glyph unicode="G" glyph-name="G" horiz-adv-x="710" d="M352-12q-96,0-163.5,44.5T85.5,155T50,335q0,104 38.5,181.5T197,637t164,43q84,0 151.5-39T615,529l-83-30q-22,45-66.5,73.5T356,601q-59,0-106.5-30T174,481.5T146,335q0-84 26.5-144t74-92T356,67q33,0 68,8t64,27.5T535,156t18,86v22H358v81H642V0H588L563,84q-32-51-87.5-73.5T352-12Z"/>
      <glyph unicode="H" glyph-name="H" horiz-adv-x="690" d="M76,0V668h94V384H520V668h94V0H520V303H170V0H76Z"/>
      <glyph unicode="I" glyph-name="I" horiz-adv-x="414" d="M66,0V74h94V594H66v74H348V594H254V74h94V0H66Z"/>
      <glyph unicode="J" glyph-name="J" horiz-adv-x="510" d="M224-12Q130-12 75,38.5T15,189l87,25q-2-76 35-112.5T224,65q27,0 54,12t44.5,44T340,213V668h94V212q0-109-56-166.5T224-12Z"/>
      <glyph unicode="K" glyph-name="K" horiz-adv-x="627" d="M76,0V668h94V332L471,668H588L333,389L617,0H502L270,320L170,210V0H76Z"/>
      <glyph unicode="L" glyph-name="L" horiz-adv-x="539" d="M76,0V668h94V81H529V0H76Z"/>
      <glyph unicode="M" glyph-name="M" horiz-adv-x="820" d="M76,0V668H232L410,122L588,668H744V0H650V570L457,0H364L170,570V0H76Z"/>
      <glyph unicode="N" glyph-name="N" horiz-adv-x="689" d="M76,0V668H215L519,100V668h94V0H475L170,571V0H76Z"/>
      <glyph unicode="O" glyph-name="O" horiz-adv-x="727" d="M363-12q-96,0-166,44.5T88.5,155.5T50,335T88.5,513.5T197,635.5T363,680q97,0 167-44.5t108.5-122T677,335T638.5,155.5T530,32.5T363-12Zm0,79q61,0 110.5,31T552,188.5T581,335q0,86-29,145.5t-78.5,90T363,601q-60,0-109.5-30.5t-78.5-90T146,335q0-87 29-146.5T253.5,98T363,67Z"/>
      <glyph unicode="P" glyph-name="P" horiz-adv-x="601" d="M76,1V668H285q82,0 144.5-16t98-59.5T563,466q0-82-35.5-125.5t-98-59T285,266H170V1H76Zm94,346H293q49,0 88,7t62.5,32.5T467,466q0,55-23.5,81T381,581t-88,8H170V347Z"/>
      <glyph unicode="Q" glyph-name="Q" horiz-adv-x="753" d="M689-44L572,65Q533,28 480,8T363-12q-96,0-166,44.5T88.5,155.5T50,335T88.5,513.5T197,635.5T363,680q97,0 167-44.5t108.5-122T677,335q0-56-12-105.5T630,139L753,24L689-44ZM363,67q88,0 145,59L329,294l64,68L559,206q11,27 16.5,59.5T581,335q0,86-29,145.5t-78.5,90T363,601q-60,0-109.5-30.5t-78.5-90T146,335q0-87 29-146.5T253.5,98T363,67Z"/>
      <glyph unicode="R" glyph-name="R" horiz-adv-x="618" d="M76,0V668H288q82,0 144.5-14.5t98-56T566,476q0-45-14-84t-53.5-66T381,288L588,0H473L270,281H170V0H76Zm94,360H295q49,0 88.5,7t63,31.5T470,474q0,52-23.5,76t-63,31.5T295,589H170V360Z"/>
      <glyph unicode="S" glyph-name="S" horiz-adv-x="596" d="M296-12Q241-12 189,5T97.5,57T40,146l87,26q12-36 39-59.5T228.5,78T300,67q40,0 76,13t58.5,39.5T457,186q0,41-30,65T323,294l-85,19q-46,12-90.5,32t-73,57T46,501q0,57 35.5,97t92,61T291,680q47,0 92.5-13.5t82-41T523,555l-86-25q-19,35-61.5,53T287,601q-36,0-69-11.5T164,555t-21-58q0-33 19.5-53t52-31.5T286,392l73-16q51-12 96-33t73-59t28-102q0-46-22-82.5t-59-61T391.5,1T296-12Z"/>
      <glyph unicode="T" glyph-name="T" horiz-adv-x="558" d="M232,0V587H10v81H548V587H326V0H232Z"/>
      <glyph unicode="U" glyph-name="U" horiz-adv-x="690" d="M345-12Q200-12 138,60.5T76,279V668h94V272q0-99 39.5-151T345,69t135.5,52T520,272V668h94V279q0-146-61.5-218.5T345-12Z"/>
      <glyph unicode="V" glyph-name="V" horiz-adv-x="589" d="M239,0L10,668H113L294,110L476,668H579L349,0H239Z"/>
      <glyph unicode="W" glyph-name="W" horiz-adv-x="840" d="M178,0L10,668H113L243,116L365,668H475L597,116L727,668H830L663,0H549L420,552L291,0H178Z"/>
      <glyph unicode="X" glyph-name="X" horiz-adv-x="623" d="M10,0L255,344L24,668H136L311,423L486,668H599L368,344L613,0H500L311,265L123,0H10Z"/>
      <glyph unicode="Y" glyph-name="Y" horiz-adv-x="595" d="M251,0V259L10,668H113L298,345L482,668H585L345,259V0H251Z"/>
      <glyph unicode="Z" glyph-name="Z" horiz-adv-x="607" d="M44,0V81L438,587H59v81H548V587L156,81H563V0H44Z"/>
      <glyph unicode="[" glyph-name="bracketleft" horiz-adv-x="315" d="M76-161V668H282V594H157V-87H282v-74H76Z"/>
      <glyph unicode="\" glyph-name="backslash" horiz-adv-x="377" d="M275,0L15,668h87L362,0H275Z"/>
      <glyph unicode="]" glyph-name="bracketright" horiz-adv-x="315" d="M33-161v74H158V594H33v74H239V-161H33Z"/>
      <glyph unicode="^" glyph-name="asciicircum" horiz-adv-x="552" d="M53,311L238,668h76L499,311H410L276,569L142,311H53Z"/>
      <glyph unicode="_" glyph-name="underscore" horiz-adv-x="396" d="M10-79V0H386V-79H10Z"/>
      <glyph unicode="`" glyph-name="grave" horiz-adv-x="268" d="M145,571q-19,16-40,33.5T70,636q-10,11-13.5,18.5T53,669q0,16 11,27t27,11q8,0 16-3t15-12l93-121H145Z"/>
      <glyph unicode="a" glyph-name="a" horiz-adv-x="526" d="M209-12q-47,0-86,17T61,54T38,131q0,59 41.5,93t117,52.5T373,306q2,63-25,97t-87,34q-45,0-73.5-20.5T151,360L70,384q20,57 71.5,88.5T260,504q103,0 150.5-48.5T458,303V187q0-62 5-107T475,0H398L378,68Q356,31 315,9.5T209-12Zm18,67q39,0 74,14t57,47.5T380,208v31q-76-8-132-19.5t-86.5-32T131,133q0-35 25.5-56.5T227,55Z"/>
      <glyph unicode="b" glyph-name="b" horiz-adv-x="566" d="M315-12q-58,0-98,23.5T154,75L132,0H70V668h84V418q23,39 63,62.5T315,504q57,0 105.5-30.5t78-88T528,246T498.5,106.5t-78-88T315-12ZM293,60q64,0 102.5,49T434,246q0,89-38.5,137.5T293,432T190.5,383.5T152,246q0-88 38.5-137T293,60Z"/>
      <glyph unicode="c" glyph-name="c" horiz-adv-x="500" d="M269-12q-71,0-123,33.5T66,113T38,246q0,74 29.5,132.5t83.5,92T278,504q67,0 115-33t72-79l-77-28q-16,30-47,48t-69,18q-37,0-70-19.5t-53-60T129,247q0-62 20.5-103.5t53-61.5T272,62q41,0 71.5,18.5T390,127l77-28q-28-48-80-79.5T269-12Z"/>
      <glyph unicode="d" glyph-name="d" horiz-adv-x="564" d="M251-12q-56,0-105,30.5t-78.5,88T38,246T67.5,385.5t78.5,88T251,504q59,0 99-23.5T412,418V668h84V187q0-25 2-73.5T513,0H434L412,75q-22-40-62-63.5T251-12Zm22,72q64,0 102.5,49T414,246q0,89-38.5,137.5T273,432T170.5,383.5T132,246q0-88 38.5-137T273,60Z"/>
      <glyph unicode="e" glyph-name="e" horiz-adv-x="539" d="M281-12q-78,0-132,34.5t-82.5,93T38,247q0,79 32,136.5t86.5,89T279,504q59,0 104-23.5t74.5-63t43-89.5T510,225H128q2-62 27.5-98T216,76.5T281,62q42,0 70.5,13.5T397,111l81-24q-27-43-77-71T281-12ZM129,292H421q0,35-17.5,67t-49,52.5T279,432q-37,0-70-14t-54.5-45T129,292Z"/>
      <glyph unicode="f" glyph-name="f" horiz-adv-x="311" d="M99,0V429H15v67H99v74q0,51 10,81t39,42.5T232,706h54V635H234q-32,0-41.5-13T183,571V496H286V429H183V0H99Z"/>
      <glyph unicode="g" glyph-name="g" horiz-adv-x="560" d="M274-192q-40,0-79.5,11.5t-70,37.5T81-76l84,23q14-39 46-52t63-13q77,0 104.5,37T406,28V94q-23-39-61-62T248,9Q193,9 145,37.5t-77.5,84T38,256q0,80 29.5,135T145,475t103,29q59,0 97-23.5T406,418l23,78h61V47q0-118-47.5-178.5T274-192ZM269,79q38,0 69.5,18t51,57T409,256T389.5,358t-51,56.5T269,432q-61,0-100.5-45.5T129,256t39.5-131T269,79Z"/>
      <glyph unicode="h" glyph-name="h" horiz-adv-x="546" d="M70,0V668h84V421q21,35 59,59t101,24q90,0 127-52.5T478,314V0H394V289q0,38-7,70.5T356.5,412T285,432q-61,0-96-41.5T154,269V0H70Z"/>
      <glyph unicode="i" glyph-name="i" horiz-adv-x="278" d="M156,590q-25,0-43.5,18.5T94,653t18.5,44T156,715q26,0 44.5-18T219,653t-18.5-44.5T156,590ZM114,0V429H45v67H198V0H114Z"/>
      <glyph unicode="j" glyph-name="j" horiz-adv-x="254" d="M132,590q-26,0-44.5,18.5T69,653t18.5,44T132,715t44-18t18-44t-18-44.5T132,590ZM-3-161l-55,2v73l47-1q42,0 64,7.5T82.5-51T90,12V496h84V7q0-64-15.5-100.5t-54-52T-3-161Z"/>
      <glyph unicode="k" glyph-name="k" horiz-adv-x="490" d="M70,0V668h84V273L354,496H455L268,291L480,0H377L212,229l-58-63V0H70Z"/>
      <glyph unicode="l" glyph-name="l" horiz-adv-x="239" d="M187,0q-47,0-72.5,9.5T79.5,46T70,124V667h84V138q0-38 8-51t43-13h19V0H187Z"/>
      <glyph unicode="m" glyph-name="m" horiz-adv-x="841" d="M70,0V496h62l22-75q21,35 57.5,59T303,504q57,0 92-23t51-64q30,46 72.5,66.5T613,504q86,0 123-52.5T773,314V0H689V289q0,38-7.5,70.5t-30,52.5T583,432q-54,0-86.5-41.5T464,269V0H380V289q0,38-7.5,70.5t-30,52.5T274,432q-54,0-87-41.5T154,269V0H70Z"/>
      <glyph unicode="n" glyph-name="n" horiz-adv-x="546" d="M70,0V496h62l22-75q21,35 59,59t101,24q90,0 127-52.5T478,314V0H394V289q0,38-7,70.5T356.5,412T285,432q-61,0-96-41.5T154,269V0H70Z"/>
      <glyph unicode="o" glyph-name="o" horiz-adv-x="552" d="M276-12q-43,0-85,15T114.5,49.5T59,130T38,246T59,362t55.5,80.5T191,489t85,15t85.5-15t77-46.5t55-80.5T514,246T493.5,130t-55-80.5T361.5,3T276-12Zm0,74q36,0 70,19.5t56,60T424,246T402,350.5t-56,60T276,430q-35,0-69.5-19.5t-56.5-60T128,246t22-104.5t56.5-60T276,62Z"/>
      <glyph unicode="p" glyph-name="p" horiz-adv-x="566" d="M70-161V496h61l23-78q23,39 63,62.5T315,504q57,0 105.5-30.5t78-88T528,246q0-81-29.5-139t-78-88.5T315-12q-58,0-98,23.5T154,75V-161H70ZM293,60q64,0 102.5,49T434,246q0,89-38.5,137.5T293,432T190.5,383.5T152,246q0-88 38.5-137T293,60Z"/>
      <glyph unicode="q" glyph-name="q" horiz-adv-x="576" d="M543-173q-34,0-64,13t-48.5,44.5T412-27V75q-22-40-62.5-63.5T250-12q-56,0-104.5,30.5T67.5,107T38,246q0,82 29.5,139.5t78,88T250,504q59,0 99.5-23.5T412,418l23,78h61V-24q0-27 16.5-48.5T567-94q26,0 61,13v-78q-19-6-41-10t-44-4ZM273,60q64,0 102.5,49T414,246q0,89-38.5,137.5T273,432T170,383.5T131,246q0-88 39-137T273,60Z"/>
      <glyph unicode="r" glyph-name="r" horiz-adv-x="340" d="M70,0V496h61l27-92q26,45 70.5,72.5T335,504V417q-7,0-14.5,0T306,416q-85-7-118.5-59T154,213V0H70Z"/>
      <glyph unicode="s" glyph-name="s" horiz-adv-x="471" d="M239-12q-43,0-84.5,13.5t-74,41T31,112l81,30q11-44 48.5-63.5T239,59q30,0 56.5,9T339,94t17,39q0,41-32.5,58T246,217l-69,14q-36,8-67,22.5T60,295T41,367t28,75.5T140.5,489T232,505q59,0 111.5-24.5T418,404l-79-29q-13,30-45.5,44.5T226,434q-38,0-69-17t-31-49t26.5-46.5T218,299l65-13q40-8 76-23t59-44.5T441,136q0-47-29-80T337,5.5T239-12Z"/>
      <glyph unicode="t" glyph-name="t" horiz-adv-x="324" d="M221,0q-47,0-72.5,9.5T113.5,46T104,124V429H20v67h84V621h84V496h96V429H188V138q0-38 7.5-51T239,74h45V0H221Z"/>
      <glyph unicode="u" glyph-name="u" horiz-adv-x="536" d="M227-12q-58,0-93,24.5t-50.5,68T68,180V497h84V200q0-55 13-85t36.5-41.5T256,62q59,0 92.5,41.5T382,224V497h84V0H403L382,72q-21-36-57-60T227-12Z"/>
      <glyph unicode="v" glyph-name="v" horiz-adv-x="441" d="M177,0L0,496H91L221,110L350,496h91L264,0H177Z"/>
      <glyph unicode="w" glyph-name="w" horiz-adv-x="654" d="M143,0L0,496H90l95-367l99,367h87l98-367l95,367h90L512,0H435L327,399L219,0H143Z"/>
      <glyph unicode="x" glyph-name="x" horiz-adv-x="461" d="M0,0L181,255L9,496h99L230,324L353,496h99L280,255L461,0H362L230,185L99,0H0Z"/>
      <glyph unicode="y" glyph-name="y" horiz-adv-x="429" d="M37-161v74H71q36,0 55,5.5t30.5,24T179-1L0,495H93L215,113L337,495h92L253-22q-18-53-36.5-83.5t-49.5-43T80-161H37Z"/>
      <glyph unicode="z" glyph-name="z" horiz-adv-x="460" d="M40,0V74L325,422H49v74H420V422L135,74H430V0H40Z"/>
      <glyph unicode="{" glyph-name="braceleft" horiz-adv-x="319" d="M242-161q-56,0-85,12.5T118-106T108-25V125q0,43-11.5,69T38,220v67q47,0 58.5,26T108,382V532q0,52 10,81.5t39,42T242,668h43V597H243q-33,0-42-13t-9-51V380q0-63-21.5-89.5T113,254v-1q38-10 58.5-37T192,127V-26q0-39 9-51.5T243-90h42v-71H242Z"/>
      <glyph unicode="|" glyph-name="bar" horiz-adv-x="233" d="M76-161V668h81V-161H76Z"/>
      <glyph unicode="}" glyph-name="braceright" horiz-adv-x="319" d="M34-161v71H76q33,0 42,12.5T127-26V127q0,62 21,89t58,37v1q-36,10-57.5,36.5T127,380V533q0,38-9,51T76,597H34v71H77q56,0 85-12.5t39-42T211,532V382q0-43 12-69t58-26V220q-46,0-58-26t-12-69V-25q0-51-10-81t-39-42.5T77-161H34Z"/>
      <glyph unicode="~" glyph-name="asciitilde" horiz-adv-x="555" d="M379,195q-36,0-70.5,13.5t-67,27T179,249q-25,0-42-12.5T115,199L40,221q11,46 47,74t90,28q42,0 77.5-13.5T321,282t57-14q23,0 40.5,13T441,319l74-22q-11-46-47-74t-89-28Z"/>
      <glyph unicode="&#xa0;" glyph-name="uni00A0" horiz-adv-x="280"/>
      <glyph unicode="&#xa1;" glyph-name="exclamdown" horiz-adv-x="281" d="M140,390q-26,0-45,19T76,454q0,27 19,46t45,19q27,0 46-19t19-46q0-26-19-45t-46-19ZM96-161V11l18,300h53L185,11V-161H96Z"/>
      <glyph unicode="&#xa2;" glyph-name="cent" horiz-adv-x="500" d="M236-87v77Q175-2 130.5,32.5T62,122.5T38,247q0,67 24,121t68.5,89T236,501v70h50V504q65-2 110.5-34.5T465,393l-77-28q-32,57-102,65V62q36,4 62.5,22T390,127l77-28q-25-45-72.5-75.5T286-12V-87H236Zm0,154V425q-44-12-75.5-55.5T129,248q0-79 31.5-123.5T236,67Z"/>
      <glyph unicode="&#xa3;" glyph-name="sterling" horiz-adv-x="586" d="M101-12L73,55q14,6 35.5,19t43,34t36,50.5T202,226q0,20-5.5,43.5T179,318H70v51h86q-16,34-30,68.5T112,511q0,62 33,99t84,53.5T333,680q84,0 139-37.5T546,541l-83-25q-13,52-50,72.5T329,609q-28,0-58-9t-50-31t-20-61q0-36 15.5-70T249,369H453V318H272q10-22 14-42t4-38q0-50-27.5-87T194,90q17,7 32,9.5t28,2.5q30,0 55-9t52-18t61-9q23,0 49.5,5.5T531,91l25-73Q519,2 488-5t-57-7q-37,0-68,9.5t-61,19T235,26q-27,0-60-8.5T101-12Z"/>
      <glyph unicode="&#xa4;" glyph-name="currency" horiz-adv-x="580" d="M89,84L53,119l66,66Q72,246 72,321q0,36 12,71t35,64L53,522l36,36l66-66q30,24 64.5,35.5T290,539t71-11.5T425,492l66,66l36-36l-66-66q24-29 35.5-64T508,321t-11.5-71T461,185l66-66L491,84l-66,65q-29-23-64-34.5T290,103t-70.5,11.5T155,149L89,84Zm201,94q40,0 72,19.5t51,52T432,321t-19,71t-51,51.5T290,463q-39,0-71.5-19.5T167,392t-19-71t19-71.5t51.5-52T290,178Z"/>
      <glyph unicode="&#xa5;" glyph-name="yen" horiz-adv-x="595" d="M251,0V86H101v51H251v86H101v51H242L10,668H113L298,345L482,668H585L353,274H494V223H345V137H494V86H345V0H251Z"/>
      <glyph unicode="&#xa6;" glyph-name="brokenbar" horiz-adv-x="233" d="M76,358V668h81V358H76Zm0-519V149h81V-161H76Z"/>
      <glyph unicode="&#xa7;" glyph-name="section" horiz-adv-x="530" d="M261-173q-74,0-125,34T67-44l83,24q10-39 37-61t76-22q44,0 72,17t28,50q0,38-32,64.5T254,77l-94,47q-53,27-91,67.5T31,289q0,50 35.5,84.5T151,424q-29,20-52,50.5T76,550q0,44 26.5,72.5t68,43T257,680q68,0 115-28.5T439,574l-81-24q-12,32-40.5,46T253,610q-37,0-64-14t-27-44q0-28 27.5-51.5T257,456l114-58q54-28 91.5-66T500,242t-32.5-90.5T385,91q29-22 46.5-49T449-23q0-49-25.5-82.5T355-156t-94-17Zm62,302q34,14 63.5,38.5T416,226q0,30-19,52.5T346,318L218,387q-24-7-47.5-20T131,336t-16-42q0-35 23-56t63-43l122-66Z"/>
      <glyph unicode="&#xa8;" glyph-name="dieresis" horiz-adv-x="425" d="M107,590q-22,0-38,16T53,644t16,37.5T107,697q23,0 38.5-15.5T161,644t-15.5-38T107,590Zm211,0q-22,0-37.5,16T265,644t15.5,37.5T318,697q23,0 38.5-15.5T372,644t-15.5-38T318,590Z"/>
      <glyph unicode="&#xa9;" glyph-name="copyright" horiz-adv-x="798" d="M399-12q-72,0-134.5,27t-110,74.5T80,199.5T53,334T80,468.5t74.5,110t110,74.5T399,680t134.5-27t110-74.5t74.5-110T745,334T718,199.5t-74.5-110T533.5,15T399-12Zm0,62q59,0 110.5,22T600,133t61,90.5T683,334T661,444.5T600,535t-90.5,61T399,618T288.5,596T198,535t-61-90.5T115,334t22-110.5T198,133t90.5-61T399,50Zm2,100q-84,0-129,51.5T227,342t47.5,139T403,531q54,0 90-23t55-59l-67-25q-26,49-80,49q-43,0-70.5-32T303,342t27.5-100T401,209q25,0 47.5,10T484,254l66-24q-19-34-56-57t-93-23Z"/>
      <glyph unicode="&#xaa;" glyph-name="ordfeminine" horiz-adv-x="371" d="M152,397q-46,0-72.5,22.5T53,478q0,35 23.5,55t62,29.5T222,576l17,2q0,16-2.5,31T223,633.5T186,643q-22,0-37-8.5T129,607L68,625q11,30 42.5,48.5T189,692q32,0 58.5-10.5t43-36.5T307,573V491q0-23 3.5-44t7.5-44H260l-12,39q-13-25-41-35t-55-10Zm20,51q35,0 51,20.5T239,519v11l-22-3q-53-7-73.5-16T123,483q0-17 13.5-26t35.5-9Z"/>
      <glyph unicode="&#xab;" glyph-name="guillemotleft" horiz-adv-x="562" d="M409,40L262,251L409,461H509L359,251L509,40H409ZM201,40L53,251L201,461h99L151,251L300,40H201Z"/>
      <glyph unicode="&#xac;" glyph-name="logicalnot" horiz-adv-x="602" d="M468,90V317H53v79H549V90H468Z"/>
      <glyph unicode="&#xad;" glyph-name="uni00AD" horiz-adv-x="348" d="M38,208v81H310V208H38Z"/>
      <glyph unicode="&#xae;" glyph-name="registered" horiz-adv-x="798" d="M399-12q-72,0-134.5,27t-110,74.5T80,199.5T53,333q0,72 27,135t74.5,110.5t110,74.5T399,680t134.5-27t110-74.5T718,468t27-135q0-71-27-133.5t-74.5-110T533.5,15T399-12Zm0,61q59,0 110.5,22T600,132.5t61,91T683,333q0,59-22,110.5t-61,91t-90.5,62T399,619T288.5,596.5t-90.5-62t-61-91T115,333q0-58 22-109.5t61-91T288.5,71T399,49ZM264,162V530H376q55,0 93.5-9T529,487.5T550,414q0-15-6-35.5T519,340t-57-29L570,162H484L382,301H340V162H264Zm76,197h53q43,0 62,14t19,40q0,34-24,45t-62,11H340V359Z"/>
      <glyph unicode="&#xaf;" glyph-name="macron" horiz-adv-x="382" d="M53,601v67H329V601H53Z"/>
      <glyph unicode="&#xb0;" glyph-name="degree" horiz-adv-x="352" d="M176,408q-37,0-68,18.5T58.5,476T40,544q0,38 18.5,68.5t49.5,49T176,680q38,0 68.5-18.5t49-49T312,544q0-37-18.5-68t-49-49.5T176,408Zm0,63q31,0 52,21.5T249,544q0,31-21,52t-52,21q-30,0-51.5-21T103,544q0-30 21.5-51.5T176,471Z"/>
      <glyph unicode="&#xb1;" glyph-name="plusminus" horiz-adv-x="579" d="M250,124V270H53v79H250V496h79V349H526V270H329V124H250ZM53,0V79H526V0H53Z"/>
      <glyph unicode="&#xb2;" glyph-name="uni00B2" horiz-adv-x="382" d="M53,403v55q92,73 144.5,125.5T250,682q0,26-15.5,40T193,736q-22,0-41-13.5T129,677L65,695q11,42 45,66.5T196,786q53,0 88.5-26T320,686q0-55-49-110T134,461H329V403H53Z"/>
      <glyph unicode="&#xb3;" glyph-name="uni00B3" horiz-adv-x="383" d="M187,397q-53,0-87,25.5T53,486l62,18q8-23 25-39.5T188,448t52,16.5T261,509q0,35-23.5,49T176,572H151v54h21q36,0 58,13.5T252,683q0,28-19,40.5T190,736q-55,0-71-53L58,701q13,40 48.5,62.5T194,786q31,0 60-10.5T302,743t19-58q0-27-15-49t-38-34q31-12 46.5-37T330,511q0-38-20-63.5t-52.5-38T187,397Z"/>
      <glyph unicode="&#xb4;" glyph-name="acute" horiz-adv-x="268" d="M53,571q3,4 15.5,20.5T97,629t30.5,39.5T149,694q10,13 28,13q16,0 27-10.5T215,669q0-7-2.5-13.5T202,641q-7-8-25-24t-34.5-29.5T123,571H53Z"/>
      <glyph unicode="&#xb5;" glyph-name="uni00B5" horiz-adv-x="555" d="M70-162V496h84V198q0-75 27-106t79-31q51,0 88,40.5T385,236V496h84V122q0-28 10-37.5T510,75q11,0 17.5,2T540,80V7q-9-2-23-4.5T480,0q-35,0-58,20T390,73q-21-38-58-61T239-11q-35,0-59.5,10T139,24q5-24 10-50.5T154-79v-83H70Z"/>
      <glyph unicode="&#xb6;" glyph-name="paragraph" horiz-adv-x="508" d="M187-161V294q-42,9-76,35.5T57.5,395T38,479q0,52 25.5,95T132,642.5T227,668H483V601H443V-161H362V601H268V-161H187Z"/>
      <glyph unicode="&#xb7;" glyph-name="periodcentered" horiz-adv-x="235" d="M117,183q-26,0-45,19T53,248q0,26 19,45t45,19q27,0 46-19t19-45q0-27-19-46t-46-19Z"/>
      <glyph unicode="&#xb8;" glyph-name="cedilla" horiz-adv-x="291" d="M161-181q-19,0-40.5,5T73-161l14,35q17-7 31.5-10.5T145-140q26,0 38.5,11T196-106q0,10-8.5,17.5T160-81q-7,0-14.5-1.5T129-86q-13-4-20.5,3T101-67q0,6 3,10l51,82L189,4L159-45q8,2 15.5,3T189-41q35,0 52-18.5T258-102q0-28-24-53.5T161-181Z"/>
      <glyph unicode="&#xb9;" glyph-name="uni00B9" horiz-adv-x="256" d="M136,403V683H53v47q33,0 58.5,10.5T147,779h56V403H136Z"/>
      <glyph unicode="&#xba;" glyph-name="ordmasculine" horiz-adv-x="381" d="M194,398q-35,0-66.5,16t-51,48.5T57,545t19.5,82.5t51,48.5T194,692q36,0 67.5-16t51-48.5T332,545t-19.5-82.5t-51-48.5T194,398Zm0,54q30,0 49.5,24T263,545t-19.5,69T194,638q-29,0-48.5-24T126,545t19.5-69T194,452Z"/>
      <glyph unicode="&#xbb;" glyph-name="guillemotright" horiz-adv-x="562" d="M262,40L411,251L262,461h99L509,251L361,40H262ZM53,40L202,251L53,461H153L300,251L153,40H53Z"/>
      <glyph unicode="&#xbc;" glyph-name="onequarter" horiz-adv-x="826" d="M115,0L583,668h88L204,0H115Zm21,292V571H53v48q33,0 58.5,10.5T147,668h57V292H136ZM640,0V86H455v54L641,376h67V143h65V86H708V0H640ZM528,143H640V289L528,143Z"/>
      <glyph unicode="&#xbd;" glyph-name="onehalf" horiz-adv-x="812" d="M115,0L583,668h88L203,0H115Zm21,292V571H53v48q33,0 58.5,10.5T147,668h56V292H136ZM484,0V54q92,74 144.5,126T681,278q0,26-15.5,40T624,332q-22,0-41-13.5T559,273l-64,19q11,41 45.5,65.5T627,382q53,0 88.5-26T751,283q0-56-49-111T565,58H759V0H484Z"/>
      <glyph unicode="&#xbe;" glyph-name="threequarters" horiz-adv-x="868" d="M187,291q-53,0-87,25.5T53,380l62,18q8-24 25-40t48-16t52,16.5T261,403q0,35-23.5,49T170,466H151v53h18q83,0 83,57q0,27-19,40t-43,13q-28,0-45.5-14T119,576L58,594q13,40 48.5,63T194,680q31,0 60-10.5t48-33T321,578q0-28-15-49.5T268,495q31-11 46.5-36T330,405q0-38-20-63.5t-52.5-38T187,291ZM157,0L626,668h88L245,0H157ZM682,0V86H497v54L683,376h68V143h64V86H751V0H682ZM570,143H682V289L570,143Z"/>
      <glyph unicode="&#xbf;" glyph-name="questiondown" horiz-adv-x="520" d="M293,390q-27,0-46,19t-19,46q0,26 19,45t46,19q26,0 45-19t19-45q0-27-19-46t-45-19ZM258-174q-52,0-100,17.5t-78.5,54T49-10q0,43 18,78t47,62.5T174,178q29,19 45.5,32.5t24,30T251,282v34h86V279q0-38-12.5-65t-38-48.5T223,119q-36-22-61-51T137-2q0-48 35-75t90-27q45,0 73,16.5T378-46T397,5l82-23q-15-72-75-114T258-174Z"/>
      <glyph unicode="&#xc0;" glyph-name="Agrave" horiz-adv-x="626" d="M10,0L261,669H366L616,0H516L465,146H161L110,0H10ZM190,227H436L313,574L190,227Zm98,517q-3,2-19,11.5T234.5,777T207,796q-16,14-16,32q0,15 10.5,25.5T227,864q8,0 16-2.5T258,851L364,744H288Z"/>
      <glyph unicode="&#xc1;" glyph-name="Aacute" horiz-adv-x="626" d="M10,0L261,669H366L616,0H516L465,146H161L110,0H10ZM190,227H436L313,574L190,227Zm65,517q3,3 17.5,18t33,34T340,831t22,21q14,12 29,12t25.5-10.5T427,828q0-19-16-32q-8-7-26.5-19T350,755.5T331,744H255Z"/>
      <glyph unicode="&#xc2;" glyph-name="Acircumflex" horiz-adv-x="626" d="M10,0L261,669H366L616,0H516L465,146H161L110,0H10ZM190,227H436L313,574L190,227ZM151,747L263,848q20,19 50,19q29,0 49-19L474,747H380l-68,61l-67-61H151Z"/>
      <glyph unicode="&#xc3;" glyph-name="Atilde" horiz-adv-x="626" d="M10,0L261,669H366L616,0H516L465,146H161L110,0H10ZM190,227H436L313,574L190,227ZM380,747q-16,0-32,5.5T312,768q-15,8-28.5,15T255,790q-37,0-42-41H148q9,53 37.5,78.5T254,853q28,0 48-10.5T339.5,821T378,810q15,0 23.5,6T417,833q6,11 14,15t15,4q14,0 22.5-9.5T477,821q0-15-13-32t-35-29.5T380,747Z"/>
      <glyph unicode="&#xc4;" glyph-name="Adieresis" horiz-adv-x="626" d="M10,0L261,669H366L616,0H516L465,146H161L110,0H10ZM190,227H436L313,574L190,227Zm17,513q-22,0-38,16t-16,38t16,37.5T207,847q23,0 38.5-15.5T261,794t-15.5-38T207,740Zm211,0q-22,0-37.5,16T365,794t15.5,37.5T418,847q23,0 38.5-15.5T472,794t-15.5-38T418,740Z"/>
      <glyph unicode="&#xc5;" glyph-name="Aring" horiz-adv-x="626" d="M10,0L261,669H366L616,0H516L465,146H161L110,0H10ZM190,227H436L313,574L190,227ZM315,620q-31,0-56,15t-40,40t-15,54q0,30 15,54.5T259,823t56,15q46,0 76.5-32.5T422,729t-30.5-76.5T315,620Zm-2,58q22,0 37,15t15,36t-15,36t-37,15t-37-15t-15-36t15-36t37-15Z"/>
      <glyph unicode="&#xc6;" glyph-name="AE" horiz-adv-x="998" d="M10,0L496,668H960V587H600V384H866V303H600V81H960V0H506V145H223L119,0H10ZM279,226H506V546L279,226Z"/>
      <glyph unicode="&#xc7;" glyph-name="Ccedilla" horiz-adv-x="656" d="M353-12q-95,0-163,44.5T86,155T50,335q0,104 38.5,181.5T197,637t164,43q84,0 151.5-39T614,529l-82-30q-22,45-66.5,73.5T356,601q-59,0-106.5-30T174,481.5T146,335q0-84 27-144t75.5-92T359,67q65,0 109.5,28T536,169l82-30Q582,65 512,26.5T353-12Zm-6-169q-19,0-40.5,5T259-161l14,35q17-7 31.5-10.5T331-140q26,0 38.5,11T382-106q0,10-8.5,17.5T346-81q-7,0-14.5-1.5T315-86q-13-4-20.5,3T287-67q0,6 3,10l51,82L375,4L345-45q8,2 15.5,3T375-41q35,0 52-18.5T444-102q0-28-24-53.5T347-181Z"/>
      <glyph unicode="&#xc8;" glyph-name="Egrave" horiz-adv-x="567" d="M76,0V668H529V587H170V384H435V303H170V81H529V0H76ZM279,744q-3,2-19,11.5T225.5,777T198,796q-16,14-16,32q0,15 10.5,25.5T218,864q8,0 16-2.5T249,851L355,744H279Z"/>
      <glyph unicode="&#xc9;" glyph-name="Eacute" horiz-adv-x="567" d="M76,0V668H529V587H170V384H435V303H170V81H529V0H76ZM246,744q3,3 17.5,18t33,34T331,831t22,21q14,12 29,12t25.5-10.5T418,828q0-19-16-32q-8-7-26.5-19T341,755.5T322,744H246Z"/>
      <glyph unicode="&#xca;" glyph-name="Ecircumflex" horiz-adv-x="567" d="M76,0V668H529V587H170V384H435V303H170V81H529V0H76Zm66,747L254,848q20,19 50,19q29,0 49-19L465,747H371l-68,61l-67-61H142Z"/>
      <glyph unicode="&#xcb;" glyph-name="Edieresis" horiz-adv-x="567" d="M76,0V668H529V587H170V384H435V303H170V81H529V0H76ZM198,740q-22,0-38,16t-16,38t16,37.5T198,847q23,0 38.5-15.5T252,794t-15.5-38T198,740Zm211,0q-22,0-37.5,16T356,794t15.5,37.5T409,847q23,0 38.5-15.5T463,794t-15.5-38T409,740Z"/>
      <glyph unicode="&#xcc;" glyph-name="Igrave" horiz-adv-x="414" d="M66,0V74h94V594H66v74H348V594H254V74h94V0H66ZM182,744q-3,2-19,11.5T128.5,777T101,796q-16,14-16,32q0,15 10.5,25.5T121,864q8,0 16-2.5T152,851L258,744H182Z"/>
      <glyph unicode="&#xcd;" glyph-name="Iacute" horiz-adv-x="414" d="M66,0V74h94V594H66v74H348V594H254V74h94V0H66Zm83,744q3,3 17.5,18t33,34T234,831t22,21q14,12 29,12t25.5-10.5T321,828q0-19-16-32q-8-7-26.5-19T244,755.5T225,744H149Z"/>
      <glyph unicode="&#xce;" glyph-name="Icircumflex" horiz-adv-x="414" d="M66,0V74h94V594H66v74H348V594H254V74h94V0H66ZM45,747L157,848q20,19 50,19q29,0 49-19L368,747H274l-68,61l-67-61H45Z"/>
      <glyph unicode="&#xcf;" glyph-name="Idieresis" horiz-adv-x="414" d="M66,0V74h94V594H66v74H348V594H254V74h94V0H66Zm35,740q-22,0-38,16T47,794t16,37.5T101,847q23,0 38.5-15.5T155,794t-15.5-38T101,740Zm211,0q-22,0-37.5,16T259,794t15.5,37.5T312,847q23,0 38.5-15.5T366,794t-15.5-38T312,740Z"/>
      <glyph unicode="&#xd0;" glyph-name="Eth" horiz-adv-x="712" d="M115,0V303H20v80h95V668H297q80,0 146.5-16.5T559,597t76-102.5T662,335q0-96-27-160.5t-76-103t-115.5-55T297,0H115Zm94,79h86q52,0 100.5,8.5t87,34t61,77T566,335T543.5,470.5t-61,76t-87,34T295,589H209V383H349V303H209V79Z"/>
      <glyph unicode="&#xd1;" glyph-name="Ntilde" horiz-adv-x="689" d="M76,0V668H215L519,100V668h94V0H475L170,571V0H76ZM429,747q-16,0-32,5.5T361,768q-15,8-28.5,15T304,790q-37,0-42-41H197q9,53 37.5,78.5T303,853q28,0 48-10.5T388.5,821T427,810q15,0 23.5,6T466,833q6,11 14,15t15,4q14,0 22.5-9.5T526,821q0-15-13-32t-35-29.5T429,747Z"/>
      <glyph unicode="&#xd2;" glyph-name="Ograve" horiz-adv-x="727" d="M363-12q-96,0-166,44.5T88.5,155.5T50,335T88.5,513.5T197,635.5T363,680q97,0 167-44.5t108.5-122T677,335T638.5,155.5T530,32.5T363-12Zm0,79q61,0 110.5,31T552,188.5T581,335q0,86-29,145.5t-78.5,90T363,601q-60,0-109.5-30.5t-78.5-90T146,335q0-87 29-146.5T253.5,98T363,67ZM339,744q-3,2-19,11.5T285.5,777T258,796q-16,14-16,32q0,15 10.5,25.5T278,864q8,0 16-2.5T309,851L415,744H339Z"/>
      <glyph unicode="&#xd3;" glyph-name="Oacute" horiz-adv-x="727" d="M363-12q-96,0-166,44.5T88.5,155.5T50,335T88.5,513.5T197,635.5T363,680q97,0 167-44.5t108.5-122T677,335T638.5,155.5T530,32.5T363-12Zm0,79q61,0 110.5,31T552,188.5T581,335q0,86-29,145.5t-78.5,90T363,601q-60,0-109.5-30.5t-78.5-90T146,335q0-87 29-146.5T253.5,98T363,67ZM306,744q3,3 17.5,18t33,34T391,831t22,21q14,12 29,12t25.5-10.5T478,828q0-19-16-32q-8-7-26.5-19T401,755.5T382,744H306Z"/>
      <glyph unicode="&#xd4;" glyph-name="Ocircumflex" horiz-adv-x="727" d="M363-12q-96,0-166,44.5T88.5,155.5T50,335T88.5,513.5T197,635.5T363,680q97,0 167-44.5t108.5-122T677,335T638.5,155.5T530,32.5T363-12Zm0,79q61,0 110.5,31T552,188.5T581,335q0,86-29,145.5t-78.5,90T363,601q-60,0-109.5-30.5t-78.5-90T146,335q0-87 29-146.5T253.5,98T363,67ZM202,747L314,848q20,19 50,19q29,0 49-19L525,747H431l-68,61l-67-61H202Z"/>
      <glyph unicode="&#xd5;" glyph-name="Otilde" horiz-adv-x="727" d="M363-12q-96,0-166,44.5T88.5,155.5T50,335T88.5,513.5T197,635.5T363,680q97,0 167-44.5t108.5-122T677,335T638.5,155.5T530,32.5T363-12Zm0,79q61,0 110.5,31T552,188.5T581,335q0,86-29,145.5t-78.5,90T363,601q-60,0-109.5-30.5t-78.5-90T146,335q0-87 29-146.5T253.5,98T363,67Zm68,680q-16,0-32,5.5T363,768q-15,8-28.5,15T306,790q-37,0-42-41H199q9,53 37.5,78.5T305,853q28,0 48-10.5T390.5,821T429,810q15,0 23.5,6T468,833q6,11 14,15t15,4q14,0 22.5-9.5T528,821q0-15-13-32t-35-29.5T431,747Z"/>
      <glyph unicode="&#xd6;" glyph-name="Odieresis" horiz-adv-x="727" d="M363-12q-96,0-166,44.5T88.5,155.5T50,335T88.5,513.5T197,635.5T363,680q97,0 167-44.5t108.5-122T677,335T638.5,155.5T530,32.5T363-12Zm0,79q61,0 110.5,31T552,188.5T581,335q0,86-29,145.5t-78.5,90T363,601q-60,0-109.5-30.5t-78.5-90T146,335q0-87 29-146.5T253.5,98T363,67ZM258,740q-22,0-38,16t-16,38t16,37.5T258,847q23,0 38.5-15.5T312,794t-15.5-38T258,740Zm211,0q-22,0-37.5,16T416,794t15.5,37.5T469,847q23,0 38.5-15.5T523,794t-15.5-38T469,740Z"/>
      <glyph unicode="&#xd7;" glyph-name="multiply" horiz-adv-x="528" d="M110,39L53,97L207,250L53,404l57,58L264,308L418,462l57-58L322,250L475,97L418,39L264,193L110,39Z"/>
      <glyph unicode="&#xd8;" glyph-name="Oslash" horiz-adv-x="727" d="M363-12Q302-12 250.5,7T160,60L103-6L65,27l60,70Q89,142 69.5,202.5T50,333q0,101 38.5,179.5T197,635.5T363,680q60,0 110.5-18T563,610l53,63l39-32l-56-67q38-46 58-107t20-134q0-100-38.5-178T530,32.5T363-12ZM186,169L506,543q-58,56-143,56q-60,0-109.5-30.5T175,479T146,333q0-99 40-164ZM363,67q61,0 110.5,31T552,188.5T581,333q0,53-11.5,95.5T538,503L217,127q58-60 146-60Z"/>
      <glyph unicode="&#xd9;" glyph-name="Ugrave" horiz-adv-x="690" d="M345-12Q200-12 138,60.5T76,279V668h94V272q0-99 39.5-151T345,69t135.5,52T520,272V668h94V279q0-146-61.5-218.5T345-12ZM320,744q-3,2-19,11.5T266.5,777T239,796q-16,14-16,32q0,15 10.5,25.5T259,864q8,0 16-2.5T290,851L396,744H320Z"/>
      <glyph unicode="&#xda;" glyph-name="Uacute" horiz-adv-x="690" d="M345-12Q200-12 138,60.5T76,279V668h94V272q0-99 39.5-151T345,69t135.5,52T520,272V668h94V279q0-146-61.5-218.5T345-12ZM287,744q3,3 17.5,18t33,34T372,831t22,21q14,12 29,12t25.5-10.5T459,828q0-19-16-32q-8-7-26.5-19T382,755.5T363,744H287Z"/>
      <glyph unicode="&#xdb;" glyph-name="Ucircumflex" horiz-adv-x="690" d="M345-12Q200-12 138,60.5T76,279V668h94V272q0-99 39.5-151T345,69t135.5,52T520,272V668h94V279q0-146-61.5-218.5T345-12ZM183,747L295,848q20,19 50,19q29,0 49-19L506,747H412l-68,61l-67-61H183Z"/>
      <glyph unicode="&#xdc;" glyph-name="Udieresis" horiz-adv-x="690" d="M345-12Q200-12 138,60.5T76,279V668h94V272q0-99 39.5-151T345,69t135.5,52T520,272V668h94V279q0-146-61.5-218.5T345-12ZM239,740q-22,0-38,16t-16,38t16,37.5T239,847q23,0 38.5-15.5T293,794t-15.5-38T239,740Zm211,0q-22,0-37.5,16T397,794t15.5,37.5T450,847q23,0 38.5-15.5T504,794t-15.5-38T450,740Z"/>
      <glyph unicode="&#xdd;" glyph-name="Yacute" horiz-adv-x="595" d="M251,0V259L10,668H113L298,345L482,668H585L345,259V0H251ZM240,744q3,3 17.5,18t33,34T325,831t22,21q14,12 29,12t25.5-10.5T412,828q0-19-16-32q-8-7-26.5-19T335,755.5T316,744H240Z"/>
      <glyph unicode="&#xde;" glyph-name="Thorn" horiz-adv-x="576" d="M76,0V668h84V528H287q74,0 130.5-14.5t88.5-54T538,345T506,231t-88.5-53.5T287,163H160V0H76Zm84,244H296q41,0 73.5,6t52,27T441,344t-19.5,67.5t-52,28.5T296,447H160V244Z"/>
      <glyph unicode="&#xdf;" glyph-name="germandbls" horiz-adv-x="597" d="M316-12H302L279,65q21-3 39-3q68,0 109.5,33T469,195q0,73-49,104T291,330H279v76h6q41,0 75,11t54.5,34.5T435,511q0,44-34,72t-90,28q-79,0-115-36T160,453V0H76V453q0,36 7.5,75.5t31,74t71,56T312,680q60,0 107-19.5t74-55T520,521q0-50-24-86.5T420,376q59-15 99-56.5T559,197q0-76-34.5-122T435,8.5T316-12Z"/>
      <glyph unicode="&#xe0;" glyph-name="agrave" horiz-adv-x="526" d="M209-12q-47,0-86,17T61,54T38,131q0,59 41.5,93t117,52.5T373,306q2,63-25,97t-87,34q-45,0-73.5-20.5T151,360L70,384q20,57 71.5,88.5T260,504q103,0 150.5-48.5T458,303V187q0-62 5-107T475,0H398L378,68Q356,31 315,9.5T209-12Zm18,67q39,0 74,14t57,47.5T380,208v31q-76-8-132-19.5t-86.5-32T131,133q0-35 25.5-56.5T227,55Zm20,516q-19,16-40,33.5T172,636q-10,11-13.5,18.5T155,669q0,16 11,27t27,11q8,0 16-3t15-12l93-121H247Z"/>
      <glyph unicode="&#xe1;" glyph-name="aacute" horiz-adv-x="526" d="M209-12q-47,0-86,17T61,54T38,131q0,59 41.5,93t117,52.5T373,306q2,63-25,97t-87,34q-45,0-73.5-20.5T151,360L70,384q20,57 71.5,88.5T260,504q103,0 150.5-48.5T458,303V187q0-62 5-107T475,0H398L378,68Q356,31 315,9.5T209-12Zm18,67q39,0 74,14t57,47.5T380,208v31q-76-8-132-19.5t-86.5-32T131,133q0-35 25.5-56.5T227,55ZM216,571q3,4 15.5,20.5T260,629t30.5,39.5T312,694q10,13 28,13q16,0 27-10.5T378,669q0-7-2.5-13.5T365,641q-7-8-25-24t-34.5-29.5T286,571H216Z"/>
      <glyph unicode="&#xe2;" glyph-name="acircumflex" horiz-adv-x="526" d="M209-12q-47,0-86,17T61,54T38,131q0,59 41.5,93t117,52.5T373,306q2,63-25,97t-87,34q-45,0-73.5-20.5T151,360L70,384q20,57 71.5,88.5T260,504q103,0 150.5-48.5T458,303V187q0-62 5-107T475,0H398L378,68Q356,31 315,9.5T209-12Zm18,67q39,0 74,14t57,47.5T380,208v31q-76-8-132-19.5t-86.5-32T131,133q0-35 25.5-56.5T227,55ZM101,575L213,676q20,19 50,19q29,0 49-19L424,575H330l-68,61l-67-61H101Z"/>
      <glyph unicode="&#xe3;" glyph-name="atilde" horiz-adv-x="526" d="M209-12q-47,0-86,17T61,54T38,131q0,59 41.5,93t117,52.5T373,306q2,63-25,97t-87,34q-45,0-73.5-20.5T151,360L70,384q20,57 71.5,88.5T260,504q103,0 150.5-48.5T458,303V187q0-62 5-107T475,0H398L378,68Q356,31 315,9.5T209-12Zm18,67q39,0 74,14t57,47.5T380,208v31q-76-8-132-19.5t-86.5-32T131,133q0-35 25.5-56.5T227,55ZM330,575q-16,0-32,5.5T262,596q-15,8-28.5,15T205,618q-37,0-42-41H98q9,53 37.5,78.5T204,681q28,0 48-10.5T289.5,649T328,638q15,0 23.5,6T367,661q6,11 14,15t15,4q14,0 22.5-9.5T427,649q0-15-13-32t-35-29.5T330,575Z"/>
      <glyph unicode="&#xe4;" glyph-name="adieresis" horiz-adv-x="526" d="M209-12q-47,0-86,17T61,54T38,131q0,59 41.5,93t117,52.5T373,306q2,63-25,97t-87,34q-45,0-73.5-20.5T151,360L70,384q20,57 71.5,88.5T260,504q103,0 150.5-48.5T458,303V187q0-62 5-107T475,0H398L378,68Q356,31 315,9.5T209-12Zm18,67q39,0 74,14t57,47.5T380,208v31q-76-8-132-19.5t-86.5-32T131,133q0-35 25.5-56.5T227,55ZM157,590q-22,0-38,16t-16,38t16,37.5T157,697q23,0 38.5-15.5T211,644t-15.5-38T157,590Zm211,0q-22,0-37.5,16T315,644t15.5,37.5T368,697q23,0 38.5-15.5T422,644t-15.5-38T368,590Z"/>
      <glyph unicode="&#xe5;" glyph-name="aring" horiz-adv-x="526" d="M209-12q-47,0-86,17T61,54T38,131q0,59 41.5,93t117,52.5T373,306q2,63-25,97t-87,34q-45,0-73.5-20.5T151,360L70,384q20,57 71.5,88.5T260,504q103,0 150.5-48.5T458,303V187q0-62 5-107T475,0H398L378,68Q356,31 315,9.5T209-12Zm18,67q39,0 74,14t57,47.5T380,208v31q-76-8-132-19.5t-86.5-32T131,133q0-35 25.5-56.5T227,55Zm38,504q-31,0-56,15t-40,40t-15,54q0,30 15,54.5T209,762t56,15q46,0 76.5-32.5T372,668t-30.5-76.5T265,559Zm-2,58q22,0 37,15t15,36t-15,36t-37,15t-37-15t-15-36t15-36t37-15Z"/>
      <glyph unicode="&#xe6;" glyph-name="ae" horiz-adv-x="874" d="M209-12q-47,0-86,17T61,54T38,131q0,60 44.5,95T203,276.5T373,292v27q0,23-7.5,50t-31,47T261,436q-45,0-73.5-20.5T151,359L70,383q21,59 75,90t115,31q130,0 173-80q33,38 79.5,59T614,504q60,0 104.5-23.5t74-63t43-89.5T845,225H463q3-62 28-98t60-50.5T617,62q41,0 69.5,13.5T733,111l81-24q-28-43-78-71T617-12T497.5,15T417,88q-25-43-77-71.5T209-12ZM465,292H757q-1,35-18.5,67t-49,52.5T614,432q-37,0-70-14t-54-45t-25-81ZM227,54q80,0 116.5,41T380,209v16q-114,0-181.5-20.5T131,133q0-35 25.5-57T227,54Z"/>
      <glyph unicode="&#xe7;" glyph-name="ccedilla" horiz-adv-x="500" d="M269-12q-71,0-123,33.5T66,113T38,246q0,74 29.5,132.5t83.5,92T278,504q67,0 115-33t72-79l-77-28q-16,30-47,48t-69,18q-37,0-70-19.5t-53-60T129,247q0-62 20.5-103.5t53-61.5T272,62q41,0 71.5,18.5T390,127l77-28q-28-48-80-79.5T269-12Zm0-169q-19,0-40.5,5T181-161l14,35q17-7 31.5-10.5T253-140q26,0 38.5,11T304-106q0,10-8.5,17.5T268-81q-7,0-14.5-1.5T237-86q-13-4-20.5,3T209-67q0,6 3,10l51,82L297,4L267-45q8,2 15.5,3T297-41q35,0 52-18.5T366-102q0-28-24-53.5T269-181Z"/>
      <glyph unicode="&#xe8;" glyph-name="egrave" horiz-adv-x="539" d="M281-12q-78,0-132,34.5t-82.5,93T38,247q0,79 32,136.5t86.5,89T279,504q59,0 104-23.5t74.5-63t43-89.5T510,225H128q2-62 27.5-98T216,76.5T281,62q42,0 70.5,13.5T397,111l81-24q-27-43-77-71T281-12ZM129,292H421q0,35-17.5,67t-49,52.5T279,432q-37,0-70-14t-54.5-45T129,292ZM265,571q-19,16-40,33.5T190,636q-10,11-13.5,18.5T173,669q0,16 11,27t27,11q8,0 16-3t15-12l93-121H265Z"/>
      <glyph unicode="&#xe9;" glyph-name="eacute" horiz-adv-x="539" d="M281-12q-78,0-132,34.5t-82.5,93T38,247q0,79 32,136.5t86.5,89T279,504q59,0 104-23.5t74.5-63t43-89.5T510,225H128q2-62 27.5-98T216,76.5T281,62q42,0 70.5,13.5T397,111l81-24q-27-43-77-71T281-12ZM129,292H421q0,35-17.5,67t-49,52.5T279,432q-37,0-70-14t-54.5-45T129,292ZM234,571q3,4 15.5,20.5T278,629t30.5,39.5T330,694q10,13 28,13q16,0 27-10.5T396,669q0-7-2.5-13.5T383,641q-7-8-25-24t-34.5-29.5T304,571H234Z"/>
      <glyph unicode="&#xea;" glyph-name="ecircumflex" horiz-adv-x="539" d="M281-12q-78,0-132,34.5t-82.5,93T38,247q0,79 32,136.5t86.5,89T279,504q59,0 104-23.5t74.5-63t43-89.5T510,225H128q2-62 27.5-98T216,76.5T281,62q42,0 70.5,13.5T397,111l81-24q-27-43-77-71T281-12ZM129,292H421q0,35-17.5,67t-49,52.5T279,432q-37,0-70-14t-54.5-45T129,292ZM119,575L231,676q20,19 50,19q29,0 49-19L442,575H348l-68,61l-67-61H119Z"/>
      <glyph unicode="&#xeb;" glyph-name="edieresis" horiz-adv-x="539" d="M281-12q-78,0-132,34.5t-82.5,93T38,247q0,79 32,136.5t86.5,89T279,504q59,0 104-23.5t74.5-63t43-89.5T510,225H128q2-62 27.5-98T216,76.5T281,62q42,0 70.5,13.5T397,111l81-24q-27-43-77-71T281-12ZM129,292H421q0,35-17.5,67t-49,52.5T279,432q-37,0-70-14t-54.5-45T129,292Zm46,298q-22,0-38,16t-16,38t16,37.5T175,697q23,0 38.5-15.5T229,644t-15.5-38T175,590Zm211,0q-22,0-37.5,16T333,644t15.5,37.5T386,697q23,0 38.5-15.5T440,644t-15.5-38T386,590Z"/>
      <glyph unicode="&#xec;" glyph-name="igrave" horiz-adv-x="278" d="M114,0V429H45v67H198V0H114Zm4,571q-19,16-40,33.5T43,636q-10,11-13.5,18.5T26,669q0,16 11,27t27,11q8,0 16-3t15-12l93-121H118Z"/>
      <glyph unicode="&#xed;" glyph-name="iacute" horiz-adv-x="278" d="M114,0V429H45v67H198V0H114ZM87,571q3,4 15.5,20.5T131,629t30.5,39.5T183,694q10,13 28,13q16,0 27-10.5T249,669q0-7-2.5-13.5T236,641q-7-8-25-24t-34.5-29.5T157,571H87Z"/>
      <glyph unicode="&#xee;" glyph-name="icircumflex" horiz-adv-x="278" d="M114,0V429H45v67H198V0H114ZM-28,575L84,676q20,19 50,19q29,0 49-19L295,575H201l-68,61L66,575H-28Z"/>
      <glyph unicode="&#xef;" glyph-name="idieresis" horiz-adv-x="278" d="M114,0V429H45v67H198V0H114ZM28,590q-22,0-38,16t-16,38t16,37.5T28,697q23,0 38.5-15.5T82,644T66.5,606T28,590Zm211,0q-22,0-37.5,16T186,644t15.5,37.5T239,697q23,0 38.5-15.5T293,644t-15.5-38T239,590Z"/>
      <glyph unicode="&#xf0;" glyph-name="eth" horiz-adv-x="567" d="M273-12q-71,0-124,31.5t-82,84T38,218q0,67 28,118t77,80t111,29q66,0 109.5-26.5T430,352q-4,69-23,116.5T356,547l-73-73l-36,36l66,66q-27,14-61.5,20T175,602v77q56,0 105.5-10T371,634l46,46l36-36l-40-40q36-32 59-80t34-105t11-116q0-60-11.5-116.5T466.5,85t-75-71T273-12Zm0,71q67,0 106.5,43.5T419,215T379.5,327.5T273,371q-66,0-105.5-43.5T128,215t39.5-112.5T273,59Z"/>
      <glyph unicode="&#xf1;" glyph-name="ntilde" horiz-adv-x="546" d="M70,0V496h62l22-75q21,35 59,59t101,24q90,0 127-52.5T478,314V0H394V289q0,38-7,70.5T356.5,412T285,432q-61,0-96-41.5T154,269V0H70ZM355,575q-16,0-32,5.5T287,596q-15,8-28.5,15T230,618q-37,0-42-41H123q9,53 37.5,78.5T229,681q28,0 48-10.5T314.5,649T353,638q15,0 23.5,6T392,661q6,11 14,15t15,4q14,0 22.5-9.5T452,649q0-15-13-32t-35-29.5T355,575Z"/>
      <glyph unicode="&#xf2;" glyph-name="ograve" horiz-adv-x="552" d="M276-12q-43,0-85,15T114.5,49.5T59,130T38,246T59,362t55.5,80.5T191,489t85,15t85.5-15t77-46.5t55-80.5T514,246T493.5,130t-55-80.5T361.5,3T276-12Zm0,74q36,0 70,19.5t56,60T424,246T402,350.5t-56,60T276,430q-35,0-69.5-19.5t-56.5-60T128,246t22-104.5t56.5-60T276,62ZM260,571q-19,16-40,33.5T185,636q-10,11-13.5,18.5T168,669q0,16 11,27t27,11q8,0 16-3t15-12l93-121H260Z"/>
      <glyph unicode="&#xf3;" glyph-name="oacute" horiz-adv-x="552" d="M276-12q-43,0-85,15T114.5,49.5T59,130T38,246T59,362t55.5,80.5T191,489t85,15t85.5-15t77-46.5t55-80.5T514,246T493.5,130t-55-80.5T361.5,3T276-12Zm0,74q36,0 70,19.5t56,60T424,246T402,350.5t-56,60T276,430q-35,0-69.5-19.5t-56.5-60T128,246t22-104.5t56.5-60T276,62ZM229,571q3,4 15.5,20.5T273,629t30.5,39.5T325,694q10,13 28,13q16,0 27-10.5T391,669q0-7-2.5-13.5T378,641q-7-8-25-24t-34.5-29.5T299,571H229Z"/>
      <glyph unicode="&#xf4;" glyph-name="ocircumflex" horiz-adv-x="552" d="M276-12q-43,0-85,15T114.5,49.5T59,130T38,246T59,362t55.5,80.5T191,489t85,15t85.5-15t77-46.5t55-80.5T514,246T493.5,130t-55-80.5T361.5,3T276-12Zm0,74q36,0 70,19.5t56,60T424,246T402,350.5t-56,60T276,430q-35,0-69.5-19.5t-56.5-60T128,246t22-104.5t56.5-60T276,62ZM114,575L226,676q20,19 50,19q29,0 49-19L437,575H343l-68,61l-67-61H114Z"/>
      <glyph unicode="&#xf5;" glyph-name="otilde" horiz-adv-x="552" d="M276-12q-43,0-85,15T114.5,49.5T59,130T38,246T59,362t55.5,80.5T191,489t85,15t85.5-15t77-46.5t55-80.5T514,246T493.5,130t-55-80.5T361.5,3T276-12Zm0,74q36,0 70,19.5t56,60T424,246T402,350.5t-56,60T276,430q-35,0-69.5-19.5t-56.5-60T128,246t22-104.5t56.5-60T276,62Zm67,513q-16,0-32,5.5T275,596q-15,8-28.5,15T218,618q-37,0-42-41H111q9,53 37.5,78.5T217,681q28,0 48-10.5T302.5,649T341,638q15,0 23.5,6T380,661q6,11 14,15t15,4q14,0 22.5-9.5T440,649q0-15-13-32t-35-29.5T343,575Z"/>
      <glyph unicode="&#xf6;" glyph-name="odieresis" horiz-adv-x="552" d="M276-12q-43,0-85,15T114.5,49.5T59,130T38,246T59,362t55.5,80.5T191,489t85,15t85.5-15t77-46.5t55-80.5T514,246T493.5,130t-55-80.5T361.5,3T276-12Zm0,74q36,0 70,19.5t56,60T424,246T402,350.5t-56,60T276,430q-35,0-69.5-19.5t-56.5-60T128,246t22-104.5t56.5-60T276,62ZM170,590q-22,0-38,16t-16,38t16,37.5T170,697q23,0 38.5-15.5T224,644t-15.5-38T170,590Zm211,0q-22,0-37.5,16T328,644t15.5,37.5T381,697q23,0 38.5-15.5T435,644t-15.5-38T381,590Z"/>
      <glyph unicode="&#xf7;" glyph-name="divide" horiz-adv-x="602" d="M301,354q-27,0-46,18.5T236,418t19,46t46,19t45.5-19T365,418t-18.5-45.5T301,354ZM53,208v81H549V208H53ZM301,14q-27,0-46,19T236,79q0,26 19,45t46,19t45.5-19T365,79q0-27-18.5-46T301,14Z"/>
      <glyph unicode="&#xf8;" glyph-name="oslash" horiz-adv-x="552" d="M276-12q-40,0-79.5,12.5T125,40L83-9L45,24L89,77q-23,31-37,73T38,246q0,67 20.5,116t55,80.5t77,46.5T276,504q37,0 73-10.5T416,460l41,47l38-33l-41-49q27-31 43.5-75.5T514,246q0-67-20.5-116t-55-80.5T361.5,3T276-12ZM148,146L364,398q-19,17-42,24.5T276,430q-36,0-70-19.5t-56.5-60T127,246q0-30 5.5-55T148,146ZM276,62q36,0 70,19.5t56,60T424,246q0,35-7,63t-20,50L178,103q21-21 46.5-31T276,62Z"/>
      <glyph unicode="&#xf9;" glyph-name="ugrave" horiz-adv-x="536" d="M227-12q-58,0-93,24.5t-50.5,68T68,180V497h84V200q0-55 13-85t36.5-41.5T256,62q59,0 92.5,41.5T382,224V497h84V0H403L382,72q-21-36-57-60T227-12Zm24,583q-19,16-40,33.5T176,636q-10,11-13.5,18.5T159,669q0,16 11,27t27,11q8,0 16-3t15-12l93-121H251Z"/>
      <glyph unicode="&#xfa;" glyph-name="uacute" horiz-adv-x="536" d="M227-12q-58,0-93,24.5t-50.5,68T68,180V497h84V200q0-55 13-85t36.5-41.5T256,62q59,0 92.5,41.5T382,224V497h84V0H403L382,72q-21-36-57-60T227-12Zm-7,583q3,4 15.5,20.5T264,629t30.5,39.5T316,694q10,13 28,13q16,0 27-10.5T382,669q0-7-2.5-13.5T369,641q-7-8-25-24t-34.5-29.5T290,571H220Z"/>
      <glyph unicode="&#xfb;" glyph-name="ucircumflex" horiz-adv-x="536" d="M227-12q-58,0-93,24.5t-50.5,68T68,180V497h84V200q0-55 13-85t36.5-41.5T256,62q59,0 92.5,41.5T382,224V497h84V0H403L382,72q-21-36-57-60T227-12ZM105,575L217,676q20,19 50,19q29,0 49-19L428,575H334l-68,61l-67-61H105Z"/>
      <glyph unicode="&#xfc;" glyph-name="udieresis" horiz-adv-x="536" d="M227-12q-58,0-93,24.5t-50.5,68T68,180V497h84V200q0-55 13-85t36.5-41.5T256,62q59,0 92.5,41.5T382,224V497h84V0H403L382,72q-21-36-57-60T227-12ZM161,590q-22,0-38,16t-16,38t16,37.5T161,697q23,0 38.5-15.5T215,644t-15.5-38T161,590Zm211,0q-22,0-37.5,16T319,644t15.5,37.5T372,697q23,0 38.5-15.5T426,644t-15.5-38T372,590Z"/>
      <glyph unicode="&#xfd;" glyph-name="yacute" horiz-adv-x="429" d="M37-161v74H71q36,0 55,5.5t30.5,24T179-1L0,495H93L215,113L337,495h92L253-22q-18-53-36.5-83.5t-49.5-43T80-161H37ZM173,571q3,4 15.5,20.5T217,629t30.5,39.5T269,694q10,13 28,13q16,0 27-10.5T335,669q0-7-2.5-13.5T322,641q-7-8-25-24t-34.5-29.5T243,571H173Z"/>
      <glyph unicode="&#xfe;" glyph-name="thorn" horiz-adv-x="566" d="M70-161V669h84V418q23,39 63,63t98,24q57,0 105.5-30.5t78-88T528,246q0-81-29.5-139t-78-88.5T315-12q-58,0-98,24T154,75V-161H70ZM293,60q64,0 102.5,49T434,246q0,89-38.5,138T293,433T190.5,384T152,246q0-88 38.5-137T293,60Z"/>
      <glyph unicode="&#xff;" glyph-name="ydieresis" horiz-adv-x="429" d="M37-161v74H71q36,0 55,5.5t30.5,24T179-1L0,495H93L215,113L337,495h92L253-22q-18-53-36.5-83.5t-49.5-43T80-161H37Zm77,751q-22,0-38,16T60,644t16,37.5T114,697q23,0 38.5-15.5T168,644t-15.5-38T114,590Zm211,0q-22,0-37.5,16T272,644t15.5,37.5T325,697q23,0 38.5-15.5T379,644t-15.5-38T325,590Z"/>
      <glyph unicode="&#x2013;" glyph-name="endash" horiz-adv-x="480" d="M41,208v79H439V208H41Z"/>
      <glyph unicode="&#x2014;" glyph-name="emdash" horiz-adv-x="800" d="M41,208v79H759V208H41Z"/>
      <glyph unicode="&#x2018;" glyph-name="quoteleft" horiz-adv-x="235" d="M118,418q-27,0-46,19.5T53,482q0,12 5,25l62,161h55L128,546q23-4 38.5-22T182,482q0-27-19-45.5T118,418Z"/>
      <glyph unicode="&#x2019;" glyph-name="quoteright" horiz-adv-x="235" d="M60,429l47,123q-23,4-38.5,21.5T53,615q0,27 19,46t45,19q27,0 46-19t19-45q0-12-5-25L115,429H60Z"/>
      <glyph unicode="&#x201a;" glyph-name="quotesinglbase" horiz-adv-x="235" d="M60-134L107-11Q84-7 68.5,10.5T53,52q0,27 19,46t45,19q27,0 46-19t19-45q0-12-5-25L115-134H60Z"/>
      <glyph unicode="&#x201c;" glyph-name="quotedblleft" horiz-adv-x="398" d="M118,418q-25,0-45,17.5T53,477q0,11 2,19.5T61,515l59,153h55L128,546q23-4 38.5-22T182,482q0-27-19-45.5T118,418Zm163,0q-25,0-45,17.5T216,477q0,11 2,19.5t6,18.5l59,153h55L291,546q23-4 38.5-22T345,482q0-27-19-45.5T281,418Z"/>
      <glyph unicode="&#x201d;" glyph-name="quotedblright" horiz-adv-x="398" d="M60,429l47,123q-23,4-38.5,21.5T53,615q0,27 19,46t45,19q27,0 46-19t19-45q0-12-5-25L115,429H60Zm163,0l47,123q-23,4-38.5,21.5T216,615q0,27 19,46t46,19t45.5-19T345,616q0-12-5-25L279,429H223Z"/>
      <glyph unicode="&#x201e;" glyph-name="quotedblbase" horiz-adv-x="398" d="M60-134L107-11Q84-7 68.5,10.5T53,52q0,27 19,46t45,19q27,0 46-19t19-45q0-12-5-25L115-134H60Zm163,0L270-11q-23,4-38.5,21.5T216,52q0,27 19,46t46,19t45.5-19T345,53q0-12-5-25L279-134H223Z"/>
      <glyph unicode="&#x2022;" glyph-name="bullet" horiz-adv-x="438" d="M219,88q-46,0-83.5,22.5T75.5,171T53,254q0,46 22.5,83.5t60,60T219,420t83.5-22.5t60-60T385,254q0-45-22.5-83t-60-60.5T219,88Z"/>
      <glyph unicode="&#x2039;" glyph-name="guilsinglleft" horiz-adv-x="353" d="M201,40L53,250L201,461h99L151,250L300,40H201Z"/>
      <glyph unicode="&#x203a;" glyph-name="guilsinglright" horiz-adv-x="353" d="M53,40L202,250L53,461H153L300,250L153,40H53Z"/>
    </font>
</defs>
</svg>
