<?xml version="1.0" standalone="no"?>
<!DOCTYPE svg PUBLIC "-//W3C//DTD SVG 1.1//EN" "http://www.w3.org/Graphics/SVG/1.1/DTD/svg11.dtd">
<svg xmlns="http://www.w3.org/2000/svg">
  <defs>
    <font id="EBGaramond" horiz-adv-x="508">
      <font-face font-family="EB Garamond ExtraBold" units-per-em="1000" panose-1="0 0 0 0 0 0 0 0 0 0" ascent="1007" descent="-298" alphabetic="0"/>
      <glyph unicode=" " glyph-name="gid236" horiz-adv-x="245"/>
      <glyph unicode="!" glyph-name="gid203" horiz-adv-x="299" d="M147,172q-13,0-20.5,12T114,225q-9,58-17,105T83.5,416.5T75,490t-4,65q-1,36 22.5,65T152,649t56-27.5T229,557q0-31-4.5-66T213,416.5t-16-87T179,225q-4-23-11.5-38T147,172ZM145-14Q114-14 92,8T70,61t22,53t53,22t53-22t22-53T198,8T145-14Z"/>
      <glyph unicode="&quot;" glyph-name="gid234" horiz-adv-x="413" d="M81,400q-7,0-9.5,10.5T69,429q1,20-0.5,35.5T67,496q0,24-1.5,45t-3,40T61,617q0,15 10,26t20,17q18,12 32,18.5t33,6.5q12,0 19.5-11.5T183,647q0-32-12.5-73.5t-29-80T113,432q-6-11-16.5-21.5T81,400Zm168,0q-7,0-9.5,10.5T237,429q1,20-0.5,35.5T235,496q0,24-1.5,45t-3,40T229,617q0,15 10,26t20,17q18,12 32,18.5t33,6.5q12,0 19.5-11.5T351,647q0-32-12.5-73.5t-29-80T281,432q-6-11-16.5-21.5T249,400Z"/>
      <glyph unicode="#" glyph-name="gid210" horiz-adv-x="488" d="M72-96q-7,0-11.5,6T56-77v5L95,85L38,83q-11-1-17,6.5T15,104q0,28 5.5,43.5T35,170t19,7l64,3l26,106l-67-3q-11-1-17,6.5T54,304q0,28 5.5,43.5T74,370t19,7l75,3l35,143q3,17 13.5,22t27.5,5q6,0 9.5-6t3.5-13q0-3-1-4.5t-1-3.5L221,383l114,4l36,147q3,17 13.5,22t27.5,5q6,0 9.5-6t3.5-13q0-3-1-4.5t-1-3.5L388,390l59,3q13,1 20-5.5t7-16.5q0-17-6.5-33.5t-16-27T432,299l-68-3L338,189l70,3q13,1 20-5.5t7-16.5q0-17-6.5-33.5t-16-27T393,98l-78-3L278-56q-4-16-12.5-20T241-80q-7,0-11.5,6T225-61v5L262,92L148,88L109-72q-4-16-12.5-20T72-96Zm99,278l114,4l26,107l-113-4L171,182Z"/>
      <glyph unicode="$" glyph-name="gid246" horiz-adv-x="465" d="M178-82q-13,0-18.5,9T155-54l6,61q1,3 0,4.5T156,14q-26,5-50.5,14.5T58,51q-7,5-12.5,10.5T37,74q-10,26-14,63t-2,77q0,12 18,12q9,0 12.5-3t7.5-9q15-49 41-85.5T160,75q4-1 6.5,0t3.5,6l18,163q1,5-1,9t-8,8q-36,21-68,46T58.5,367.5T38,454q0,49 24.5,87T129,603t93,30q10,2 10,9l5,51q1,9 11.5,14t25.5,5q10,0 14-8t2-20q-1-7-2-14t-1.5-14.5T285,641q0-7 8-9q25-4 47.5-11T377,608q11-4 16-9.5t9-20.5q5-19 7.5-47t2.5-63q0-4-5-7.5T394,457q-7,0-15,3.5T369,471q-14,43-34,70t-49,37q-7,1-8-6L261,427q-1-9 4.5-15T290,394q53-31 83.5-60.5t43.5-62T430,198q0-92-58-137.5T221,10q-5,0-6-6l-8-74q-1-6-9.5-9T178-82ZM234,63q32,6 45.5,28T293,138q0,28-11,47t-35,36q-7,4-8-5L223,74q-1-11 11-11ZM205,451q6-6 6,3l13,115q2,11-6,9q-23-7-34.5-25T172,508q0-16 8.5-29.5T205,451Z"/>
      <glyph unicode="%" glyph-name="gid261" horiz-adv-x="713" d="M172,263q-40,0-72,21.5T49,345T30,436q0,55 18.5,95.5t52,62.5T179,616q43,0 74.5-22T303,533.5T321,444q0-61-20-101t-53.5-60T172,263Zm8,34q13,0 20.5,19.5t11,51T215,435t-5,69.5t-14.5,55T171,581q-13,0-20.5-19T140,511.5T137,444q0-27 2.5-53t8-47T161,310t19-13ZM538,641q9,14 22,18.5t30,4.5q8,0 13.5-6t5.5-12q0-4-1-5L204,5q-7-12-20-16t-28-4q-8,0-15.5,5T133,1q0,3 1,4L538,641ZM534-17q-40,0-72,21.5T411,65t-19,91q0,55 18.5,95.5t52,62.5T541,336q43,0 74.5-22T665,253.5T683,164q0-61-20-101T609.5,3T534-17Zm8,34q13,0 20.5,19.5t11,51T577,155t-5,69.5t-14.5,55T533,301q-13,0-20.5-19T502,231.5T499,164q0-27 2.5-53t8-47T523,30t19-13Z"/>
      <glyph unicode="&amp;" glyph-name="gid267" horiz-adv-x="809" d="M207-16q-39,0-80,16T58,48.5T30,131q0,55 40,111.5T185,335l21,10l-7,7q-10,11-26.5,28.5t-29,41T131,474q0,35 24,63.5T222,583t100,17q46,0 82.5-13.5t57.5-37T483,494q0-47-28.5-72T377,379l-24-9l22-23q25-25 53.5-55T482,237l20-20l13,12q19,17 30.5,35T563,298.5t6,28.5q0,16-9,23.5T540,362q-9,4-15.5,7.5T518,382q0,11 9,13t22,2q15,0 31-2t33.5-4t36.5-2q22,0 47,6t49,11.5t41,5.5q8,0 12.5-4.5T804,398q0-9-9-17.5T769,369q-33-6-56-22.5T673,313q-14-13-28.5-26t-29-26T586,235.5t-30-25T527,185l19-22q31-37 59-63.5T662,73q17,0 37.5,3.5T741,87q5,2 11.5,4.5T765,94q8,0 13-2.5T783,79q0-15-21.5-37.5T701.5,2T612-15q-40,0-69,9.5T490,23T440,70L421,91l-5-6q-29-34-63.5-56.5T281-5T207-16ZM290,85q20,0 46,3.5T384,114l7,7l-16,19q-34,40-66.5,79T241,298l-12,14l-17-11q-13-8-21.5-21.5T178,250t-4-35q0-61 31.5-95.5T290,85Zm42,311l10,10q11,11 16.5,34.5T364,488q1,29-10,51.5T317,562q-16,0-29.5-14T274,511q0-28 7-47.5T297,433t14-17l21-20Z"/>
      <glyph unicode="&apos;" glyph-name="gid235" horiz-adv-x="245" d="M81,400q-7,0-9.5,10.5T69,429q1,20-0.5,35.5T67,496q0,24-1.5,45t-3,40T61,617q0,15 10,26t20,17q18,12 32,18.5t33,6.5q12,0 19.5-11.5T183,647q0-32-12.5-73.5t-29-80T113,432q-6-11-16.5-21.5T81,400Z"/>
      <glyph unicode="(" glyph-name="gid213" horiz-adv-x="302" d="M239-215q-18,0-31,13q-21,21-44.5,59.5t-46,88T76,50T46,161T35,267q0,63 16,126T92.5,513T147,615t55,71q8,8 22,14t28,6q10,0 25-8.5T292,677q0-2-5-9.5T276.5,652T269,642q-25-32-50-86.5t-42-127T160,270q0-55 8.5-116t23-119T224-69t37-70q2-2 8.5-10T282-164.5t6-9.5q0-19-15.5-30T239-215Z"/>
      <glyph unicode=")" glyph-name="gid214" horiz-adv-x="302" d="M63-215q-18,0-33.5,11T14-174q0,2 6,9.5T33-149t8,10q19,24 37,70T110.5,35t23,119T142,270q0,86-17,158.5t-42,127T33,642q-1,2-7,10T15,667.5T10,677q0,12 15,20.5T50,706q14,0 28-6t22-14q26-26 55-71t54.5-102T251,393t16-126q0-50-11-106T226,50T184.5-54.5t-46-88T94-202q-13-13-31-13Z"/>
      <glyph unicode="*" glyph-name="gid209" horiz-adv-x="361" d="M199,348q-13,0-23,9.5T164,382l-13,68q-7-2-26-14T89,414q-6-3-12-5t-13-2q-12,0-21,8t-9,21q0,20 17,32l53,42q-5,5-24.5,14.5T43,543q-10,5-16.5,14.5T20,578q0,18 14.5,26T71,604q16-6 31.5-12.5T134,579q-1,18-1.5,34T132,648q0,15 8,27.5T165,689q14-1 23.5-11T199,654l9-67q6,3 23.5,15.5T265,625q6,4 12.5,6.5T291,634q12,0 21-8.5t9-22.5q0-18-15-31l-52-44q6-4 26-12.5T316,499q11-5 18-13.5t7-19.5q0-19-14-26.5T291,436q-16,5-32,11t-32,11q0-7 2-30t2-42q0-14-7.5-26T199,348Z"/>
      <glyph unicode="+" glyph-name="gid249" horiz-adv-x="604" d="M284-12q-4,0-8.5,5T271,5V206q0,13-13,13H47q-7,0-12,4.5T30,232q0,8 3,19.5t9.5,21T59,282H257q10,0 12,3.5t2,10.5V478q0,10 8,17.5t19.5,12T318,512t12-7t4-16V296q0-14 13-14H551q9,0 16-4t7-12q0-13-10-30t-24-17H347q-13,0-13-13V17q0-10-9.5-16.5T303.5-9T284-12Z"/>
      <glyph unicode="," glyph-name="gid199" horiz-adv-x="251" d="M49-168q-27,0-27,17q0,8 6.5,11T46-134q28,8 46.5,20t28,28.5T130-50q0,20-12.5,29.5T88-6Q72-1 59,14T46,55q0,27 22.5,46T119,120q47,0 76-29t29-76q0-41-15-74.5t-40-58T113-155T49-168Z"/>
      <glyph unicode="-" glyph-name="gid219" horiz-adv-x="325" d="M36,163q-11-1-11,11q0,33 6,47.5T49,238q55,9 117,17t117,12q11,1 14-4t3-13q0-32-4-43t-16-13q-55-8-121.5-17T36,163Z"/>
      <glyph unicode="." glyph-name="gid198" horiz-adv-x="251" d="M124-34Q89-34 63.5-8.5T38,52q0,38 25.5,63.5T124,141q38,0 63.5-25.5T213,52q0-35-25.5-60.5T124-34Z"/>
      <glyph unicode="/" glyph-name="gid211" horiz-adv-x="407" d="M36-62q-11,0-17.5,6.5T15-42L327,645q7,14 19,18t28,4q14,0 19.5-7.5T396,645L83-42Q77-55 63.5-58.5T36-62Z"/>
      <glyph unicode="0" glyph-name="gid141" horiz-adv-x="540" d="M264-14q-62,0-107.5,28T81,88.5T36.5,191T22,302q0,57 14.5,115t45,106.5t79,78T276,631q62,0 107.5-28t75-74.5t44.5-102T518,317q0-57-14.5-115t-45-107T380,16T264-14Zm15,49q30,0 48.5,37t27,97.5T363,299q0,52-6.5,102.5T337,493t-32,65.5T260,583q-30,0-48-37.5T186,448t-8-129q0-52 6-102.5T203,125t32-65.5T279,35Z"/>
      <glyph unicode="1" glyph-name="gid142" horiz-adv-x="540" d="M119-3q-6,0-12,4t-6,11q0,17 19,22q26,7 45,13.5t30,18T206,97V455q0,25-12.5,38t-32,19T120,522q-8,2-17,7t-9,17q0,14 9.5,20t22.5,7q62,4 111.5,19T336,632q2,1 5,2.5t7,1.5q8,0 15-3t7-8q0-12-3-28.5T364,552V98q0-18 13-29.5t34.5-19T459,34q9-3 14-7t5-14q0-15-16-15q-21,0-54.5,1t-66,2T289,2T237.5,1t-64-2.5T119-3Z"/>
      <glyph unicode="2" glyph-name="gid143" horiz-adv-x="540" d="M457-4q-6,0-31,0.5T366.5-2t-70,1.5T235,0q-25,0-50.5-0.5t-47-1T102-2.5T86-3T75,2T66,14q0,9 5,14.5T80,38L220,197q53,59 77.5,116T322,440q0,40-19,68t-57,28q-34,0-64-19.5T130,476q-6-6-15.5-14T94,454q-8,0-10.5,6T81,476q0,17 17,42.5t47,51t69,43T297,630q52,0 87.5-23.5T439,545t19-83q0-28-13-62t-31.5-64.5T376,284q-15-17-37-38.5t-45-43T250.5,162t-33-31T205,117q0-4 15-6q19-2 45-3t46-1q21,0 42,1t41,3q21,3 37.5,10T461,141.5T483,175q3,7 11,14t18,7q8,0 11.5-7t0.5-15q-11-30-21.5-64T485,50.5T478,18q0-10-9.5-16T457-4Z"/>
      <glyph unicode="3" glyph-name="gid144" horiz-adv-x="540" d="M175-38q-22,0-45,6.5t-38.5,18T76,12t3.5,29t11,25T109,76q8,0 13.5-3.5T134,62q14-17 33.5-36.5T210,6q31,0 55.5,17t39,49T319,149q0,41-11,72t-32,48t-51,17q-28,0-43-10t-22-13q-8-4-18.5,1T133,278q5,21 18,35t27,21q34,18 56.5,34t36,33t19,37t5.5,45q0,30-21,51.5T220,556q-27,0-47-12t-34-27.5T116,489t-14-12q-7,0-14.5,8.5T80,503q0,8 11,28.5t35,43T188.5,613T283,629q41,0 75-15t54.5-42.5T433,506q0-22-14.5-52t-46-55.5T291,364q-3-1-3-3.5t4-2.5q54,0 95.5-18.5t65.5-53T477,202q0-55-25-99T384.5,27.5T288-21T175-38Z"/>
      <glyph unicode="4" glyph-name="gid145" horiz-adv-x="540" d="M216-3q-6,0-14.5,4T193,12q0,11 7.5,15.5T217,34q38,8 52,20t14,43v49q0,5-5.5,7.5T266,156q-29,0-70-2t-83-4t-76-2q-5,0-10.5,2T21,156t6,12t10,13.5t8.5,12T55,207L298,605q9,14 22.5,25.5T346,642h6q9,0 11.5-7.5T361,620L134,250q-5-9-1.5-12t10.5-3H276q3,0 5,2t2,4V354q0,19 3,26t15,12q29,14 63,18t47,4q23,0 26.5-20t3.5-59V235q0-7 5-7q13-1 19-1t16,0q16,0 27.5,0.5T538,229q12,0 12-7q0-8-4-24.5T536.5,167T527,153q-12,0-23,0.5T480,154q-10,0-14-0.5T455,152q-4-1-9-3t-5-3V98q0-28 13-40.5T506,34q9-3 17-7t8-14q0-7-7-11T509-2q-21,0-48.5,1t-54,2T360,2T315,1T264-1.5T216-3Z"/>
      <glyph unicode="5" glyph-name="gid146" horiz-adv-x="540" d="M138-38q-15,0-33,2.5T87-22q0,12 13,16t29,6q57,8 102,31.5t70.5,56T327,154q0,37-18,64.5T251.5,268T149,309q-35,11-47.5,22T89,363q0,14 6,40.5t13.5,56t14.5,53t8,30.5q6,26 20,37t30,15q18,4 52.5,9.5T306,616t67.5,10t36.5,4q8,0 12.5-7t3.5-15q-1-16-10-35.5T401,537q-8-21-26.5-35T332,486q-16-1-40.5-1.5t-50-1.5t-45-1.5T169,480q-7-1-11-6.5t-6-12T150,451q0-5 3-8t7-4q56-9 98-24.5T336,382q66-31 94-79t28-101q0-56-34-108T334,11Q316,1 284-10.5T214-30t-76-8Z"/>
      <glyph unicode="6" glyph-name="gid147" horiz-adv-x="540" d="M283-14q-74,0-121,27T92.5,86.5T70,193q0,55 12.5,99.5T113,372t37,60t31,40q23,28 61,57t86.5,56T431,631q18,7 35,8t17-7q0-11-9.5-18T445,598q-52-25-86.5-58T293,458q-14-23-32-62.5t-31-90T217,198q0-55 12.5-92t32-56T301,31q28,0 46.5,31T366,152q0,30-10.5,54.5T330,246t-31,15q-10,0-17-1.5T268,255q-21-10-26,1.5t8,25.5q6,6 11,10.5t11,9.5q17,14 48,30t56,16q38,0 70.5-19.5t53-52.5T520,202q0-38-16-76T457,56T382.5,5T283-14Z"/>
      <glyph unicode="7" glyph-name="gid148" horiz-adv-x="540" d="M177-29q-13,0-22,9.5T146,4q0,8 10.5,24T174,57L406,472q5,9 0.5,11.5T395,486H178q-26,0-40-8t-29-28q-4-5-12.5-19T77,405.5T55,394q-7,0-12.5,5T37,411q0,8 5.5,27T49,463q7,36 16.5,76T75,609q0,12 9,15.5T99,627q14-1 40.5-5t58.5-6q27,0 63-0.5t69.5-1T383,614q34,0 60,0.5t46.5,1T526,617q5,0 8-7.5t3-15.5q0-4-5-12.5T519,560t-19-31L200,4q-5-10-12.5-21.5T177-29Z"/>
      <glyph unicode="8" glyph-name="gid149" horiz-adv-x="540" d="M270-13Q212-13 164,7T87.5,62.5T59,144q0,38 23,62.5T138,249t63,35q9,5 6.5,9T197,302q-30,23-56.5,49.5T97,410T80,480q0,47 32.5,80t83,51T300,629q48,0 91.5-18T462,561t27-75q0-39-19-64t-43-36q-10-4-21.5-9.5T385,366q-16-10-16-15t10-12q37-23 66.5-46.5t47-51.5T510,176q0-58-32.5-100.5T391,10T270-13Zm18,46q35,0 56.5,25T366,118q0,26-16.5,51t-40,47.5T265,255q-5,5-8,7.5t-7,2.5q-2,0-13-8q-19-19-26-44.5T204,149q0-29 10.5-55.5T244,50t44-17Zm40,352q12,14 17.5,44t5.5,61q0,37-14.5,64.5T286,582q-19,0-34-9t-24-25t-9-38q0-26 13-47.5T265,422t41-36q7-5 12.5-5.5T328,385Z"/>
      <glyph unicode="9" glyph-name="gid150" horiz-adv-x="540" d="M84-54q-16,0-22.5,6T55-37q0,13 10,19.5T86-10q38,5 75,27t70,53.5T289,134q18,24 41,62t40.5,87T388,389q0,33-8,66t-22,60t-31.5,43.5T290,575q-22,0-38-11.5t-24-36T220,463q0-30 10-58t25.5-46T289,341q11,0 19.5,2t15.5,5q25,10 28-2t-9-26q-4-7-9-11.5T324,299q-7-7-23-16.5T266,266t-37-7q-38,0-75,20T92.5,334T68,414q0,32 19.5,69.5T141,554t77.5,54T311,629q45,0 84.5-18.5T465,560t47-73.5T529,400q0-63-24-120T446.5,177T380,101q-23-21-60.5-47.5T239,2.5T155-38T84-54Z"/>
      <glyph unicode=":" glyph-name="gid200" horiz-adv-x="289" d="M134,242q-35,0-60.5,25.5T48,328q0,38 25.5,63.5T134,417q38,0 63.5-25.5T223,328q0-35-25.5-60.5T134,242Zm0-276Q99-34 73.5-8.5T48,52q0,38 25.5,63.5T134,141q38,0 63.5-25.5T223,52q0-35-25.5-60.5T134-34Z"/>
      <glyph unicode=";" glyph-name="gid201" horiz-adv-x="251" d="M114,243q-35,0-60.5,25.5T28,329q0,38 25.5,63.5T114,418q38,0 63.5-25.5T203,329q0-35-25.5-60.5T114,243ZM49-168q-27,0-27,17q0,8 6.5,11T46-134q28,8 46.5,20t28,28.5T130-50q0,20-12.5,29.5T88-6Q72-1 59,14T46,55q0,27 22.5,46T119,120q47,0 76-29t29-76q0-41-15-74.5t-40-58T113-155T49-168Z"/>
      <glyph unicode="&lt;" glyph-name="gid255" horiz-adv-x="537" d="M478,0L85,188q-16,8-33,17T35,220q0,8 11,26.5T75,272L478,469q4,2 7,2q10,0 13.5-7.5T502,447q0-15-10-28.5T465,397L137,239q-4-1-4.5-4.5T137,229L465,72q17-7 27-21t10-29q0-16-8-21T478,0Z"/>
      <glyph unicode="=" glyph-name="gid253" horiz-adv-x="643" d="M61,316q-7,0-11.5,4.5T45,329q0,6 2.5,17t9,19.5T73,374H575q10,0 16.5-4.5T598,358q0-12-9.5-27T566,316H61Zm0-183q-7,0-11.5,4.5T45,146q0,6 2.5,17t9,19.5T73,191H575q10,0 16.5-4.5T598,175q0-12-9.5-27T566,133H61Z"/>
      <glyph unicode="&gt;" glyph-name="gid254" horiz-adv-x="537" d="M59,465L452,277q16-7 33-16.5T502,245q0-7-11-26t-29-26L59-4q-4-2-7-2Q42-6 38.5,1.5T35,18q0,15 10.5,29T72,68L400,226q4,2 4.5,5t-4.5,5L72,393q-16,8-26.5,21.5T35,443q0,16 8,21.5T59,465Z"/>
      <glyph unicode="?" glyph-name="gid205" horiz-adv-x="399" d="M148,171q-7,0-16.5,8T113,202q-9,16-17,38.5T88,291q0,37 30,63.5T209,409q32,14 48.5,31.5T274,486q0,26-22,38t-48,12q-24,0-36-4.5T149,524t-15.5-5T114,517q-15,0-29.5,15.5t-24,37T51,609q0,19 22.5,35.5T126,661q43,0 82-21.5T281,582q23-24 39-52t25-58t9-60q0-41-15.5-65T304,314q-14-7-28.5-15.5t-30-17.5T213,263q-22-11-30-24.5T171,195q-1-12-7-18t-16-6ZM144-14Q113-14 91,8T69,61t22,53t53,22t53-22t22-53T197,8T144-14Z"/>
      <glyph unicode="@" glyph-name="gid266" horiz-adv-x="788" d="M402-158q-74,0-141,25T142-62.5T60,46T30,185q0,88 32,155t87.5,112T277,520t152,23q66,0 125.5-22T660,458.5t72-95T758,244q0-64-31-114T647.5,51T547,22q-30,0-46,10.5t-23.5,21T464,64T439,52.5T390.5,29T323,17q-61,0-103.5,34T177,148q0,74 33,128.5t88.5,84T421,390q19,0 40-4t33-7q8-2 16.5-5.5T523,370q6,0 10.5,7t9,13.5T553,397q3,0 11.5-1t16-3.5T588,386q-9-23-17-54t-11-47L536,148q-1-6-2-12t-1-13q0-11 4-20t14-9q35,0 65,16t48.5,45.5T683,226q0,77-33,134t-93,89T415,481q-62,0-118-20t-99.5-57T129,314.5T104,196q0-62 24.5-115T196-12t99-62T414-96q31,0 69.5,9T560-62.5T625-28q9,6 19.5,12T662-10q27,0 27-19q0-13-27.5-34t-71-43T497-143t-95-15ZM364,75q17,0 30,5t26,15q9,7 14.5,18.5T444,147l22,117q1,2 1,5t0,7q0,29-21.5,47.5T394,342q-28,0-52.5-19t-40-55T286,181q0-37 12-60.5T328,86t36-11Z"/>
      <glyph unicode="A" glyph-name="gid1" horiz-adv-x="726" d="M21-5Q10-5 2.5-1.5T-5,12T1.5,26.5T17,34q30,8 51.5,25T100,98q24,55 46,109t43,107.5t41.5,108T271,532q17,46 21,65.5t7,20.5q20,5 37,9.5T374,639q19,7 33.5,17.5T429,674q5,3 9.5,4t8.5-7q4-7 6.5-13.5T458,643q20-66 41.5-133T543,374.5T587.5,237T632,98q5-16 16.5-28.5t27.5-21T712,34q9-3 15.5-7T734,13q0-7-5.5-11T715-2q-21,0-51.5,1t-61,2T549,2q-20,0-49-1T441-1.5T389-3q-8,0-14.5,4T368,12q0,9 6.5,14.5T390,34q38,8 56,21t10,42q-5,20-10.5,39T435,174.5T425,213q-2,8-5,12.5T409,230H235q-8,0-11.5-4.5T218,213q-4-15-8.5-27.5T201,161t-8-24.5T185,109q-9-32 3-48t59-27q22-5 22-22q0-7-5-10.5T248-2q-33,0-58,1.5T135,1Q106,1 79.5-2T21-5ZM263,288H388q15,0 15,7q0,4-0.5,5.5T401,306L337,527q-3,10-6,10q-2,0-6-10L248,306q-2-4-2-8q0-5 5.5-7.5T263,288Z"/>
      <glyph unicode="B" glyph-name="gid10" horiz-adv-x="635" d="M35-5Q26-5 21,0T16,11q0,15 20,21Q69,42 82.5,53T96,95V551q0,32-12.5,45.5T36,618q-12,3-16.5,9T15,639q0,7 5.5,11.5T35,655q33,0 55-2t42-4t46-2q24,0 44,2.5t44.5,5T327,657q119,0 181.5-33.5T571,508q0-30-14.5-58T517,402q-16-13-34.5-22.5T443,365q-4-1-4-5t4-5q27-5 55.5-14.5T552,313t40-46.5T607,194q0-56-17.5-89T547,55T501,27Q468,11 426,3.5T326-4q-38,0-73,2T179,0q-20,0-46.5-1t-52-2.5T35-5ZM323,54q28,0 51.5,17.5T412,119t14,67q0,34-7.5,56t-18,35.5T381,298q-7,7-25.5,14.5T310,320q-13,0-28.5-7.5T266,288V116q0-30 15-46t42-16ZM305,368q23,0 41,5.5T382,395q7,7 18,28.5T411,485q0,45-10.5,72.5t-31.5,40T317,610q-25,0-38-10.5T266,568V403q0-18 13.5-26.5T305,368Z"/>
      <glyph unicode="C" glyph-name="gid11" horiz-adv-x="709" d="M404-14Q325-14 256,9.5t-121,67t-81,104T25,315q0,68 27,130.5T131.5,557T260,635t173,29q31,0 64.5-5t65-13T617,628q8-4 14.5-10t7.5-17q5-36 6.5-67.5T647,480q0-12-8.5-16t-18,0T607,480q-7,20-15.5,42T566,560q-20,21-55,35t-87,14q-50,0-90-21.5t-68-59t-43-85T208,344q0-67 13-122.5T261,126t67.5-61.5T424,43q75,0 120.5,31T621,172q8,18 23,17t15-17q0-14-2.5-32.5t-7-40T638,54q-3-11-10-18T612,24Q574,7 522-3.5T404-14Z"/>
      <glyph unicode="D" glyph-name="gid13" horiz-adv-x="769" d="M385-7q-40,0-81.5,2T229-1.5T183,0q-20,0-46.5-0.5T82.5-2T33-3Q27-3 21,1T15,12q0,9 5,14.5T34,34q38,8 52,20t14,43V551q0,32-13,45T34,618q-9,2-14,7.5T15,640q0,7 6,11t12,4q22,0 49.5-1t54-2.5T183,650q15,0 41.5,1.5t58,3t61.5,3t50,1.5q70,0 133-23.5T639,569t77-102.5T744,335q0-66-23-127.5T652.5,98T540,21.5T385-7ZM369,48q66,0 108.5,32t63,90T561,306q0,66-12.5,120T511,519t-63,60.5T359,601q-30,0-49.5-2T280,590.5T270,568V134q0-31 10.5-50T313,56.5T369,48Z"/>
      <glyph unicode="E" glyph-name="gid15" horiz-adv-x="577" d="M35-5Q26-5 21,0T16,11q0,15 20,21Q69,42 82.5,53T96,95V551q0,32-12.5,45.5T36,618q-12,3-16.5,9T15,639q0,7 5.5,11.5T35,655q22,0 48-1t51-2.5t45-1.5q56,0 120,1t113,2q32,0 52.5,4t24.5,4q8,0 16.5-4.5T515,640q4-37 10.5-72.5T532,505q0-10-4-15t-9-5t-11,4t-10,13q-11,27-19.5,45.5T459,577t-28,21.5T386,609H323q-25,0-41-12t-16-34V379q0-13 7-18.5t19-5.5h85q26,0 37.5,19T435,417q8,18 21,18q5,0 9-6t3-17q-1-14-2.5-28t-2-27.5T463,329q0-13 0.5-26.5T465,275t2-29q2-15-1.5-21.5T457,218q-17,0-24,24q-9,32-20.5,49T382,308H288q-11,0-16.5-6T266,285V96q0-28 12-39.5T315,45h89q20,0 39.5,5.5T477,68q17,14 31.5,36T534,148q4,8 8.5,10t10.5,2t8-6.5t2-13.5q0-18-5-39T545.5,56.5T531,8q-2-7-9-9.5T507-4q-5,0-39,0.5T383.5-2t-105,1.5T179,0q-20,0-46-1T81-3.5T35-5Z"/>
      <glyph unicode="F" glyph-name="gid20" horiz-adv-x="554" d="M33-3Q27-3 21,1T15,12q0,17 19,22q38,8 52,20t14,43V551q0,32-12.5,45.5T40,618q-12,3-16.5,9T19,639q0,7 5.5,11.5T39,655q22,0 48-1t51-2.5t45-1.5q42,0 91.5,0t94.5,0q43,0 78.5,5.5T505,661q8,0 16.5-4.5T531,640q2-25 3-51t1.5-49.5T536,498q0-20-13-20q-5,0-12,4t-9,13q-7,26-15.5,47.5T464,578q-13,13-30.5,19.5T390,604H327q-25,0-41-12t-16-34q0-17 0-40.5t0-40.5q0-22 0-48t0-49q0-13 7-18.5t19-5.5q23,0 46.5,0t46.5,0q26,0 37.5,16T447,410q4,9 9.5,13.5T468,428q5,0 9-6t3-17q-2-22-3.5-41.5T475,329q0-20 1-33t3-36q2-15-1.5-21.5T469,232q-7,0-14,7t-10,17q-9,31-20.5,42T394,309q-11,0-23,0t-23,0q-14,0-29,0t-29,0q-11,0-16.5-6T268,286q0-45 1-94t1-94q0-31 17.5-43T348,34q9-2 14-6.5T367,13q0-7-4-11T351-2q-21,0-53,1T234.5,1T183,2T136.5,1t-54-2.5T33-3Z"/>
      <glyph unicode="G" glyph-name="gid21" horiz-adv-x="717" d="M376-14Q303-14 239.5,9.5t-112,67T52,180.5T25,315q0,68 26,130.5T126.5,557t120,78T405,664q21,0 48-3t55.5-8t54-11.5T606,628q9-4 15-10t7-17q5-36 8.5-67.5T640,480q0-10-4.5-15T623,460q-12,0-17.5,5.5T595,480q-9,20-22,42.5T543,562q-13,13-29,23.5t-38,17T423,609q-53,0-93.5-21.5t-67.5-59t-40.5-85T208,344q0-67 10.5-122.5t33-95.5T309,64.5T393,43q18,0 32.5,7.5T450,65t15.5,24t6.5,38q1,9 1,26.5t0.5,35T474,215q0,11-5.5,20.5T448,251q-10,4-19.5,7.5t-19,6T391,269t-17,8t-8,15q0,7 7,11t15,4q22,0 51.5-1t58.5-2.5t49-1.5q29,0 64.5,2t66.5,2q8,0 12-3.5t4-11.5q0-10-5-14.5T675,270q-30-8-40.5-18.5T620,221q-4-22-5.5-38.5T613,146V112q0-5 4.5-10T627,92t7.5-10.5T637,70q0-7-5-13.5T616,48q-8-1-27.5-10.5T539,16T468-5t-92-9Z"/>
      <glyph unicode="H" glyph-name="gid22" horiz-adv-x="799" d="M33-3Q27-3 21,1T15,12q0,17 19,22q34,8 47,20T94,97V551q0,32-12.5,45T34,618q-19,5-19,22q0,7 6,11t12,4q22,0 48-1t51-2.5t45-1.5t48,1t57,2t50,1q16,0 16-15q0-10-5-14t-14-7q-41-12-53-25t-12-43V373q0-8 4.5-11.5T280,358H521q14,0 14,15V550q0,30-12,43t-53,25q-9,3-14,7t-5,14q0,15 16,15q21,0 50-1t57.5-2t47.5-1q20,0 45,1.5t51,2.5t48,1q6,0 12-4t6-11q0-17-19-22q-35-9-47.5-22T705,551V97q0-31 13-43t47-20q19-5 19-22q0-7-6-11T766-3q-19,0-45,1.5T668.5,1T622,2q-19,0-47.5-1T517-1T467-2q-7,0-11.5,4T451,13q0,10 5,14t14,7q39,11 52,23.5T535,98V284q0,8-3,12.5T521,301H280q-16,0-16-17V98q0-28 13-40.5T329,34q9-3 14-7t5-14q0-7-4-11T332-2q-21,0-50,1T225,1T177,2T130.5,1T78-1.5T33-3Z"/>
      <glyph unicode="I" glyph-name="gid23" horiz-adv-x="369" d="M33-3Q27-3 21,1T15,12q0,17 19,22q38,8 52,20t14,43V551q0,32-13,45T34,618q-19,5-19,22q0,7 6,11t12,4q22,0 49.5-1t54-2.5T183,650t48,1t57,2t50,1q8,0 12-3.5t4-11.5q0-10-5-14t-14-7q-41-12-53-25t-12-43V98q0-28 13-40.5T335,34q9-3 14-7t5-14q0-7-4-11T338-2q-21,0-50,1T231,1T183,2T136.5,1t-54-2.5T33-3Z"/>
      <glyph unicode="J" glyph-name="gid28" horiz-adv-x="376" d="M62-200q-147,0-147,60q0,21 18,40.5T-31-80q11,0 21-6t20-17q20-24 29.5-39.5T60-158q29,0 45.5,38T122,9V551q0,32-13,45T56,618q-19,5-19,22q0,7 6,11t12,4q22,0 49.5-1t54-2.5T205,650t48,1t57,2t50,1q8,0 12-3.5t4-11.5q0-10-5-14t-14-7q-41-12-53-25t-12-43V94q0-23-10-55.5t-28.5-68T211-97q-32-43-71-73T62-200Z"/>
      <glyph unicode="K" glyph-name="gid29" horiz-adv-x="781" d="M43-6Q34-6 24.5-0.5T15,12q0,17 25,22q38,8 49,20t11,43V551q0,32-13,45T34,618q-19,5-19,22q0,7 6,11t12,4q22,0 49.5-1t54-2.5T183,650t48,1t57,2t50,1q8,0 12-3.5t4-11.5q0-10-5-14t-14-7q-41-12-53-25t-12-43V343q0-8 3.5-11.5T281,328q5,0 10.5,4T305,343L496,551q8,9 13.5,16.5T515,582q0,22-46,32q-9,2-14,7.5T450,636q0,7 6,11t12,4h72q35,0 66.5,0.5t65,1.5t74.5,1q10,0 18.5-3.5T773,639q0-10-10.5-14.5T743,618q-53-7-89.5-23.5T589,557q-29-22-56.5-48t-55-54T420,400q-16-14 0-32L659,98q12-13 25.5-25T716,51.5T760,34q9-3 20-7t11-14q0-7-10.5-12.5T750-5q-30,0-61,2T626.5,0.5T563,2q-37,0-68.5-2.5T428-3q-6,0-12,4t-6,11q0,17 19,22q42,8 44,29q0,8-4.5,16T456,97L304,277q-7,8-13,12t-11,4q-4,0-7.5-4T269,277q0-45 0.5-89.5T272,98q1-18 4.5-29.5t15-19T329,34q9-3 17-7t8-14q0-7-9-12T326-4q-32,0-57,2T223.5,2T183,4T144,1.5t-42.5-5T43-6Z"/>
      <glyph unicode="L" glyph-name="gid30" horiz-adv-x="586" d="M39-5Q30-5 25,0T20,11t5,12t15,9Q73,42 86.5,53T100,95V551q0,22-5.5,34T75,604.5T34,618q-19,5-19,22q0,7 6,11t12,4q22,0 49.5-1t54-2.5T183,650t48,1t57,2t50,1q8,0 12-3.5t4-11.5q0-10-5-14t-14-7q-41-12-53-25t-12-43V105q0-28 12-39.5T319,54h97q21,0 38,7.5T485,82q17,16 30.5,37.5T539,163q11,23 16.5,27.5T567,195q8,0 11-7t3-14q0-2-2-10t-2-13q-8-30-14-51.5t-9.5-41T547,14q-1-7-4.5-13T530-5q-14,0-52.5,1T388-2.5T282.5-1T183,0q-20,0-46-1T85-3.5T39-5Z"/>
      <glyph unicode="M" glyph-name="gid31" horiz-adv-x="921" d="M43-3Q31-3 25.5,1T20,12q0,9 9,11.5T47,30q23,9 40.5,29T109,109q5,37 11,101.5t13,144T147,516q1,5 1,14t0,20q0,20-6.5,31T122,599q-11,6-24,11.5T70,620q-12,3-19.5,8T43,642t7.5,12.5T69,658q16,0 38.5-1t49.5-1.5t55.5-1.5t55.5-1q8,0 15-6t9-12q8-20 14-36.5T320,562L464,223q2-4 4.5-4t3.5,4L603,538q8,39 12.5,61.5T624,634q4,13 17,13h45q44,2 92.5,6.5T855,658q11,0 18.5-3.5T881,642t-7-13t-16-7q-4-1-10.5-4T837,613q-30-14-43.5-31T782,527q3-73 6-125t5.5-96t6-92.5T807,98q2-25 22-40.5T879,34q9-3 15.5-7T901,13q0-7-5.5-11T882-2q-21,0-51.5,1T770,1T720,2T673.5,1t-54-2.5T570-3q-8,0-14.5,4T549,12q0,9 6.5,14.5T571,34q38,8 53,20.5T637,97q-3,60-5,122t-3.5,122.5T624,456q0,6-3,5.5t-6-7.5L433,3q-6-16-16.5-13T402,1Q350,117 295,230T197,449q-4,10-10.5,7T179,440q-2-45-2.5-105T177,214t1-110q0-28 18-44t58-26q9-2 18-6.5T281,13q0-7-8-11T257-2q-27,0-42,1T187.5,0.5T154,1q-23,0-49-1T61-2T43-3Z"/>
      <glyph unicode="N" glyph-name="gid32" horiz-adv-x="813" d="M683-19q-14,0-43.5,15.5T577,52q-28,30-55.5,59.5t-55.5,59t-56,59T354.5,288T299,346.5t-55.5,59T188,465q-1,2-5,6t-6,4q-4,0-5.5-7T170,456q0-45 1.5-107t3-124.5T176,113q0-34 21.5-51.5T259,34q9-2 18-6.5T286,13q0-7-8-11T262-2q-27,0-45,1T183.5,0.5T147,1q-23,0-44.5-1t-35-2T54-3Q48-3 39.5,1T31,12q0,9 7.5,13.5T55,34q23,9 35.5,30T105,115q4,37 8.5,98T122,350t4,158q0,52-26,75T37,620q-9,2-18,7.5T10,642t7.5,12.5T36,658q16,0 39.5-1t51-1.5T183,654t56-1q8,0 12.5-2.5T259,643q26-29 52.5-58.5t53-58.5t53-58T470,409.5T522.5,351t53-58.5T628,234q3-4 7-8t7-4q8,0 8,14q0,35 0,76.5t0,85t-0.5,84T647,553q-1,29-20.5,42T569,618q-9,2-16,6.5T546,639q0,7 7,11t14,4q27,0 44-0.5t31-1t31-0.5q20,0 34,0.5t30.5,1.5t41.5,1q11,0 17.5-4t6.5-11q0-16-25-21q-34-7-50-20t-16-43q0-43-1-85.5T708,387t-4-79.5T701,234t-1-64q0-23 3-52.5t6-54T712,30q0-27-7.5-38T683-19Z"/>
      <glyph unicode="O" glyph-name="gid34" horiz-adv-x="759" d="M375-14Q305-14 242,9.5t-112,67t-77,104T25,315q0,68 23,130.5T116.5,557T229,635t155,29q70,0 133-23.5t112-67t77-104T734,335q0-67-23-130T642.5,93T530,15T375-14Zm18,47q53,0 88.5,32T535,153.5T553,283q0,60-11,119T508,509.5T449.5,587T364,616q-52,0-87.5-32t-53-88T206,367q0-60 11-119t33.5-107.5t58-78T393,33Z"/>
      <glyph unicode="P" glyph-name="gid42" horiz-adv-x="619" d="M33-3Q27-3 21,1T15,12q0,17 19,22q38,8 52,20t14,43V551q0,32-12.5,45.5T40,618q-12,3-16.5,9T19,639q0,7 5.5,11.5T39,655q22,0 48-1t51-2.5t45-1.5q24,0 42.5,2.5t41.5,5t60,2.5q123,0 195-52.5T594,464q0-63-27-116.5t-81.5-86T348,229q-27,0-41,8t-14,20q0,8 7,12t12,4q12,0 19.5-2.5T352,268q38,0 57.5,46.5T429,435q0,95-26.5,136.5T327,613q-28,0-42-13t-14-40L270,98q0-31 17.5-43T348,34q9-2 14-6.5T367,13q0-7-4-11T351-2q-21,0-53,1T234.5,1T183,2T136.5,1t-54-2.5T33-3Z"/>
      <glyph unicode="Q" glyph-name="gid44" horiz-adv-x="759" d="M726-248q-57,0-123,20.5T484-170q-36,26-65.5,48T356-70q-17,16-44.5,41T243,11q-31,11-69,33t-71.5,58T47,190.5T25,315q0,68 23,130.5T116.5,557T229,635t155,29q70,0 133-23.5t112-67t77-104T734,335q0-67-23-129.5T643,94T531,16q-11-3-11-11q0-5 5-10q22-21 44.5-41T629-97q49-40 91-58t80-18q10,0 17.5,0.5T831-171t11.5,1.5T854-169q31,0 31-23q0-9-4.5-15.5T865-221q-20-13-56-20t-83-7ZM393,36q80,0 120,66t40,181q0,62-11,121T508,510t-58.5,74.5T364,612q-79,0-118.5-65.5T206,367q0-62 11-121t33.5-106.5t58-75.5T393,36Z"/>
      <glyph unicode="R" glyph-name="gid45" horiz-adv-x="770" d="M647-21q-56,0-93.5,14T491,29.5T446,79q-21,29-41,58.5t-39,63T328,275q-10,22-24,30q-6,4-12.5,5.5T280,312t-7.5-5.5T270,292V98q0-31 17.5-43T348,34q9-2 14-6.5T367,13q0-7-4-11T351-2q-21,0-53,1T234.5,1T183,2T136.5,1t-54-2.5T33-3Q27-3 21,1T15,12q0,17 19,22q38,8 52,20t14,43V551q0,22-5,34.5t-18,20T40,618q-12,3-16.5,9T19,639q0,7 5.5,11.5T39,655q33,0 55-2t42-4t46-2q24,0 42.5,2.5t41.5,5t60,2.5q118,0 182.5-39.5T573,497q0-45-20-75.5t-50-49T442,345q-4-1-3.5-5t2.5-7q30-44 58.5-85T557,172.5T615,110q35-33 72.5-39T760,65q15,0 15-19q0-24-15.5-38.5T715-14t-68-7ZM305,346q36,0 59,16t34.5,44.5T410,473q0,48-12,78t-34.5,44.5T309,610q-20,0-29.5-17T270,518q0-22 0-55.5t0-78.5q0-20 9.5-29t25.5-9Z"/>
      <glyph unicode="S" glyph-name="gid46" horiz-adv-x="500" d="M222-14q-43,0-84,9.5T61,27q-7,5-13.5,11.5T38,52Q27,81 23,121.5T21,206q0,7 5.5,10T40,219q11,0 14.5-3T62,206q23-74 67.5-123T235,34q31,0 50.5,14.5t29,36T324,126q0,30-12,51t-37,39t-65,39q-42,23-81.5,50T64,371T39,469q0,60 32.5,103.5t87,67.5T278,664q38,0 74.5-8T411,639q13-5 18-10.5T439,606q5-21 7.5-51.5T449,485q0-13-19-13q-8,0-15.5,4.5T405,488q-16,62-50,93.5T272,613q-31,0-50.5-10t-29-28.5T183,528q0-22 16-42t46.5-40.5T317,400q58-34 90-66t45-66.5T465,189q0-71-30.5-116t-85-66T222-14Z"/>
      <glyph unicode="T" glyph-name="gid47" horiz-adv-x="701" d="M204-3q-6,0-13.5,4T183,12q0,9 6.5,14.5T205,34q38,8 54.5,20T276,97V515q0,38-2,55.5t-5,23t-8,7.5q-7,5-21.5,6T220,608H203q-33,0-63-17T92,550q-5-7-15-20T56,507T34,497q-9,0-12.5,5.5T18,515q0,13 7,27q20,39 29.5,67T67,674q2,14 9,20t17,6q8,0 16-13t18-21q11-8 35-12t37-4l382,1q23,0 39.5,5t23.5,9q17,10 27,22t23,12q7,0 9.5-4t2.5-12q0-4-0.5-9T704,664q-5-20-10.5-39.5t-9-37.5T681,551V530q0-18-3.5-27.5T664,493t-16.5,9T634,532q-13,40-35,58t-65,18H493q-16,0-26.5-8T451,569.5T446,503V98q0-28 15.5-40.5T516,34q9-3 15.5-7T538,13q0-7-5.5-11T519-2q-21,0-51,1T408.5,1T359,2T311,1T254.5-1.5T204-3Z"/>
      <glyph unicode="U" glyph-name="gid48" horiz-adv-x="746" d="M373-14q-95,0-158.5,34T119,114.5T87,256V536q0,26-12.5,50.5T35,618T8,640q0,7 7.5,11T34,655q33,0 70-2.5t67-2.5q29,0 72.5,2t74.5,2q12,0 19-3.5t7-11.5q0-12-16.5-17.5T295,608q-16-7-26.5-25.5T258,530V272q0-66 21-108.5T334.5,101T410,81q88,0 132,50.5T586,291q0,27 0.5,59t1,65T587,477q-1,49-7,74.5t-17.5,39T531,614q-11,6-26,10.5T490,639q0,8 8,11.5t22,3.5q39,0 58-1.5t43-1.5q19,0 31.5,1t26,2t34.5,1q11,0 18-3t7-12q0-14-26-22q-35-10-48.5-31.5T648,527q-3-73-4-135t-1-127q0-82-36-145T509.5,21.5T373-14Z"/>
      <glyph unicode="V" glyph-name="gid53" horiz-adv-x="714" d="M355-18q-15,0-23,18q-7,16-18.5,42.5T294,92L95,551q-10,23-26.5,41T22,618q-9,3-15.5,7T0,639q0,8 6,11.5T19,654q21,0 49-1t56-2t47-1q20,0 51,1.5t62.5,2.5t53.5,1q8,0 17.5-4t9.5-11q0-9-9.5-14.5T337,618q-30-7-43-15t-13-25q0-4 1.5-10.5T285,555L411,197q2-7 4.5-8t5.5,9L533,493q20,51 9.5,84.5T485,618q-10,2-20,7.5T455,640q0,7 9.5,10.5T484,654q22,0 35.5-1t26.5-1.5t33-0.5q29,0 53.5,3t55.5,3q11,0 20.5-3.5T718,640t-8.5-13.5T692,620q-30-8-48.5-30T605,520L461,177q-19-44-33-75T403,47T381,0q-4-10-9.5-14T355-18Z"/>
      <glyph unicode="W" glyph-name="gid54" horiz-adv-x="1043" d="M378-17q-10,0-14,7.5T355,8L95,554q-10,23-23.5,39.5T28,618q-9,3-18.5,7T0,639q0,8 9,11.5T25,654q32,0 73-2t70-2q30,0 62.5,2.5T296,655q13,0 22-4t9-11q0-10-8.5-14.5T295,618q-17-4-20-11.5T272,588q0-4 2-13t3-13q19-45 39-90t39.5-90.5t39-91T432,199q5-11 8-12t9,11l50,85q3,5 5,9.5t2,8.5t-1.5,8t-3.5,9L388,554q-9,23-27.5,39.5T312,618q-9,3-15.5,7T290,639q0,8 6,11.5t13,3.5q21,0 49-1t56-2t47-1q30,0 63,2t66,2q16,0 25-3.5t9-10.5q0-6-3.5-10T609,623.5T589,618q-21-4-24.5-16t1.5-26q4-10 10-26.5t13-35T602.5,479T614,451q7-15 10.5-11.5T632,451q6,13 15,35.5t17.5,45T678,565q5,10 5,22q0,16-13,22.5t-25.5,12T632,638q0,7 2.5,11t18.5,4q28,0 37-1.5t23-1.5q15,1 30,3t46,2q11,0 20.5-3.5T819,638t-8.5-13.5T793,618q-30-8-44.5-25.5T722,552q-11-21-23.5-45.5T674,457t-23-47q-6-13-4.5-25.5T654,357l71-158q4-10 7.5-7t5.5,8q40,89 78.5,179T883,539q11,28 12.5,37.5T896,591q-1,10-8,17t-20,10q-10,2-20,7.5T838,640q0,7 9.5,10.5T867,654q32,0 44-2t25-1q15,1 30.5,3.5T1012,657q14,0 24.5-3.5T1047,640t-11-13.5t-20-6.5q-20-5-33.5-15T960,582.5T944,554L699,3q-4-10-8.5-14T678-15q-9,0-14.5,4.5T653,4q-8,18-23.5,47.5t-37,75T542,234q-3,7-7.5,6.5T527,234q-19-36-40.5-75T443,80.5T400,5q-4-10-8.5-16T378-17Z"/>
      <glyph unicode="X" glyph-name="gid55" horiz-adv-x="760" d="M25-7Q14-7 4.5-3.5T-5,10T3.5,23.5T21,30q20,6 38.5,16.5t38,29T140,124L261,281q13,17 13,34.5T260,352L116,554q-9,14-19,26.5T73.5,603T40,618q-9,3-15.5,7T18,639q0,8 6,11.5T37,654q50,0 100-3.5t99-2.5q33,0 65,3.5t69,3.5q8,0 17.5-4t9.5-11q0-9-9.5-14.5T369,618q-31-7-46-15.5T308,577q0-12 13-29l96-131q9-12 17-13.5T452,415l77,108q14,19 19,32.5t5,23.5q0,14-10,23t-34,16q-10,3-20,8t-10,14q0,7 9.5,10.5T511,654q22,0 35-1t25.5-2t32.5-1q29,0 48.5,3.5T703,657q11,0 22-3.5T736,640t-10-13.5T707,620q-21-7-44-22t-38-34L483,387q-11-13-11.5-25T484,332L654,92q14-20 31-35.5T719,36q9-2 22.5-9T755,10q0-7-7-11T730-5q-42,0-77,1.5T587,0T522,1q-30,0-60-1.5T400-2q-8,0-17.5,4T373,13q0,9 9.5,14.5T401,35q20,5 40,13t20,25q0,5-2,10t-6,11L343,248q-13,20-23.5,23T294,251L209,125q-15-22-17.5-36.5T190,67q2-13 13.5-22.5T236,32q10-1 20-7t10-15q0-7-9-10.5T237-4q-33,0-61,1.5T132-1Q103-1 80-4T25-7Z"/>
      <glyph unicode="Y" glyph-name="gid56" horiz-adv-x="671" d="M195-6q-13,0-20.5,5T167,11q0,9 9,14.5T196,33q38,8 52,27t14,50V246q0,38-9.5,61T229,353L98,554q-9,14-19,26.5T55.5,603T22,618q-9,3-15.5,7T0,639q0,8 6,11.5T19,654q47,0 87-3t85-3q35,0 66.5,3.5T326,655q8,0 17.5-4t9.5-11q0-9-9.5-14.5T325,618q-30-7-43-15t-13-25q0-16 11-35L385,364q7-13 16-13q4,0 7.5,3.5T416,364q24,43 46,85.5T505,538q4,8 7,18.5t3,19.5q0,20-18,30.5T458,618q-10,1-20,7t-10,15q0,7 9.5,10.5T457,654q30,0 55-2.5t53-2.5q25,0 48,4t53,4q11,0 20.5-3.5T696,640t-8.5-13.5T670,620q-30-8-52-25t-34-38q-15-25-31-50.5T521.5,456t-31-50T460,355q-7-13-13.5-28T436,294.5T432,256V111q0-38 13.5-52.5T498,33q11-3 20-7t9-14q0-7-7.5-12T501-5q-21,0-50,2T393.5,1T345,3T298.5,1t-54-4.5T195-6Z"/>
      <glyph unicode="Z" glyph-name="gid58" horiz-adv-x="595" d="M518-4q-4,0-28,0.5t-60.5,1T349.5-1T264,0q-37-1-75-1.5T113-3L36-5Q26-5 22,9T21,27Q31,43 41,59T60.5,91T79,122q32,56 66.5,113T215,349t70,113.5T353,574q2,5 4,9.5t2,8.5q0,5-3,8t-12,3q-16,0-31.5,0T281,603q-17,0-32,0t-32,0q-44,0-77.5-23.5T82,516q-7-12-17.5-23.5T38,481q-9,0-12.5,5.5T22,499q0,6 2,13.5T29,526q13,27 18,46t7.5,39T59,659q2,16 6.5,22.5T82,688q10,0 25.5-12T138,658q20-7 39-7.5t47-0.5q29,0 58,0t58,0q15,0 45.5,1t66,1.5t67,1.5t47.5,1q8,0 14-10.5t4-14.5L514,516q-30-49-61.5-104.5T389,300T326,191T266,93q-12-19-12-29q0-6 6-8.5T279,52q11-1 33-1.5T346,50q43,0 74,3.5T474,69q42,22 72,94q4,8 8.5,10t10.5,2q15,0 15-15q0-13-3.5-30.5t-8.5-37t-10.5-39T547,16Q544,6 536.5,1T518-4Z"/>
      <glyph unicode="[" glyph-name="gid217" horiz-adv-x="362" d="M152-201q-17,0-26.5,2.5t-12.5,14T110-145V645q0,28 3,39.5t12.5,14T152,701l176-1q8,0 16-2.5t8-14.5q0-11-14-15.5T316,661l-81-12q-10-1-14-8t-4-15l-1-751q0-7 4-13t13-8l76-12q14-2 26.5-7T348-179q0-12-6-16.5T328-200l-176-1Z"/>
      <glyph unicode="\" glyph-name="gid212" horiz-adv-x="407" d="M371-62q-14,0-27.5,3.5T324-42L11,645q-3,7 3,14.5T33,667q17,0 28.5-4T80,645L392-42q3-7-3.5-13.5T371-62Z"/>
      <glyph unicode="]" glyph-name="gid218" horiz-adv-x="362" d="M210-201L34-200q-7,0-13.5,4.5T14-179q0,9 13,14t26,7l76,12q9,2 13,8t4,13l-1,751q0,8-4,15t-14,8L46,661q-8,2-22,6.5T10,683q0,12 8.5,14.5T34,700l176,1q18,0 27-2.5t12-14t3-39.5V-145q0-28-3-39.5t-12-14T210-201Z"/>
      <glyph unicode="^" glyph-name="gid259" horiz-adv-x="517" d="M54,242q-9,0-16.5,3.5T30,259q0,3 2,7L253,609h8L485,266q5-8-0.5-16T463,242q-15,0-27.5,11T413,279L262,500q-4,5-6,4.5t-4-4.5L104,279q-10-15-22.5-26T54,242Z"/>
      <glyph unicode="_" glyph-name="gid223" horiz-adv-x="610" d="M585-127q11,0 17.5-4.5T609-143q0-13-10-29t-24-16H17q-7,0-12,5t-5,9q0,6 3,17.5T12.5-136T29-127H585Z"/>
      <glyph unicode="`" glyph-name="gid294" horiz-adv-x="245" d="M200,452q-11,0-26,15q-22,23-44.5,47t-44,48.5T43,610q-6,7-8,13.5T33,635q0,13 18,19t43,6q20,0 30.5-5T143,633q8-15 20-42.5t24-56T206,487q3-7 4-12.5t1-9.5q0-13-11-13Z"/>
      <glyph unicode="a" glyph-name="gid65" horiz-adv-x="447" d="M132-14Q103-14 79-1.5t-38,34T27,80q0,35 22.5,59T115,182l86,38q20,9 25,16.5t5,26.5l1,55q1,29-9,44.5T192,378q-12,0-25-5.5T148,360q-3-4-4-9t-1-10q0-6 1-15.5t1-15.5q0-7-17-16.5t-39-17T51,269q-8,0-13.5,6.5T32,292q0,16 11,31t37,36q27,22 59,39t63,27.5T255,436q57,0 91-36.5T378,302l-5-194q-1-23 7.5-39.5T402,52q18,0 32,13q3,3 6,3q5,0 8.5-3.5T452,56q0-12-20-32Q413,5 391-4.5T345-14q-58,0-97,58h-2Q213,13 187-0.5T132-14Zm62,69q9,0 15,3t11,10q3,4 4.5,10T226,91l3,77q0,9-3,11.5t-7,2.5q-2,0-4.5-0.5T209,179q-24-13-36.5-26.5T160,104q0-29 11.5-39T194,55Z"/>
      <glyph unicode="b" glyph-name="gid73" horiz-adv-x="548" d="M279-14q-31,0-56,5T178,2q-14,4-25.5,6.5T132,11q-10,0-20-3.5T94-2Q84-9 78-9Q68-9 63.5-5T59,4q0,9 6,36t5,70L65,546q0,27-6,47.5T28,618q-5,1-8.5,5T16,634q0,6 3,10t8,5q24,5 54.5,14.5T141,684t46,17q10,4 15,4q7,0 9.5-4t2.5-9q0-7-2.5-23.5T209,638l-1-216q0-12 2.5-19.5T217,395q31,20 63,30.5T341,436q53,0 95-27.5T502.5,334T527,227q0-71-31.5-125.5t-87-85T279-14Zm16,45q25,0 42,23.5t26.5,62T373,200q0,40-9.5,81t-30,68.5T280,377q-13,0-35.5-4T208,359V142q0-32 12.5-57.5T253,45t42-14Z"/>
      <glyph unicode="c" glyph-name="gid74" horiz-adv-x="412" d="M211-14q-54,0-97,29T46,93.5T21,205q0,65 30.5,117T133,405t114,31q86,0 141-58q8-10 8-18q0-6-9-17.5t-20.5-21T347,312q-10,0-19,6t-17,13q-27,23-53.5,36.5T211,381q-35,0-52-28.5T142,253q0-49 14-84t42-53.5T267,97q30,0 52.5,10T366,135q5,4 9,7t9,3q12,0 12-16q0-4-1-11t-5-16q-8-20-34-47.5t-63-48T211-14Z"/>
      <glyph unicode="d" glyph-name="gid76" horiz-adv-x="563" d="M358-19q-3,0-9,7T343-1q3,17 4,29.5T349,51v6Q327,24 291,5T216-14q-55,0-99,27.5T47,89T21,196q0,70 31,123.5T138,403t126,30q14,0 29.5-2t29.5-6q15-3 13-3q4,0 4,11V546q0,35-8,51.5T303,618q-12,3-12,16t11,15q36,8 78.5,21T451,695q15,7 20,8.5t6,1.5q12,0 12-13q0,5-1-4.5t-2-24T484,638l-6-516q0-34 5-48.5T501,59q5,0 9.5,0.5T540,62q13,1 13-11q0-8-6.5-17.5T535,24q-38-4-80-13.5T376-13q-6-3-10.5-4.5T358-19ZM271,58q12,0 34,6.5T340,84l-1,231q0,15-13,31t-32,27t-36,11q-24,0-42.5-20.5T186,307t-11-83q0-37 7-67.5T202,104t30.5-34T271,58Z"/>
      <glyph unicode="e" glyph-name="gid78" horiz-adv-x="423" d="M211-14q-54,0-97,29T46,93.5T21,205q0,64 30,116.5T132,405t113,31q43,0 78-19t56-50.5T400,295q0-39-31-39H171q-14,0-20.5-8T144,221q0-36 16-65.5T204,109t65-17q29,0 53.5,11T372,133q3,2 7,4.5t7,2.5q11,0 11-13q0-9-6-27q-9-27-33-53.5T296.5,3T211-14ZM171,300h53q29,0 38.5,1t17.5,4q5,2 8,11t3,19q0,26-16.5,42.5T232,394q-20,0-37.5-11.5T166,353t-10-38q0-15 15-15Z"/>
      <glyph unicode="f" glyph-name="gid83" horiz-adv-x="369" d="M40-3Q34-3 27,1T20,12q0,8 5,12.5T38,32q29,9 35.5,16T80,71V356q-10,0-23,0.5T28,358q-6,1-10,12.5T14,390q0,4 3,6.5t7,3.5q12,5 26,10.5T80,423q5,80 32,134t66.5,87T262,691.5T345,706q71,0 102.5-19.5T479,624q0-23-10.5-37.5T438,572q-9,0-18,8t-19,21q-18,20-42,39t-56,19q-39,0-58.5-33T225,519V438q0-9 5-12t12-3H352q9,0 13-5.5t4-11.5q0-9-2.5-19.5T360,369q-5-8-8-8H265q-24,0-32-5.5T225,336V91q0-27 11.5-38T290,33q19-4 19-19q0-6-5-11.5T293-3q-30,0-71,2.5T155,2q-17,0-36-1T80-1.5T40-3Z"/>
      <glyph unicode="g" glyph-name="gid84" horiz-adv-x="514" d="M220-289q-100,0-156,30T8-176q0,31 7,49.5T49-89Q69-75 86-62t27,20l51-20q-28-15-45-34.5T102-142q0-41 34-67.5T223-236q71,0 98,27q17,17 27,38t10,41q0,15-10,24T310.5-90.5T232-79Q126-68 80.5-36.5T35,45q0,9 5.5,19T63,85q14,10 27.5,20T114,124t13,16l53-18q-20-6-32-18T136,84q0-10 12.5-16.5t44-10.5T281,48q112-9 161.5-33.5T492-57q0-42-23.5-83t-63-75T318-269t-98-20Zm14,429q30,0 47.5,34.5T299,268q0,38-8.5,66T267,377.5T231,393q-19,0-34-15.5T173.5,335T165,273q0-38 9-68t25-47.5T234,140ZM222,94q-45,0-88.5,21.5t-72,60T33,263q0,51 29.5,90.5t77,61.5T241,437q31,0 60-7t65-12q18-3 38-5t44-2q16,0 30.5,1.5T503,414q17,0 17-24q0-21-14-40q-6-7-13-7H466q-26,0-36-8q-3-2-4-3t-1-9.5t0-34.5q0-53-28-97t-74-70.5T222,94Z"/>
      <glyph unicode="h" glyph-name="gid85" horiz-adv-x="569" d="M36-3Q16-3 16,12q0,13 23,21q15,5 26,10.5T76,71V546q0,27-6.5,47T38,618q-11,2-11,16q0,13 10,15q25,5 57,15.5T155.5,686T200,702q9,3 14,3q7,0 9-4t2-9t-1-14t-2-19.5T220,638V394q0-9 1-17t4-10q15,13 35.5,29t48,28T370,436q54,0 91-37.5T498,293V73q0-21 10.5-28T533,33q10-4 15.5-8.5T554,12q0-15-22-15q-25,0-41,1.5T460.5,1T424,2q-23,0-35.5-1t-26-2.5T324-3T299,13q0,8 6.5,13T319,33q13,4 23.5,12T353,75V271q0,21-8,38t-21,27t-29,10q-14,0-30.5-5T231,324q-6-4-8-10t-2-18V73q0-20 9.5-27T253,34q8-3 14-8t6-13q0-16-17-16q-20,0-39,1.5T180.5,1T145,2q-17,0-34.5-1t-36-2.5T36-3Z"/>
      <glyph unicode="i" glyph-name="gid86" horiz-adv-x="306" d="M36-3Q30-3 25,1T20,11q0,8 4.5,13T37,31q27,7 37.5,14T85,68V284q0,36-10.5,48.5T42,348q-6,1-9,6.5T30,367q0,16 12,18q54,11 98,29.5T207,443q18,8 22,8q14,0 14-14q-1-19-4.5-44.5t-6-52.5T230,288V69q0-13 10-21t38-17q8-3 13-7t5-12q0-14-15-14q-19,0-41.5,1t-44,2T156,2q-17,0-37.5-1T77-1.5T36-3ZM152,488q-34,0-59,25T68,572q0,37 25,62t59,25q37,0 62-25t25-62q0-34-25-59t-62-25Z"/>
      <glyph unicode="j" glyph-name="gid92" horiz-adv-x="275" d="M5-287q-22,0-33.5,4.5T-40-270t5,12.5t16,9.5q16,8 29,18.5T36-193q10,21 16,52t9.5,66T66-7.5T67,48V284q0,36-10.5,48.5T24,348q-6,1-9,6.5T12,367q0,16 12,18q54,11 98,29.5T189,443q8,4 14,6t8,2q14,0 14-14q-2-28-7.5-70T212,288l1-197q0-31-2.5-72.5T200-67.5T173-152q-15-34-43.5-65T68-267.5T5-287ZM136,488q-34,0-59,25T52,572q0,37 25,62t59,25q37,0 62-25t25-62q0-34-25-59t-62-25Z"/>
      <glyph unicode="k" glyph-name="gid93" horiz-adv-x="563" d="M35-3Q15-3 15,12q0,8 6,12.5T38,33q15,5 26,10.5T75,71V546q0,27-6.5,47T37,618q-11,2-11,16q0,13 10,15q25,5 57,15.5T154.5,686T199,702q9,3 14,3q7,0 9-4t2-9q0-7-2-23.5T219,638l1-384q0-13 9-13q3,0 6.5,2t5.5,3q36,32 65.5,65.5T346,361q4,6 6.5,10.5T355,379q0,5-8,10.5T322,397q-12,2-12,12q0,9 7.5,11.5T332,423h49q18,0 49.5,1.5t62,4T536,432q11,0 11-12q0-8-6-13.5T524,399q-17-4-41-14t-50-25q-19-10-38-22.5T359.5,312T330,286q-5-5-5-11q0-4 2.5-6.5T332,263q24-31 44-60.5T417,145t47-58q17-19 41.5-34.5T546,31q8-3 17.5-7T573,12q0-15-22-15Q486-3 426.5-1.5T317,0q-20,0-20,15q0,8 6,12.5T320,36q8,3 10.5,6.5T334,50q0,5-3.5,10.5T321,74L230,207q-2,2-4,2q-6-2-6-8q0-15 0-30.5t0-30.5q0-16 0-34.5T220,70q0-16 6.5-23.5T249,34q8-3 14-8t6-13q0-7-4.5-11.5T252-3q-20,0-38,1.5T179,1T144,2q-17,0-34.5-1t-36-2.5T35-3Z"/>
      <glyph unicode="l" glyph-name="gid94" horiz-adv-x="295" d="M35-3Q25-3 20,1T15,12q0,8 6,12.5T38,33q15,5 26,10.5T75,71V546q0,27-6.5,47T37,618q-11,2-11,16q0,13 10,15q25,5 57.5,15.5t62,21.5T200,702q9,3 14,3q7,0 9-4t2-9q0-7-2-23.5T220,638V73q0-22 11-27.5T257,35q11-4 17-8.5T280,14q0-7-5-11T260-1q-20,0-40,1T181,1.5T144,2q-17,0-34.5-1t-36-2.5T35-3Z"/>
      <glyph unicode="m" glyph-name="gid95" horiz-adv-x="813" d="M40-3Q34-3 27,1T20,12q0,8 7.5,13T43,33q15,5 26,11.5T80,71V303q0,20-6,34.5T51,355q-4,1-8,5t-4,14q0,15 11,18q24,6 54,14.5T162.5,425T210,445q4,2 7,4t6,2q10,0 10-12q0-8-2.5-26.5T228,380q0-10 2-12h2q32,32 68,50t79,18q30,0 56.5-23T474,357h5q29,38 66,58.5T628,436q31,0 56.5-17t41-49T741,292V70q0-20 11-26t26-11q8-3 14-8t6-13q0-7-5.5-11T781-3q-20,0-39,1.5T705,1T669,2q-17,0-32.5-1T605-1.5T569-3q-6,0-11,4t-5,11q0,8 5.5,13T572,33q13,4 18.5,10T596,63V267q0,25-6,42.5t-17.5,27T546,346q-10,0-24-5.5T494,323q-11-10-11-35V70q0-20 6-26t21-11q8-3 14-8t6-13q0-7-5.5-11T513-3q-20,0-36.5,1.5T444.5,1T411,2q-17,0-32.5-1T347-1.5T311-3q-6,0-11,4t-5,11q0,8 5.5,13T314,33q13,4 18.5,10T338,63V267q0,25-6,42t-17,26.5T289,345q-10,0-24-5t-30-16q-10-7-10-32V70q0-17 4.5-24.5T249,33q8-3 13.5-8T268,12q0-6-5-10.5T252-3q-20,0-36.5,1.5T184,1T151,2q-17,0-35-1T79-1.5T40-3Z"/>
      <glyph unicode="n" glyph-name="gid96" horiz-adv-x="574" d="M40-3Q34-3 27,1T20,12q0,8 7.5,13T43,33q15,5 26,11.5T80,71V303q0,20-6.5,34.5T50,355q-4,1-7.5,5.5T39,374q0,15 10,18q34,8 79,21.5T203,442q5,2 10.5,5.5T223,451q7,0 8.5-4t1.5-9q0-8-2.5-25T228,382q0-4 0.5-9t1.5-6q34,32 67.5,50.5T377,436q53,0 89-38t36-106V70q0-20 11-26t26-11q8-3 14-8t6-13q0-7-5.5-11T542-3q-20,0-39,1.5T466,1T430,2q-17,0-35-1T358.5-1.5T320-3q-6,0-11,4t-5,11q0,8 5.5,13T323,33q15,5 24.5,11T357,70V267q0,37-16,58t-42,21q-19,0-34-5.5T233,323q-4-3-6-8t-2-10V70q0-20 10-26t24-11q19-7 19-21q0-6-5-10.5T262-3q-20,0-38,1.5T189.5,1T155,2q-17,0-36-1T80-1.5T40-3Z"/>
      <glyph unicode="o" glyph-name="gid98" horiz-adv-x="505" d="M238-14q-61,0-110,27T50,88T21,197q0,49 18.5,92.5t51,76.5t76,52T260,437q63,0 113.5-29T454,331t30-105q0-65-27.5-120t-82-87.5T238-14Zm19,47q18,0 31,7.5T310,62q12,20 17,55t5,85q0,56-11,98t-30.5,66T245,390q-13,0-24-4.5T202,373q-17-18-23.5-55.5T172,222q0-47 11-90.5t30.5-71T257,33Z"/>
      <glyph unicode="p" glyph-name="gid106" horiz-adv-x="558" d="M35-257q-7,0-13.5,4T15-242q0,8 6.5,13T38-221q23,7 30,14.5T75-183V290q0,13-5,24.5T56,334T34,344q-6,2-9.5,5.5T21,363q0,9 3.5,13t8.5,5q34,8 77,21.5T183,431q5,2 10.5,5.5T203,440q7,0 8.5-4t1.5-9q0-8-2.5-26T208,369q0-10 2-12q10,10 35.5,27T304,414.5T368,428q54,0 92-29t58-74t20-94q0-47-18-91.5T470,59T396,2T305-19q-10,0-24.5,2.5T251-9.5T223,0q-1,0-2-1t-1.5-3.5T219-11V-172q0-14 5.5-23t17-15T271-222q11-3 16.5-7.5T293-242q0-6-4.5-10.5T277-257q-30,0-65.5,2.5T150-252q-17,0-36-1t-39-2.5T35-257ZM298,31q10,0 24.5,8T351,66t23.5,50.5T384,194q0,54-10,86t-24.5,48T320,349t-26,5q-17,0-34.5-7.5t-28.5-18T220,309q0-6 0-29t-0.5-52.5t-0.5-54t0-32.5q0-20 8.5-46t26-45T298,31Z"/>
      <glyph unicode="q" glyph-name="gid108" horiz-adv-x="539" d="M280-287q-7,0-11.5,4.5T264-272q0,8 6,12.5t16,7.5q28,8 40,18t12,32l1,217q0,11-2.5,16.5T332,37q-2-1-4.5-2T323,32q-14-9-34-20T247.5-6.5T207-14q-54,0-96,28.5t-66.5,76T20,196q0,61 27,116t82,90t139,35q35,0 63-6t49-12.5t35-6.5q10,0 20,3.5t18,9.5q5,3 8.5,5t7.5,2q10,0 14.5-4t4.5-9q0-9-5.5-35.5T477,313l2-526q0-16 7.5-23.5T516-251q11-3 17-8t6-13q0-7-6-11t-14-4q-30,0-58.5,2.5T406-282q-17,0-39-1t-44.5-2.5T280-287ZM267,56q18,0 38.5,5T339,81q0,17 0,43.5t0,56.5t0,57t0,43q0,49-26.5,80T252,392q-24,0-41.5-23.5t-27-62T174,223q0-30 5.5-59.5t16.5-54t28.5-39T267,56Z"/>
      <glyph unicode="r" glyph-name="gid109" horiz-adv-x="432" d="M40-3Q33-3 26.5,1T20,12q0,8 6.5,13T43,33q23,7 30,14.5T80,71V304q0,20-5,32T53,353q-5,2-9.5,5.5T39,372q0,15 13,18q33,8 73.5,20.5T196,437q5,3 13,7t12,4q10,0 10-12q0-5-0.5-21T229,382.5T228,356t4-10q15,21 35.5,42t45,35T362,437q37,0 52-14t15-36q0-16-9-35.5T397,318t-30-14q-10,0-20.5,5T325,319q-10,5-20,9.5T287,333q-26,0-44-19.5T225,236V82q0-22 12-32t40-18q11-3 16.5-7.5T299,12q0-15-16-15q-30,0-66,2.5T155,2q-17,0-36-1T80-1.5T40-3Z"/>
      <glyph unicode="s" glyph-name="gid110" horiz-adv-x="368" d="M170-14q-34,0-65.5,7.5T46,19Q36,35 32,68.5T29,141q0,13 21,13q9,0 15.5-6T74,137q20-40 44-71.5T179,34q26,0 38.5,16T230,85q0,26-21,43t-46,29q-28,14-55,32.5T63,236T45,304q0,41 22.5,70.5t60.5,46T211,437q34,0 63.5-7.5T315,415q8-10 12.5-38.5T332,312q0-11-20-11q-7,0-15,5.5T287,317q-13,40-33.5,60T209,397q-22,0-39.5-14T152,346q0-20 20.5-36.5T220,279q66-34 94-66t28-86q0-67-43-104T170-14Z"/>
      <glyph unicode="t" glyph-name="gid112" horiz-adv-x="388" d="M226-14q-70,0-104,34T88,116V346q0,9-7,13t-24,5H42q-7,0-12,12.5T25,399q0,2 1,5t5,4q25,8 55,28t58,42.5T189,515q8,6 13.5,10t13.5,4q10,0 14-4t2-18l-7-62q-1-13 6-17.5t19-4.5H370q2,0 5-7t3-12q0-16-4-29.5T365,361H273q-22,0-31-6t-9-19V149q0-47 17.5-69.5T297,57q28,0 41,6t24,10q4,2 7,2q5,0 8-6.5T380,53q0-6-22-22.5T301,0T226-14Z"/>
      <glyph unicode="u" glyph-name="gid113" horiz-adv-x="556" d="M342-21q-9,0-9,10q0,12 2.5,32.5T338,52q0,5-0.5,8T336,64Q312,33 269,9T180-15q-31,0-56,19.5T84.5,57T70,130V314q0,23-8,37.5T31,370q-6,1-11,5.5T15,389q0,7 4,12t11,6q44,2 81.5,9T186,432q5,2 11.5,3.5T210,437q14,0 13-14q-4-23-6-38.5T215,346V155q0-24 7-41.5t20-27T271,76q14,0 28.5,4.5T327,98q5,5 9.5,20t4.5,40V314q0,17-5.5,29t-17,19.5T290,371q-12,1-18.5,6T265,394q0,11 7.5,16t17.5,5q55,4 87,6.5t52,5.5t39,7q3,1 7,2t7,1q15,0 15-12q0-4-1-8t-3-9q-1-4-2.5-17.5t-3-28.5T486,338V106q0-22 5.5-29T504,70q4,0 12.5-0.5T528,69q10,0 15-5.5T548,50q0-10-3.5-16T530,27q-50-4-91-17T369-14q-7-3-14-5t-13-2Z"/>
      <glyph unicode="v" glyph-name="gid118" horiz-adv-x="493" d="M246-21q-7,0-13.5,12.5T217,24q-8,18-18,41.5T181,108q-26,58-53,113T74,334q-10,23-21,38.5T23,395q-10,4-14,8.5T5,417q0,8 9,10t16,2q25,0 39.5-1.5t28.5-3t36-1.5t40,1.5t37.5,3T255,429q7,0 15.5-3t8.5-11q0-9-7-12t-15-7q-11-4-17.5-14.5T233,353q0-9 0-17t4-16l64-155q1,0 1.5,0t1.5,0l56,150q3,8 4,15.5t1,14.5q0,17-8,30.5T332,395q-8,3-15,6.5T310,414q0,8 8.5,11t15.5,3q30-1 42.5-1.5T402,426q12,0 27,0.5t44,1.5q7,0 16-2t9-10q0-15-18-22q-19-7-34-22.5T422,333L344,135q-3-8-7-16.5t-8-17t-8-17T313,68q-4-9-11.5-26t-15-34.5T273-21H246Z"/>
      <glyph unicode="w" glyph-name="gid119" horiz-adv-x="767" d="M238-32q-5,0-10.5,2.5T220-21L74,334q-9,23-20.5,38.5T23,395q-10,4-14,8.5T5,417q0,8 9,10t16,2q25,0 39.5-1.5t28-3T133,423t36.5,1.5t30,3T239,429q7,0 15.5-3t8.5-11q0-9-7-12t-15-7q-11-4-16-12.5T220,357q0-19 7-38l54-146q0-1 2-1t2,1l66,156q2,5 3.5,11.5T356,354q0,9-9.5,21T320,394q-10,4-14,8.5T302,416q0,8 9.5,10t18.5,2q27,0 52.5-2t38.5-2q26,0 49,2t54,2q7,0 15.5-3t8.5-11q0-9-7-12t-15-7q-11-4-17-11t-6-21q0-13 3-24.5t6-19.5l56-148q0-1 2-1t2,1l51,136q4,11 6,21.5t1,20.5q0,15-7,27t-21,17q-8,3-15,6.5T580,412q0,8 8.5,11t15.5,3q30-1 42.5-1.5T672,424q8,0 15.5,0t19.5,0.5t31,1.5q7,0 16-2t9-10q0-9-4-13.5T745,392q-19-7-34-22.5T687,331L545-21q-4-9-18-9q-12,0-17,9L380,272q0,1-2,1t-2-1L257-21q-5-11-19-11Z"/>
      <glyph unicode="x" glyph-name="gid120" horiz-adv-x="521" d="M30-4Q23-4 14-2T5,8q0,9 4,13.5T23,30T44,43.5T74,79l96,130q6,8 6,13t-5,13L97,343q-13,20-23,33T47,395q-10,4-14,8.5T29,417q0,8 9,10t16,2q25,0 39.5-1.5t28.5-3t36-1.5q32,0 53.5,3t58.5,3q7,0 15.5-3t8.5-11q0-9-8-12t-16-7q-10-4-19.5-9.5T241,370q0-6 4-14t9-16l46-67q5-9 9,0l26,48q6,11 10.5,24.5T349,370q0,17-19,24q-8,4-14,7t-6,12q0,8 8.5,11t15.5,3q29-1 42-1t26,0q12,0 23.5,1t40.5,2q7,0 16-2t9-10q0-9-4-13.5T473,395t-20.5-13.5T422,346l-74-96q-8-11-7-16.5t6-13.5L428,94q14-21 32-37.5T497,33q10-4 14-8.5T515,11q0-8-9-10T490-1q-24,0-43.5,1.5t-38,3T368,5q-32,0-58-3T247-1q-24,0-24,14q0,9 6,12.5T245,32q13,4 21,12.5T274,73q0,11-2,19t-11,21l-49,70q-3,3-6,0l-43-79q-4-7-10-19.5T147,60q0-11 4.5-18.5T166,29q8-4 15-7t7-12q0-8-8.5-11T164-4q-30,1-40,1.5T101-2Q89-2 74-2T30-4Z"/>
      <glyph unicode="y" glyph-name="gid121" horiz-adv-x="491" d="M90-283q-28,0-53.5,20T11-215q0,20 10,39.5T53-156q17,0 35-6t34-5q17,2 23.5,8.5T161-135q6,10 11,18t12,22t19,40q14,31 14,54q0,16-5,29.5T201,55L77,332q-10,23-21,38.5T26,393q-10,4-14,8.5T8,415q0,8 9,10t16,2q25,0 43-1t32-2t27-1q22,0 38.5,1t35,2t42.5,1q7,0 15.5-3t8.5-11q0-9-7-12t-15-7q-11-4-17.5-12.5T229,355q0-9 2.5-20.5T241,305l58-141q1-2 2-2t2,2l48,147q3,8 5,19.5t2,20.5q0,17-11,28t-22,15q-8,3-15,6.5T303,413q0,8 8.5,11t15.5,3q30-1 45-2.5t28-1.5q8,0 17,0.5t22,1.5t32,2q7,0 16-2t9-10q0-9-4-13.5T478,393q-19-7-33.5-22.5T420,332L268-34q-10-24-20-47.5T228.5-128T209-174t-20-46q-13-31-39.5-47T90-283Z"/>
      <glyph unicode="z" glyph-name="gid124" horiz-adv-x="450" d="M45-5Q41-5 30.5,5T20,25q0,7 8,19.5t18,26T62,94q24,39 42.5,67.5t36,56t38,61T229,361q2,4 2,8t-13,4H173q-14,0-24-3.5T128,355q-4-4-14-18T92.5,307T72,277.5T60,261q-6-7-20-3T27,271q3,11 9,37t11.5,55.5T53,414q0,11 7.5,19T77,441q10,0 20-10q5-4 19-5.5t30-1.5q12,0 23.5,0.5T188,425q47,0 106,1t110,3q9,0 14.5-8.5t7.5-19T424,385q-12-14-21.5-26.5T381,329L221,68q-4-7-1.5-11T236,53h51q15,0 27,4.5T339,76q16,17 25,33t28,50q8,14 23,10.5T430,154q0-7-3-23t-7.5-36.5T409,52.5T397,11Q392-5 377-5q-25,0-87.5,3T135,1Q111,1 85-2T45-5Z"/>
      <glyph unicode="{" glyph-name="gid215" horiz-adv-x="372" d="M335-152q-58,0-107.5,13.5T150-95.5T126-19q3,38 14,86.5T151,157q0,26-4.5,43.5T126,231T77,257q-11,5-21.5,8T45,280t11.5,17T77,306q19,9 34.5,18.5t25,28T146,406q0,41-9.5,78.5T124,559q-4,47 25.5,82t79,54T333,714q17,0 23-3.5t6-14.5q0-10-13.5-14.5T323,673q-34-10-47.5-22.5t-16-29.5T257,578q0-16 6-44.5t12-58t6-51.5q0-35-22.5-64.5t-56.5-49T131,283q-4-1-2-2t4-2q38-13 66.5-28.5t47.5-34t28.5-40T285,130q0-21-6.5-51T265,21t-7-45q0-32 5-50t19.5-27T327-115q12-2 23-6.5T361-137q0-10-7.5-12.5T335-152Z"/>
      <glyph unicode="|" glyph-name="gid276" horiz-adv-x="279" d="M104-289q-10,0-17,9t-7,19V644q0,16 12,27.5t29,19t31.5,11T171,705q11,0 19.5-7.5T199,679V-241q0-16-12-25.5T158-281t-32-6.5T104-289Z"/>
      <glyph unicode="}" glyph-name="gid216" horiz-adv-x="372" d="M37-152q-10,0-18,2.5T11-137q0,11 11,15.5T45-115q30,5 45,14t19.5,27T114-24q0,17-6.5,45T94,79t-7,51q0,25 9.5,46.5t28.5,40t47.5,34T239,279q2,1 4,2t-2,2q-36,8-70.5,27.5t-57,49T91,424q0,22 6,51.5t12,58t6,44.5q0,26-2.5,43t-16,29.5T49,673q-12,4-25.5,8.5T10,696q0,11 6.5,14.5T39,714q55,0 104.5-19t79-54T248,559q-3-37-12.5-74.5T226,406q0-35 9.5-53.5t25.5-28T295,306q9-4 20.5-9T327,280t-10.5-15T295,257q-33-13-48.5-26T226,200.5T221,157q0-41 11-89.5T246-19q4-47-24-76.5t-77-43T37-152Z"/>
      <glyph unicode="~" glyph-name="gid257" horiz-adv-x="555" d="M371,247q-22,0-45,9t-46,21q-26,13-53.5,24T170,312q-26,0-51-14.5t-41.5-29T58,254q-7,0-15,14t-8,19q0,14 12,35.5T79.5,365T125,400t51,14q24,0 48.5-9.5T274,383q27-13 55-24t56-11q20,0 39,9t34.5,20t26,20t12.5,9q11,0 17-11.5t6-21.5q0-14-13-35t-34.5-42t-48-35T371,247Z"/>
      <glyph unicode="&#xa0;" glyph-name="gid237" horiz-adv-x="245"/>
      <glyph unicode="&#xa1;" glyph-name="gid204" horiz-adv-x="299" d="M147,308q13,0 20.5-15T179,255q9-57 18-104.5t16-87t11.5-74T229-77q0-37-21-64.5T152-169T93.5-140T71-75q1,32 4,65.5t8.5,73T97,150t17,105q5,29 12.5,41T147,308Zm-2,186q31,0 53-22t22-53t-22-53t-53-22T92,366T70,419t22,53t53,22Z"/>
      <glyph unicode="&#xa2;" glyph-name="gid244" horiz-adv-x="437" d="M206-105q-9,0-15.5,5.5T185-85l6,74q-45,8-84,35.5T44.5,98T21,205q0,58 27.5,108.5t76,83.5T236,436l7,62q1,11 10,16.5t19,5.5q8,0 13-7t4-15l-7-62q33-3 67.5-17T411,378q9-9 9-18q0-24-19-39.5T359,306q-22,0-36,17q-14,18-25,29t-22,17L250,118q7-1 14-1.5t14-0.5q38,0 70,14t45,37q6,10 15,10q13,0 13-16q0-5-2-12.5T415,134Q396,76 354.5,33.5T237-14l-6-71q-2-9-9.5-14.5T206-105Zm0,237l25,248h-1q-32,0-51.5-15.5t-28-44T142,253q0-46 17.5-75.5T206,132Z"/>
      <glyph unicode="&#xa3;" glyph-name="gid247" horiz-adv-x="585" d="M55,293q-7-1-13.5,4.5T35,310q0,9 10,19t23,11l377,25q8,1 13-5.5t5-11.5q0-7-13.5-18T420,318L55,293ZM354-37q-46,0-80,22T214,27q-12,10-28.5,20t-30,17T136,71q-4,0-14.5-11.5T99.5,33T80,5Q57-26 28-26Q14-25 3.5-13T-7,24Q-7,48 7,71.5T46,112t58,20q9,1 13,6t7,11q8,25 12.5,64t7.5,81.5t6,76.5q4,44 19.5,89.5t46,83.5t80,61.5T417,629q62,0 93-28.5T541,531q0-22-14-40t-32.5-28.5T461,452q-10,0-16,7t-6,14q0,8 2,17.5t2,22.5q0,30-9,52t-30,22q-22,0-38.5-21.5T336,494T311,360q-6-45-17.5-85T263,204.5T213,156q-3-1-2-7t5-6q49,0 88.5-12.5T375,102q32-15 56.5-27.5T475,62q17,0 24.5,7.5T507,96q0,14-5,31.5T492.5,162T488,189q0,12 7,20t23,8q27,0 40.5-19.5T572,149q0-33-18-66T505,23T435-20.5T354-37Z"/>
      <glyph unicode="&#xa4;" glyph-name="gid245" horiz-adv-x="510" d="M64,42Q51,42 38,55.5T25,80q0,5 4,9l57,57q-17,25-27,55.5T49,265q0,35 10.5,66T88,388L29,446q-4,4-4,9q0,11 13,24.5T64,493q6,0 9-4l58-57q27,21 60,33t70,12q35,0 66-10.5T384,437l53,52q4,4 9,4q13,0 26-13t13-26q0-4-3-9l-53-52q20-26 31.5-59T472,265q0-35-10.5-67T431,140l51-50q3-4 3-9q0-13-13-26T446,42q-5,0-9,4L387,95Q332,54 261,54q-37,0-71,12t-62,34L73,46q-3-4-9-4Zm197,73q42,0 76,20t54,54.5T411,265q0,42-20,76.5T337,396t-76,20t-76.5-20T130,341.5T110,265q0-41 20-75.5T184.5,135T261,115Z"/>
      <glyph unicode="&#xa5;" glyph-name="gid248" horiz-adv-x="671" d="M195-6q-13,0-20.5,5T167,11q0,9 9,14.5T196,33q38,8 52,27t14,50v71H152q-7,0-13.5,5.5T133,199q1,9 11.5,21.5T168,233l94-1v14q0,8-0.5,14.5T260,273H152q-7,0-13.5,5.5T133,291q1,9 11.5,21.5T168,325h77L98,554q-9,14-19,26.5T55.5,603T22,618q-9,3-15.5,7T0,639q0,8 6,11.5T19,654q47,0 87-3t85-3q35,0 66.5,3.5T326,655q8,0 17.5-4t9.5-11q0-9-9.5-14.5T325,618q-30-7-43-15t-13-25q0-7 3-16.5t8-18.5l90-177q7-13 16-13q4,0 7.5,3.5T401,366q12,22 23.5,43.5t23.5,43t23.5,43T495,539q10,18 10,38t-17.5,29.5T449,618q-10,1-20,7t-10,15q0,7 9.5,10.5T448,654q30,0 55.5-2.5T557,649q31,0 55,4t54,4q11,0 20.5-3.5T696,640t-8.5-13.5T670,620q-20-5-36.5-14.5t-29-22T584,557q-15-25-30.5-50.5t-31.5-51t-31.5-51T460,353q-4-7-7.5-14T446,324l95-1q8,0 13-6.5t4-11.5q-1-7-15-20t-30-13H432V232l109-1q8,0 13-6.5t4-11.5q-1-7-15-20t-30-13H432V111q0-38 13.5-52.5T498,33q11-3 20-7t9-14q0-7-7.5-12T501-5q-21,0-50,2T393.5,1T345,3T298.5,1t-54-4.5T195-6Z"/>
      <glyph unicode="&#xa6;" glyph-name="gid277" horiz-adv-x="281" d="M106-290q-10,0-17,9t-7,19V124q0,16 12,27.5t29,19t31.5,11T173,185q11,0 19.5-7.5T201,159V-242q0-16-12-25.5T160-282t-32-6.5T106-290Zm-2,541q-10,0-17,9t-7,19V644q0,16 12,27.5t29,19t31.5,11T171,705q11,0 19.5-7.5T199,679V299q0-16-12-25.5T158,259t-32-6.5T104,251Z"/>
      <glyph unicode="&#xa7;" glyph-name="gid269" horiz-adv-x="453" d="M148-148q-37,0-61,12T63-106q0,8 7,29.5T100-39q8,5 17,1t14-8q17-15 43.5-23.5T224-78q25,0 38,17.5T275-12q0,26-21,52.5t-52.5,54T139,149q-55,47-82,91.5T30,329q0,45 12,75.5t31.5,53T114,500q11,39 35.5,71T208,621.5T280,640q27,0 58.5-8.5T381,612q6-5 11-11t5-14q0-3-8-20t-19.5-32.5T345,519q-8,0-17,8q-18,20-43,33.5T246,574q-33,0-45.5-17T188,517q0-18 17.5-41.5T252,426t61-54q31-26 56-56.5t39.5-70T423,151q0-67-23-122T332-67T221-134q-16-7-35.5-10.5T148-148ZM335,66q1-4 4.5-3.5T344,66q4,15 5,30.5t1,31.5q0,41-28,83t-68,78q-18,18-42,44t-44.5,52.5T139,429q-1,4-4,3t-5-3q-10-11-13-28t-3-34q0-37 26.5-78.5T207,211q19-18 46-45.5T303.5,111T335,66Z"/>
      <glyph unicode="&#xa8;" glyph-name="gid292" horiz-adv-x="367" d="M280,491q-31,0-53.5,22.5T204,567q0,33 22.5,55T280,644q34,0 57-22t23-55q0-31-23-53.5T280,491ZM82,491q-31,0-53.5,22.5T6,567q0,33 22.5,55T82,644q34,0 57-22t23-55q0-31-23-53.5T82,491Z"/>
      <glyph unicode="&#xa9;" glyph-name="gid270" horiz-adv-x="684" d="M341,15q-64,0-120.5,24.5t-99.5,67T54,206T30,327q0,65 24.5,121.5t67,99t99.5,67T342,639q65,0 121.5-24.5t99-67t67-99T654,327q0-64-24.5-121T562,106.5t-99.5-67T341,15Zm14,119q-58,0-104,24t-72.5,66T152,321q0,50 25,93.5T250.5,485T370,512q28,0 56.5-6.5T475,488q6-2 9-5.5t4-10.5q3-24 3.5-40.5T492,395q0-10-6-16t-14-5q-6,0-11.5,4T453,390q-4,11-7.5,20.5T434,429q-10,11-26,19.5T366,457q-50,0-72.5-37.5T271,331q0-44 9-76t29.5-49.5T366,188t57,15t35,51q4,9 10.5,12t12.5,1q14-3 14-20q0-21-3-35.5T484,175q-2-7-6-7.5T468,164q-20-10-48.5-20T355,134ZM341,68q53,0 99.5,20.5t81,56t54,82.5T595,327q0,52-19.5,98T521,505.5T440.5,560T342,580q-52,0-98-20t-81-54.5T108.5,425T89,327q0-53 19.5-100t54-82.5t80.5-56T341,68Z"/>
      <glyph unicode="&#xaa;" glyph-name="gid139" horiz-adv-x="359" d="M298,206q6,0 12-4.5t6-11.5q0-1-0.5-1.5T315,186q-7-12-16.5-19.5T275,159H45q-7,0-12.5,5.5T27,175q0,8 9.5,19.5T58,206H298ZM118,286q-22,0-40.5,8.5T48,317.5T37,350q0,23 16,39t48,29l57,22q14,6 17.5,11t3.5,17v29q0,19-5,27t-18,8q-7,0-14.5-2.5T129,522t-3-14t2-15q0-5-14-12T82,468t-30-8q-7-2-10,4.5T42,481q5,12 11.5,23T77,529q13,10 33.5,20.5t44,18T198,575q44,0 73.5-27T299,473l-4-105q0-11 5-22.5T314,334q6,0 11,3t9,6q1,1 2,1.5t2,0.5q4,0 6.5-2.5T347,336q0-7-6.5-14.5T331,311q-11-11-26.5-18T267,286q-28,0-44.5,11T193,325h-1q-10-13-27.5-26T118,286Zm44,52q3,0 5.5,1.5T172,342q2,2 2.5,3.5T175,348l2,57q0,5-3,6.5t-8-0.5q-15-7-19.5-15.5T142,365q0-19 6.5-23t13.5-4Z"/>
      <glyph unicode="&#xab;" glyph-name="gid230" horiz-adv-x="580" d="M322,15q-11,0-21,8.5T286,36q-31,29-54,48t-45,33.5t-48,29T75,179q-16,8-23,18.5T45,219q0,12 12,17q46,28 76.5,47t53,35.5t45.5,36T286,402q5,4 15,12.5t21,8.5q7,0 7-11q0-4-2-8t-4-9q-35-51-57-80t-40.5-48T184,227q-7-6-7-8t7-8q23-21 41.5-40T266,123.5T323,43q2-4 4-8t2-8q0-12-7-12Zm211,0q-11,0-21,8.5T497,36q-31,29-54,48t-45,33.5t-48,29T286,179q-16,8-23,18.5T256,219q0,12 12,17q46,28 76.5,47t53,35.5t45.5,36T497,402q5,4 15,12.5t21,8.5q7,0 7-11q0-4-2-8t-4-9q-35-51-57-80t-40.5-48T395,227q-7-6-7-8t7-8q23-21 41.5-40T477,123.5T534,43q2-4 4-8t2-8q0-12-7-12Z"/>
      <glyph unicode="&#xac;" glyph-name="gid258" horiz-adv-x="626" d="M497,42q-5,0-10,6t-5,14V299q0,16-15,16H50q-7,0-13.5,5T30,330q0,9 3.5,23T45,378t20,11H538q11,0 14.5-6t3.5-15V76q0-12-11-19.5t-25-11T497,42Z"/>
      <glyph unicode="&#xad;" glyph-name="gid220" horiz-adv-x="325" d="M36,163q-11-1-11,11q0,33 6,47.5T49,238q55,9 117,17t117,12q11,1 14-4t3-13q0-32-4-43t-16-13q-55-8-121.5-17T36,163Z"/>
      <glyph unicode="&#xae;" glyph-name="gid271" horiz-adv-x="690" d="M344,15q-64,0-120.5,24.5t-99.5,67T57,206T33,327q0,65 24.5,121.5t67,99t99.5,67T345,639q65,0 121.5-24.5t99-67t67-99T657,327q0-64-24.5-121T565,106.5t-99.5-67T344,15Zm0,53q53,0 99.5,20.5t81,56t54,82.5T598,327q0,52-19.5,98T524,505.5T443.5,560T345,580q-52,0-98-20t-81-54.5T111.5,425T92,327q0-53 19.5-100t54-82.5t80.5-56T344,68ZM469,170q-15,0-33.5,11T398,211t-36,44t-30,53q-2,5-5.5,7.5T319,318q-3,0-4.5-2t-1.5-7V227q0-15 9.5-21T354,195q5-1 8.5-3.5T366,182q0-5-3-9t-8-4q-16,0-44,1.5T267,172q-10,0-24-0.5T215,170t-26-1q-3,0-7,4.5t-4,8.5q0,6 3.5,9t8.5,4q20,5 27,11t7,21V441q0,11-3,17t-9.5,10T193,475q-11,1-11,11q0,7 10,7q26,0 40.5-2t34.5-2q19,0 31.5,2t42.5,2q64,0 97-19.5T471,413q0-34-19-51t-42-28q-2-1-2-3t1-4q18-43 41-68.5T495,222t35-11q3,0 5-2t2-7q0-13-16-22.5T469,170ZM330,355q30,0 44,14t14,33q0,29-13,41.5T336,456q-15,0-20.5-4.5T310,438V370q0-7 5-11t15-4Z"/>
      <glyph unicode="&#xaf;" glyph-name="gid299" horiz-adv-x="367" d="M39,510q-10,0-15.5,6T18,529q0,20 6,35t15.5,23.5T58,596H328q10,0 15-5.5t5-13.5q0-26-13-46.5T305,510H39Z"/>
      <glyph unicode="&#xb0;" glyph-name="gid273" horiz-adv-x="359" d="M181,376q-46,0-81.5,22.5t-55,58T25,531q0,40 19.5,72.5t55,52T181,675t80-19.5t53.5-52T334,531q0-39-19.5-74.5t-53.5-58T181,376Zm-1,60q34,0 58.5,25T263,525t-24.5,63.5T180,613q-35,0-59.5-24.5T96,525t24.5-64T180,436Z"/>
      <glyph unicode="&#xb1;" glyph-name="gid256" horiz-adv-x="602" d="M284,126q-4,0-8.5,5T271,143V344q0,13-13,13H47q-7,0-12,4.5T30,370q0,11 6.5,28.5T59,416H257q10,0 12,3.5t2,10.5V600q0,10 7,17.5t17.5,12T314,634t12-7t4-16V430q0-7 3-10.5t10-3.5H547q9,0 16-4t7-12q0-13-10-28t-24-15H343q-13,0-13-13V155q0-16-17.5-22.5T284,126ZM49,29q-7,0-13,5.5T30,44q0,7 3.5,18.5T44,83.5T63,93H545q11,0 19-5t8-13q0-14-11-30T534,29H49Z"/>
      <glyph unicode="&#xb2;" glyph-name="gid192" horiz-adv-x="350" d="M283,438q-6,0-27,1t-48.5,1.5T152,441q-21,0-47.5-0.5t-46-1.5T38,438q-4,0-7.5,2.5T27,446q0,5 4,9l37,43q30,36 54.5,64t39,54.5T176,673q0,18-12.5,30.5T129,716q-20,0-34.5-13T73,679q-9-15-20-15q-7,0-9.5,5T41,683q0,17 16,39t45.5,38T173,776q50,0 81-26.5T285,688q0-21-10-42t-30-43q-7-7-24.5-21T183,553t-34-26t-14-12t2.5-2t6.5-1h99q17,0 31.5,12T297,552q2,4 6,8t11,4q9,0 11-5.5t0-10.5q-15-36-22-66t-7-30q-1-5-4.5-9.5T283,438Z"/>
      <glyph unicode="&#xb3;" glyph-name="gid193" horiz-adv-x="298" d="M96,435q-25,0-44,7.5T33,463q0,12 5,24.5T51,500q4,0 7-2t6-6q7-10 20.5-20.5T110,461q23,0 38.5,20.5T164,539q0,21-12.5,41.5T113,601q-24,0-32-7t-9-7q-7,0-12.5,1.5T55,596q2,9 8,16t13.5,11.5T90,631q42,22 53.5,37.5T155,703q0,10-11,19t-29,9q-17,0-32-8T60,707q-4-4-7-7.5T48,696q-4,0-8.5,5.5T35,711t11.5,19.5t36.5,30T149,775q35,0 64.5-18T243,709q0-16-14-36t-50-30q-2-1-2-2t2-1q35,0 60.5-21T265,557q0-37-24.5-64.5t-63-42.5T96,435Z"/>
      <glyph unicode="&#xb4;" glyph-name="gid295" horiz-adv-x="245" d="M45,452q-11,0-11,13q0,4 1,9.5T39,487q8,19 20,47.5t24,56T102,633q8,17 19,22t30,5q25,0 43-6t18-19q0-5-2-11.5T202,610q-21-23-42.5-47.5T116,514T71,467q-15-15-26-15Z"/>
      <glyph unicode="&#xb5;" glyph-name="gid260" horiz-adv-x="564" d="M138-285q-19,0-32.5,12.5T84.5-242T75-208q-1,9-1,32t-0.5,53T73-60.5T72,0q0,67-0.5,115t-2,83.5t-2.5,64t-1.5,57T65,382q0,26 9.5,40T124,436q41,0 63.5-9.5T210,390q0-28-8-65t-18.5-73.5t-18.5-64T157,149q0-17 6.5-28.5t17.5-17T203,98q30,0 57,40t50,128q1,37 1.5,64.5t2,46.5t3.5,31q3,16 10,22t20,6q40,0 65-8t37-21t12-28q0-46-19.5-98T397,173q0-19 11-33t29-22t39-8q18,0 32.5,7.5T533,132t13,7q5,0 9-3.5t4-8.5q0-46-18-78T497,1T446-15q-31,1-53,35T367,99q-1,8-0.5,16t1.5,16l-3,1q-3-6-15.5-29t-30-49.5T284,7T254-13q-16,0-32,11.5T191.5,26T164,54q-7,7-17.5,18.5T131,84q-14,0-14-25q0-9 1-29t1.5-44T121-59.5T122-94q0-16 16.5-30.5T176-152t37.5-25T230-200q0-16-15-36t-36.5-34.5T138-285Z"/>
      <glyph unicode="&#xb6;" glyph-name="gid268" horiz-adv-x="635" d="M314-317q-43,0-76.5,17T185-253.5T166-187q0,40 21,67t51,41.5T296-65q32-1 55-15t23-45q0-27-15.5-44.5T323-187q-13,0-23,7.5T281-163q-8,8-15,14.5T254-142q-12,0-23.5-14T219-196q0-28 24-53.5T319-275q22,0 43.5,11T398-230t14,59V26q0,8-3,18T396,54q-75,0-144,20.5T128,134T41.5,227.5T10,349q0,113 54,178.5t152,93T446,648q32,0 65-1.5t58-3.5t34-4q8-2 12.5-11t4.5-19t-4.5-24.5T604,570q-5,0-40,8t-79,8q-9,0-15-8.5T464,559V-168q0-30-15-65t-48-59.5T314-317Z"/>
      <glyph unicode="&#xb7;" glyph-name="gid207" horiz-adv-x="267" d="M132,127q-35,0-60.5,25.5T46,213q0,38 25.5,63.5T132,302q38,0 63.5-25.5T221,213q0-35-25.5-60.5T132,127Z"/>
      <glyph unicode="&#xb8;" glyph-name="gid300" horiz-adv-x="290" d="M102-274q-23,0-35,9T55-225q0,16 4.5,21T73-199q12,0 29-8.5t41-8.5q14,0 20.5,10t6.5,29t-18.5,29T114-138q-13,0-20-5t-14-5t-15,7t-8,19q0,9 16,27L163,8h47L175-33q-6-7-6-11t13-11q25-11 39-30.5T235-140q0-25-13-49t-33-43t-43-30.5T102-274Z"/>
      <glyph unicode="&#xb9;" glyph-name="gid191" horiz-adv-x="247" d="M47,440q-4,0-7.5,2.5T36,449q0,6 3,9.5t8,4.5q15,3 20.5,5.5t6.5,7T75,488V676q0,21-11.5,31.5T41,719q-5,1-8,3t-3,9q0,16 16,17q38,2 62.5,6.5T162,776q1,1 5,3t6,2q9,0 9-7q0-6-1.5-13.5T179,736V489q0-10 2.5-14.5T206,463q5-2 8-4t3-9q0-4-2-6.5t-7-2.5q-9,0-25.5,0.5t-32.5,1T125,443t-23.5-0.5t-29-1.5T47,440Z"/>
      <glyph unicode="&#xba;" glyph-name="gid140" horiz-adv-x="331" d="M301,206q6,0 12-4.5t6-11.5q0-1-0.5-1.5T318,186q-7-12-16.5-19.5T278,159H32q-7,0-12.5,5.5T14,175q0,8 9.5,19.5T45,206H301ZM187,286q-46,0-82,17.5T48,352T27,421q0,45 23,80t63,54.5T203,575q46,0 83.5-18.5t60-49T369,440q0-42-20.5-77t-61-56T187,286Zm13,40q18,0 26.5,15T238,379t3,46q0,27-5.5,52t-16,41.5T194,535q-18,0-27-15.5t-11.5-38T153,437q0-28 6-53.5T176,342t24-16Z"/>
      <glyph unicode="&#xbb;" glyph-name="gid231" horiz-adv-x="580" d="M258,15q-7,0-7,12q0,4 2,8t4,8q35,52 57.5,80.5T355,171t41,40q8,6 8,8t-8,8q-23,21-41,40t-40.5,48T257,395q-2,5-4,9t-2,8q0,11 7,11q11,0 21.5-8.5T294,402q31-28 54-47.5t45.5-36t53-35.5T523,236q12-5 12-17q0-11-6.5-21.5T505,179q-37-18-63.5-32.5t-48.5-29T348,84T294,36q-4-4-14.5-12.5T258,15ZM47,15q-7,0-7,12q0,4 2,8t4,8q35,52 57.5,80.5T144,171t41,40q8,6 8,8t-8,8q-23,21-41,40t-40.5,48T46,395q-2,5-4,9t-2,8q0,11 7,11q11,0 21.5-8.5T83,402q31-28 54-47.5t45.5-36t53-35.5T312,236q12-5 12-17q0-11-6.5-21.5T294,179q-37-18-63.5-32.5t-48.5-29T137,84T83,36q-4-4-14.5-12.5T47,15Z"/>
      <glyph unicode="&#xbc;" glyph-name="gid196" horiz-adv-x="642" d="M47,278q-4,0-7.5,2.5T36,287q0,6 3,9.5t8,4.5q15,3 20.5,5.5t6.5,7T75,326V514q0,21-11.5,31.5T41,557q-5,1-8,3t-3,9q0,16 16,17q38,2 62.5,6.5T162,614q1,1 5,3t6,2q9,0 9-7q0-6-1.5-13.5T179,574V327q0-10 2.5-14.5T206,301q5-2 8-4t3-9q0-4-2-6.5t-7-2.5q-9,0-25.5,0.5t-32.5,1T125,281t-23.5-0.5t-29-1.5T47,278ZM510,641q9,14 22,18.5t30,4.5q8,0 13.5-6t5.5-12q0-4-1-5L176,5q-7-12-20-16t-28-4q-8,0-15.5,5T105,1q0,3 1,4L510,641ZM489-9q-11,0-11,8V83q0,3-5.5,4.5T466,89q-37,0-69.5-1T325,87q-2,0-6.5,0.5T314,91q0,2 1,3.5t2,2.5q36,44 78.5,88.5T475,273q10,12 28,30t38,38q6,6 12,10t10,4q3,0 4-2.5t1-6.5l-2-209q0-5 6-5h18q5,0 14.5,0.5T620,133q7,0 7-7q0-9-6-22T610,91H575q-4,0-6.5-1.5T566,84l1-53q0-8-17-17.5t-36-16T489-9ZM403,133h70q2,0 3.5,1.5T478,137v75q0,1-1,1t-2-1q-9-9-24-23t-28.5-28T401,137q-2-4 2-4Z"/>
      <glyph unicode="&#xbd;" glyph-name="gid195" horiz-adv-x="719" d="M47,278q-4,0-7.5,2.5T36,287q0,6 3,9.5t8,4.5q15,3 20.5,5.5t6.5,7T75,326V514q0,21-11.5,31.5T41,557q-5,1-8,3t-3,9q0,16 16,17q38,2 62.5,6.5T162,614q1,1 5,3t6,2q9,0 9-7q0-6-1.5-13.5T179,574V327q0-10 2.5-14.5T206,301q5-2 8-4t3-9q0-4-2-6.5t-7-2.5q-9,0-25.5,0.5t-32.5,1T125,281t-23.5-0.5t-29-1.5T47,278ZM510,641q9,14 22,18.5t30,4.5q8,0 13.5-6t5.5-12q0-4-1-5L176,5q-7-12-20-16t-28-4q-8,0-15.5,5T105,1q0,3 1,4L510,641ZM652-16q-6,0-27,1t-48.5,1.5T521-13q-21,0-47.5-0.5t-46-1.5T407-16q-4,0-7.5,2.5T396-8q0,5 4,9l37,43q30,36 54.5,64t39,54.5T545,219q0,18-12.5,30.5T498,262q-20,0-34.5-13T442,225q-9-15-20-15q-7,0-9.5,5T410,229q0,17 16,39t45.5,38T542,322q50,0 81-26.5T654,234q0-21-10-42t-30-43q-7-7-24.5-21T552,99T518,73T504,61t2.5-2t6.5-1h99q17,0 31.5,12T666,98q2,4 6,8t11,4q9,0 11-5.5T694,94q-15-36-22-66T665-2q-1-5-4.5-9.5T652-16Z"/>
      <glyph unicode="&#xbe;" glyph-name="gid197" horiz-adv-x="666" d="M96,275q-25,0-44,7.5T33,303q0,12 5,24.5T51,340q4,0 7-2t6-6q7-10 20.5-20.5T110,301q23,0 38.5,20.5T164,379q0,21-12.5,41.5T113,441q-24,0-32-7t-9-7q-7,0-12.5,1.5T55,436q2,9 8,16t13.5,11.5T90,471q42,22 53.5,37.5T155,543q0,10-11,19t-29,9q-17,0-32-8T60,547q-4-4-7-7.5T48,536q-4,0-8.5,5.5T35,551t11.5,19.5t36.5,30T149,615q35,0 64.5-18T243,549q0-16-14-36t-50-30q-2-1-2-2t2-1q35,0 60.5-21T265,397q0-37-24.5-64.5t-63-42.5T96,275ZM530,641q9,14 22,18.5t30,4.5q8,0 13.5-6t5.5-12q0-4-1-5L196,5q-7-12-20-16t-28-4q-8,0-15.5,5T125,1q0,3 1,4L530,641ZM513-9q-11,0-11,8V83q0,3-5.5,4.5T490,89q-37,0-69.5-1T349,87q-2,0-6.5,0.5T338,91q0,2 1,3.5t2,2.5q36,44 78.5,88.5T499,273q10,12 28,30t38,38q6,6 12,10t10,4q3,0 4-2.5t1-6.5l-2-209q0-5 6-5h18q5,0 14.5,0.5T644,133q7,0 7-7q0-9-6-22T634,91H599q-4,0-6.5-1.5T590,84l1-53q0-8-17-17.5t-36-16T513-9ZM427,133h70q2,0 3.5,1.5T502,137v75q0,1-1,1t-2-1q-9-9-24-23t-28.5-28T425,137q-2-4 2-4Z"/>
      <glyph unicode="&#xbf;" glyph-name="gid206" horiz-adv-x="399" d="M251,309q8,0 17-8t18-23q9-16 17-38.5t8-50.5q0-37-29.5-63.5T190,71q-31-14-48-31.5T125-6q0-25 22-37.5T195-56q24,0 36,4.5T250-44q8,3 16.5,5T285-37q15,0 29.5-15.5t24-37T348-129q0-19-22.5-35.5T273-181q-43,0-82,21.5T118-102Q96-78 79.5-50T54,8T45,68q0,41 15.5,65T95,166q14,7 28.5,15.5T154,199t32,18q22,11 30,24.5T228,285q2,12 7.5,18t15.5,6Zm4,185q31,0 53-22t22-53t-22-53t-53-22t-53,22t-22,53t22,53t53,22Z"/>
      <glyph unicode="&#xc0;" glyph-name="gid6" horiz-adv-x="726" d="M407,681q-3-1-10.5,1T380,689q-40,24-86,49t-87,50q-17,11-20,22q-2,9 13.5,18t34,15.5T261,851q21,3 35-11q32-31 58.5-62T408,713q12-15 12-22t-13-10ZM21-5Q10-5 2.5-1.5T-5,12T1.5,26.5T17,34q30,8 51.5,25T100,98q24,55 46,109t43,107.5t41.5,108T271,532q17,46 21,65.5t7,20.5q20,5 37,9.5T374,639q19,7 33.5,17.5T429,674q5,3 9.5,4t8.5-7q4-7 6.5-13.5T458,643q20-66 41.5-133T543,374.5T587.5,237T632,98q5-16 16.5-28.5t27.5-21T712,34q9-3 15.5-7T734,13q0-7-5.5-11T715-2q-21,0-51.5,1t-61,2T549,2q-20,0-49-1T441-1.5T389-3q-8,0-14.5,4T368,12q0,9 6.5,14.5T390,34q38,8 56,21t10,42q-5,20-10.5,39T435,174.5T425,213q-2,8-5,12.5T409,230H235q-8,0-11.5-4.5T218,213q-4-15-8.5-27.5T201,161t-8-24.5T185,109q-9-32 3-48t59-27q22-5 22-22q0-7-5-10.5T248-2q-33,0-58,1.5T135,1Q106,1 79.5-2T21-5ZM263,288H388q15,0 15,7q0,4-0.5,5.5T401,306L337,527q-3,10-6,10q-2,0-6-10L248,306q-2-4-2-8q0-5 5.5-7.5T263,288Z"/>
      <glyph unicode="&#xc1;" glyph-name="gid2" horiz-adv-x="726" d="M21-5Q10-5 2.5-1.5T-5,12T1.5,26.5T17,34q30,8 51.5,25T100,98q24,55 46,109t43,107.5t41.5,108T271,532q17,46 21,65.5t7,20.5q20,5 37,9.5T374,639q19,7 33.5,17.5T429,674q5,3 9.5,4t8.5-7q4-7 6.5-13.5T458,643q20-66 41.5-133T543,374.5T587.5,237T632,98q5-16 16.5-28.5t27.5-21T712,34q9-3 15.5-7T734,13q0-7-5.5-11T715-2q-21,0-51.5,1t-61,2T549,2q-20,0-49-1T441-1.5T389-3q-8,0-14.5,4T368,12q0,9 6.5,14.5T390,34q38,8 56,21t10,42q-5,20-10.5,39T435,174.5T425,213q-2,8-5,12.5T409,230H235q-8,0-11.5-4.5T218,213q-4-15-8.5-27.5T201,161t-8-24.5T185,109q-9-32 3-48t59-27q22-5 22-22q0-7-5-10.5T248-2q-33,0-58,1.5T135,1Q106,1 79.5-2T21-5ZM263,288H388q15,0 15,7q0,4-0.5,5.5T401,306L337,527q-3,10-6,10q-2,0-6-10L248,306q-2-4-2-8q0-5 5.5-7.5T263,288Zm66,393q-13,3-13,10t12,22q27,34 54,65t58,62q14,14 35,11q8-1 26.5-7.5t34-15.5T549,810q-3-11-20-22q-40-25-86-50t-87-49q-9-5-16.5-7T329,681Z"/>
      <glyph unicode="&#xc2;" glyph-name="gid4" horiz-adv-x="726" d="M21-5Q10-5 2.5-1.5T-5,12T1.5,26.5T17,34q30,8 51.5,25T100,98q24,55 46,109t43,107.5t41.5,108T271,532q17,46 21,65.5t7,20.5q20,5 37,9.5T374,639q19,7 33.5,17.5T429,674q5,3 9.5,4t8.5-7q4-7 6.5-13.5T458,643q20-66 41.5-133T543,374.5T587.5,237T632,98q5-16 16.5-28.5t27.5-21T712,34q9-3 15.5-7T734,13q0-7-5.5-11T715-2q-21,0-51.5,1t-61,2T549,2q-20,0-49-1T441-1.5T389-3q-8,0-14.5,4T368,12q0,9 6.5,14.5T390,34q38,8 56,21t10,42q-5,20-10.5,39T435,174.5T425,213q-2,8-5,12.5T409,230H235q-8,0-11.5-4.5T218,213q-4-15-8.5-27.5T201,161t-8-24.5T185,109q-9-32 3-48t59-27q22-5 22-22q0-7-5-10.5T248-2q-33,0-58,1.5T135,1Q106,1 79.5-2T21-5ZM263,288H388q15,0 15,7q0,4-0.5,5.5T401,306L337,527q-3,10-6,10q-2,0-6-10L248,306q-2-4-2-8q0-5 5.5-7.5T263,288ZM233,692q-20,0-20,13q0,9 9,16l106,96q18,17 28,23.5t24,6.5q15,0 25-6.5T433,817l105-95q8-7 8-17q0-14-17-14q-7,0-24,5t-38,12.5t-41,16T393,740q-7,4-13,4t-13-4q-12-7-32-15t-41-15.5T256,697t-23-5Z"/>
      <glyph unicode="&#xc3;" glyph-name="gid8" horiz-adv-x="726" d="M21-5Q10-5 2.5-1.5T-5,12T1.5,26.5T17,34q30,8 51.5,25T100,98q24,55 46,109t43,107.5t41.5,108T271,532q17,46 21,65.5t7,20.5q20,5 37,9.5T374,639q19,7 33.5,17.5T429,674q5,3 9.5,4t8.5-7q4-7 6.5-13.5T458,643q20-66 41.5-133T543,374.5T587.5,237T632,98q5-16 16.5-28.5t27.5-21T712,34q9-3 15.5-7T734,13q0-7-5.5-11T715-2q-21,0-51.5,1t-61,2T549,2q-20,0-49-1T441-1.5T389-3q-8,0-14.5,4T368,12q0,9 6.5,14.5T390,34q38,8 56,21t10,42q-5,20-10.5,39T435,174.5T425,213q-2,8-5,12.5T409,230H235q-8,0-11.5-4.5T218,213q-4-15-8.5-27.5T201,161t-8-24.5T185,109q-9-32 3-48t59-27q22-5 22-22q0-7-5-10.5T248-2q-33,0-58,1.5T135,1Q106,1 79.5-2T21-5ZM263,288H388q15,0 15,7q0,4-0.5,5.5T401,306L337,527q-3,10-6,10q-2,0-6-10L248,306q-2-4-2-8q0-5 5.5-7.5T263,288ZM236,691q-5,0-12,6.5t-7,9.5q0,6 9,22.5T248.5,765t26,32.5T294,811q19,0 41.5-1.5T380,807q19-1 41-2t47-1q11,0 19.5,6.5T503,824q8,8 12.5,15t7.5,7q5,0 14-7t9-12q0-4-4.5-11T528,796q-11-16-20.5-31.5T489,735q-6-9-15-11.5T458,721q-9,0-33,2t-53.5,4T317,731t-34,2q-8,0-15.5-6.5T254,712t-11-14.5t-7-6.5Z"/>
      <glyph unicode="&#xc4;" glyph-name="gid5" horiz-adv-x="726" d="M21-5Q10-5 2.5-1.5T-5,12T1.5,26.5T17,34q30,8 51.5,25T100,98q24,55 46,109t43,107.5t41.5,108T271,532q17,46 21,65.5t7,20.5q20,5 37,9.5T374,639q19,7 33.5,17.5T429,674q5,3 9.5,4t8.5-7q4-7 6.5-13.5T458,643q20-66 41.5-133T543,374.5T587.5,237T632,98q5-16 16.5-28.5t27.5-21T712,34q9-3 15.5-7T734,13q0-7-5.5-11T715-2q-21,0-51.5,1t-61,2T549,2q-20,0-49-1T441-1.5T389-3q-8,0-14.5,4T368,12q0,9 6.5,14.5T390,34q38,8 56,21t10,42q-5,20-10.5,39T435,174.5T425,213q-2,8-5,12.5T409,230H235q-8,0-11.5-4.5T218,213q-4-15-8.5-27.5T201,161t-8-24.5T185,109q-9-32 3-48t59-27q22-5 22-22q0-7-5-10.5T248-2q-33,0-58,1.5T135,1Q106,1 79.5-2T21-5ZM263,288H388q15,0 15,7q0,4-0.5,5.5T401,306L337,527q-3,10-6,10q-2,0-6-10L248,306q-2-4-2-8q0-5 5.5-7.5T263,288ZM478,686q-31,0-53.5,22.5T402,762q0,33 22.5,55T478,839q34,0 57-22t23-55q0-31-23-53.5T478,686Zm-198,0q-31,0-53.5,22.5T204,762q0,33 22.5,55T280,839q34,0 57-22t23-55q0-31-23-53.5T280,686Z"/>
      <glyph unicode="&#xc5;" glyph-name="gid7" horiz-adv-x="726" d="M21-5Q10-5 2.5-1.5T-5,12T1.5,26.5T17,34q30,8 51.5,25T100,98q24,55 46,109t43,107.5t41.5,108T271,532q17,46 21,65.5t7,20.5q20,5 37,9.5T374,639q19,7 33.5,17.5T429,674q5,3 9.5,4t8.5-7q4-7 6.5-13.5T458,643q20-66 41.5-133T543,374.5T587.5,237T632,98q5-16 16.5-28.5t27.5-21T712,34q9-3 15.5-7T734,13q0-7-5.5-11T715-2q-21,0-51.5,1t-61,2T549,2q-20,0-49-1T441-1.5T389-3q-8,0-14.5,4T368,12q0,9 6.5,14.5T390,34q38,8 56,21t10,42q-5,20-10.5,39T435,174.5T425,213q-2,8-5,12.5T409,230H235q-8,0-11.5-4.5T218,213q-4-15-8.5-27.5T201,161t-8-24.5T185,109q-9-32 3-48t59-27q22-5 22-22q0-7-5-10.5T248-2q-33,0-58,1.5T135,1Q106,1 79.5-2T21-5ZM263,288H388q15,0 15,7q0,4-0.5,5.5T401,306L337,527q-3,10-6,10q-2,0-6-10L248,306q-2-4-2-8q0-5 5.5-7.5T263,288Zm68,483q0-21 15.5-36.5T385,719q21,0 32.5,16.5T429,771q0,22-15,37t-38,15q-21,0-33-15.5T331,771Zm55,88q42,0 76-21.5T496,778q0-27-17.5-48t-45-32.5T375,686q-43,0-77,22t-34,61q0,27 17.5,47T327,847.5T386,859Z"/>
      <glyph unicode="&#xc6;" glyph-name="gid9" horiz-adv-x="917" d="M21-5Q10-5 2.5-1.5T-5,12T1.5,26.5T17,34q29,9 52,26.5T104,98L402,599q2,5 1.5,8.5T397,612l-21,6q-12,3-16.5,9T355,639q0,16 20,16q33,0 73.5-2.5T519,650q45,0 97,0.5t98.5,1.5t78,1.5T829,654q8,0 16-4.5T855,633q7-37 12-72.5t5-62.5q0-10-4-15t-9-5t-11,4t-10,13q-13,32-22.5,55T791,587q-10,11-26,16.5T726,609H663q-25,0-41-12t-16-34V378q0-13 7-18.5t19-5.5q21,0 42.5,0t42.5,0q26,0 37.5,19.5T775,417q4,9 9.5,13.5T796,435q5,0 9-6t3-17q-2-22-3.5-42.5T803,329t1-40t3-43q2-15-1.5-21.5T797,218q-7,0-14,7t-10,17q-9,32-20.5,49T722,308q-23,0-47,0t-47,0q-11,0-16.5-6T606,285V96q0-28 12-39.5T655,45h89q14,0 26,2.5T792.5,55T812,66q20,16 34,40t26,52q4,8 7,12.5t9,4.5q15,0 15-15q0-27-10.5-70.5T871,8q-2-7-9-9.5T847-4q-5,0-39,0.5T723.5-2t-105,1.5T519,0q-20,0-46-1T421-3.5T375-5q-9,0-14,5t-5,11q0,15 20,21q33,10 46.5,21T436,95V235q0,6-3,12t-14,6H278q-8,0-13.5-3T253,236q-16-31-30-67t-22-60q-6-18-6-30q0-17 14.5-27.5T258,34q22-5 22-22q0-7-5-10.5T259-2q-33,0-63.5,1.5T135,1Q106,1 79.5-2T21-5ZM327,311h94q5,0 10,4.5t5,8.5V541q0,7-2,13t-9-7L312,329q-4-7-1-13q2-3 7-4t9-1Z"/>
      <glyph unicode="&#xc7;" glyph-name="gid12" horiz-adv-x="709" d="M404-14Q325-14 256,9.5t-121,67t-81,104T25,315q0,68 27,130.5T131.5,557T260,635t173,29q31,0 64.5-5t65-13T617,628q8-4 14.5-10t7.5-17q5-36 6.5-67.5T647,480q0-12-8.5-16t-18,0T607,480q-7,20-15.5,42T566,560q-20,21-55,35t-87,14q-50,0-90-21.5t-68-59t-43-85T208,344q0-67 13-122.5T261,126t67.5-61.5T424,43q75,0 120.5,31T621,172q8,18 23,17t15-17q0-14-2.5-32.5t-7-40T638,54q-3-11-10-18T612,24Q574,7 522-3.5T404-14ZM323-275q-25,0-39,7.5T270-229q0,16 7,23t14,7q6,0 18-6.5t42-6.5q14,0 29.5,7T396-174q0,16-11,26.5T347-137q-8,0-12.5-3T323-143q-15,0-22.5,8.5T293-120q0,7 1.5,11.5T300-100L395,8h49L409-37q-11-15 4-21q27-10 45.5-30T477-140q0-35-24.5-66t-60-50T323-275Z"/>
      <glyph unicode="&#xc8;" glyph-name="gid19" horiz-adv-x="577" d="M326,681q-3-1-10.5,1T299,689q-40,24-86,49t-87,50q-17,11-20,22q-2,9 13.5,18t34,15.5T180,851q21,3 35-11q32-31 58.5-62T327,713q12-15 12-22t-13-10ZM35-5Q26-5 21,0T16,11q0,15 20,21Q69,42 82.5,53T96,95V551q0,32-12.5,45.5T36,618q-12,3-16.5,9T15,639q0,7 5.5,11.5T35,655q22,0 48-1t51-2.5t45-1.5q56,0 120,1t113,2q32,0 52.5,4t24.5,4q8,0 16.5-4.5T515,640q4-37 10.5-72.5T532,505q0-10-4-15t-9-5t-11,4t-10,13q-11,27-19.5,45.5T459,577t-28,21.5T386,609H323q-25,0-41-12t-16-34V379q0-13 7-18.5t19-5.5h85q26,0 37.5,19T435,417q8,18 21,18q5,0 9-6t3-17q-1-14-2.5-28t-2-27.5T463,329q0-13 0.5-26.5T465,275t2-29q2-15-1.5-21.5T457,218q-17,0-24,24q-9,32-20.5,49T382,308H288q-11,0-16.5-6T266,285V96q0-28 12-39.5T315,45h89q20,0 39.5,5.5T477,68q17,14 31.5,36T534,148q4,8 8.5,10t10.5,2t8-6.5t2-13.5q0-18-5-39T545.5,56.5T531,8q-2-7-9-9.5T507-4q-5,0-39,0.5T383.5-2t-105,1.5T179,0q-20,0-46-1T81-3.5T35-5Z"/>
      <glyph unicode="&#xc9;" glyph-name="gid16" horiz-adv-x="577" d="M35-5Q26-5 21,0T16,11q0,15 20,21Q69,42 82.5,53T96,95V551q0,32-12.5,45.5T36,618q-12,3-16.5,9T15,639q0,7 5.5,11.5T35,655q22,0 48-1t51-2.5t45-1.5q56,0 120,1t113,2q32,0 52.5,4t24.5,4q8,0 16.5-4.5T515,640q4-37 10.5-72.5T532,505q0-10-4-15t-9-5t-11,4t-10,13q-11,27-19.5,45.5T459,577t-28,21.5T386,609H323q-25,0-41-12t-16-34V379q0-13 7-18.5t19-5.5h85q26,0 37.5,19T435,417q8,18 21,18q5,0 9-6t3-17q-1-14-2.5-28t-2-27.5T463,329q0-13 0.5-26.5T465,275t2-29q2-15-1.5-21.5T457,218q-17,0-24,24q-9,32-20.5,49T382,308H288q-11,0-16.5-6T266,285V96q0-28 12-39.5T315,45h89q20,0 39.5,5.5T477,68q17,14 31.5,36T534,148q4,8 8.5,10t10.5,2t8-6.5t2-13.5q0-18-5-39T545.5,56.5T531,8q-2-7-9-9.5T507-4q-5,0-39,0.5T383.5-2t-105,1.5T179,0q-20,0-46-1T81-3.5T35-5ZM248,681q-13,3-13,10t12,22q27,34 54,65t58,62q14,14 35,11q8-1 26.5-7.5t34-15.5T468,810q-3-11-20-22q-40-25-86-50t-87-49q-9-5-16.5-7T248,681Z"/>
      <glyph unicode="&#xca;" glyph-name="gid17" horiz-adv-x="577" d="M35-5Q26-5 21,0T16,11q0,15 20,21Q69,42 82.5,53T96,95V551q0,32-12.5,45.5T36,618q-12,3-16.5,9T15,639q0,7 5.5,11.5T35,655q22,0 48-1t51-2.5t45-1.5q56,0 120,1t113,2q32,0 52.5,4t24.5,4q8,0 16.5-4.5T515,640q4-37 10.5-72.5T532,505q0-10-4-15t-9-5t-11,4t-10,13q-11,27-19.5,45.5T459,577t-28,21.5T386,609H323q-25,0-41-12t-16-34V379q0-13 7-18.5t19-5.5h85q26,0 37.5,19T435,417q8,18 21,18q5,0 9-6t3-17q-1-14-2.5-28t-2-27.5T463,329q0-13 0.5-26.5T465,275t2-29q2-15-1.5-21.5T457,218q-17,0-24,24q-9,32-20.5,49T382,308H288q-11,0-16.5-6T266,285V96q0-28 12-39.5T315,45h89q20,0 39.5,5.5T477,68q17,14 31.5,36T534,148q4,8 8.5,10t10.5,2t8-6.5t2-13.5q0-18-5-39T545.5,56.5T531,8q-2-7-9-9.5T507-4q-5,0-39,0.5T383.5-2t-105,1.5T179,0q-20,0-46-1T81-3.5T35-5ZM152,692q-20,0-20,13q0,9 9,16l106,96q18,17 28,23.5t24,6.5q15,0 25-6.5T352,817l105-95q8-7 8-17q0-14-17-14q-7,0-24,5t-38,12.5t-41,16T312,740q-7,4-13,4t-13-4q-12-7-32-15t-41-15.5T175,697t-23-5Z"/>
      <glyph unicode="&#xcb;" glyph-name="gid18" horiz-adv-x="577" d="M35-5Q26-5 21,0T16,11q0,15 20,21Q69,42 82.5,53T96,95V551q0,32-12.5,45.5T36,618q-12,3-16.5,9T15,639q0,7 5.5,11.5T35,655q22,0 48-1t51-2.5t45-1.5q56,0 120,1t113,2q32,0 52.5,4t24.5,4q8,0 16.5-4.5T515,640q4-37 10.5-72.5T532,505q0-10-4-15t-9-5t-11,4t-10,13q-11,27-19.5,45.5T459,577t-28,21.5T386,609H323q-25,0-41-12t-16-34V379q0-13 7-18.5t19-5.5h85q26,0 37.5,19T435,417q8,18 21,18q5,0 9-6t3-17q-1-14-2.5-28t-2-27.5T463,329q0-13 0.5-26.5T465,275t2-29q2-15-1.5-21.5T457,218q-17,0-24,24q-9,32-20.5,49T382,308H288q-11,0-16.5-6T266,285V96q0-28 12-39.5T315,45h89q20,0 39.5,5.5T477,68q17,14 31.5,36T534,148q4,8 8.5,10t10.5,2t8-6.5t2-13.5q0-18-5-39T545.5,56.5T531,8q-2-7-9-9.5T507-4q-5,0-39,0.5T383.5-2t-105,1.5T179,0q-20,0-46-1T81-3.5T35-5ZM397,686q-31,0-53.5,22.5T321,762q0,33 22.5,55T397,839q34,0 57-22t23-55q0-31-23-53.5T397,686Zm-198,0q-31,0-53.5,22.5T123,762q0,33 22.5,55T199,839q34,0 57-22t23-55q0-31-23-53.5T199,686Z"/>
      <glyph unicode="&#xcc;" glyph-name="gid27" horiz-adv-x="369" d="M215,681q-3-1-10.5,1T188,689q-40,24-86,49T15,788Q-2,799-5,810q-2,9 13.5,18t34,15.5T69,851q21,3 35-11q32-31 58.5-62T216,713q12-15 12-22t-13-10ZM33-3Q27-3 21,1T15,12q0,17 19,22q38,8 52,20t14,43V551q0,32-13,45T34,618q-19,5-19,22q0,7 6,11t12,4q22,0 49.5-1t54-2.5T183,650t48,1t57,2t50,1q8,0 12-3.5t4-11.5q0-10-5-14t-14-7q-41-12-53-25t-12-43V98q0-28 13-40.5T335,34q9-3 14-7t5-14q0-7-4-11T338-2q-21,0-50,1T231,1T183,2T136.5,1t-54-2.5T33-3Z"/>
      <glyph unicode="&#xcd;" glyph-name="gid24" horiz-adv-x="369" d="M33-3Q27-3 21,1T15,12q0,17 19,22q38,8 52,20t14,43V551q0,32-13,45T34,618q-19,5-19,22q0,7 6,11t12,4q22,0 49.5-1t54-2.5T183,650t48,1t57,2t50,1q8,0 12-3.5t4-11.5q0-10-5-14t-14-7q-41-12-53-25t-12-43V98q0-28 13-40.5T335,34q9-3 14-7t5-14q0-7-4-11T338-2q-21,0-50,1T231,1T183,2T136.5,1t-54-2.5T33-3ZM137,681q-13,3-13,10t12,22q27,34 54,65t58,62q14,14 35,11q8-1 26.5-7.5t34-15.5T357,810q-3-11-20-22q-40-25-86-50t-87-49q-9-5-16.5-7T137,681Z"/>
      <glyph unicode="&#xce;" glyph-name="gid25" horiz-adv-x="369" d="M33-3Q27-3 21,1T15,12q0,17 19,22q38,8 52,20t14,43V551q0,32-13,45T34,618q-19,5-19,22q0,7 6,11t12,4q22,0 49.5-1t54-2.5T183,650t48,1t57,2t50,1q8,0 12-3.5t4-11.5q0-10-5-14t-14-7q-41-12-53-25t-12-43V98q0-28 13-40.5T335,34q9-3 14-7t5-14q0-7-4-11T338-2q-21,0-50,1T231,1T183,2T136.5,1t-54-2.5T33-3Zm8,695q-20,0-20,13q0,9 9,16l106,96q18,17 28,23.5t24,6.5q15,0 25-6.5T241,817l105-95q8-7 8-17q0-14-17-14q-7,0-24,5t-38,12.5t-41,16T201,740q-7,4-13,4t-13-4q-12-7-32-15t-41-15.5T64,697t-23-5Z"/>
      <glyph unicode="&#xcf;" glyph-name="gid26" horiz-adv-x="369" d="M33-3Q27-3 21,1T15,12q0,17 19,22q38,8 52,20t14,43V551q0,32-13,45T34,618q-19,5-19,22q0,7 6,11t12,4q22,0 49.5-1t54-2.5T183,650t48,1t57,2t50,1q8,0 12-3.5t4-11.5q0-10-5-14t-14-7q-41-12-53-25t-12-43V98q0-28 13-40.5T335,34q9-3 14-7t5-14q0-7-4-11T338-2q-21,0-50,1T231,1T183,2T136.5,1t-54-2.5T33-3ZM286,686q-31,0-53.5,22.5T210,762q0,33 22.5,55T286,839q34,0 57-22t23-55q0-31-23-53.5T286,686ZM88,686q-31,0-53.5,22.5T12,762q0,33 22.5,55T88,839q34,0 57-22t23-55q0-31-23-53.5T88,686Z"/>
      <glyph unicode="&#xd0;" glyph-name="gid14" horiz-adv-x="769" d="M57,304q-13,0-18.5,10.5T33,335q0,14 8,22.5T62,366H362q10,0 16.5-5.5T385,347q0-1-0.5-2t-0.5-3q-3-13-14-25.5T342,304H57ZM385-7q-40,0-81.5,2T229-1.5T183,0q-20,0-46.5-0.5T82.5-2T33-3Q27-3 21,1T15,12q0,9 5,14.5T34,34q38,8 52,20t14,43V551q0,32-13,45T34,618q-9,2-14,7.5T15,640q0,7 6,11t12,4q22,0 49.5-1t54-2.5T183,650q15,0 41.5,1.5t58,3t61.5,3t50,1.5q70,0 133-23.5T639,569t77-102.5T744,335q0-66-23-127.5T652.5,98T540,21.5T385-7ZM369,48q66,0 108.5,32t63,90T561,306q0,66-12.5,120T511,519t-63,60.5T359,601q-30,0-49.5-2T280,590.5T270,568V134q0-31 10.5-50T313,56.5T369,48Z"/>
      <glyph unicode="&#xd1;" glyph-name="gid33" horiz-adv-x="813" d="M683-19q-14,0-43.5,15.5T577,52q-28,30-55.5,59.5t-55.5,59t-56,59T354.5,288T299,346.5t-55.5,59T188,465q-1,2-5,6t-6,4q-4,0-5.5-7T170,456q0-45 1.5-107t3-124.5T176,113q0-34 21.5-51.5T259,34q9-2 18-6.5T286,13q0-7-8-11T262-2q-27,0-45,1T183.5,0.5T147,1q-23,0-44.5-1t-35-2T54-3Q48-3 39.5,1T31,12q0,9 7.5,13.5T55,34q23,9 35.5,30T105,115q4,37 8.5,98T122,350t4,158q0,52-26,75T37,620q-9,2-18,7.5T10,642t7.5,12.5T36,658q16,0 39.5-1t51-1.5T183,654t56-1q8,0 12.5-2.5T259,643q26-29 52.5-58.5t53-58.5t53-58T470,409.5T522.5,351t53-58.5T628,234q3-4 7-8t7-4q8,0 8,14q0,35 0,76.5t0,85t-0.5,84T647,553q-1,29-20.5,42T569,618q-9,2-16,6.5T546,639q0,7 7,11t14,4q27,0 44-0.5t31-1t31-0.5q20,0 34,0.5t30.5,1.5t41.5,1q11,0 17.5-4t6.5-11q0-16-25-21q-34-7-50-20t-16-43q0-43-1-85.5T708,387t-4-79.5T701,234t-1-64q0-23 3-52.5t6-54T712,30q0-27-7.5-38T683-19ZM285,691q-5,0-12,6.5t-7,9.5q0,6 9,22.5T297.5,765t26,32.5T343,811q19,0 41.5-1.5T429,807q19-1 41-2t47-1q11,0 19.5,6.5T552,824q8,8 12.5,15t7.5,7q5,0 14-7t9-12q0-4-4.5-11T577,796q-11-16-20.5-31.5T538,735q-6-9-15-11.5T507,721q-9,0-33,2t-53.5,4T366,731t-34,2q-8,0-15.5-6.5T303,712t-11-14.5t-7-6.5Z"/>
      <glyph unicode="&#xd2;" glyph-name="gid38" horiz-adv-x="759" d="M419,681q-3-1-10.5,1T392,689q-40,24-86,49t-87,50q-17,11-20,22q-2,9 13.5,18t34,15.5T273,851q21,3 35-11q32-31 58.5-62T420,713q12-15 12-22t-13-10ZM375-14Q305-14 242,9.5t-112,67t-77,104T25,315q0,68 23,130.5T116.5,557T229,635t155,29q70,0 133-23.5t112-67t77-104T734,335q0-67-23-130T642.5,93T530,15T375-14Zm18,47q53,0 88.5,32T535,153.5T553,283q0,60-11,119T508,509.5T449.5,587T364,616q-52,0-87.5-32t-53-88T206,367q0-60 11-119t33.5-107.5t58-78T393,33Z"/>
      <glyph unicode="&#xd3;" glyph-name="gid35" horiz-adv-x="759" d="M375-14Q305-14 242,9.5t-112,67t-77,104T25,315q0,68 23,130.5T116.5,557T229,635t155,29q70,0 133-23.5t112-67t77-104T734,335q0-67-23-130T642.5,93T530,15T375-14Zm18,47q53,0 88.5,32T535,153.5T553,283q0,60-11,119T508,509.5T449.5,587T364,616q-52,0-87.5-32t-53-88T206,367q0-60 11-119t33.5-107.5t58-78T393,33ZM341,681q-13,3-13,10t12,22q27,34 54,65t58,62q14,14 35,11q8-1 26.5-7.5t34-15.5T561,810q-3-11-20-22q-40-25-86-50t-87-49q-9-5-16.5-7T341,681Z"/>
      <glyph unicode="&#xd4;" glyph-name="gid36" horiz-adv-x="759" d="M375-14Q305-14 242,9.5t-112,67t-77,104T25,315q0,68 23,130.5T116.5,557T229,635t155,29q70,0 133-23.5t112-67t77-104T734,335q0-67-23-130T642.5,93T530,15T375-14Zm18,47q53,0 88.5,32T535,153.5T553,283q0,60-11,119T508,509.5T449.5,587T364,616q-52,0-87.5-32t-53-88T206,367q0-60 11-119t33.5-107.5t58-78T393,33ZM245,692q-20,0-20,13q0,9 9,16l106,96q18,17 28,23.5t24,6.5q15,0 25-6.5T445,817l105-95q8-7 8-17q0-14-17-14q-7,0-24,5t-38,12.5t-41,16T405,740q-7,4-13,4t-13-4q-12-7-32-15t-41-15.5T268,697t-23-5Z"/>
      <glyph unicode="&#xd5;" glyph-name="gid40" horiz-adv-x="759" d="M375-14Q305-14 242,9.5t-112,67t-77,104T25,315q0,68 23,130.5T116.5,557T229,635t155,29q70,0 133-23.5t112-67t77-104T734,335q0-67-23-130T642.5,93T530,15T375-14Zm18,47q53,0 88.5,32T535,153.5T553,283q0,60-11,119T508,509.5T449.5,587T364,616q-52,0-87.5-32t-53-88T206,367q0-60 11-119t33.5-107.5t58-78T393,33ZM248,691q-5,0-12,6.5t-7,9.5q0,6 9,22.5T260.5,765t26,32.5T306,811q19,0 41.5-1.5T392,807q19-1 41-2t47-1q11,0 19.5,6.5T515,824q8,8 12.5,15t7.5,7q5,0 14-7t9-12q0-4-4.5-11T540,796q-11-16-20.5-31.5T501,735q-6-9-15-11.5T470,721q-9,0-33,2t-53.5,4T329,731t-34,2q-8,0-15.5-6.5T266,712t-11-14.5t-7-6.5Z"/>
      <glyph unicode="&#xd6;" glyph-name="gid37" horiz-adv-x="759" d="M375-14Q305-14 242,9.5t-112,67t-77,104T25,315q0,68 23,130.5T116.5,557T229,635t155,29q70,0 133-23.5t112-67t77-104T734,335q0-67-23-130T642.5,93T530,15T375-14Zm18,47q53,0 88.5,32T535,153.5T553,283q0,60-11,119T508,509.5T449.5,587T364,616q-52,0-87.5-32t-53-88T206,367q0-60 11-119t33.5-107.5t58-78T393,33Zm97,653q-31,0-53.5,22.5T414,762q0,33 22.5,55T490,839q34,0 57-22t23-55q0-31-23-53.5T490,686Zm-198,0q-31,0-53.5,22.5T216,762q0,33 22.5,55T292,839q34,0 57-22t23-55q0-31-23-53.5T292,686Z"/>
      <glyph unicode="&#xd7;" glyph-name="gid251" horiz-adv-x="526" d="M431,49q-10,0-19,9L270,199q-9,9-19-1L117,63q-4-4-9-6.5T98,54q-7,0-15.5,14.5T74,98q0,12 6,18L207,242q6,6 6,10t-6,10L76,395q-6,6-6,14q0,12 7.5,24T90,451q4,4 11,3t11-6L252,306q5-4 9-4.5t9,4.5L412,448q6,6 13,6q6,0 9-3q5-6 12.5-18t7.5-24q0-8-6-14L315,261q-9-9 0-18L449,111q7-7 7-19q0-10-7-26.5T431,49Z"/>
      <glyph unicode="&#xd8;" glyph-name="gid39" horiz-adv-x="759" d="M78-14Q59-14 43-2T27,23q0,21 18,37L687,656q9,11 24,8.5T730,649q2-6 4-13.5t2-14.5q0-9-2.5-18T723,587L95-7q-3-3-6.5-5T78-14Zm297,0Q305-14 242,9.5t-112,67t-77,104T25,315q0,68 23,130.5T116.5,557T229,635t155,29q70,0 133-23.5t112-67t77-104T734,335q0-67-23-130T642.5,93T530,15T375-14Zm18,47q53,0 88.5,32T535,153.5T553,283q0,60-11,119T508,509.5T449.5,587T364,616q-52,0-87.5-32t-53-88T206,367q0-60 11-119t33.5-107.5t58-78T393,33Z"/>
      <glyph unicode="&#xd9;" glyph-name="gid52" horiz-adv-x="746" d="M437,681q-3-1-10.5,1T410,689q-40,24-86,49t-87,50q-17,11-20,22q-2,9 13.5,18t34,15.5T291,851q21,3 35-11q32-31 58.5-62T438,713q12-15 12-22t-13-10ZM373-14q-95,0-158.5,34T119,114.5T87,256V536q0,26-12.5,50.5T35,618T8,640q0,7 7.5,11T34,655q33,0 70-2.5t67-2.5q29,0 72.5,2t74.5,2q12,0 19-3.5t7-11.5q0-12-16.5-17.5T295,608q-16-7-26.5-25.5T258,530V272q0-66 21-108.5T334.5,101T410,81q88,0 132,50.5T586,291q0,27 0.5,59t1,65T587,477q-1,49-7,74.5t-17.5,39T531,614q-11,6-26,10.5T490,639q0,8 8,11.5t22,3.5q39,0 58-1.5t43-1.5q19,0 31.5,1t26,2t34.5,1q11,0 18-3t7-12q0-14-26-22q-35-10-48.5-31.5T648,527q-3-73-4-135t-1-127q0-82-36-145T509.5,21.5T373-14Z"/>
      <glyph unicode="&#xda;" glyph-name="gid49" horiz-adv-x="746" d="M373-14q-95,0-158.5,34T119,114.5T87,256V536q0,26-12.5,50.5T35,618T8,640q0,7 7.5,11T34,655q33,0 70-2.5t67-2.5q29,0 72.5,2t74.5,2q12,0 19-3.5t7-11.5q0-12-16.5-17.5T295,608q-16-7-26.5-25.5T258,530V272q0-66 21-108.5T334.5,101T410,81q88,0 132,50.5T586,291q0,27 0.5,59t1,65T587,477q-1,49-7,74.5t-17.5,39T531,614q-11,6-26,10.5T490,639q0,8 8,11.5t22,3.5q39,0 58-1.5t43-1.5q19,0 31.5,1t26,2t34.5,1q11,0 18-3t7-12q0-14-26-22q-35-10-48.5-31.5T648,527q-3-73-4-135t-1-127q0-82-36-145T509.5,21.5T373-14ZM359,681q-13,3-13,10t12,22q27,34 54,65t58,62q14,14 35,11q8-1 26.5-7.5t34-15.5T579,810q-3-11-20-22q-40-25-86-50t-87-49q-9-5-16.5-7T359,681Z"/>
      <glyph unicode="&#xdb;" glyph-name="gid50" horiz-adv-x="746" d="M373-14q-95,0-158.5,34T119,114.5T87,256V536q0,26-12.5,50.5T35,618T8,640q0,7 7.5,11T34,655q33,0 70-2.5t67-2.5q29,0 72.5,2t74.5,2q12,0 19-3.5t7-11.5q0-12-16.5-17.5T295,608q-16-7-26.5-25.5T258,530V272q0-66 21-108.5T334.5,101T410,81q88,0 132,50.5T586,291q0,27 0.5,59t1,65T587,477q-1,49-7,74.5t-17.5,39T531,614q-11,6-26,10.5T490,639q0,8 8,11.5t22,3.5q39,0 58-1.5t43-1.5q19,0 31.5,1t26,2t34.5,1q11,0 18-3t7-12q0-14-26-22q-35-10-48.5-31.5T648,527q-3-73-4-135t-1-127q0-82-36-145T509.5,21.5T373-14ZM263,692q-20,0-20,13q0,9 9,16l106,96q18,17 28,23.5t24,6.5q15,0 25-6.5T463,817l105-95q8-7 8-17q0-14-17-14q-7,0-24,5t-38,12.5t-41,16T423,740q-7,4-13,4t-13-4q-12-7-32-15t-41-15.5T286,697t-23-5Z"/>
      <glyph unicode="&#xdc;" glyph-name="gid51" horiz-adv-x="746" d="M373-14q-95,0-158.5,34T119,114.5T87,256V536q0,26-12.5,50.5T35,618T8,640q0,7 7.5,11T34,655q33,0 70-2.5t67-2.5q29,0 72.5,2t74.5,2q12,0 19-3.5t7-11.5q0-12-16.5-17.5T295,608q-16-7-26.5-25.5T258,530V272q0-66 21-108.5T334.5,101T410,81q88,0 132,50.5T586,291q0,27 0.5,59t1,65T587,477q-1,49-7,74.5t-17.5,39T531,614q-11,6-26,10.5T490,639q0,8 8,11.5t22,3.5q39,0 58-1.5t43-1.5q19,0 31.5,1t26,2t34.5,1q11,0 18-3t7-12q0-14-26-22q-35-10-48.5-31.5T648,527q-3-73-4-135t-1-127q0-82-36-145T509.5,21.5T373-14ZM508,686q-31,0-53.5,22.5T432,762q0,33 22.5,55T508,839q34,0 57-22t23-55q0-31-23-53.5T508,686Zm-198,0q-31,0-53.5,22.5T234,762q0,33 22.5,55T310,839q34,0 57-22t23-55q0-31-23-53.5T310,686Z"/>
      <glyph unicode="&#xdd;" glyph-name="gid57" horiz-adv-x="671" d="M195-6q-13,0-20.5,5T167,11q0,9 9,14.5T196,33q38,8 52,27t14,50V246q0,38-9.5,61T229,353L98,554q-9,14-19,26.5T55.5,603T22,618q-9,3-15.5,7T0,639q0,8 6,11.5T19,654q47,0 87-3t85-3q35,0 66.5,3.5T326,655q8,0 17.5-4t9.5-11q0-9-9.5-14.5T325,618q-30-7-43-15t-13-25q0-16 11-35L385,364q7-13 16-13q4,0 7.5,3.5T416,364q24,43 46,85.5T505,538q4,8 7,18.5t3,19.5q0,20-18,30.5T458,618q-10,1-20,7t-10,15q0,7 9.5,10.5T457,654q30,0 55-2.5t53-2.5q25,0 48,4t53,4q11,0 20.5-3.5T696,640t-8.5-13.5T670,620q-30-8-52-25t-34-38q-15-25-31-50.5T521.5,456t-31-50T460,355q-7-13-13.5-28T436,294.5T432,256V111q0-38 13.5-52.5T498,33q11-3 20-7t9-14q0-7-7.5-12T501-5q-21,0-50,2T393.5,1T345,3T298.5,1t-54-4.5T195-6ZM333,681q-13,3-13,10t12,22q27,34 54,65t58,62q14,14 35,11q8-1 26.5-7.5t34-15.5T553,810q-3-11-20-22q-40-25-86-50t-87-49q-9-5-16.5-7T333,681Z"/>
      <glyph unicode="&#xde;" glyph-name="gid43" horiz-adv-x="597" d="M33-3Q27-3 21,1T15,12q0,17 19,22q38,8 52,20t14,43V551q0,32-13,45T34,618q-19,5-19,22q0,7 6,11t12,4q22,0 49.5-1t54-2.5T183,650t48,1t57,2t50,1q8,0 12-3.5t4-11.5q0-10-5-14t-14-7q-38-11-50.5-22T270,561v-9q0-3 1-5t5-2q2,0 8.5,1.5t12,3T299,551q19,5 38.5,6.5T377,559q54,0 99.5-22.5t73-68T577,352T542,231t-94-76.5T318,128q-10,0-21.5,1.5T278,131q-8,0-8-9V98q0-28 13-40.5T335,34q9-3 14-7t5-14q0-7-4-11T338-2q-21,0-50,1T231,1T183,2T136.5,1t-54-2.5T33-3ZM306,170q57,0 80.5,43T410,335q0,55-10.5,94.5t-29.5,61T326,512q-16,0-29-7t-20-23.5T270,436V238q0-45 13-56.5T306,170Z"/>
      <glyph unicode="&#xdf;" glyph-name="gid111" horiz-adv-x="597" d="M411-14q-52,0-77,19T309,50q0,18 9.5,39.5T345,111q9,0 16-5t20-21q14-16 28-27t36-11q13,0 28,9t15,28q0,20-13,39t-34,37.5T396,198q-24,20-47,41.5T311,284t-15,49q0,24 11.5,41.5t28.5,32T369,436q23,22 37.5,48T421,544q0,53-22.5,87T332,665q-54,0-80.5-44T225,471V75q0-20 15-28.5T279,33q8-2 13.5-7.5T298,12q0-6-5-10.5T282-3q-20,0-43,1.5T194.5,1T155,2q-17,0-36-1T80-1.5T40-3Q34-3 27,1T20,12q0,8 7.5,13T43,33q15,5 26,11.5T80,71V356q-10,0-23,0.5T28,358q-6,1-10,12.5T14,390q0,7 10,10q12,5 27,10t29,13q5,78 31.5,132.5t66,87.5T263,691t89,15q42,0 75.5-15t53-39T500,600q0-46-15-72.5T454,482q-15-18-25.5-41T418,378q0-16 10-31t26.5-29.5T489,287q22-17 42-36.5t33-42T577,159q0-36-17.5-67.5T515.5,36t-55-37T411-14Z"/>
      <glyph unicode="&#xe0;" glyph-name="gid69" horiz-adv-x="447" d="M267,452q-11,0-26,15q-22,23-44.5,47t-44,48.5T110,610q-6,7-8,13.5T100,635q0,13 18,19t43,6q20,0 30.5-5T210,633q8-15 20-42.5t24-56T273,487q3-7 4-12.5t1-9.5q0-13-11-13ZM132-14Q103-14 79-1.5t-38,34T27,80q0,35 22.5,59T115,182l86,38q20,9 25,16.5t5,26.5l1,55q1,29-9,44.5T192,378q-12,0-25-5.5T148,360q-3-4-4-9t-1-10q0-6 1-15.5t1-15.5q0-7-17-16.5t-39-17T51,269q-8,0-13.5,6.5T32,292q0,16 11,31t37,36q27,22 59,39t63,27.5T255,436q57,0 91-36.5T378,302l-5-194q-1-23 7.5-39.5T402,52q18,0 32,13q3,3 6,3q5,0 8.5-3.5T452,56q0-12-20-32Q413,5 391-4.5T345-14q-58,0-97,58h-2Q213,13 187-0.5T132-14Zm62,69q9,0 15,3t11,10q3,4 4.5,10T226,91l3,77q0,9-3,11.5t-7,2.5q-2,0-4.5-0.5T209,179q-24-13-36.5-26.5T160,104q0-29 11.5-39T194,55Z"/>
      <glyph unicode="&#xe1;" glyph-name="gid66" horiz-adv-x="447" d="M132-14Q103-14 79-1.5t-38,34T27,80q0,35 22.5,59T115,182l86,38q20,9 25,16.5t5,26.5l1,55q1,29-9,44.5T192,378q-12,0-25-5.5T148,360q-3-4-4-9t-1-10q0-6 1-15.5t1-15.5q0-7-17-16.5t-39-17T51,269q-8,0-13.5,6.5T32,292q0,16 11,31t37,36q27,22 59,39t63,27.5T255,436q57,0 91-36.5T378,302l-5-194q-1-23 7.5-39.5T402,52q18,0 32,13q3,3 6,3q5,0 8.5-3.5T452,56q0-12-20-32Q413,5 391-4.5T345-14q-58,0-97,58h-2Q213,13 187-0.5T132-14Zm62,69q9,0 15,3t11,10q3,4 4.5,10T226,91l3,77q0,9-3,11.5t-7,2.5q-2,0-4.5-0.5T209,179q-24-13-36.5-26.5T160,104q0-29 11.5-39T194,55Zm6,397q-11,0-11,13q0,4 1,9.5t4,12.5q8,19 20,47.5t24,56T257,633q8,17 19,22t30,5q25,0 43-6t18-19q0-5-2-11.5T357,610q-21-23-42.5-47.5T271,514t-45-47q-15-15-26-15Z"/>
      <glyph unicode="&#xe2;" glyph-name="gid67" horiz-adv-x="447" d="M228,676q11,0 19-10.5T266,635q10-17 20-34t20-33.5T326,534t19-34q10-19 5-32t-15-13q-7,0-17.5,9T292,489q-10,12-24.5,28.5T234,553q-4,4-5.5,4.5T222,553q-19-19-33-35.5T164,489q-15-16-25-25t-18-9q-16,0-18,13.5t8,31.5q9,17 18.5,33.5t19.5,33t20,33T189,633q13,22 21,32.5T228,676ZM132-14Q103-14 79-1.5t-38,34T27,80q0,35 22.5,59T115,182l86,38q20,9 25,16.5t5,26.5l1,55q1,29-9,44.5T192,378q-12,0-25-5.5T148,360q-3-4-4-9t-1-10q0-6 1-15.5t1-15.5q0-7-17-16.5t-39-17T51,269q-8,0-13.5,6.5T32,292q0,16 11,31t37,36q27,22 59,39t63,27.5T255,436q57,0 91-36.5T378,302l-5-194q-1-23 7.5-39.5T402,52q18,0 32,13q3,3 6,3q5,0 8.5-3.5T452,56q0-12-20-32Q413,5 391-4.5T345-14q-58,0-97,58h-2Q213,13 187-0.5T132-14Zm62,69q9,0 15,3t11,10q3,4 4.5,10T226,91l3,77q0,9-3,11.5t-7,2.5q-2,0-4.5-0.5T209,179q-24-13-36.5-26.5T160,104q0-29 11.5-39T194,55Z"/>
      <glyph unicode="&#xe3;" glyph-name="gid71" horiz-adv-x="447" d="M132-14Q103-14 79-1.5t-38,34T27,80q0,35 22.5,59T115,182l86,38q20,9 25,16.5t5,26.5l1,55q1,29-9,44.5T192,378q-12,0-25-5.5T148,360q-3-4-4-9t-1-10q0-6 1-15.5t1-15.5q0-7-17-16.5t-39-17T51,269q-8,0-13.5,6.5T32,292q0,16 11,31t37,36q27,22 59,39t63,27.5T255,436q57,0 91-36.5T378,302l-5-194q-1-23 7.5-39.5T402,52q18,0 32,13q3,3 6,3q5,0 8.5-3.5T452,56q0-12-20-32Q413,5 391-4.5T345-14q-58,0-97,58h-2Q213,13 187-0.5T132-14Zm62,69q9,0 15,3t11,10q3,4 4.5,10T226,91l3,77q0,9-3,11.5t-7,2.5q-2,0-4.5-0.5T209,179q-24-13-36.5-26.5T160,104q0-29 11.5-39T194,55ZM97,467q-4,0-13.5,8T74,487q0,6 12,24t29,39.5t32.5,37T169,603q10,0 24-3t48-5q23-1 42-2.5t28-1.5t18,5t17,15q10,12 14.5,18.5T369,636q5,0 14-7.5t9-12.5q0-4-6-12t-15-21q-11-16-22-34.5T328,516q-6-9-15-11.5T297,502q-9,0-30,1.5t-46,3t-46.5,3T144,511q-7,0-11-3t-8-8q-13-18-18.5-25.5T97,467Z"/>
      <glyph unicode="&#xe4;" glyph-name="gid68" horiz-adv-x="447" d="M132-14Q103-14 79-1.5t-38,34T27,80q0,35 22.5,59T115,182l86,38q20,9 25,16.5t5,26.5l1,55q1,29-9,44.5T192,378q-12,0-25-5.5T148,360q-3-4-4-9t-1-10q0-6 1-15.5t1-15.5q0-7-17-16.5t-39-17T51,269q-8,0-13.5,6.5T32,292q0,16 11,31t37,36q27,22 59,39t63,27.5T255,436q57,0 91-36.5T378,302l-5-194q-1-23 7.5-39.5T402,52q18,0 32,13q3,3 6,3q5,0 8.5-3.5T452,56q0-12-20-32Q413,5 391-4.5T345-14q-58,0-97,58h-2Q213,13 187-0.5T132-14Zm62,69q9,0 15,3t11,10q3,4 4.5,10T226,91l3,77q0,9-3,11.5t-7,2.5q-2,0-4.5-0.5T209,179q-24-13-36.5-26.5T160,104q0-29 11.5-39T194,55ZM322,491q-31,0-53.5,22.5T246,567q0,33 22.5,55T322,644q34,0 57-22t23-55q0-31-23-53.5T322,491Zm-198,0q-31,0-53.5,22.5T48,567q0,33 22.5,55T124,644q34,0 57-22t23-55q0-31-23-53.5T124,491Z"/>
      <glyph unicode="&#xe5;" glyph-name="gid70" horiz-adv-x="447" d="M132-14Q103-14 79-1.5t-38,34T27,80q0,35 22.5,59T115,182l86,38q20,9 25,16.5t5,26.5l1,55q1,29-9,44.5T192,378q-12,0-25-5.5T148,360q-3-4-4-9t-1-10q0-6 1-15.5t1-15.5q0-7-17-16.5t-39-17T51,269q-8,0-13.5,6.5T32,292q0,16 11,31t37,36q27,22 59,39t63,27.5T255,436q57,0 91-36.5T378,302l-5-194q-1-23 7.5-39.5T402,52q18,0 32,13q3,3 6,3q5,0 8.5-3.5T452,56q0-12-20-32Q413,5 391-4.5T345-14q-58,0-97,58h-2Q213,13 187-0.5T132-14Zm62,69q9,0 15,3t11,10q3,4 4.5,10T226,91l3,77q0,9-3,11.5t-7,2.5q-2,0-4.5-0.5T209,179q-24-13-36.5-26.5T160,104q0-29 11.5-39T194,55Zm27,425q-42,0-74,25t-32,71q0,31 16.5,54.5t43,36.5T232,680q41,0 73-25t32-69q0-32-16.5-56t-43-37T221,480Zm10,38q20,0 31,19t11,41q0,26-14,43t-37,17q-20,0-31.5-18T179,578t15-42t37-18Z"/>
      <glyph unicode="&#xe6;" glyph-name="gid72" horiz-adv-x="638" d="M136-14Q107-14 82-1.5t-40,34T27,80q0,35 21.5,60.5T115,182l86,31q20,9 25,16.5t5,26.5l1,60q1,29-9,44.5T192,376q-12,0-25-6t-19-13q-5-6-5-19q0-6 1-14t1-14q0-8-18-17.5T87,276t-36-7q-8,0-13.5,6.5T32,292q0,32 47,70q19,15 48,32.5t61.5,30T250,437q26,0 45.5-6.5T334,408q5-3 8-3q4,0 8,3q23,13 46.5,21t57.5,8q47,0 83.5-16t57-43.5T615,314q0-16-6.5-24T591,280q-7-1-33.5-8.5t-61-17t-65.5-19T385,221q-4-1-7.5-5.5T374,203V181q0-20 13.5-42T424,102.5T474,88q28,0 57.5,12.5T583,141q5,7 14,7q11,0 11-13q0-5-1.5-13T602,108q-28-53-70.5-87.5T410-14q-43,0-77,13T268,42q-2,2-4.5,3.5T259,47q-3,0-8-5q-16-16-31.5-29T184-7t-48-7Zm58,69q9,0 15,3t11,10q3,4 6,10.5T229,92v63q0,9-1,13t-5,4t-10-3q-18-8-29.5-17.5T166,131t-6-27q0-29 11.5-39T194,55ZM386,272q24,6 47,12t57,16q11,3 13.5,9.5T506,326q0,27-13,47.5T447,394q-19,0-34.5-8t-25-22T378,331l-1-52q0-4 2.5-6t6.5-1Z"/>
      <glyph unicode="&#xe7;" glyph-name="gid75" horiz-adv-x="412" d="M211-14q-54,0-97,29T46,93.5T21,205q0,65 30.5,117T133,405t114,31q86,0 141-58q8-10 8-18q0-6-9-17.5t-20.5-21T347,312q-10,0-19,6t-17,13q-27,23-53.5,36.5T211,381q-35,0-52-28.5T142,253q0-49 14-84t42-53.5T267,97q30,0 52.5,10T366,135q5,4 9,7t9,3q12,0 12-16q0-4-1-11t-5-16q-8-20-34-47.5t-63-48T211-14ZM158-274q-23,0-35,9t-12,40q0,16 4.5,21t13.5,5q12,0 29-8.5t41-8.5q14,0 20.5,10t6.5,29t-18.5,29T170-138q-13,0-20-5t-14-5t-15,7t-8,19q0,9 16,27L219,8h47L231-33q-6-7-6-11t13-11q25-11 39-30.5T291-140q0-25-13-49t-33-43t-43-30.5T158-274Z"/>
      <glyph unicode="&#xe8;" glyph-name="gid82" horiz-adv-x="423" d="M278,452q-11,0-26,15q-22,23-44.5,47t-44,48.5T121,610q-6,7-8,13.5T111,635q0,13 18,19t43,6q20,0 30.5-5T221,633q8-15 20-42.5t24-56T284,487q3-7 4-12.5t1-9.5q0-13-11-13ZM211-14q-54,0-97,29T46,93.5T21,205q0,64 30,116.5T132,405t113,31q43,0 78-19t56-50.5T400,295q0-39-31-39H171q-14,0-20.5-8T144,221q0-36 16-65.5T204,109t65-17q29,0 53.5,11T372,133q3,2 7,4.5t7,2.5q11,0 11-13q0-9-6-27q-9-27-33-53.5T296.5,3T211-14ZM171,300h53q29,0 38.5,1t17.5,4q5,2 8,11t3,19q0,26-16.5,42.5T232,394q-20,0-37.5-11.5T166,353t-10-38q0-15 15-15Z"/>
      <glyph unicode="&#xe9;" glyph-name="gid79" horiz-adv-x="423" d="M211-14q-54,0-97,29T46,93.5T21,205q0,64 30,116.5T132,405t113,31q43,0 78-19t56-50.5T400,295q0-39-31-39H171q-14,0-20.5-8T144,221q0-36 16-65.5T204,109t65-17q29,0 53.5,11T372,133q3,2 7,4.5t7,2.5q11,0 11-13q0-9-6-27q-9-27-33-53.5T296.5,3T211-14ZM171,300h53q29,0 38.5,1t17.5,4q5,2 8,11t3,19q0,26-16.5,42.5T232,394q-20,0-37.5-11.5T166,353t-10-38q0-15 15-15Zm40,152q-11,0-11,13q0,4 1,9.5t4,12.5q8,19 20,47.5t24,56T268,633q8,17 19,22t30,5q25,0 43-6t18-19q0-5-2-11.5T368,610q-21-23-42.5-47.5T282,514t-45-47q-15-15-26-15Z"/>
      <glyph unicode="&#xea;" glyph-name="gid80" horiz-adv-x="423" d="M239,676q11,0 19-10.5T277,635q10-17 20-34t20-33.5T337,534t19-34q10-19 5-32t-15-13q-7,0-17.5,9T303,489q-10,12-24.5,28.5T245,553q-4,4-5.5,4.5T233,553q-19-19-33-35.5T175,489q-15-16-25-25t-18-9q-16,0-18,13.5t8,31.5q9,17 18.5,33.5t19.5,33t20,33T200,633q13,22 21,32.5T239,676ZM211-14q-54,0-97,29T46,93.5T21,205q0,64 30,116.5T132,405t113,31q43,0 78-19t56-50.5T400,295q0-39-31-39H171q-14,0-20.5-8T144,221q0-36 16-65.5T204,109t65-17q29,0 53.5,11T372,133q3,2 7,4.5t7,2.5q11,0 11-13q0-9-6-27q-9-27-33-53.5T296.5,3T211-14ZM171,300h53q29,0 38.5,1t17.5,4q5,2 8,11t3,19q0,26-16.5,42.5T232,394q-20,0-37.5-11.5T166,353t-10-38q0-15 15-15Z"/>
      <glyph unicode="&#xeb;" glyph-name="gid81" horiz-adv-x="423" d="M211-14q-54,0-97,29T46,93.5T21,205q0,64 30,116.5T132,405t113,31q43,0 78-19t56-50.5T400,295q0-39-31-39H171q-14,0-20.5-8T144,221q0-36 16-65.5T204,109t65-17q29,0 53.5,11T372,133q3,2 7,4.5t7,2.5q11,0 11-13q0-9-6-27q-9-27-33-53.5T296.5,3T211-14ZM171,300h53q29,0 38.5,1t17.5,4q5,2 8,11t3,19q0,26-16.5,42.5T232,394q-20,0-37.5-11.5T166,353t-10-38q0-15 15-15ZM333,491q-31,0-53.5,22.5T257,567q0,33 22.5,55T333,644q34,0 57-22t23-55q0-31-23-53.5T333,491Zm-198,0q-31,0-53.5,22.5T59,567q0,33 22.5,55T135,644q34,0 57-22t23-55q0-31-23-53.5T135,491Z"/>
      <glyph unicode="&#xec;" glyph-name="gid91" horiz-adv-x="306" d="M192,452q-11,0-26,15q-22,23-44.5,47t-44,48.5T35,610q-6,7-8,13.5T25,635q0,13 18,19t43,6q20,0 30.5-5T135,633q8-15 20-42.5t24-56T198,487q3-7 4-12.5t1-9.5q0-13-11-13ZM36-3Q30-3 25,1T20,11q0,8 4.5,13T37,31q27,7 37.5,14T85,68V284q0,36-10.5,48.5T42,348q-6,1-9,6.5T30,367q0,16 12,18q54,11 98,29.5T207,443q18,8 22,8q14,0 14-14q-1-19-4.5-44.5t-6-52.5T230,288V69q0-13 10-21t38-17q8-3 13-7t5-12q0-14-15-14q-19,0-41.5,1t-44,2T156,2q-17,0-37.5-1T77-1.5T36-3Z"/>
      <glyph unicode="&#xed;" glyph-name="gid88" horiz-adv-x="306" d="M36-3Q30-3 25,1T20,11q0,8 4.5,13T37,31q27,7 37.5,14T85,68V284q0,36-10.5,48.5T42,348q-6,1-9,6.5T30,367q0,16 12,18q54,11 98,29.5T207,443q18,8 22,8q14,0 14-14q-1-19-4.5-44.5t-6-52.5T230,288V69q0-13 10-21t38-17q8-3 13-7t5-12q0-14-15-14q-19,0-41.5,1t-44,2T156,2q-17,0-37.5-1T77-1.5T36-3Zm89,455q-11,0-11,13q0,4 1,9.5t4,12.5q8,19 20,47.5t24,56T182,633q8,17 19,22t30,5q25,0 43-6t18-19q0-5-2-11.5T282,610q-21-23-42.5-47.5T196,514t-45-47q-15-15-26-15Z"/>
      <glyph unicode="&#xee;" glyph-name="gid89" horiz-adv-x="306" d="M153,676q11,0 19-10.5T191,635q10-17 20-34t20-33.5T251,534t19-34q10-19 5-32t-15-13q-7,0-17.5,9T217,489q-10,12-24.5,28.5T159,553q-4,4-5.5,4.5T147,553q-19-19-33-35.5T89,489q-15-16-25-25t-18-9q-16,0-18,13.5T36,500q9,17 18.5,33.5t19.5,33t20,33T114,633q13,22 21,32.5T153,676ZM36-3Q30-3 25,1T20,11q0,8 4.5,13T37,31q27,7 37.5,14T85,68V284q0,36-10.5,48.5T42,348q-6,1-9,6.5T30,367q0,16 12,18q54,11 98,29.5T207,443q18,8 22,8q14,0 14-14q-1-19-4.5-44.5t-6-52.5T230,288V69q0-13 10-21t38-17q8-3 13-7t5-12q0-14-15-14q-19,0-41.5,1t-44,2T156,2q-17,0-37.5-1T77-1.5T36-3Z"/>
      <glyph unicode="&#xef;" glyph-name="gid90" horiz-adv-x="306" d="M36-3Q30-3 25,1T20,11q0,8 4.5,13T37,31q27,7 37.5,14T85,68V284q0,36-10.5,48.5T42,348q-6,1-9,6.5T30,367q0,16 12,18q54,11 98,29.5T207,443q18,8 22,8q14,0 14-14q-1-19-4.5-44.5t-6-52.5T230,288V69q0-13 10-21t38-17q8-3 13-7t5-12q0-14-15-14q-19,0-41.5,1t-44,2T156,2q-17,0-37.5-1T77-1.5T36-3ZM247,491q-31,0-53.5,22.5T171,567q0,33 22.5,55T247,644q34,0 57-22t23-55q0-31-23-53.5T247,491ZM49,491q-31,0-53.5,22.5T-27,567q0,33 22.5,55T49,644q34,0 57-22t23-55q0-31-23-53.5T49,491Z"/>
      <glyph unicode="&#xf0;" glyph-name="gid77" horiz-adv-x="520" d="M249-14q-61,0-113,27T52,88T20,197q0,66 32,120.5t89,87T271,437q5,0 9.5-0.5T288,435q2-1 3.5-0.5T292,439q-5,21-14.5,50.5T260,537L141,475q-11-6-19.5,0.5T113,489q0,17 5.5,25T136,528l98,50q-23,33-55,55.5T103,665q-11,2-23.5,6.5T67,687q0,10 14,13.5t33,3.5q59,0 113-19.5T327,627l109,57q8,5 19.5,2T467,672q0-13-5.5-21.5T440,633l-73-40q37-39 64.5-93t43-117.5T490,250q0-44-15.5-90t-46-85.5T353,10.5T249-14Zm15,50q25,0 40.5,17T328,112t8,116q0,29-6.5,64.5T316,350q-15,20-29.5,28T252,386q-22,0-40-19.5t-28.5-56T173,222q0-46 12.5-89T219,63t45-27Z"/>
      <glyph unicode="&#xf1;" glyph-name="gid97" horiz-adv-x="574" d="M40-3Q34-3 27,1T20,12q0,8 7.5,13T43,33q15,5 26,11.5T80,71V303q0,20-6.5,34.5T50,355q-4,1-7.5,5.5T39,374q0,15 10,18q34,8 79,21.5T203,442q5,2 10.5,5.5T223,451q7,0 8.5-4t1.5-9q0-8-2.5-25T228,382q0-4 0.5-9t1.5-6q34,32 67.5,50.5T377,436q53,0 89-38t36-106V70q0-20 11-26t26-11q8-3 14-8t6-13q0-7-5.5-11T542-3q-20,0-39,1.5T466,1T430,2q-17,0-35-1T358.5-1.5T320-3q-6,0-11,4t-5,11q0,8 5.5,13T323,33q15,5 24.5,11T357,70V267q0,37-16,58t-42,21q-19,0-34-5.5T233,323q-4-3-6-8t-2-10V70q0-20 10-26t24-11q19-7 19-21q0-6-5-10.5T262-3q-20,0-38,1.5T189.5,1T155,2q-17,0-36-1T80-1.5T40-3ZM164,467q-4,0-13.5,8T141,487q0,6 12,24t29,39.5t32.5,37T236,603q10,0 24-3t48-5q23-1 42-2.5t28-1.5t18,5t17,15q10,12 14.5,18.5T436,636q5,0 14-7.5t9-12.5q0-4-6-12t-15-21q-11-16-22-34.5T395,516q-6-9-15-11.5T364,502q-9,0-30,1.5t-46,3t-46.5,3T211,511q-7,0-11-3t-8-8q-13-18-18.5-25.5T164,467Z"/>
      <glyph unicode="&#xf2;" glyph-name="gid102" horiz-adv-x="505" d="M299,452q-11,0-26,15q-22,23-44.5,47t-44,48.5T142,610q-6,7-8,13.5T132,635q0,13 18,19t43,6q20,0 30.5-5T242,633q8-15 20-42.5t24-56T305,487q3-7 4-12.5t1-9.5q0-13-11-13ZM238-14q-61,0-110,27T50,88T21,197q0,49 18.5,92.5t51,76.5t76,52T260,437q63,0 113.5-29T454,331t30-105q0-65-27.5-120t-82-87.5T238-14Zm19,47q18,0 31,7.5T310,62q12,20 17,55t5,85q0,56-11,98t-30.5,66T245,390q-13,0-24-4.5T202,373q-17-18-23.5-55.5T172,222q0-47 11-90.5t30.5-71T257,33Z"/>
      <glyph unicode="&#xf3;" glyph-name="gid99" horiz-adv-x="505" d="M238-14q-61,0-110,27T50,88T21,197q0,49 18.5,92.5t51,76.5t76,52T260,437q63,0 113.5-29T454,331t30-105q0-65-27.5-120t-82-87.5T238-14Zm19,47q18,0 31,7.5T310,62q12,20 17,55t5,85q0,56-11,98t-30.5,66T245,390q-13,0-24-4.5T202,373q-17-18-23.5-55.5T172,222q0-47 11-90.5t30.5-71T257,33ZM232,452q-11,0-11,13q0,4 1,9.5t4,12.5q8,19 20,47.5t24,56T289,633q8,17 19,22t30,5q25,0 43-6t18-19q0-5-2-11.5T389,610q-21-23-42.5-47.5T303,514t-45-47q-15-15-26-15Z"/>
      <glyph unicode="&#xf4;" glyph-name="gid100" horiz-adv-x="505" d="M260,676q11,0 19-10.5T298,635q10-17 20-34t20-33.5T358,534t19-34q10-19 5-32t-15-13q-7,0-17.5,9T324,489q-10,12-24.5,28.5T266,553q-4,4-5.5,4.5T254,553q-19-19-33-35.5T196,489q-15-16-25-25t-18-9q-16,0-18,13.5t8,31.5q9,17 18.5,33.5t19.5,33t20,33T221,633q13,22 21,32.5T260,676ZM238-14q-61,0-110,27T50,88T21,197q0,49 18.5,92.5t51,76.5t76,52T260,437q63,0 113.5-29T454,331t30-105q0-65-27.5-120t-82-87.5T238-14Zm19,47q18,0 31,7.5T310,62q12,20 17,55t5,85q0,56-11,98t-30.5,66T245,390q-13,0-24-4.5T202,373q-17-18-23.5-55.5T172,222q0-47 11-90.5t30.5-71T257,33Z"/>
      <glyph unicode="&#xf5;" glyph-name="gid104" horiz-adv-x="505" d="M238-14q-61,0-110,27T50,88T21,197q0,49 18.5,92.5t51,76.5t76,52T260,437q63,0 113.5-29T454,331t30-105q0-65-27.5-120t-82-87.5T238-14Zm19,47q18,0 31,7.5T310,62q12,20 17,55t5,85q0,56-11,98t-30.5,66T245,390q-13,0-24-4.5T202,373q-17-18-23.5-55.5T172,222q0-47 11-90.5t30.5-71T257,33ZM125,467q-4,0-13.5,8T102,487q0,6 12,24t29,39.5t32.5,37T197,603q10,0 24-3t48-5q23-1 42-2.5t28-1.5t18,5t17,15q10,12 14.5,18.5T397,636q5,0 14-7.5t9-12.5q0-4-6-12t-15-21q-11-16-22-34.5T356,516q-6-9-15-11.5T325,502q-9,0-30,1.5t-46,3t-46.5,3T172,511q-7,0-11-3t-8-8q-13-18-18.5-25.5T125,467Z"/>
      <glyph unicode="&#xf6;" glyph-name="gid101" horiz-adv-x="505" d="M238-14q-61,0-110,27T50,88T21,197q0,49 18.5,92.5t51,76.5t76,52T260,437q63,0 113.5-29T454,331t30-105q0-65-27.5-120t-82-87.5T238-14Zm19,47q18,0 31,7.5T310,62q12,20 17,55t5,85q0,56-11,98t-30.5,66T245,390q-13,0-24-4.5T202,373q-17-18-23.5-55.5T172,222q0-47 11-90.5t30.5-71T257,33Zm97,458q-31,0-53.5,22.5T278,567q0,33 22.5,55T354,644q34,0 57-22t23-55q0-31-23-53.5T354,491Zm-198,0q-31,0-53.5,22.5T80,567q0,33 22.5,55T156,644q34,0 57-22t23-55q0-31-23-53.5T156,491Z"/>
      <glyph unicode="&#xf7;" glyph-name="gid252" horiz-adv-x="602" d="M49,259q-7,0-13,4.5T30,272q0,6 3.5,17T44,308.5T63,317H546q11,0 18.5-4.5T572,302q0-13-10.5-28T535,259H49ZM306,64q-30,0-52,21.5T232,137q0,32 22,54t52,22q32,0 54-22t22-54q0-30-22-51.5T306,64Zm-1,285q-30,0-52,21.5T231,422q0,32 22,54t52,22q32,0 54-22t22-54q0-30-22-51.5T305,349Z"/>
      <glyph unicode="&#xf8;" glyph-name="gid103" horiz-adv-x="504" d="M53-15Q41-15 31-8.5T21,8q0,23 14,34L443,427q10,10 23,10q18,0 18-25q0-7-3.5-18T469,375L80-3q-6-5-11.5-8.5T53-15Zm185,1q-61,0-110,27T50,88T21,197q0,49 18.5,92.5t51,76.5t76,52T260,437q63,0 113.5-29T454,331t30-105q0-65-27.5-120t-82-87.5T238-14Zm19,47q18,0 31,7.5T310,62q12,20 17,55t5,85q0,56-11,98t-30.5,66T245,390q-13,0-24-4.5T202,373q-17-18-23.5-55.5T172,222q0-47 11-90.5t30.5-71T257,33Z"/>
      <glyph unicode="&#xf9;" glyph-name="gid117" horiz-adv-x="556" d="M329,452q-11,0-26,15q-22,23-44.5,47t-44,48.5T172,610q-6,7-8,13.5T162,635q0,13 18,19t43,6q20,0 30.5-5T272,633q8-15 20-42.5t24-56T335,487q3-7 4-12.5t1-9.5q0-13-11-13ZM342-21q-9,0-9,10q0,12 2.5,32.5T338,52q0,5-0.5,8T336,64Q312,33 269,9T180-15q-31,0-56,19.5T84.5,57T70,130V314q0,23-8,37.5T31,370q-6,1-11,5.5T15,389q0,7 4,12t11,6q44,2 81.5,9T186,432q5,2 11.5,3.5T210,437q14,0 13-14q-4-23-6-38.5T215,346V155q0-24 7-41.5t20-27T271,76q14,0 28.5,4.5T327,98q5,5 9.5,20t4.5,40V314q0,17-5.5,29t-17,19.5T290,371q-12,1-18.5,6T265,394q0,11 7.5,16t17.5,5q55,4 87,6.5t52,5.5t39,7q3,1 7,2t7,1q15,0 15-12q0-4-1-8t-3-9q-1-4-2.5-17.5t-3-28.5T486,338V106q0-22 5.5-29T504,70q4,0 12.5-0.5T528,69q10,0 15-5.5T548,50q0-10-3.5-16T530,27q-50-4-91-17T369-14q-7-3-14-5t-13-2Z"/>
      <glyph unicode="&#xfa;" glyph-name="gid114" horiz-adv-x="556" d="M342-21q-9,0-9,10q0,12 2.5,32.5T338,52q0,5-0.5,8T336,64Q312,33 269,9T180-15q-31,0-56,19.5T84.5,57T70,130V314q0,23-8,37.5T31,370q-6,1-11,5.5T15,389q0,7 4,12t11,6q44,2 81.5,9T186,432q5,2 11.5,3.5T210,437q14,0 13-14q-4-23-6-38.5T215,346V155q0-24 7-41.5t20-27T271,76q14,0 28.5,4.5T327,98q5,5 9.5,20t4.5,40V314q0,17-5.5,29t-17,19.5T290,371q-12,1-18.5,6T265,394q0,11 7.5,16t17.5,5q55,4 87,6.5t52,5.5t39,7q3,1 7,2t7,1q15,0 15-12q0-4-1-8t-3-9q-1-4-2.5-17.5t-3-28.5T486,338V106q0-22 5.5-29T504,70q4,0 12.5-0.5T528,69q10,0 15-5.5T548,50q0-10-3.5-16T530,27q-50-4-91-17T369-14q-7-3-14-5t-13-2ZM262,452q-11,0-11,13q0,4 1,9.5t4,12.5q8,19 20,47.5t24,56T319,633q8,17 19,22t30,5q25,0 43-6t18-19q0-5-2-11.5T419,610q-21-23-42.5-47.5T333,514t-45-47q-15-15-26-15Z"/>
      <glyph unicode="&#xfb;" glyph-name="gid115" horiz-adv-x="556" d="M290,676q11,0 19-10.5T328,635q10-17 20-34t20-33.5T388,534t19-34q10-19 5-32t-15-13q-7,0-17.5,9T354,489q-10,12-24.5,28.5T296,553q-4,4-5.5,4.5T284,553q-19-19-33-35.5T226,489q-15-16-25-25t-18-9q-16,0-18,13.5t8,31.5q9,17 18.5,33.5t19.5,33t20,33T251,633q13,22 21,32.5T290,676ZM342-21q-9,0-9,10q0,12 2.5,32.5T338,52q0,5-0.5,8T336,64Q312,33 269,9T180-15q-31,0-56,19.5T84.5,57T70,130V314q0,23-8,37.5T31,370q-6,1-11,5.5T15,389q0,7 4,12t11,6q44,2 81.5,9T186,432q5,2 11.5,3.5T210,437q14,0 13-14q-4-23-6-38.5T215,346V155q0-24 7-41.5t20-27T271,76q14,0 28.5,4.5T327,98q5,5 9.5,20t4.5,40V314q0,17-5.5,29t-17,19.5T290,371q-12,1-18.5,6T265,394q0,11 7.5,16t17.5,5q55,4 87,6.5t52,5.5t39,7q3,1 7,2t7,1q15,0 15-12q0-4-1-8t-3-9q-1-4-2.5-17.5t-3-28.5T486,338V106q0-22 5.5-29T504,70q4,0 12.5-0.5T528,69q10,0 15-5.5T548,50q0-10-3.5-16T530,27q-50-4-91-17T369-14q-7-3-14-5t-13-2Z"/>
      <glyph unicode="&#xfc;" glyph-name="gid116" horiz-adv-x="556" d="M342-21q-9,0-9,10q0,12 2.5,32.5T338,52q0,5-0.5,8T336,64Q312,33 269,9T180-15q-31,0-56,19.5T84.5,57T70,130V314q0,23-8,37.5T31,370q-6,1-11,5.5T15,389q0,7 4,12t11,6q44,2 81.5,9T186,432q5,2 11.5,3.5T210,437q14,0 13-14q-4-23-6-38.5T215,346V155q0-24 7-41.5t20-27T271,76q14,0 28.5,4.5T327,98q5,5 9.5,20t4.5,40V314q0,17-5.5,29t-17,19.5T290,371q-12,1-18.5,6T265,394q0,11 7.5,16t17.5,5q55,4 87,6.5t52,5.5t39,7q3,1 7,2t7,1q15,0 15-12q0-4-1-8t-3-9q-1-4-2.5-17.5t-3-28.5T486,338V106q0-22 5.5-29T504,70q4,0 12.5-0.5T528,69q10,0 15-5.5T548,50q0-10-3.5-16T530,27q-50-4-91-17T369-14q-7-3-14-5t-13-2Zm42,512q-31,0-53.5,22.5T308,567q0,33 22.5,55T384,644q34,0 57-22t23-55q0-31-23-53.5T384,491Zm-198,0q-31,0-53.5,22.5T110,567q0,33 22.5,55T186,644q34,0 57-22t23-55q0-31-23-53.5T186,491Z"/>
      <glyph unicode="&#xfd;" glyph-name="gid122" horiz-adv-x="491" d="M90-283q-28,0-53.5,20T11-215q0,20 10,39.5T53-156q17,0 35-6t34-5q17,2 23.5,8.5T161-135q6,10 11,18t12,22t19,40q14,31 14,54q0,16-5,29.5T201,55L77,332q-10,23-21,38.5T26,393q-10,4-14,8.5T8,415q0,8 9,10t16,2q25,0 43-1t32-2t27-1q22,0 38.5,1t35,2t42.5,1q7,0 15.5-3t8.5-11q0-9-7-12t-15-7q-11-4-17.5-12.5T229,355q0-9 2.5-20.5T241,305l58-141q1-2 2-2t2,2l48,147q3,8 5,19.5t2,20.5q0,17-11,28t-22,15q-8,3-15,6.5T303,413q0,8 8.5,11t15.5,3q30-1 45-2.5t28-1.5q8,0 17,0.5t22,1.5t32,2q7,0 16-2t9-10q0-9-4-13.5T478,393q-19-7-33.5-22.5T420,332L268-34q-10-24-20-47.5T228.5-128T209-174t-20-46q-13-31-39.5-47T90-283ZM259,452q-11,0-11,13q0,4 1,9.5t4,12.5q8,19 20,47.5t24,56T316,633q8,17 19,22t30,5q25,0 43-6t18-19q0-5-2-11.5T416,610q-21-23-42.5-47.5T330,514t-45-47q-15-15-26-15Z"/>
      <glyph unicode="&#xfe;" glyph-name="gid107" horiz-adv-x="558" d="M35-257q-7,0-13.5,4T15-242q0,8 6.5,13T38-221q23,7 30,14.5T75-183V546q0,27-6.5,47T37,618q-11,2-11,16q0,13 10,15q25,5 57,15.5T154.5,686T199,702q5,2 8,2.5t6,0.5q7,0 9-4t2-9q0-7-2-23.5T219,638l1-224q0-12 0-24t1-24q14,12 38,26.5t53,25T368,428q54,0 92-29t58-74t20-94q0-47-18-91.5T470,59T396,2T305-19q-16,0-39.5,5.5T223,0q-1,0-2-1t-1.5-3.5T219-11V-172q0-22 12-32t40-18q11-3 16.5-7.5T293-242q0-6-4.5-10.5T277-257q-20,0-43,1.5T189.5-253T150-252q-17,0-36-1t-39-2.5T35-257ZM298,31q10,0 24.5,8T351,66t23.5,50.5T384,194q0,54-10,86t-24.5,48T320,349t-26,5q-17,0-31-7t-26-20q-7-7-12-22t-5-44V122q0-13 3.5-34T236,54q8-9 24-16t38-7Z"/>
      <glyph unicode="&#xff;" glyph-name="gid123" horiz-adv-x="491" d="M90-283q-28,0-53.5,20T11-215q0,20 10,39.5T53-156q17,0 35-6t34-5q17,2 23.5,8.5T161-135q6,10 11,18t12,22t19,40q14,31 14,54q0,16-5,29.5T201,55L77,332q-10,23-21,38.5T26,393q-10,4-14,8.5T8,415q0,8 9,10t16,2q25,0 43-1t32-2t27-1q22,0 38.5,1t35,2t42.5,1q7,0 15.5-3t8.5-11q0-9-7-12t-15-7q-11-4-17.5-12.5T229,355q0-9 2.5-20.5T241,305l58-141q1-2 2-2t2,2l48,147q3,8 5,19.5t2,20.5q0,17-11,28t-22,15q-8,3-15,6.5T303,413q0,8 8.5,11t15.5,3q30-1 45-2.5t28-1.5q8,0 17,0.5t22,1.5t32,2q7,0 16-2t9-10q0-9-4-13.5T478,393q-19-7-33.5-22.5T420,332L268-34q-10-24-20-47.5T228.5-128T209-174t-20-46q-13-31-39.5-47T90-283ZM381,491q-31,0-53.5,22.5T305,567q0,33 22.5,55T381,644q34,0 57-22t23-55q0-31-23-53.5T381,491Zm-198,0q-31,0-53.5,22.5T107,567q0,33 22.5,55T183,644q34,0 57-22t23-55q0-31-23-53.5T183,491Z"/>
      <glyph unicode="&#x2013;" glyph-name="gid221" horiz-adv-x="650" d="M52,181q-7,0-12,5t-5,9q0,6 3,17.5T47.5,233T64,242H591q11,0 17.5-4.5T615,226q0-13-10-29t-24-16H52Z"/>
      <glyph unicode="&#x2014;" glyph-name="gid222" horiz-adv-x="962" d="M37,181q-7,0-12,5t-5,9q0,6 3,17.5T32.5,233T49,242H918q11,0 17.5-4.5T942,226q0-13-10-29t-24-16H37Z"/>
      <glyph unicode="&#x2018;" glyph-name="gid228" horiz-adv-x="238" d="M189,700q27,0 27-17q0-8-6.5-11T192,666q-27-7-46-19.5T117.5,618T108,582q0-19 13-29t29-15q17-5 29.5-20T192,477q0-27-22.5-46T119,412q-47,0-76,29.5T14,517q0,41 15,74.5t40,58T125,687t64,13Z"/>
      <glyph unicode="&#x2019;" glyph-name="gid229" horiz-adv-x="238" d="M49,405q-27,0-27,17q0,8 6.5,11T46,439q28,8 46.5,20t28,28.5T130,523q0,20-12.5,29.5T88,567q-16,5-29,20T46,628q0,27 22.5,46T119,693q47,0 76-29t29-76q0-41-15-74.5t-40-58T113,418T49,405Z"/>
      <glyph unicode="&#x201a;" glyph-name="gid224" horiz-adv-x="238" d="M49-168q-27,0-27,17q0,8 6.5,11T46-134q28,8 46.5,20t28,28.5T130-50q0,20-12.5,29.5T88-6Q72-1 59,14T46,55q0,27 22.5,46T119,120q47,0 76-29t29-76q0-41-15-74.5t-40-58T113-155T49-168Z"/>
      <glyph unicode="&#x201c;" glyph-name="gid226" horiz-adv-x="444" d="M403,701q27,0 27-17q0-8-6.5-11T406,667q-27-7-46-19.5T331.5,619T322,583q0-19 13-29t29-15q17-5 29.5-20T406,478q0-27-22.5-46T333,413q-47,0-76,29.5T228,518q0,41 15,74.5t40,58T339,688t64,13Zm-206,0q27,0 27-17q0-8-6.5-11T200,667q-27-7-46-19.5T125.5,619T116,583q0-19 13-29t29-15q17-5 29.5-20T200,478q0-27-22.5-46T127,413q-47,0-76,29.5T22,518q0,41 15,74.5t40,58T133,688t64,13Z"/>
      <glyph unicode="&#x201d;" glyph-name="gid227" horiz-adv-x="444" d="M49,405q-27,0-27,17q0,8 6.5,11T46,439q28,8 46.5,20t28,28.5T130,523q0,20-12.5,29.5T88,567q-16,5-29,20T46,628q0,27 22.5,46T119,693q47,0 76-29t29-76q0-41-15-74.5t-40-58T113,418T49,405Zm206,0q-27,0-27,17q0,8 6.5,11t17.5,6q28,8 46.5,20t28,28.5T336,523q0,20-12.5,29.5T294,567q-16,5-29,20t-13,41q0,27 22.5,46T325,693q47,0 76-29t29-76q0-41-15-74.5t-40-58T319,418t-64-13Z"/>
      <glyph unicode="&#x201e;" glyph-name="gid225" horiz-adv-x="444" d="M49-168q-27,0-27,17q0,8 6.5,11T46-134q28,8 46.5,20t28,28.5T130-50q0,20-12.5,29.5T88-6Q72-1 59,14T46,55q0,27 22.5,46T119,120q47,0 76-29t29-76q0-41-15-74.5t-40-58T113-155T49-168Zm206,0q-27,0-27,17q0,8 6.5,11t17.5,6q28,8 46.5,20t28,28.5T336-50q0,20-12.5,29.5T294-6q-16,5-29,20T252,55q0,27 22.5,46T325,120q47,0 76-29t29-76q0-41-15-74.5t-40-58T319-155t-64-13Z"/>
      <glyph unicode="&#x2022;" glyph-name="gid208" horiz-adv-x="379" d="M190,199q-43,0-78.5,21t-56,56T35,353q0,44 20.5,79t56,55.5T190,508t77.5-20.5T323,432t21-79q0-42-21-77t-55.5-56T190,199Z"/>
      <glyph unicode="&#x2039;" glyph-name="gid232" horiz-adv-x="369" d="M322,15q-11,0-21,8.5T286,36q-31,29-54,48t-45,33.5t-48,29T75,179q-16,8-23,18.5T45,219q0,12 12,17q46,28 76.5,47t53,35.5t45.5,36T286,402q5,4 15,12.5t21,8.5q7,0 7-11q0-4-2-8t-4-9q-35-51-57-80t-40.5-48T184,227q-7-6-7-8t7-8q23-21 41.5-40T266,123.5T323,43q2-4 4-8t2-8q0-12-7-12Z"/>
      <glyph unicode="&#x203a;" glyph-name="gid233" horiz-adv-x="369" d="M47,15q-7,0-7,12q0,4 2,8t4,8q35,52 57.5,80.5T144,171t41,40q8,6 8,8t-8,8q-23,21-41,40t-40.5,48T46,395q-2,5-4,9t-2,8q0,11 7,11q11,0 21.5-8.5T83,402q31-28 54-47.5t45.5-36t53-35.5T312,236q12-5 12-17q0-11-6.5-21.5T294,179q-37-18-63.5-32.5t-48.5-29T137,84T83,36q-4-4-14.5-12.5T47,15Z"/>
    </font>
</defs>
</svg>
