<?xml version="1.0" standalone="no"?>
<!DOCTYPE svg PUBLIC "-//W3C//DTD SVG 1.1//EN" "http://www.w3.org/Graphics/SVG/1.1/DTD/svg11.dtd">
<svg xmlns="http://www.w3.org/2000/svg">
  <defs>
    <font id="EBGaramond" horiz-adv-x="502">
      <font-face font-family="EB Garamond SemiBold" units-per-em="1000" panose-1="0 0 0 0 0 0 0 0 0 0" ascent="1007" descent="-298" alphabetic="0"/>
      <glyph unicode=" " glyph-name="gid205" horiz-adv-x="225"/>
      <glyph unicode="!" glyph-name="gid172" horiz-adv-x="297" d="M140,187q-10,0-13,10.5t1,36.5q10,51 20,100t19.5,92T184,501t11,49q7,26 19.5,48.5t30,36.5T283,649q17,0 28.5-14t14-38.5T315,538q-4-12-16.5-42T267,423.5T225.5,332T180,234q-10-20-19.5-33.5T140,187ZM84-14Q61-14 44.5,3T28,42q0,32 24.5,56T111,122q27,0 42.5-18.5T169,63q0-31-25.5-54T84-14Z"/>
      <glyph unicode="&quot;" glyph-name="gid203" horiz-adv-x="376" d="M145,420q-6,0-5,9.5t3,16.5q6,17 9.5,31t8.5,28q10,30 16,57.5T191,618q3,13 14.5,23.5T227,658q18,10 32,16.5t29,6.5q12,0 12-14.5T294,637q-9-25-23.5-51.5t-31-52.5t-32-47.5T179,449q-8-10-19-19.5T145,420Zm151,0q-6,0-5,9.5t3,16.5q6,17 9.5,31t8.5,28q10,30 16,57.5T342,618q3,13 14.5,23.5T378,658q18,10 32,16.5t29,6.5q12,0 12-14.5T445,637q-9-25-23.5-51.5t-31-52.5t-32-47.5T330,449q-8-10-19-19.5T296,420Z"/>
      <glyph unicode="#" glyph-name="gid179" horiz-adv-x="468" d="M-14-92q-6,0-9,5t-1,10l1,5L59,94L0,91q-8,0-11,5.5T-13,108q3,18 10,31.5t16.5,22T33,170l68,3l55,120l-64-3q-9,0-12.5,5.5T77,307q4,18 11,31.5t16.5,22T124,369l73,3l76,156q6,14 20,18t28,4q5,0 6.5-5t0.5-11q-1-2-2-3t-1-3L250,374l115,5l78,160q6,14 18.5,18t26.5,4q5,0 7-5t0-11q-1-2-1.5-3t-1.5-3L417,382l57,3q10,0 14.5-4.5T491,368q-2-12-10.5-26T461,317.5T439,306l-62-3L318,182l66,3q9,1 13.5-4.5T400,168q-2-12-10.5-26t-20-24T348,107l-68-3L201-59q-6-13-15-16.5T163-79q-5,0-9.5,5.5T150-63l1,4l79,160L113,96L31-72Q24-86 11.5-89T-14-92ZM152,175l116,5l58,121l-115-5L152,175Z"/>
      <glyph unicode="$" glyph-name="gid215" horiz-adv-x="528" d="M215-14q-33,0-64,4.5T92,6q-14,5-24,8.5T55,18q-6,0-13-2T30,11Q23,7 17,3.5T7,0Q2,0-7,7.5T-16,22T-5,52t23.5,57.5T36,182q3,15 7.5,21.5T59,210q12,0 14.5-13T76,155q0-34 14-65.5t42.5-51T204,19q42,0 74,17t49,45.5T344,142q0,24-8,44t-29,43.5T246,288q-49,42-75.5,83T144,473q0,54 30.5,97.5T259,639t122,25q30,0 56-5t46-11q21-6 34.5-10.5T541,633q14,0 24,5q6,4 12.5,6.5T590,647q9,0 11.5-7T600,626q-7-10-18.5-31T559,544.5T540,477q-2-12-7-19.5T520,450q-9,0-13,9t-4,27q0,67-34,106t-89,39q-37,0-64-17.5t-41.5-44T260,516q0-24 9.5-45T301,427t61-56q59-49 82-90.5T467,192q0-53-29.5-100T352,15.5T215-14ZM112-96q-11,0-14,8t0,17L426,707q5,11 17,15.5t26,4.5q8,0 10-7.5T476,701L146-81q-3-8-12.5-11.5T112-96Z"/>
      <glyph unicode="%" glyph-name="gid231" horiz-adv-x="702" d="M182,263q-40,0-64.5,24.5T88,356.5T101,459q13,39 40,75t65,59t81,23q40,0 63-24.5t27-67T365,429q-14-46-41-83.5t-63.5-60T182,263Zm6,29q21,0 38.5,21T258,366t24,63q9,29 15,57t7.5,50.5t-5,36T277,586q-20,0-38-21t-32.5-52T182,450q-9-31-15.5-59T159,340.5t5.5-35.5T188,292ZM79-24q-12,0-17,9.5T64,3L672,653q9,10 20.5,13.5T716,670q14,0 18.5-8T732,646L126-2q-11-12-22.5-17T79-24Zm399,7q-40,0-64.5,24.5T384,76.5T397,179q13,39 40,75t65,59t81,23q40,0 63-24.5t27-67T661,149q-14-46-41-83.5t-63.5-60T478-17Zm6,29q21,0 38.5,21T554,86t24,63q9,29 15,57t7.5,50.5t-5,36T573,306q-20,0-38-21t-32.5-52T478,170q-9-31-15.5-59T455,60.5T460.5,25T484,12Z"/>
      <glyph unicode="&amp;" glyph-name="gid237" horiz-adv-x="842" d="M416-14q-94,0-168.5,33.5T130,112.5T87,250q0,72 29,129.5T193.5,471T302,504q56-1 84-25.5T414,416q0-25-14-46t-38-33.5T307,324q-47,0-83.5,26t-58,72.5T144,530q0,53 28,96t75.5,68T352,718q50-1 79.5-27T461,620q0-24-14-38.5T411,567q-12,0-24.5,11.5T374,602q0,21-13.5,36T328,653q-36,0-64.5-16t-45-44.5T202,525q0-159 103-159q29,0 45.5,15T367,419q0,21-17.5,35T301,468q-67,0-105-46T158,302q0-54 28.5-101.5t91.5-77T445,94q90,0 151.5,31t93,83T721,321q0,52-30,88t-97,35q-35-1-57-22.5T515,370q0-19 12-32t34-13q10,0 17,7t13,14q6,8 13,14.5t19,6.5q24,0 36-12.5T670,323q0-28-20-47t-50-19q-56,0-91.5,31T473,368q0,51 23.5,85.5t63,52.5T646,524l83,1q79,0 114,24.5T878,627q0,27-16.5,42.5T825,685q-12,0-18.5-5.5T800,667q0-6 4-12t11-10q9-5 13-13t4-17q0-16-13.5-30T782,571q-27,0-42.5,18T725,632q0,22 11.5,41.5t34,31.5T824,717q41,0 69-30t28-89q0-44-20-80t-55-57t-83-22q-19-1-24-4t-1-9q17-28 24-58t7-66q0-96-45-167.5T599,24.5T416-14Z"/>
      <glyph unicode="&apos;" glyph-name="gid204" horiz-adv-x="225" d="M145,420q-6,0-5,9.5t3,16.5q6,17 9.5,31t8.5,28q10,30 16,57.5T191,618q3,13 14.5,23.5T227,658q18,10 32,16.5t29,6.5q12,0 12-14.5T294,637q-9-25-23.5-51.5t-31-52.5t-32-47.5T179,449q-8-10-19-19.5T145,420Z"/>
      <glyph unicode="(" glyph-name="gid182" horiz-adv-x="303" d="M124-215q-29,0-49,42Q51-119 39.5-56T28,73q0,122 41.5,237T188,523T369,692q21,14 38,14q16,0 16-11q0-4-3-9.5T409,673q-65-57-120-128.5T193,392T129.5,224.5T107,52q0-58 5-101.5T124.5-127T139-191q2-10-2.5-17T124-215Z"/>
      <glyph unicode=")" glyph-name="gid183" horiz-adv-x="303" d="M203,707q29,0 49-43q24-53 35.5-116T299,418q0-121-41.5-236T139-31T-42-201q-21-13-38-13q-16,0-16,10q0,4 3.5,9.5T-82-182Q-17-125 38-53.5T134,99t63.5,167.5T220,439q0,59-5,102t-12.5,77T188,682q-1,10 3,17.5t12,7.5Z"/>
      <glyph unicode="*" glyph-name="gid178" horiz-adv-x="353" d="M225,364q-14,0-18.5,11.5T204,402q2,8 4.5,19t5.5,22.5t6,21.5t4,14q-13-1-37-3.5T141,472q-12-1-22.5,4.5T108,492q0,12 9,19t18,8q6,2 17,5t22.5,6t21.5,5.5t15,3.5q-8,11-21.5,28T164,603q-8,11-8,22q0,10 6,16.5t15,6.5q7,0 14-4t11-10q15-15 28-28.5T256,578q7,19 14.5,36.5T287,652q4,9 11,15.5t16,6.5q13,0 18-10.5t3-25.5q-2-7-6-21t-8-29.5T313,559q9,1 26.5,4t34,5t24.5,2q12,0 20.5-5.5T427,549q0-9-7.5-17.5T401,521q-18-5-37-10.5T326,500q8-10 21-26t26-34q4-4 7-11t3-14q0-9-5.5-15.5T362,393q-5,0-12.5,3.5T337,405q-14,15-28.5,28T281,460q-5-13-13-34t-18-41q-3-9-10-15t-15-6Z"/>
      <glyph unicode="+" glyph-name="gid219" horiz-adv-x="595" d="M289-10q-4,0-8.5,4.5T276,5V211q0,9-9,9H60q-6,0-10.5,4.5T45,233q0,7 2.5,17T56,268.5T71,277H265q8,0 9.5,3t1.5,9V466q0,10 9,17.5t20.5,11T323,498t10.5-5.5T338,480V288q0-6 2-8.5t7-2.5H550q7,0 13.5-4t5.5-11q-2-13-10.5-27.5T536,220H347q-9,0-9-9V17q0-10-10-16.5T306.5-8T289-10Z"/>
      <glyph unicode="," glyph-name="gid168" horiz-adv-x="251" d="M-41-149q-10,0-16,3t-4,10q2,6 9.5,10.5T-33-118q28,10 50.5,25.5T52.5-57T65-17Q65-2 55.5,5.5T35,18T15,31.5T6,55q0,27 21,45.5T77,119q32,0 54.5-20.5T154,40q0-35-17-69T91-90T27.5-133T-41-149Z"/>
      <glyph unicode="-" glyph-name="gid188" horiz-adv-x="304" d="M34,166q-6-1-9,3.5T22,179q0,23 13.5,38.5T60,234q53,8 109,15.5T276,262q8,1 9.5-3t1.5-11q0-9-5.5-21t-14-21.5T250,194q-52-7-108.5-14.5T34,166Z"/>
      <glyph unicode="." glyph-name="gid167" horiz-adv-x="251" d="M61-25Q37-25 20-6.5T3,35Q3,59 15,79t31.5,32T89,123q29,0 44.5-20T149,59q0-22-11.5-41t-32-31T61-25Z"/>
      <glyph unicode="/" glyph-name="gid180" horiz-adv-x="277" d="M-45-61q-8,1-13,7t-2,12L337,646q8,13 19.5,16t26.5,2q10-1 13.5-8t0.5-13L-1-45Q-8-57-20-59t-25-2Z"/>
      <glyph unicode="0" glyph-name="gid135" horiz-adv-x="513" d="M220-14q-51,0-84,26T88.5,82.5T76.5,184T98,302q19,64 52,123t76,105t94.5,73.5T429,631q53,0 85.5-26.5t47-71.5t12-101T552,317q-20-66-53.5-125.5T421,85.5t-95-73T220-14Zm19,35q24,0 49.5,23t50,62t46,89T423,299q16,53 25.5,105t9.5,95t-12,68.5T408,593q-33,0-66-38.5t-62.5-101T228,319q-16-52-26-105t-11-96.5t10-70T239,21Z"/>
      <glyph unicode="1" glyph-name="gid136" horiz-adv-x="513" d="M44-3q-5,0-9,3.5T31,9q2,8 8,13t15,7q45,10 76,23.5T172,100L283,459q12,38-8.5,52T219,531q-6,2-12.5,6.5T202,550q2,11 12,16.5t20,6.5q37,3 72.5,11.5T376,606t64,26q4,2 9,3.5t7,1.5q6,0 9-3t1-8q-5-13-12-30t-15-42L296,93q-6-21 2-32t26.5-17.5T369,29q6-3 11-7t3-11q-1-6-7.5-9.5T362-2q-23,0-52,1T253,1T204,2q-22,0-50.5-1T96-1.5T44-3Z"/>
      <glyph unicode="2" glyph-name="gid137" horiz-adv-x="513" d="M377-4q-19,1-36,2T307,0T271,1T230,1q-28,0-61.5,0T103,0.5T43.5-1T0-3Q-9-3-7.5,6.5T1,23L221,203q59,49 98,93t59.5,86T399,463q0,47-24,67t-61,20t-69-20.5T186,477q-6-6-11.5-12.5T164,458t-7.5,6.5T156,479q3,19 21,44.5T224.5,574t68,42T374,632q71,0 111-35.5T525,508q0-41-18-78t-47.5-70T396,297q-17-15-46.5-38t-64-50t-66-51.5T167,117T143,99q-4-3 1-5.5T154,90q17-2 39-3t44-1q24,0 51.5,1T338,90q24,2 40.5,7.5t31,17T440,146q5,7 14,14.5t19,7.5q7,1 9-6.5T480,147q-16-23-28-41.5T431.5,72T416,44.5T403,19Q398,7 389,1.5T377-4Z"/>
      <glyph unicode="3" glyph-name="gid138" horiz-adv-x="513" d="M97-38Q53-38 30.5-26.5T8,4q0,21 8,35T40,53q6,0 17-5.5T80,35q14-10 32-17.5T149,10q50,0 88,29.5t59,76T317,212q0,35-15.5,58.5T251,294q-20,0-38-6.5T182,275q-7-3-13.5-0.5T162,285q0,12 9.5,21T194,322t22,11q27,12 56,28.5t53.5,37t40,45T381,496t-16.5,48T319,564q-40,0-68-21.5T201,489q-5-8-9.5-12t-9.5-4t-13,11t-8,20q0,11 17,31.5T224.5,578T292,614.5T371,629q40,0 69.5-13.5t45-37T501,527q0-27-15.5-51.5T445,429t-55.5-39.5T329,359q-3-1-4-3.5t3-3.5q33-2 61.5-17t46-40.5T453,234q0-40-22.5-79T370,81T285,19Q240-7 191.5-22.5T97-38Z"/>
      <glyph unicode="4" glyph-name="gid139" horiz-adv-x="513" d="M134-3q-5,0-9.5,3T121,9q2,8 8.5,13T145,29q47,7 65.5,19T238,88l20,66q2,8-1.5,11t-9.5,3q-34,0-71.5-2T98,162.5T17,160q-4,0-6,6.5T13,177q12,12 18.5,18t12,11T57,220L422,609q11,12 25.5,22.5T472,642h23q4,0 1.5-4t-6-8.5T486,624L136,250q-6-6-5-9t6-3H275q3,0 6.5,2t4.5,4l45,146q4,16 8.5,21.5T354,421q26,12 53,15t36,3q18,0 15.5-18T444,367L405,240q-2-7 3-7q12-1 19-1t16,0q15,0 27.5,0.5T500,234q5,0 7.5-2t1.5-6q-3-8-11-22t-16.5-25.5T469,167q-11,0-22.5,0.5T423,168q-9,0-15,0t-12-1q-7-1-11-3.5t-6-8.5L360,92q-9-30 1-42.5T409,29q7-3 10.5-6.5T421,11q-1-6-7-9.5T400-2q-23,0-45,1T312,1T270,2q-33,0-67-2.5T134-3Z"/>
      <glyph unicode="5" glyph-name="gid140" horiz-adv-x="513" d="M69-38Q37-38 23.5-21T10,14q0,12 4.5,20.5T26,43q16,0 27-10T86,14q11-4 22-6.5T137,5q33,0 66.5,10.5t61,31.5t44,53T325,175q0,34-15.5,59t-46,47T185,327q-24,13-32.5,19.5T144,364q0,5 1,8.5t2,7.5q5,15 17,38.5T191.5,468T220,516t20,33q12,21 26,30.5T297,593q21,5 50.5,10t62,10.5t61,9.5t45.5,6q14,0 14-17q0-7-7-23t-18.5-33.5t-26-30T448,512q-18-1-45-3t-56-2.5t-52-2T263,501q-7-1-16-11t-17-22t-11-18q-4-11 6-16q59-22 108.5-50t79-65T442,231q0-58-32-107T324,38.5T203.5-18T69-38Z"/>
      <glyph unicode="6" glyph-name="gid141" horiz-adv-x="513" d="M215-14Q126-14 87,31T49,144q2,69 33,136.5T166,409T286,520t140.5,84T570,651q14,2 24.5,0.5T605,643t-4.5-11.5T582,624q-55-17-113.5-54.5T356,481T259,371.5T190.5,254T165,143q0-56 20-86.5T249,26q33,0 60.5,22t44,59T368,191q0,38-20,57t-46,19q-12,0-24-3.5T253,254q-18-8-18,0t12,20q17,19 39,33.5T331,331t42,9q48,0 78-32t31-81q0-42-21-84.5t-58-78t-85-57T215-14Z"/>
      <glyph unicode="7" glyph-name="gid142" horiz-adv-x="513" d="M72-30q-12,0-19,8T47-1q1,7 14,21.5T85,47L477,503q5,6 4,9t-10,3H258q-26,0-45-8.5T175,477q-6-6-18.5-16.5T131,450q-12,0-10,12t10,25q15,30 32,62.5T188,607q3,9 10.5,12t11.5,3q10-1 32-2.5t47-3.5q21,0 48.5-0.5t55-0.5t47.5,0q39,0 73.5,0.5T574,617t39,2q5,0 9-6.5t2-12.5q-5-9-21-27t-35-40L102,0Q94-9 84.5-19.5T72-30Z"/>
      <glyph unicode="8" glyph-name="gid143" horiz-adv-x="513" d="M196-13q-51,0-86.5,18t-54,48T36,118q0,46 21,78.5t63,58T224,306q10,4 7.5,7t-7.5,9q-18,25-34.5,46t-26,42T154,456q0,31 18,61.5t49.5,56t72,40.5T379,629q48,0 80-16t48.5-41.5T524,519q0-23-12-48t-38.5-50T405,371q-9-4-20-10.5T365,349q-11-6-11-9t7-10q40-45 65-81.5T451,164q0-34-20-66T376,41T294.5,1.5T196-13Zm15,33q49,0 84.5,32T331,141q0,33-17,66t-48,70q-4,5-6.5,7.5T253,287q-3,0-14-7q-41-28-63-53.5T145,173t-9-64q1-21 9.5-41.5t25-34T211,20ZM342,367q27,19 46,46.5t29,58T427,526q0,31-16,51t-52,20q-27,0-49.5-14.5t-36-38T260,491q0-31 16.5-61T321,369q5-5 9.5-6t11.5,4Z"/>
      <glyph unicode="9" glyph-name="gid144" horiz-adv-x="514" d="M42-21q-13-1-23.5,1.5T8-11Q8-3 13,1.5T34,9q45,6 93,29t94,59t86.5,81t71,95T427,376t18,104q0,46-20,77.5T365,589q-32,0-60-22t-44-58t-15-76q0-37 20-60.5T312,349q19,0 30.5,5T367,364q17,8 17-2q0-2-2.5-7.5T374,344q-18-20-40-34q-11-7-26.5-15t-32-13T245,277q-48,0-79.5,29.5T134,386q0,38 24,80.5T222,546t90,60t102,23q42,0 72.5-22.5t48-59.5T552,465q0-48-20.5-101T474,258T388,156.5t-106-87T164,7T42-21Z"/>
      <glyph unicode=":" glyph-name="gid169" horiz-adv-x="251" d="M146,251q-24,0-41,18.5T88,311q0,24 12,44t31.5,32T174,399q29,0 44.5-20T234,335q0-22-11.5-41t-32-31T146,251ZM61-25Q37-25 20-6.5T3,35Q3,59 15,79t31.5,32T89,123q29,0 44.5-20T149,59q0-22-11.5-41t-32-31T61-25Z"/>
      <glyph unicode=";" glyph-name="gid170" horiz-adv-x="251" d="M-41-149q-10,0-16,3t-4,10q2,6 9.5,10.5T-33-118q28,10 50.5,25.5T52.5-57T65-17Q65-2 55.5,5.5T35,18T15,31.5T6,55q0,27 21,45.5T77,119q32,0 54.5-20.5T154,40q0-35-17-69T91-90T27.5-133T-41-149ZM146,251q-24,0-41,18.5T88,311q0,24 12,44t31.5,32T174,399q29,0 44.5-20T234,335q0-22-11.5-41t-32-31T146,251Z"/>
      <glyph unicode="&lt;" glyph-name="gid225" horiz-adv-x="595" d="M511-2L89,191q-15,7-30.5,16T43,221q0,7 10,24.5T80,270L506,467q11,5 18.5,0t7.5-17q0-14-9.5-27T497,402L135,237q-3-1-3-3.5t3-4.5L500,64q16-7 24-21.5T532,17q0-12-7.5-16.5T511-2Z"/>
      <glyph unicode="=" glyph-name="gid223" horiz-adv-x="619" d="M72,315q-6,0-10.5,4.5T57,328q0,5 2,15t8,18t16,8H574q7,0 13-3.5t6-9.5q0-11-10-26t-22-15H72Zm0-177q-6,0-10.5,4T57,150q0,6 2,16t8,18t16,8H574q7,0 13-4t6-10q0-12-10-26t-22-14H72Z"/>
      <glyph unicode="&gt;" glyph-name="gid224" horiz-adv-x="595" d="M82,2Q73-2 65.5,2T58,21q0,12 9.5,25.5T92,67L454,232q4,1 3.5,3.5T454,239L89,405q-16,7-24,22t-8,27q0,7 3.5,13T72,473q1,0 2.5-0.5T77,471L499,276q15-7 31-16t16-14q0-7-10-24.5T508,196L82,2Z"/>
      <glyph unicode="?" glyph-name="gid174" horiz-adv-x="364" d="M160,177q-5,0-17.5,13t-23,33.5T109,264q0,31 10.5,57T161,370.5T256,418q48,17 78,42.5T364,523q0,30-19,47.5T287,588q-13,0-24.5-6T241,572q-8-4-17-8t-18-4q-15,0-24.5,9.5T172,597q0,28 25,46t59,18q41,0 73.5-23T382,574.5T402,480q0-30-12.5-57.5t-34-47.5T307,342l-92-40q-28-13-37.5-26T168,243q0-9 1-17t3-15t4-13.5t2-11.5q0-6-6-7.5T160,177ZM132-14Q111-14 96,2.5T81,40q0,31 23,54.5T157,118q26,0 40-18t14-39q0-30-23.5-52.5T132-14Z"/>
      <glyph unicode="@" glyph-name="gid236" horiz-adv-x="782" d="M299-149q-87,0-150,30.5T52.5-34T19,88T43.5,220T112,340t104,97.5T348.5,503T499,527q60,0 108.5-18T691,459.5T744.5,388T763,306q0-52-21.5-101.5t-60-89.5T593,51T486,27q-22,0-33.5,8T437,55.5T433,76q0,12-4,11t-12-7q-9-7-28-18.5t-45-21T289,31q-53,0-81.5,29.5T180,133q0,46 23,90t64,78.5t95.5,55T479,375q14,0 27.5-2t27.5-6q11-3 17.5-5t10.5-3q9,0 18,11t17,11q3,0 11-1.5t15.5-3.5t5.5-5q-15-21-29-45.5T579,286L507,137q-9-18-8.5-35T523,85q50,0 89.5,30.5t62.5,80T698,299q0,51-25,91t-74,63T478,476q-70,0-139-28.5t-126.5-79T121,252T87,112Q87,45 116.5-1.5T199-72T323-96q70,0 130,18.5T562-27q11,6 20,10.5T597-12t10-4t3-12q-1-10-27.5-30t-70-41T414-134.5T299-149ZM331,78q17,0 33.5,7T398,104q10,7 20,17.5T439,155l54,110q5,11 7.5,20t2.5,16q1,18-14,26.5T439,336q-37,0-68-17.5T318,273t-34-60.5T271,150q0-32 16.5-52T331,78Z"/>
      <glyph unicode="A" glyph-name="gid1" horiz-adv-x="717" d="M-41-5Q-52-5-58-1.5T-64,10q1,9 9.5,14T-34,32q23,6 47,15T59.5,70.5T98,103q69,77 131.5,150.5T353,400.5T476,549q16,18 27,35t18,28.5T534,624q23,0 41,5.5T608,646q16,12 27,20t18,8q9,0 10.5-14T661,623L560,117q-8-39 4.5-58T610,30q13-4 21-7.5T639,10q0-6-9.5-9.5T608-3q-17,0-42,1T514.5,0.5T466,2q-19,0-43.5-1t-48-2T333-2q-20,0-20,14q0,8 8,13.5T340,33q28,6 45,13.5t27.5,21T428,104l31,120q3,12-3.5,17T439,246l-139-1q-12,0-20-4.5T266,228L186,123q-22-29-26-46.5t7-27T199,34q9-3 17-8t8-14q-1-7-10-10.5T193-2q-24,0-49.5,1.5T90,1Q60,1 23.5-2T-41-5ZM338,287H454q10,0 14.5,4t7.5,15l47,219q3,9 3,14t-5,5q-2,0-6.5-2t-8.5-7L325,307q-8-10-8-15t21-5Z"/>
      <glyph unicode="B" glyph-name="gid10" horiz-adv-x="609" d="M-16-5Q-35-5-35,7q0,7 8.5,12.5T-4,28Q33,38 52.5,51T83,97L223,550q11,35 1,48.5T183,619q-12,3-16.5,7t-4.5,9q0,8 9,13t20,5q26,0 43-1.5t32-3.5t36-2q20,0 39.5,2.5t41,4T429,654q65,0 106.5-16t62-45T618,526q0-33-16-60t-42-47.5t-58.5-34T436,364q-6-1-6.5-4.5T433,354q58-20 93.5-56.5T562,195q0-51-23.5-88.5t-66-62T374.5,8T256-4q-40,0-71.5,2.5T119,1Q97,1 75-0.5t-45-3T-16-5ZM262,26q31,3 61.5,19.5t55,44t39,60.5T432,219q0,53-30,85t-88,32q-17,0-25.5-5T276,314L212,103q-4-14-3.5-29T217,50q7-9 18-16.5T262,26Zm60,340q23,0 42.5,5T405,382q40,24 68.5,61.5T502,533q0,36-25.5,64.5T408,626q-21,0-31.5-6T361,598L300,388q-6-22 22-22Z"/>
      <glyph unicode="C" glyph-name="gid11" horiz-adv-x="654" d="M321-14q-48,0-94,19T145,59T87.5,142T66,247q0,90 34.5,166T195,545.5T333.5,633T500,664q32,0 59.5-5.5T610,645q19-6 31.5-10t23.5-4q6,0 11.5,1.5T689,637q7,4 14,7t13,3q9,0 10.5-6.5T723,626q-12-16-26.5-44T670,523t-19-55q-2-9-7.5-15.5T630,446q-10,0-13.5,12T614,486q3,23-1,46t-19,43q-16,24-41,39.5T498,630q-49,0-94-24.5t-82-67T257,441T213.5,324.5T198,201q0-48 12.5-81.5t34-55.5t50-32T355,22q44,0 79,17.5t65,48T556,157q7,10 12.5,17t12.5,7t10.5-7t1.5-17q-4-17-14-45T556,56.5T531.5,10T514-9q-8,0-13,3.5T491,2T479,8.5T460,11q-10,0-22-3.5T410-1q-16-4-38.5-8.5T321-14Z"/>
      <glyph unicode="D" glyph-name="gid13" horiz-adv-x="739" d="M309-7q-26,0-63,2.5T173.5,0T114,2Q95,2 73.5,1T29-2T-17-4q-9,0-14,3.5T-35,9q3,17 30,20q29,4 45.5,11.5T66.5,62T83,98L228,555q7,24-0.5,35.5t-24,18T163,620q-11,2-15,7.5T146,641q1,6 9.5,9.5T172,654q36,0 74.5-2t68.5-2q20,0 38,1t39.5,2t51.5,1q94,0 160.5-34.5t102.5-96T743,381q0-77-32.5-147T619,110T481,24.5T309-7Zm2,34q61,0 115,32t95,85.5T585.5,264T609,399q0,78-21,126t-59.5,70.5T438,618q-30,0-45.5-4.5t-23-15T357,572L221,129q-11-38-1-60.5t35-32T311,27Z"/>
      <glyph unicode="E" glyph-name="gid15" horiz-adv-x="574" d="M-28-5Q-39-5-43-1T-47,9q2,13 31,19Q26,38 45,51T74,97L213,550q12,37 1.5,50.5T167,621q-13,3-18,8t-3,11q1,7 10.5,10.5T184,654q11,0 32.5-1t46-2.5T307,649l164,1q49,0 76.5,3t41,6t18.5,3q6,0 10.5-5t4.5-13q0-10-6-30t-13-44.5T595,521q-1-10-6.5-15T578,501q-4,0-8.5,5.5T564,522q-2,52-14.5,74T498,618H405q-24,0-38-12t-24-47L289,379q-5-15-1-21t18-6l102,2q26,0 43.5,14T483,404q6,9 14,16.5t16,7.5q6,0 7.5-7T517,403q-9-20-16-38t-13-35q-6-18-10.5-37T468,251q-3-11-7.5-17.5T451,227q-7,0-11,8.5T436,252q1,31-7,47t-27,16l-105,1q-13,0-23-5.5T260,289L209,112q-12-43-1.5-61T254,33H364q22,0 42.5,7T444,59q19,13 35,35.5T511,142q5,7 8.5,11t9.5,4t8-6t2-16t-8-33T512,53.5T489,12q-5-9-12.5-12.5T459-4q-21,0-53,0.5t-70.5,1t-79,1T177-0.5T105,0Q84,0 61-1T16-3.5T-28-5Z"/>
      <glyph unicode="F" glyph-name="gid20" horiz-adv-x="527" d="M-12-4q-9,0-14,3T-30,9q1,9 9,13.5T0,29q39,8 56.5,21.5T85,98L224,550q11,34 1.5,48T185,619q-15,4-19,9.5T163,640q1,7 9.5,10.5T194,654q21,0 57-2t67-2H477q69,0 104,6.5t45,6.5q7,0 11.5-3.5T640,647q0-5-1.5-10.5T635,624q-5-19-14.5-47.5T606,517q-1-8-5-13.5T590,498q-6,0-9,5.5T578,518q0,22-3,41t-12,32q-8,12-21.5,18.5T509,617H417q-22,1-36-10.5T361,578q-3-7-11-33.5t-18.5-60t-19.5-63T299,379q-3-11 1.5-20t26.5-9l76,1q54,1 88,50q6,9 13.5,14t12.5,5t8-5t-1-14q-17-40-27.5-71.5T478,260q-3-12-7.5-17.5T461,237q-7,0-11,7.5T446,260q0,30-9.5,42T410,314q-10,0-30.5,0.5T339,315t-28,0q-17,0-28-7t-15-22L215,105q-8-27-4.5-42t20-22T277,29q11-1 15-5.5T295,10q-1-7-8.5-10T270-3q-23,0-49,1.5T170,1T125,2Q93,2 58-1T-12-4Z"/>
      <glyph unicode="G" glyph-name="gid21" horiz-adv-x="713" d="M355-14Q285-14 227.5,8T131,72.5T77,176T76,314q10,73 47,136.5t96,111t135,75T517,664q34,0 59.5-6.5T621,644q17-6 28.5-10t23.5-4q7,0 13,2t12,5q7,5 13,7.5t13,2.5q10,0 11-7t-4-14q-12-16-26.5-43t-26-56.5T660,472q-2-10-7.5-16.5T639,449q-21,0-17,37q3,28 0,52.5T604,583q-14,19-39.5,33.5T505,631q-53,0-102.5-26T312,531.5t-71-114T197,271q-10-55 0.5-101t36-80T295,37.5T373,19q41,0 67.5,25T477,102l31,110q4,15 1,24t-17,15q-13,5-29,8.5T437,265q-9,2-17,6.5T413,284q1,7 10,11t19,4q22,0 47-2t48.5-4t45.5-2q27,0 52.5,4t62.5,4q19,0 16-15q-2-8-9-13t-19-7q-28-6-41-16.5T622,217q-9-16-18-40t-15-44t-6-27q0-10 4.5-18.5T600,69q-7-16-35-31T499,11.5T422.5-7T355-14Z"/>
      <glyph unicode="H" glyph-name="gid22" horiz-adv-x="770" d="M-17-4q-8,0-13,3.5T-34,9q1,8 8.5,13T-5,30q35,8 51,18.5T70,86L215,551q10,33 4,47t-39,22q-11,2-15,7.5T163,641q1,6 9,9.5t17,3.5q23,0 43.5-1t39.5-2t38-1t40.5,1t44.5,2t46,1q19,0 17-14q-2-8-10-12.5T427,620q-28-6-44.5-15t-26-22T341,550L283,362q-3-12 11-12H570q11,0 15,14l57,187q9,29 1,43t-43,26q-11,3-15,7.5T583,640q1,7 8,10.5t17,3.5q22,0 45-1t45-2t42-1q19,0 37,1t38,2t43,1q9,0 14.5-3.5T876,641q-3-16-31-21q-37-8-51-23t-24-46L627,90q-8-28 0-41t38-20q11-2 15.5-7T683,9q-1-6-9.5-9.5T657-4q-22,0-42,1.5T575,0T536,1T495,0T450-2T404-3q-19,0-17,13q2,8 10,12t21,7q37,9 56.5,24T503,98l59,192q3,7 3,11.5t-7,4.5H278q-12,0-16-14L204,101q-10-35 1.5-48T250,29q11-3 15.5-7T268,10q-1-7-8-10T243-3q-23,0-46,1T152.5,0T110,1Q90,1 69,0T26.5-2.5T-17-4Z"/>
      <glyph unicode="I" glyph-name="gid23" horiz-adv-x="372" d="M-16-4q-9,0-14,3.5T-34,9q3,15 30,20q39,9 59.5,22.5T86,97L226,551q10,33 1,46.5T182,620q-11,2-15,7.5T165,641q1,6 9,9.5t17,3.5q23,0 45-1t43-2t42-1q20,0 41.5,1t44.5,2t46,1q20,0 17-14q-2-8-9.5-12.5T439,620q-27-6-44-14t-27-21t-16-35L221,122q-10-32-10-50t11.5-26T256,32q20-4 25.5-9T286,10q-1-7-8.5-10T261-3q-23,0-47.5,1t-48,2T121,1Q89,1 54-1.5T-16-4Z"/>
      <glyph unicode="J" glyph-name="gid28" horiz-adv-x="350" d="M-78-200q-63,0-89.5,17T-194-144q0,26 8.5,43T-161-84q11,0 25.5-12.5T-104-123q16-14 32.5-26T-39-161q18,0 33,16.5t31,54T60,11L226,551q10,33 1.5,47T183,620q-11,2-15,7.5T166,641q1,6 9,9.5t17,3.5q23,0 45-1t43-2t42-1q18,0 38.5,1t42.5,2t45,1q19,0 16-14q-2-8-9.5-12.5T434,620q-27-6-42.5-14T368,585t-15-35L212,93q-14-48-29-82T152-48T118.5-92T82-129Q47-160 7-180t-85-20Z"/>
      <glyph unicode="K" glyph-name="gid29" horiz-adv-x="741" d="M-10-6Q-20-6-27.5-1.5T-33,9q3,15 33,20q40,8 56.5,22T83,99L222,551q11,33 1.5,47T179,620q-11,2-14.5,6.5T161,637q0,8 9.5,12.5T193,654q20,0 41-0.5t41-2t40-1.5q19,0 39.5,1t42.5,2t45,1q19,0 19-11q0-10-9.5-15T429,620q-28-6-43-13.5t-22.5-20T349,550L293,367q-2-9 1.5-12t12.5-3q17,0 37,11.5T387,396L563,557q12,11 19.5,19.5T591,592q3,8-6.5,14.5T561,616q-12,3-17.5,7.5T538,636t9.5,11.5T567,651h67q46,0 91,1.5t91,1.5q20,0 20-13q0-8-12-13t-25-7q-46-6-85.5-21T638,557q-37-28-72.5-57.5T494,438t-74-68q-8-7-9-13t3-13q52-103 92.5-164T578,85q22-22 43-33.5T666,32q13-4 21.5-8.5T696,10q0-7-9-11T662-5q-29,0-51.5,1.5T564-0.5T505,1q-18,0-33.5-0.5T439.5-1T401-2q-9,0-16,4t-7,10q0,9 9,14t22,7q18,4 23,12t2,19t-9,24L316,293q-7,15-17,22t-14,7q-6,0-8-5t-4-10L214,103q-9-34-2-49t41-25q11-3 17-6.5T276,11T265-0.5T243-4q-29,0-48.5,2t-36,3.5T122,3Q90,3 63-1.5T-10-6Z"/>
      <glyph unicode="L" glyph-name="gid30" horiz-adv-x="580" d="M-14-5Q-24-5-28.5-1T-32,9q2,13 30,19Q35,38 58,51T91,97L232,555q10,34 1.5,45T190,620q-11,2-15,7.5T172,641q1,6 9,9.5t17,3.5q23,0 45-1t43-2.5t41-1.5q21,0 45,1.5t48.5,2.5t46.5,1q19,0 17-14q-2-9-10-12.5T452,621q-28-5-46-12.5t-29-19T360,558L232,136q-17-56-8-78.5T265,35h50q47,0 80.5,10.5T451,74q25,19 42.5,43T527,170q4,7 8.5,11t10.5,4q5,0 7.5-5t2.5-11q0-12-6-33T535,91T516.5,46T499,13q-4-7-9.5-12.5T476-5q-34,0-77.5,1t-92,1.5T210.5-1T122,0Q89,0 54-2.5T-14-5Z"/>
      <glyph unicode="M" glyph-name="gid32" horiz-adv-x="989" d="M368-14q-5,0-9,6.5T355,10q2,119-2.5,234.5T342,477q-1,15-9,13t-15-18q-40-79-76-157T176,158q-17-44-20.5-70.5T160,48t26-18q11-2 18.5-6T211,11q-1-6-11.5-9.5T180-2q-27,0-42,1T110,0.5T75,1Q55,1 35.5-0.5T0-3T-27-4Q-51-4-48,8q1,8 10.5,11.5T-14,27q26,7 46,18T72,81t43,72L294,511q17,34 18.5,55.5T294,602t-65,22q-16,3-23.5,6.5T198,643t12,12t26,3q20,0 53.5-1t69.5-2.5t59-1.5q21,0 28-11.5t7.5-31.5t0.5-45l12-366q1-15 7-15t16,11q58,60 112,126T705.5,452T800,574q13,21 21.5,35.5T838,637t21,13h44q20,0 42.5,2t43.5,4t35,2q12,0 20-3t8-11q0-9-11.5-15.5T1003,617t-42.5-14.5t-26-27T916,528q-27-98-50.5-200.5T822,123q-9-44 4-65t43-28q11-2 16.5-6T890,11q-1-5-9-9T863-2q-23,0-48,1.5T765.5,3T720,5T677.5,3T634-1T588-3q-10,0-15.5,3.5T569,11q1,7 10,12t21,8q37,9 54.5,23T682,100q20,65 36.5,124T750,341t29,119q2,6-1.5,6t-9.5-6L499,148L393,7q-6-8-13.5-14.5T368-14Z"/>
      <glyph unicode="N" glyph-name="gid33" horiz-adv-x="778" d="M9-4Q0-4-6.5-0.5T-12,9q2,8 9.5,12T18,29q38,9 58,28t30,49L251,517q13,34 10.5,56t-22,34.5T181,622q-15,2-23.5,7T149,643q0,8 10.5,11.5T178,658q24,0 53-1t59-2.5t55-1.5q11,0 19-5t12-15L585,179q2-4 6-9.5t8-5.5q6,0 13,16q3,9 10,30.5t16.5,52t19.5,65T678,397t17.5,65.5T707,514q12,53-7,75.5T629,621q-21,3-20,16q0,7 9.5,10.5T638,651q34,0 62-2.5t49-2.5q20,0 37,1.5t37,3t46,1.5q21,0 21-13q0-7-11-12t-25-7q-24-3-40-11t-27.5-27T763,528q-5-14-14-41.5t-20.5-64t-25-76.5t-26-79t-23-73T637,138q-7-25-5.5-38.5T642,68q6-11 13.5-19.5T670,34q8-7 13.5-11T689,11q0-7-4-9T673,0q-24,0-41-1.5t-30-3T574-7Q550-7 537.5,3.5T515,38q-12,26-29,65.5t-36.5,86t-40,94.5t-39,91t-33,75.5T314,499q-4,6-8,11t-8,5t-9-7.5T280,490q-11-35-27.5-82.5T219,306.5T187,201t-25-96q-8-33 5.5-49.5T221,29q12-2 19-6.5T245,10q-1-7-10-10T216-3q-26,0-41.5,1T147,0T119,1Q97,1 76,0T37.5-2.5T9-4Z"/>
      <glyph unicode="O" glyph-name="gid35" horiz-adv-x="693" d="M297-14q-72,0-124,33.5t-80.5,92T64,242q0,78 29.5,153.5t83.5,136T305,628t164,36q72,0 124.5-33.5T674,539t28-131q0-78-29.5-153T589,119T461,22T297-14Zm1,35q47,0 89,28.5t78,76T527,231t40,117.5T581,460q0,45-11.5,84t-37,63.5T467,632q-46,0-88-28.5T302,527T240.5,420.5T199.5,302T185,189q0-44 11.5-82T233,45t65-24Z"/>
      <glyph unicode="P" glyph-name="gid43" horiz-adv-x="605" d="M-4-4q-8,0-14,3.5T-24,9q0,8 10,13T9,29q39,9 58.5,22.5T97,98L235,545q12,37 0.5,54T184,622q-13,3-19,7.5T161,640q1,7 11,10.5t20,3.5q14,0 36-1t45-2t40,0q14,0 34.5,1.5t44,3T435,657q68,0 117-24t75-65.5T652,469q-1-49-24-91t-63-73t-92-48T362,240q-19,0-31.5,4.5T318,259q0,6 7,9.5t16,4.5q11,2 22,4t24,5q44,10 76.5,38.5t50,69.5T531,477q0,52-15,84t-42.5,46T410,621q-9,0-15.5-4.5t-13-18T365,556L226,104q-12-35 2-50.5T281,29q12-2 18-6.5T305,10q0-7-10.5-10T273-3q-23,0-48,1.5T177,1T135,2Q103,2 67.5-1T-4-4Z"/>
      <glyph unicode="Q" glyph-name="gid45" horiz-adv-x="699" d="M559-281q-55,0-110.5,25.5T341-201q-48,26-95,46.5T155-134q-17,0-32-2t-26-7q-14-5-26-12t-21-7q-8,0-11.5,3.5T35-148q0,12 20,25t51.5,27t67,27.5t67,26.5T293-19q98,50 162.5,123T552,267.5T584,460q0,48-12.5,85.5T533,605t-69,22q-46,0-87.5-27.5T300,526T239.5,422.5t-40-118T185,189q0-43 14.5-82t49-64.5T345,17q10,0 20,0.5T386,20L351-11q-8,0-21.5-1.5T302-14q-73,0-126.5,33.5t-82,92T65,242q0,78 29,153.5t83,136T305,628t165,36q72,0 124.5-33.5T676,539t29-131T676,265.5T593,136T464,29Q420,1 382.5-19.5T301-58.5T192-97l-9,7q21,10 44,15t44,5q39,0 85.5-18.5T447-130q49-26 93-48t77-22q30,0 54,14t40,36q11,15 19,15.5t11-7T740-159q-9-19-27-40.5t-42.5-40t-53.5-30T559-281Z"/>
      <glyph unicode="R" glyph-name="gid46" horiz-adv-x="734" d="M0-4Q-9-4-14.5-0.5T-19,9q3,15 31,20q39,8 58.5,22T100,98L239,547q9,28 7.5,42t-15,20.5T189,620q-13,2-20.5,6.5T161,639t12.5,11.5T197,654q20,0 41-1t40.5-2.5T314,649q22,0 41.5,1.5T397,654t48,2q61,0 104.5-17.5t67.5-51T641,508q0-50-25.5-87.5t-65-62T466,322q-11-3-6-14q9-23 20.5-49T505,207t24-49t21-42q17-36 40-55t55-21q13-1 24-4.5T680,21q0-15-24-19T576-2q-43,0-72,8.5t-46,25T432,69q-13,30-25.5,61.5t-24.5,64T359,259q-8,21-17.5,30.5T313,299q-15,0-21-4.5T283,280L228,104q-10-33 1-49.5T276,29q12-2 16-6.5T295,10q-2-7-8.5-10T270-3q-23,0-46.5,1.5T178.5,1T138,2Q105,2 70-1T0-4ZM346,323q30,0 60,12t55,36t40,60.5T516,517q0,45-26.5,77T423,626q-12,0-21-5t-17-23t-20-56L312,361q-6-21 2.5-29.5T346,323Z"/>
      <glyph unicode="S" glyph-name="gid47" horiz-adv-x="507" d="M207-14q-32,0-62,4.5T88,6q-14,5-23,8.5T53,18q-7,0-13-2T29,11Q22,7 16.5,3.5T6,0T-7.5,7.5T-16,22T-5.5,52t23,57.5T35,182q4,28 22,28q12,0 14.5-13T74,155q0-34 13-64.5t40-49T195,23q62,0 99,33.5T331,143q0,24-7.5,44T296,231t-59,58q-46,42-72.5,83T138,473q0,54 29.5,97.5t81,68.5T366,664q28,0 53-5t45-11t33-10.5t23-4.5q13,0 23,5q6,4 12,6.5t12,2.5q10,0 12-7t-2-14q-7-10-18-31t-21.5-50.5T519,477q-3-12-8-19.5T498,450t-11.5,9T483,486q0,67-32.5,105T365,629q-35,0-61-17t-40-43t-14-53q0-24 8.5-45.5t29-44.5T346,369q57-48 80-89t23-88q0-53-28.5-100T338,15.5T207-14Z"/>
      <glyph unicode="T" glyph-name="gid48" horiz-adv-x="658" d="M136-4q-9,0-15,3.5T116,9q2,8 11,12.5T149,29q39,8 61,22.5T242,99L370,526q16,55 15,71t-17,16H309q-40,0-71-19t-53-43q-8-9-19-21t-22-21t-19-9t-9.5,4T114,515q1,5 4,12.5t9,16.5q23,30 37,57.5T189,661q4,11 10.5,17.5T213,685q8,0 17-7t17-13q7-5 14.5-9t24.5-7t49-3l304,1q38,0 58.5,2.5t30,6T741,662q14,6 24,14t18,8q13,0 9-14q0-5-3-11.5T783,647q-13-23-26.5-55.5T733,521q-4-14-8.5-20.5T713,494q-9,0-12.5,8T697,526q-1,43-16.5,65T625,613H558q-15,0-24.5-6.5T516,581t-20-56L368,100q-9-32 3.5-47T419,29q11-3 16-7t4-12q-2-7-9.5-10T412-3q-22,0-46,1T319.5,0T277,1q-22,0-45.5-1t-48-2.5T136-4Z"/>
      <glyph unicode="U" glyph-name="gid49" horiz-adv-x="708" d="M310-14Q251-14 205.5,4T132,56.5t-34,84T111,254l88,287q10,30 3,51t-27,27q-27,8-25,22q2,6 12.5,9.5T185,654q27,0 56.5-2t57.5-2q26,0 58.5,1.5T414,653q26,0 22-13q-2-10-16.5-14.5T387,614q-17-6-34-25.5T324,532L232,237q-18-60-5.5-102t46-64T350,49q61,0 107,30t78.5,79T585,264q14,42 26,80t21.5,68T646,458q17,60 18,91t-9,46t-28,23q-10,4-22,8.5T595,639q1,8 10.5,11t22.5,3q20,0 37-0.5t32.5-1T729,651q17,0 30,0.5t25,1.5t28,1q12,0 18-2.5t4-10.5q-3-13-35-21q-21-5-35-14.5T738.5,577T713,521q-23-65-43.5-130T625,256q-26-80-66.5-141T458,20T310-14Z"/>
      <glyph unicode="V" glyph-name="gid54" horiz-adv-x="712" d="M187-16q-27,0-33.5,28.5T157,95q26,138 44,249t28,208q2,29-6,44.5T185,619q-15,4-23,8.5T154,640t9,11.5t23,3.5q27,0 62.5-2.5T314,650q19,0 43,1t47.5,1.5T445,653q10,0 17-3t6-10q-2-8-12.5-13.5T433,619q-33-6-48.5-18T363,554L294,161q-2-10-1-14t4-4t6,5.5T314,163L573,477q41,48 52.5,77.5T629,599t-27,20q-12,3-18.5,8T578,640q1,7 11.5,10t20.5,3q24,0 48-1t52-1q30,0 52,3t49,3q12,0 20-4t8-11q0-9-12.5-13.5T801,620q-29-8-59-27t-57-52L320,118q-17-21-36.5-43.5T244.5,31T210-3T187-16Z"/>
      <glyph unicode="W" glyph-name="gid55" horiz-adv-x="1097" d="M200-16q-16,0-23.5,17.5t-8.5,45t4,55.5q9,57 18.5,114t18,114t16,110T237,540q4,29 1,44t-15,22.5T189,619q-16,4-25.5,8T154,640q0,8 10,11.5t26,3.5q26,0 58.5-2.5T314,650q19,0 44.5,1t49.5,1.5t41,0.5q10,0 18-3.5t7-9.5q-2-9-14-14t-24-7q-24-4-37.5-11t-20-20.5T368,548q-14-89-31-179.5T306,188q-3-20 3-21t22,18L579,481q21,26 33.5,46.5T625,567q0,23-11,34.5T574,619q-16,4-25,8.5T540,641q0,7 10.5,10.5T575,655q18,0 42-1.5t48-2.5t43-1q20,0 45,1.5t49.5,2.5t43.5,1q24,0 24-14q0-8-10.5-13T835,620q-41-7-57-20t-22-47L696,187q-4-20 2.5-19.5T721,187L949,477q39,49 49.5,78t2,44T972,619q-13,3-19.5,7.5T948,640q1,7 11,10t21,3q16,0 35.5-0.5t40-1T1095,651q30,0 52,3t49,3q12,0 20-4t8-11q0-9-12.5-14.5T1186,620q-31-7-61.5-26.5T1066,541L708,120q-26-32-51.5-63T612,6T581-14q-15,0-22.5,10T549,23t0.5,39.5T557,111q9,56 20.5,119.5t23,126T620,473L327,120q-16-19-33-42T260.5,33t-32-35.5T200-16Z"/>
      <glyph unicode="X" glyph-name="gid56" horiz-adv-x="686" d="M-18-6Q-29-6-38-3T-47,8q0,9 10,14t23,7Q5,33 24.5,42t44,29T125,127L280,301q14,16 20,30t-2,37L245,543q-8,29-21,45t-28.5,23T162,620q-12,1-19.5,6.5T135,641q0,7 9.5,10t18.5,3q38,0 74.5-2.5T313,649q32,0 59.5,2.5T426,654q10,0 18-3.5t8-10.5q0-8-9.5-13.5T420,619q-33-5-43.5-22t1.5-58l41-144q4-13 12-13.5T447,392l94,118q31,38 40.5,60.5T584,604t-26,15q-10,2-18.5,7.5T531,640q0,7 9,10t20,3q20,0 40.5-1.5T643,650q28,0 53,3.5t51,3.5q11,0 20-3.5t9-11.5t-10-12t-23-8q-16-4-37.5-15.5t-43-28T623,543L463,363q-13-15-17-26t1-28l63-208q6-21 17-34t27-21t39-15q12-2 21.5-8T624,8q0-6-8-9.5T597-5q-29,0-57,1.5t-55,3T430,1q-30,0-55.5-1T323-1q-10,0-17.5,3.5T298,12q0,8 11.5,13.5T330,33q34,9 45.5,24.5T379,102L329,277q-3,12-10,12.5T305,281L181,122q-23-29-26.5-47.5t7-28.5T192,31q12-3 19.5-7.5T219,11q0-7-9-10.5T189-3q-24,0-45,1.5T96,0Q66,0 38-3T-18-6Z"/>
      <glyph unicode="Y" glyph-name="gid57" horiz-adv-x="627" d="M121-6q-13,0-18.5,4T98,9q1,8 11.5,12.5T133,29q40,7 62.5,27T227,109l46,147q9,25 8.5,46T274,348L215,551q-8,27-20,43.5T162,616q-17,5-24,10.5T133,640q1,7 10.5,10.5T162,654q35,0 67-2.5t72-2.5q26,0 52,2.5t53,2.5q10,0 16.5-3.5T428,640q-1-8-11.5-13T393,619q-40-7-50.5-21.5T340,551l42-175q5-17 8.5-23t7.5-6q5,0 12,6t16,17q34,39 65.5,80T558,534q30,36 28.5,57T548,619q-10,2-17.5,7.5T524,640q1,7 11,10t21,3q22,0 43-2t46-2q30,0 56,3t50,3q12,0 19-3t6-11q-2-9-12-12.5T743,621q-20-5-43-17t-42.5-26.5T625,548q-28-31-58-65t-59-67t-55-61q-20-21-32-44t-21-53L355,110q-11-37-0.5-54.5T399,29q13-3 19-7t5-13q-1-6-10-10T392-5q-23,0-45.5,2t-45,3.5T259,2q-21,0-44.5-1.5t-47-4T121-6Z"/>
      <glyph unicode="Z" glyph-name="gid59" horiz-adv-x="639" d="M503-4q-19,0-52.5,0.5T374-2T285-0.5T194,0q-40,0-79-0.5t-74-2T-24-5q-7-1-6.5,10T-27,19q8,11 21.5,27.5T24,81t31,33q58,62 112,122T273.5,355t107,119T494,597q5,6 6.5,12T486,616q-12,0-34-0.5T404,614t-49.5-2.5T315,609q-32-5-69-24.5T178,521q-9-12-17-21.5T141,490q-8,0-10,6t-1,13q1,4 3,11t6,15q14,26 25,52.5T184,635q6,14 13,20.5t18,6.5q23,0 55.5-6.5T342,649q32-1 65-1t63,0q33,0 69,1t71,2t62,1q7,0 11-10t1-13l-90-98q-56-59-108.5-115.5T382,302.5T279.5,188T174,68q-23-26 6-27q18-1 49.5-1.5T293,39q27,1 55.5,3t55,6.5T451,60q38,11 71,34t59,63q5,7 10,11t12,4t9-5t1-12q-2-10-11.5-28T580,88T556,47.5T536,14q-5-8-13-13T503-4Z"/>
      <glyph unicode="[" glyph-name="gid186" horiz-adv-x="370" d="M14-201q-14,0-21.5,2.5t-7,12T-7-156L238,643q7,21 12.5,33.5t14,18.5t24.5,6l179-1q7,0 11.5-3.5T482,684q-2-12-14-16t-20-5q-19-1-36.5-1.5T374,660q-18-1-32-16t-19-31q-15-48-33.5-106.5t-39-123T209,252.5T168,121T130-3.5T98-112q-6-18-1-30.5T123-157q12,0 22-1t21.5-2t26.5-2q8-1 15.5-5t5.5-15q-2-9-10.5-13.5T187-200L14-201Z"/>
      <glyph unicode="\" glyph-name="gid181" horiz-adv-x="402" d="M281-65q-12,0-22.5,4T246-46L156,650q-1,8 6.5,14t17.5,5q15,0 24.5-4.5T215,648L305-48q1-7-7-12.5T281-65Z"/>
      <glyph unicode="]" glyph-name="gid187" horiz-adv-x="370" d="M383,703q15,0 22-2.5t7-11.5t-7-31L159-141q-6-20-11.5-33t-14-19T108-199l-179,1q-6,0-11,3.5T-85-182q3,12 14.5,16t19.5,5q20,1 37.5,2T23-158q19,1 32.5,16T75-111Q90-63 108.5-4.5t39,123t41,131T229,381t38,124.5T300,614q6,18 0.5,30.5T275,659q-12,0-22,1t-21.5,2T204,664q-8,1-15.5,5T183,684q2,10 11,14t16,4l173,1Z"/>
      <glyph unicode="^" glyph-name="gid229" horiz-adv-x="510" d="M77,261q-7,0-12,3.5T60,275q0,5 2,9L273,606h5L491,284q4-8 0.5-15.5T476,261q-13,0-25.5,8.5T430,289L280,506q-4,5-5.5,5t-4.5-5L123,290q-8-12-21-20.5T77,261Z"/>
      <glyph unicode="_" glyph-name="gid192" horiz-adv-x="544" d="M419-129q8,0 12-5t2-11q-3-13-14.5-26.5T393-185H-106q-6,0-9,4.5t-2,8.5q1,5 6,15.5t13,19t18,8.5H419Z"/>
      <glyph unicode="`" glyph-name="gid263" horiz-adv-x="225" d="M291,472q-6,0-13.5,4.5T264,488L161,604q-9,11-14.5,20T141,640q0,9 9,19.5t22,18t21,7.5q10,0 17.5-8T226,653l73-154q5-9 4-18t-12-9Z"/>
      <glyph unicode="a" glyph-name="gid62" horiz-adv-x="525" d="M40-14Q27-14 13.5-6.5T-9,12t-9,22q0,33 20,73t61.5,92.5T171,320q47,47 83.5,74.5T309,422q23,0 49-23q9-10 9-10t1,0q2,0 3,1t3,5q10,18 13,23.5t3,7.5q5,12 20,12q14,0 28.5-6t24-14.5T472,402q0-6-3-15L365,107q-10-29 11-29q14,0 38.5,17.5T461,138q3,2 4,2.5t2,0.5q5,0 8-3.5t3-10.5q0-12-17.5-35T418,47Q385,18 352,2T295-14q-13,0-27,7.5t-23,19T236,35q0,9 6,23q0,1 3.5,10.5t9.5,24t13,29T281,149q3,7 0.5,10.5T275,159Q221,97 178.5,59T103,3.5T40-14Zm89,92q19,0 58,33t83,86q34,41 54,74t20,48q0,8-18,23q-8,7-17.5,11T293,357q-16,0-44.5-18T195,297q-24-24-46-57.5T113,172T99,113q0-16 8-25.5T129,78Z"/>
      <glyph unicode="b" glyph-name="gid70" horiz-adv-x="501" d="M166-11q-51,0-79.5,26T58,88q0,21 4.5,47T77,191L192,551q7,21 9.5,33.5T204,609q0,8-7,14t-24,11q-25,8-25,16q0,6 5,10t18,8q17,6 39.5,13T256,693.5t40,9.5t23,4q22,0 22-12q0-11-2-19.5T332,656q-9-22-21-53t-26-69.5T256.5,451T226,359.5T194,261q-3-9 0-10t9,6q58,81 114.5,125.5T416,427q36,0 59.5-23.5T499,346q0-48-20-98t-54-97T348,67.5T258,10T166-11Zm28,36q13,0 32,13t40,35.5T305,123q23,33 43,73t32,75.5T392,328q0,15-7.5,24.5T365,362q-25,0-61-30t-80-91q-35-48-55.5-89T148,89t14-43t32-21Z"/>
      <glyph unicode="c" glyph-name="gid71" horiz-adv-x="349" d="M130-14Q99-14 72,2.5t-43.5,45T12,111q1,45 14,90t36.5,85.5t56,72t73.5,50T280,427q35,0 55.5-14.5T356,376q0-18-12-36t-25-18q-8,0-14,6.5T290,350q-8,16-19.5,27.5T245,389q-23,0-45-22.5t-40.5-58t-30-78T118,149q-1-36 16-53.5T181,78q28,0 50,12.5T271,123q5,6 9.5,9t9.5,3q9,0 9-11q0-19-14.5-43T245,35T190-0.5T130-14Z"/>
      <glyph unicode="d" glyph-name="gid73" horiz-adv-x="547" d="M75-14Q42-14 21,8.5T0,66q0,37 15,81.5t42.5,91T121,328q41,48 82.5,74.5T280,429q21,0 37.5-9T356,397q12-7 15-8.5t4-1.5q4,0 6,8l54,175q6,18 8,26.5t3,10.5t0.5,3t-0.5,3q0,11-8.5,19T409,647q-16,6-20,8.5t-4,6.5q0,7 7,11t24,9q13,3 34,7.5t43.5,8t39.5,6t23,2.5q21,0 21-14q0-7-1.5-14T570,658L395,113q-2-6-3-11t-1-10q0-13 9-13q10,0 26,9t34,24.5T492,144q2,3 3,3.5t3,0.5q11,0 10-13q0-13-13-32.5T461,63T415,25.5T367-3T327-14q-14,0-27.5,8T277,14t-9,24q0,6 4,24q4,11 10,27t11.5,31t9,22t0.5-2q3,8-0.5,10.5T295,146Q226,62 174,24T75-14Zm69,81q23,0 50.5,17.5t54.5,47t50.5,64t37,69.5T350,328t-11.5,42.5T305,385q-19,0-44.5-19.5t-51.5-52t-48-70T126,168t-13-66q0-18 7.5-26.5T144,67Z"/>
      <glyph unicode="e" glyph-name="gid75" horiz-adv-x="367" d="M126-15Q101-15 73.5,1.5t-46,43T9,101q0,58 22,116T91,322t86,76t99,29q50,0 74-19.5T374,359q0-33-21.5-57t-56-41t-76-28T141,214q-5-1-7.5-2.5T129,205q-4-13-7-27t-4-27q-1-35 16.5-58.5T186,69q31,0 55,15.5T285,122q11,11 18,11q9,0 9-10q0-3-0.5-6.5T309,111q-19-35-46-64T202,1.5T126-15Zm22,260q17,4 41,11.5T235.5,278T273,312.5T289,362q1,12-6,22t-21,10q-19,0-39-14t-37.5-35.5T156,298t-15-47q-1-7 7-6Z"/>
      <glyph unicode="f" glyph-name="gid80" horiz-adv-x="362" d="M-82-291q-59,0-87.5,20.5T-198-223q0,22 15.5,37t31.5,15q9,0 18.5-12.5T-113-210q11-13 22.5-24.5T-60-246q16,0 28.5,12.5t24,37.5T15-130L150,343q5,18-14,18l-60-1q-9,0-12.5,4T60,376t7.5,19.5T88,408l66,3q10,1 14,16l8,28q27,92 70.5,147t92,79.5T429,706q45,0 74-20.5T532,633q0-26-13-45t-32-19q-13,0-20.5,15T451,617q-7,20-19.5,34T399,665q-22,0-39-16.5t-31.5-49T300,519q-6-20-10.5-38.5T281,444q-2-6-3-10t-1-9q-1-8 3.5-10.5T290,412q28,0 52.5,1.5T392,415q9,0 9-13q0-5-4-13.5T386.5,373T374,366l-84-2q-15,0-23-5t-11-16q-32-109-64-222.5T131-102q-10-36-35-70T38-232.5T-26.5-275T-82-291Z"/>
      <glyph unicode="g" glyph-name="gid81" horiz-adv-x="451" d="M118-290Q58-290 8.5-276.5t-79,37.5T-100-184q0,26 28,48T0-96T94-63q10,3 2,9Q75-40 59.5-23.5T44,12q0,20 20.5,36.5T114,82q6,5 8.5,8t2.5,5q0,3-9,8q-18,8-34,22.5t-25,35T48,205q0,33 14.5,71t42,72.5T172,405t90,22q19,0 34-5t26-11q13-5 24-10t18-5q16,0 33,3.5t33.5,7.5t29.5,4q6,0 15-5.5t9-20.5q0-18-7-29t-17-11q-9,0-22,2.5T412,352t-23,2q-4,0-8.5-2T378,342q2-7 2.5-14.5T381,312q0-40-16-79.5t-43.5-72t-64-52T180,89q-9,0-17.5-1T150,84q-11-9-11-21q0-14 10.5-25.5T180,12q19-12 43-27.5t49-31T317-75q23-16 35-33t12-36q0-28-22-54.5t-58-47T205-278t-87-12Zm39,34q31,0 55,9t38.5,24T265-189q0,12-8.5,25.5T232-140q-16,12-42,28T148-89q-11,6-20,6q-5,0-10-1t-11-3q-52-16-80.5-36T-2-177q0-21 19.5-39T73-245t84-11Zm10,379q17-1 36,15.5t36,44T270,242t22,61.5t8,49.5q0,17-8,30t-21,13q-17,0-35-16.5t-35.5-43T169,279t-22.5-60T138,168q0-21 8.5-32.5T167,123Z"/>
      <glyph unicode="h" glyph-name="gid82" horiz-adv-x="538" d="M85-16q-8,0-17.5,5.5t-17,15T43,25q0,16 3.5,32T56,95L193,545q5,16 8.5,33t3.5,28q0,12-12.5,18.5T167,636q-7,2-13,5t-6,8q0,6 4,10t20,9q10,4 30.5,10.5t43.5,13t42,11t26,4.5q6,0 14.5-1.5T337,695q0-11-2.5-19T329,659L191,219q-2-7 1.5-7t7.5,5q39,60 82.5,108t86,76.5T447,430q39,0 58.5-24.5T525,347q0-52-15-103.5T469.5,146T413,65q-6-8-23-21T351,17.5T309-5t-33-9q-10,0-22.5,7.5T232,11t-9,18q0,5 5,15t12.5,18.5T255,71q10,0 16-5t13-11t14-11.5T314,38q13,0 27,20.5t27,53t23,71t16.5,76T414,325q0,19-7.5,29.5T384,365q-16,0-38.5-21t-48-56t-52-76T194,129.5T148,54Q128,18 113,1T85-16Z"/>
      <glyph unicode="i" glyph-name="gid83" horiz-adv-x="319" d="M79-14Q58-14 42,1.5T26,33q0,5 0.5,9.5T30,53q33,70 59,136t49,123q3,8-4,8t-19-5T90,302.5T65,287q-10-6-15.5-2.5T44,295q0,6 11.5,19t30,28.5T127,374t46,29.5T215,425q13,5 26-2t21-18.5t4-20.5L151,103q-3-5-4-10.5T146,83q0-5 3.5-7t6.5-2q11,0 29.5,12.5t39,29.5T261,149q2,3 4,3q4,0 7-3.5t3-7.5q0-18-20.5-43.5T203,46.5t-64.5-43T79-14ZM269,507q-20,0-33,15.5T223,557q0,31 21.5,54.5T298,635q21,0 33-17.5T343,580q0-28-21.5-50.5T269,507Z"/>
      <glyph unicode="j" glyph-name="gid89" horiz-adv-x="294" d="M-127-290q-46,0-68,16t-21,35q1,14 9,25.5t19,19t19,7.5q14,0 23.5-9.5T-127-216q8-10 18.5-17.5T-83-241q26,0 45,32t35,82L128,274q7,23 4,31.5T121,314q-11,0-25-5.5T64,294q-8-3-14.5-1T43,302q0,6 4.5,10.5T60,324q22,18 47.5,33.5T159,385t49,22t38,19q14,5 27-7t9-24q-7-21-19-50t-23-63L119-84q-13-41-43.5-78t-68-66T-66-273.5T-127-290ZM257,509q-20,0-33,15.5T211,559q0,31 21.5,54.5T286,637q21,0 33-17.5T331,582q0-28-21.5-50.5T257,509Z"/>
      <glyph unicode="k" glyph-name="gid90" horiz-adv-x="508" d="M318-17q-22,0-36.5,12.5T258,32L217,152q-5,14-13,23t-18,9q-6,0-11.5-9.5T164,153t-11.5-29t-14-35.5T125,53.5T114,24Q108,10 95.5,0T64-10Q51-10 36,1.5T21,32q0,9 2,19t6,22L182,546q6,17 9,31t3,28q0,19-23,28q-9,3-16,6.5t-7,8.5t3.5,9t15.5,8q11,5 32,12t43.5,13.5t41,11.5t26.5,5q7,0 15-1.5t8-11.5t-2-17t-5-17L198,287q-3-9 2-8.5t9,5.5q29,41 63.5,73t73,51T423,427q26,0 45-12.5T487,376q0-24-17-50t-44-49.5t-58.5-42T307,206q-9-2-3-15l40-93q5-8 12-17.5T373,71q16,0 37,17t34,38q5,7 8,9.5t7,2.5q3,0 5-4.5t2-8.5q0-20-15.5-44.5T411,34T362-2.5T318-17ZM221,208q28,0 56.5,14T331,256t40,42t15,37t-9,21.5T352,363q-19,0-43-18t-46.5-43T225,255t-15-32q0-5 3-10t8-5Z"/>
      <glyph unicode="l" glyph-name="gid91" horiz-adv-x="304" d="M65-14Q46-14 29.5,3T13,38q0,7 3,18L193,569q9,27 7,41t-13,22q-9,5-14.5,11T161,654q-4,5-4.5,8.5T162,670q16,5 33.5,9t34.5,8t27,8q10,2 25,5t28.5,5t17.5,2q6,0 9.5-6t2.5-12t-4.5-17T329,651L140,110q-2-5-2.5-10T137,91q0-14 11-14q10,0 27,12t34,29t30,32q3,4 7,8t7,4q6,0 7.5-5.5T262,147q0-17-14-38.5t-37-43T161,26T109-3T65-14Z"/>
      <glyph unicode="m" glyph-name="gid93" horiz-adv-x="817" d="M91-15q-7,0-17.5,6T55.5,8T48,32q0,5 3.5,16.5T61,76L162,325q5,11 1,18.5T148,351t-31-6.5T73,310q-4-5-11-4.5T54,315q0,7 5,18t13,22.5T86,373q23,22 49.5,37.5T205,427q20,0 34.5-10T258,389t-5-41L196,211q-3-7 2-8t8,5q39,63 76,112.5t73.5,78T431,427q32,0 49-19t18.5-49.5T484,294l-21-56q-4-7 2-8t10,5q34,56 69.5,99T617,402t75,25q32,0 47-19t14.5-50T738,290L663,109q-13-33 4-33q8,0 21,8t27,19t25.5,21T757,139q4,3 7.5,6.5T771,149t6-3.5t3-7.5q-1-10-4.5-19T762,100q-40-47-91-80.5T566-14q-8,0-20,6.5T527,10t-2,23L654,333q8,17 1.5,27T640,370q-14,1-35-17.5T557,298q-17-25-43-65t-54-85.5T406,58q-13-22-29-39T346.5-6.5T322-15q-8,0-16.5,6t-15,15.5T284,24q0,5 4,20t11,35L402,336q8,19 1.5,27.5T389,372q-14,1-37-19t-54-61q-14-18-31-45t-35.5-58.5t-37-64.5T160,62Q139,23 123.5,4T91-15Z"/>
      <glyph unicode="n" glyph-name="gid94" horiz-adv-x="575" d="M99-15q-8,0-18,6T62,6.5T49,29t2,26L157,317q12,32-6,32q-8,0-20.5-1.5t-27.5-10T73,310q-4-5-11-4.5T54,315q0,7 5.5,18T73,355.5T86,373q21,23 52.5,38T213,427q20,0 32-10.5t15.5-27T257,355L200,211q-3-7 4.5-8t10.5,5q37,65 74.5,114t76,77T441,427q34,0 50.5-19.5t19-49T499,299L418,109q-13-33 5-33q8,0 21,7t27.5,17T497,119t16,14q3,4 7,7t7,3t6-3t3-8q0-16-10-28q-28-34-62.5-60.5t-71-42T322-14q-12,0-24,8T280.5,13T280,37q31,71 64,141t61,142q9,26 6.5,37.5T397,369q-13,1-28-12.5T336.5,321T299,273q-10-13-27-40t-38.5-60.5T191,104T153,39Q139,15 126,0T99-15Z"/>
      <glyph unicode="o" glyph-name="gid96" horiz-adv-x="432" d="M139-14Q106-14 76.5,3.5t-47,47T12,118q0,47 19.5,100T87,318.5t86.5,78T286,427q61,0 97.5-36.5T420,292q0-45-19-98T345,93.5T256.5,16T139-14Zm19,36q21,0 42.5,22T242,101.5T277.5,180t25,86t9.5,78q0,22-8,35t-29,13q-19,0-40.5-21T193,315.5t-36.5-77T130,153T120,72q0-26 10.5-38T158,22Z"/>
      <glyph unicode="p" glyph-name="gid104" horiz-adv-x="499" d="M-103-285q-4,0-8,2.5t-4,7.5q1,8 8.5,13t16.5,6q27,7 40.5,14.5T-28-211L149,315q4,11 6,19t-0.5,12T140,348q-21-5-36.5-9.5T66,325q-8-4-16-2t-8,11q0,10 7,16t15,9q16,7 40,18.5T166,403q7,2 12.5,8.5T189,433q16,47 37,69.5T275,525q16,0 22.5-9.5T299,486l-13-45q-2-10-1-15.5t5-4.5q13,2 25,4t25,2q52,0 85.5-17.5t50-47T492,295q0-51-23-105.5T407,89T318,14.5T214-14q-14,0-27.5,6.5T164,5q-11,9-17.5,6.5T134-10L76-201q-7-20 4.5-32T124-252q8-1 15.5-5t7.5-13q0-6-7.5-9T123-282q-16,0-38,1t-41.5,1T11-280q-25-1-55.5-3t-58.5-2ZM221,23q20,0 47,22.5t53,60t43,83T381,281q0,54-21,76t-58,23q-7,0-14.5-0.5T272,378L184,109q-5-16-5-30.5T183,52q6-14 13.5-21.5T221,23Z"/>
      <glyph unicode="q" glyph-name="gid106" horiz-adv-x="520" d="M109-287q-5-1-10,2.5T95-275q0,8 8,12.5t16,6.5q28,6 43.5,16T186-208q18,48 38,103.5T265,9t42,115q4,9-0.5,12T294,129q-41-50-75.5-82T152,0.5T85-14T27,10T4,70q0,43 19,90t50.5,92.5T144,338q41,43 90.5,69T326,433q18,0 33.5-7.5T383,406q7-8 12-14t10-5q9,0 18,14l9,15q12,20 25,27.5t25,7.5t15.5-19T487,371L297-198q-7-22 2-33.5T327-246q15-2 23.5-6t8.5-11q0-6-7.5-9T334-275q-45,0-88.5-2t-79-4.5T109-287ZM141,47q16,0 37,13.5T221.5,97t44,50T304,201q25,40 43.5,75T366,336q0,12-5.5,24.5t-15,21T323,390q-19,0-45.5-22.5t-54.5-59t-52.5-79t-39-81.5T117,80q0-15 5-24t19-9Z"/>
      <glyph unicode="r" glyph-name="gid107" horiz-adv-x="431" d="M83-15q-8,0-19.5,4.5T44,3T36,23q0,9 3.5,20T48,70l98,255q5,11 3,19t-12,8q-19,0-31.5-6.5T81,330q-5-4-12-3t-8,9q-1,16 14,33.5T112,401q19,11 41.5,18.5T198,427q28,0 39-15t8.5-40T230,314l-41-98q-3-7 2.5-8.5T201,213q37,64 72.5,112.5t70.5,76T411,429q29,0 44-17.5T470,370t-10.5-47t-26-37T403,272q-10,0-15.5,10T379,311q-2,17-7,28.5T355,351q-15,0-32.5-19.5T281,275q-8-13-23.5-38.5t-34-55.5T187,120.5T156,67Q135,29 117,7T83-15Z"/>
      <glyph unicode="s" glyph-name="gid108" horiz-adv-x="303" d="M55-14Q19-14-3.5,3T-26,47q0,25 11,40.5T12,103q7,0 16-8.5T49,75Q62,63 78.5,50T115,37t30,13t11,31q1,17-11.5,42T117,172q-17,25-28.5,51.5T77,274q0,27 17,54t43.5,49.5t52,36T232,427q21,0 41-10t33-23t13-23q0-9-9-22.5T289.5,325T268,315q-9,0-17.5,8T235,340q-8,11-19.5,19T190,367q-15,0-24-11t-9-26q0-8 7.5-22.5t18-31T203,245q23-32 34.5-59T249,135T232,85T186.5,36.5T124,0T55-14Z"/>
      <glyph unicode="t" glyph-name="gid110" horiz-adv-x="340" d="M84-14Q71-14 58-5T37,16.5T29,38q0,11 3,20.5T41,84l94,258q5,13 0.5,17.5T125,364l-46,2q-15,1-18.5,7T57,384q0,2 6,9.5t16,14t21,6.5h44q14,0 18.5,4.5T174,437l27,54q7,13 19.5,26T247,539t24,9q13,0 17-14t-1-27l-24-74q-3-12 1-15.5t13-3.5q16,0 33.5-2t33.5-4q20-3 24-7.5t4-11.5q0-2-5-8.5T348,373q-16-1-32-2.5T280,368q-17-1-25.5-5T242,349L163,130q-6-18-6-28t5-13.5T174,85q13,0 31,12.5t36,28T270,153q6,5 10,5.5t5-2.5q3-3 3-9.5T284,132q-7-16-23.5-35t-39-39t-47-36t-48-26T84-14Z"/>
      <glyph unicode="u" glyph-name="gid111" horiz-adv-x="567" d="M98-14Q81-14 66,0.5T44,35T43,70l98,226q7,16 7,25t-8,9q-6,0-20-8.5T90,301T64,279q-9-9-16.5-8.5T40,278t4,16t12,19q27,35 59,61t63.5,40T235,428q11,0 22.5-10T275,393.5t1-26.5q-24-50-52.5-113T161,118q-8-17-7.5-30T164,75t29.5,20T238,146t51,64q25,31 49,63.5t43,61T410,380q13,21 24.5,34T459,427q15,0 27-9.5t18-22t1-24.5L396,101q-4-12-4-20t7-8q10,0 30.5,13T472,117t36,31q2,3 4,3q5,0 8.5-4t3.5-9q0-9-9.5-21.5T489.5,90T456,63.5T421,42T390,30q-16-11-33.5-15.5T322,11t-31,7q-6,3-9.5,13.5T282,52q10,22 22.5,48.5t24,53T349,204q4,9-1.5,10T337,208q-37-45-70.5-85.5T203,51.5t-56.5-48T98-14Z"/>
      <glyph unicode="v" glyph-name="gid116" horiz-adv-x="455" d="M143-14Q110-14 88.5,4T61,52t7,66l63,171q6,16 3.5,23.5T126,320q-10,0-27.5-12T70,285q-6-6-10.5-8.5T52,274q-11,0-11,9q0,5 4.5,13.5T59,317q16,20 37.5,40T141,393t44,25.5t36,9.5q11,0 20.5-7.5t15-18.5t2.5-20L176,130q-10-34-3-52t34-18q26,0 55.5,19.5t55,51.5T359,200.5T375,272q0,23-8,40t-21,31q-9,9-13.5,17T328,378q0,9 14.5,20.5T376,419t34,9q14,0 25-18.5T446,350q0-42-14.5-86T391,177.5T329,97q-45-50-92.5-80.5T143-14Z"/>
      <glyph unicode="w" glyph-name="gid117" horiz-adv-x="671" d="M135-14Q107-14 87,4.5T63,59t15,87l58,150q5,14 2,19t-8,5t-22.5-8T76,292q-6-5-12-8t-9-3q-12,0-12,11q0,4 4,12t14,20q18,19 40,37t45.5,33.5t45,24.5t36.5,9q13,0 22.5-7.5t11-24.5T251,349L171,130q-12-34-1.5-52T203,60q15,0 34,14t37.5,36.5T308,158t22,48q4,11 7,26.5t6,33t6.5,35T356,333q2,11 9,24t18,22q14,12 27.5,19.5T450,406q11,0 17.5-10.5T474,366t-8-46q-11-32-25.5-60.5T415,208q-9-18-15-38.5T394,134q-2-33 7-54t33-21q25,0 51,20t48,52.5t35.5,70T582,276q0,17-4,29.5T567,331q-8,14-14.5,24.5T546,372q0,9 14.5,22.5t33,24T626,429t25.5-19T663,350q0-42-15.5-87t-43-89.5T541,87q-40-46-83.5-73.5T374-14q-32,0-50.5,21t-22,54.5T309,133l6-21q-23-36-53.5-64.5T198,2.5T135-14Z"/>
      <glyph unicode="x" glyph-name="gid118" horiz-adv-x="478" d="M31-14Q9-14-3.5-1T-16,31q0,14 7.5,29t19,26T32,97q6,0 11-5.5T51,80q4-8 10-12.5T76,63t18,4.5T113,82q12,14 25.5,29t27,30.5T192,173q4,6 5,11t-1,13L158,329q-3,9-6,13t-9,4q-9,0-25-13T83,296q-2-3-5.5-6.5T69,286q-4,0-6.5,3.5T60,299q0,18 11,39.5T100,380t41,33.5T187,427t35-17t21-45l27-96q3-14 13-1l63,89q25,34 49.5,52T444,427t41-18t17-33q0-13-8-27.5T475,324t-20-10q-10,0-14.5,4.5T432,330q-4,10-9,15t-15,5q-9,0-22-7t-31-27q-14-15-29.5-35.5T294,235q-4-8-6.5-16t1.5-21L319,89q5-16 10-21t12-5q10,0 26.5,16T401,127q6,10 13,10q4,0 6.5-3.5T423,120q0-14-10-36.5t-27-45T347,1T300-14q-28,0-44.5,19.5T232,51q-5,20-10,45t-10,45q-2,8-5,9.5t-9-5.5q-18-23-35-48.5T127,48Q103,16 78,1T31-14Z"/>
      <glyph unicode="y" glyph-name="gid119" horiz-adv-x="457" d="M-50-289q-23,0-43.5,14T-114-233q0,17 7.5,31.5t20,24.5T-61-167q11,0 21.5-6.5T-20-188q11-8 22-14.5T27-209q32,0 64,35t58,90q20,43 28.5,98.5T186,133q0,80-10,127t-23,68t-23,21q-9,0-19.5-12.5t-20-28T76,282q-2-4-7.5-14T57,258q-3,0-6,8t-3,20q0,26 12.5,51.5T92,384t41.5,33.5T176,430q28,0 45-18.5T250,357q14-43 24.5-109.5T280,81q-1-18 3.5-17T295,78q34,65 51.5,147T363,411q0,7 11,15.5t18,8.5t20-8t23.5-21T446,377q0-62-33.5-145.5T318,55T176-130q-38-43-79-79.5t-78.5-58T-50-289Z"/>
      <glyph unicode="z" glyph-name="gid122" horiz-adv-x="450" d="M253-33q-28,0-52,14.5T157,13q-19,15-34.5,27.5T93,53Q66,53 50,35.5T34-5q0-10-5.5-12.5T19-20q-6,0-12,9.5T0,9Q-1,20 4.5,35T25,63L317,326l32,1q-13-14-32.5-21.5T282,298q-19,0-36.5,10.5T211,332q-17,11-34,20.5T142,362q-15,0-25.5-15T106,315q0-10 3-20.5t9-18.5q7-12 0-20q-8-7-24-13.5T72,236T56.5,246T47,276q0,32 15.5,53T105,373q14,11 34,23.5T179,418t32,9q20,0 37-6t38-13q19-7 37.5-12t36.5-5q15,0 24,4.5T405,411q6,5 15,11.5t17,6.5q5,0 10-4.5t5-9.5q0-7-11-21.5T416,366L126,92l-22,9q13,12 25,19t25,7q23,0 43.5-13.5T237,83q19-15 37.5-28.5T311,41q16,0 24.5,11T348,81.5t4,37.5t2,29.5T365,159q13,0 26.5-13.5T405,105q0-20-17.5-44t-43-45.5T294-19.5T253-33Z"/>
      <glyph unicode="{" glyph-name="gid184" horiz-adv-x="377" d="M211-153q-39,0-75.5,7.5T73-122T36.5-80.5T39-20Q50,10 62,41t24,62.5T107,164q13,42 0.5,66.5T63,269q-7,4-12.5,5.5T46,285q1,8 8.5,11T74,303q26,9 47,21t36.5,32.5T183,409q13,44 21.5,86.5T225,581q9,35 34.5,60.5T321,683t76.5,23.5T477,714q9,0 14-5t3-14q-3-10-15-12.5T457,680q-49,0-84-21t-50-73q-8-24-14-53.5t-11.5-59T284,418q-16-51-61.5-87T119,283q-5-1 0-4q49-11 74-47.5t9-88.5q-8-24-20-54T157.5,29.5T138-25q-15-51 5-70t69-25q10-1 19-2.5t8-12.5q0-9-9.5-13.5T211-153Z"/>
      <glyph unicode="|" glyph-name="gid246" horiz-adv-x="270" d="M106-289q-7,0-12.5,7T88-267V658q0,13 9,22t22.5,14.5T144,703t15,3q8,0 14.5-6t6.5-14V-252q0-12-9-19.5t-22.5-11t-25-5T106-289Z"/>
      <glyph unicode="}" glyph-name="gid185" horiz-adv-x="377" d="M212,715q39,0 75.5-7.5T350,684t36-41.5T384,582q-10-30-22.5-61t-24-62T316,398q-13-42-0.5-66.5T360,293q7-3 12.5-5t4.5-11q0-8-8.5-11T349,259q-26-9-47-21t-36.5-32T240,153q-13-43-21.5-85.5T198-19q-9-35-34.5-60.5T102-121T25.5-144.5T-54-152q-8,0-13.5,5T-71-133q3,10 15,12.5t22,2.5q49,0 84,21t50,73q8,24 14,53.5T126,89t13,55q16,51 61,87t103,48q6,1 0,4q-48,11-72.5,47.5T221,419q8,25 20,54.5T265.5,533T285,587q15,51-5.5,70T211,682q-10,1-19,2.5T183,697q1,9 11,13.5t18,4.5Z"/>
      <glyph unicode="~" glyph-name="gid227" horiz-adv-x="530" d="M98,256q-5-2-12.5,9.5T79,282q3,10 16.5,28.5t33.5,38t43,33T217,395t44.5-8.5T309,368q20-7 43-13.5t48-6.5q21,0 39,8t33,17q13,8 21,15t15,7t12.5-11t4.5-16q-2-8-15-26t-33-37.5T433.5,271T387,257q-18,0-39.5,7T303,278q-25,9-51.5,17T202,303q-20,0-42-10t-39.5-21.5T98,256Z"/>
      <glyph unicode="&#xa0;" glyph-name="gid206" horiz-adv-x="225"/>
      <glyph unicode="&#xa1;" glyph-name="gid173" horiz-adv-x="297" d="M178,293q11,0 14-10.5T190,246q-10-51-20-100T150.5,54T134-21T123-70q-6-26-19-48.5T73.5-155T35-169q-16,0-28,14T-7-116T3-58Q7-46 19.5-16T51,56.5T92.5,148T138,246q10,21 20,34t20,13Zm56,201q24,0 40-17t16-39q0-32-24.5-56T207,358q-27,0-42.5,19T149,417q0,31 25.5,54T234,494Z"/>
      <glyph unicode="&#xa2;" glyph-name="gid213" horiz-adv-x="419" d="M119-81q-8,0-12.5,5T105-63l22,52Q75,4 46,44.5T17,143q0,48 22,97.5T100.5,332T193,399.5T307,425l21,53q4,10 14.5,15t19.5,5q7,0 9-5.5T370,478l-22-53q24-1 49-11t42-24.5T454,359q-1-10-12-21t-25.5-18.5T390,312q-9,0-16,3t-10,11q-6,18-14.5,31T328,375L209,85q5-1 10.5-1.5T231,83q35,0 70,11.5T360,131q8,8 15,8q9,0 9.5-8T379,114q-40-59-90.5-91.5T168-14L148-63q-4-8-13-13t-16-5ZM170,94L289,382q-34-1-64-18.5T172,317t-35.5-64T124,182q0-29 12-53t34-35Z"/>
      <glyph unicode="&#xa3;" glyph-name="gid216" horiz-adv-x="581" d="M100,290q-6-1-11.5,4T83,304q0,9 8.5,20T112,336l343,23q7,0 12-5.5t4-10.5q-3-8-13.5-19T433,312L100,290ZM313-37q-43,0-73.5,16T184,14q-24,19-44.5,34.5T95,64Q67,45 49.5,28T15-7Q7-15-7.5-13T-34-1T-46,22q0,20 21.5,41.5T30,100t70,16q25,32 44,72.5T179,276t32,98q26,79 68.5,136t100,88T507,629q52,0 80.5-16.5T625,572t2-48t-26.5-40.5T553,467q-9,0-12,3.5t-3,9.5t9.5,20t9.5,39q0,21-13,37t-39,16q-28,0-49.5-15t-39-44.5t-36-75T341,351q-17-45-40-88.5t-54.5-78T174,128q-2-1-2-3.5t3-4.5q39,0 64.5-13T285,78q22-16 42.5-30T380,34q31,0 56.5,18.5T462,103q0,15-6,24t-6,20q0,17 11.5,25.5T486,181q20,0 30-11t10-35q0-28-14-58.5t-41.5-56T403.5-21T313-37Z"/>
      <glyph unicode="&#xa4;" glyph-name="gid214" horiz-adv-x="496" d="M208,64q-48,0-81,19.5T76,136T58,210q0,47 21.5,93t59,83.5t87,60T332,469q51,0 83.5-20.5t48.5-54T480,322q0-44-18.5-89.5t-54-83.5T322,87.5T208,64ZM27,57Q16,57 5.5,71T-3,95q1,5 8,11l74,56l33-47L38,60q-3-3-5.5-3T27,57Zm362,1q-7,0-13,8l-46,64l45,34l48-65q4-4 4-6t0-4q0-12-13-22t-25-9ZM226,120q41,0 76.5,16.5t62.5,43T407,240t15,67q0,44-28,75t-79,31q-42,0-78-16.5T174,353t-42-60.5T117,226q0-44 28-75t81-31ZM164,368l-53,72q-2,3-2,7q0,10 14.5,21.5T149,477q6-1 8-5l52-70l-45-34Zm293,10l-34,45l69,52q3,2 6,2.5t6,0.5q13,0 23.5-12.5T536,441q-1-6-5-9l-74-54Z"/>
      <glyph unicode="&#xa5;" glyph-name="gid217" horiz-adv-x="618" d="M116-6Q104-6 98-2T94,9q2,8 12,12.5T129,29q40,7 62,27t32,53l25,79H136q-6,0-11,5t-4,11q2,8 11.5,18.5T153,233l108-1l6,19q2,7 3.5,13t2.5,12H165q-6,0-10.5,5T151,291q1,9 11,19t21,10h92q-1,7-2,12t-3,11L209,555q-7,25-18,41t-38,23q-11,3-17,8t-3,13q2,7 9.5,10.5T160,654q35,0 68-2.5t72-2.5q26,0 50,2.5t51,2.5q10,0 17.5-3.5T424,640q-2-8-12-12.5T389,619q-32-7-46-22.5T336,551l37-172q4-17 7.5-23.5T388,349q5,0 11.5,6.5T418,376q19,22 41.5,49t46,56T549,537q27,34 26,55t-35,27q-9,2-18,7.5T516,640q2,7 11.5,10t20.5,3q26,0 47.5-2t45.5-2q29,0 53.5,3t48.5,3q11,0 19-3t5-11q-3-9-12-13t-22-7q-19-4-40.5-17T652,574.5T620,543q-47-53-91.5-103T448,350q-7-8-13.5-16T423,319H525q7,0 11-5.5t2-10.5q-4-8-15.5-17.5T497,276H402l-14-44l110-1q7,0 11-5.5t1-10.5q-3-8-14.5-17.5T470,188H375l-24-78q-11-37-1-54.5T394,29q13-3 20-7t4-13q-1-6-10-10T388-5q-23,0-45.5,2T298,0.5T255,2T210.5,0.5t-47-4T116-6Z"/>
      <glyph unicode="&#xa6;" glyph-name="gid247" horiz-adv-x="272" d="M108-290q-8,0-13.5,7T89-268V138q0,11 9.5,19T121,171t24.5,8.5T160,182q8,0 14.5-7t6.5-17V-253q0-12-9-19.5t-22.5-11t-25-5T108-290Zm-2,552q-7,0-12.5,8.5T88,288V658q0,12 9,21t22.5,14.5T144,702t15,3q8,0 14.5-6t6.5-14V298q0-10-9-17t-22.5-11t-25-6T106,262Z"/>
      <glyph unicode="&#xa7;" glyph-name="gid239" horiz-adv-x="420" d="M37-148q-27,0-44.5,8.5T-25-119q0,13 10.5,29.5T10-60.5T34-48q9-1 18-7T70-69q10-7 22.5-11.5T122-85q22,0 39,13.5T188-37T198,7q0,38-22,75t-45,72T90.5,222.5T73,292q0,44 17.5,82T137,445t63,61q20,34 50.5,65T317,621t71,19q21,0 41.5-5.5T463,620t13-21q0-9-12-24t-27-27t-24-12q-6,0-14,8t-17,18q-9,9-20,16.5T338,586q-20,0-38.5-11t-29-29T260,508q0-32 20.5-66T328,372q25-33 41-67.5T385,231q0-65-33.5-128.5T266-17q-34-36-72.5-66t-78-47.5T37-148ZM266,59q0-4 4-3.5t5,3.5q12,22 21,43t11,44q8,45-5.5,82T263,302q-14,22-29,45t-25.5,47.5T196,442q0,4-3.5,3.5T187,442q-18-23-28.5-49T148,332q0-31 16-62t38-64q14-22 29-47t25-50.5T266,59Z"/>
      <glyph unicode="&#xa8;" glyph-name="gid261" horiz-adv-x="404" d="M389,500q-21,0-33.5,14.5T343,550q0,22 11.5,40t30,28.5T425,629t34.5-14.5T472,579q0-32-24.5-55.5T389,500Zm-189,0q-21,0-33.5,14.5T154,550q0,22 11.5,40t30,28.5T235,629q23,0 35.5-14.5T283,579q0-32-24.5-55.5T200,500Z"/>
      <glyph unicode="&#xa9;" glyph-name="gid240" horiz-adv-x="675" d="M374,19q-64,0-119.5,24t-98,66.5t-66,98T67,327T91,446.5t66,98T255,611t120,24t119.5-24t98-66.5t66.5-98T683,327T659,207.5t-67-98T493.5,43T374,19Zm14,124q-53,0-98,24.5T218,233t-27,91t28.5,90.5t76.5,65T405,504q24,0 50-5.5T499,485q7-2 10-4.5t5-10.5q3-18 3-35.5t0-33.5q0-7-5-12t-11-4q-5,0-9.5,4T485,400q-4,11-8.5,20T462,438t-25.5,15.5T399,460q-50,0-76.5-38T296,331q0-40 11-73t34-52.5T401,186q33,0 54.5,12T491,241q4,8 9.5,11.5T511,255q10-2 10-17t-3.5-29T508,179q-4-8-6-9t-10-5q-18-8-45.5-15T388,143ZM374,63q54,0 101,21t82,57.5t55,84T632,327q0,53-20,100t-55.5,82t-82,55.5T375,585T275,564.5T192.5,509T137,427T117,327q0-54 20-101.5t55-84T273.5,84T374,63Z"/>
      <glyph unicode="&#xaa;" glyph-name="gid133" horiz-adv-x="330" d="M39,160q-6,0-10,4.5T25,174q0,7 10,17t20,10H268q5,0 9-4t4-11q0-9-13-17.5T243,160H39Zm87,118q-24,0-40.5,15.5T69,327q0,33 19.5,49.5T141,404l78,25q16,5 20.5,9.5T247,456l7,22q5,18 0.5,28T235,516q-9,0-19.5-3.5T199,503q-6-5-6.5-14.5T190,473q-1-4-10-9t-20.5-8.5T137,449t-17-3t-6,6t2,12q6,12 16,23.5T162,511q15,9 36,18.5t43.5,16T283,552q35,0 51-22.5t5-57.5L300,359q-5-15-3-26t12-11q6,0 10.5,2.5T328,330t7,3t5-3.5t2-6.5q0-5-7.5-11.5T322,301q-12-9-27.5-16T262,278q-18,0-27.5,6T221,298.5T214,315h-3q-14-12-35-24.5T126,278Zm47,44q8,0 15,3t13,6q3,3 5.5,6t4.5,11l17,50q3,7-1,9t-9,0q-29-10-45-21.5T153,350q-2-10 4-19t16-9Z"/>
      <glyph unicode="&#xab;" glyph-name="gid199" horiz-adv-x="621" d="M286,17q-10,0-18.5,8T255,36q-20,22-42.5,42.5t-46,39.5T119,153.5T72,184q-10,6-15,10t-5,10t7,11t12,6q56,26 107.5,54T278,333t94,62q5,4 10.5,7t14.5,3q10,0 7.5-9T394,378q-38-40-76-70.5T245.5,253T183,210q-8-5-8-7.5t5-8.5q18-18 38-41t39.5-50.5T293,43q4-9 1-17.5T286,17Zm211,0q-10,0-18.5,8T466,36q-20,22-42.5,42.5t-46,39.5T330,153.5T283,184q-10,6-15,10t-5,10t7,11t12,6q56,26 107.5,54T489,333t94,62q5,4 10.5,7t14.5,3q10,0 7.5-9T605,378q-38-40-76-70.5T456.5,253T394,210q-8-5-8-7.5t5-8.5q18-18 38-41t39.5-50.5T504,43q4-9 1-17.5T497,17Z"/>
      <glyph unicode="&#xac;" glyph-name="gid228" horiz-adv-x="600" d="M499,42q-4,0-8.5,5.5T486,60V301q0,17-15,17H56q-6,0-11.5,4.5T39,332q0,7 2.5,20T51,375.5T69,386H538q8,0 11.5-5.5T553,368V72q0-11-10.5-17.5T519,45t-20-3Z"/>
      <glyph unicode="&#xad;" glyph-name="gid189" horiz-adv-x="304" d="M34,166q-6-1-9,3.5T22,179q0,23 13.5,38.5T60,234q53,8 109,15.5T276,262q8,1 9.5-3t1.5-11q0-9-5.5-21t-14-21.5T250,194q-52-7-108.5-14.5T34,166Z"/>
      <glyph unicode="&#xae;" glyph-name="gid241" horiz-adv-x="695" d="M384,19q-64,0-119.5,24t-98,66.5t-66,98T77,327t24,119.5t66,98T265,611t120,24t119.5-24T602,544.5t66.5-98T693,327T668.5,207.5t-67-98T503.5,43T384,19Zm0,44q54,0 101,21t82,57.5t55,84T642,327q0,53-20,100t-55.5,82t-82,55.5T385,585T285,564.5T202.5,509T147,427T127,327q0-54 20-101.5t55-84T283.5,84T384,63ZM514,171q-16,0-35,12.5T441.5,216T408,260t-25,46q-2,6-8,9.5T359,319q-5,0-8-2.5t-3-7.5l1-80q0-16 10-22t27-10q6-2 11-5t5-10q0-4-4.5-8t-9.5-4q-19,0-39,2t-38,2q-12,0-23-1t-22.5-2T240,170q-3,0-8,4t-5,8q0,6 4.5,9.5T242,197q17,4 23.5,10t6.5,22V434q0,16-2,22.5t-8,9.5t-17,6q-15,3-15,13t15,9q20,0 33.5-2t30.5-2q21,0 38.5,2t43.5,2q53,1 86-19t33-60q0-33-19.5-51.5T448,335q-4-1-3-4.5t3-6.5q14-35 35.5-61.5T526,222t35-14q3,0 7-0.5t4-6.5q0-13-15.5-21.5T514,171ZM370,351q29,0 47,16t18,40q0,27-15.5,40.5T378,461q-18,0-25-6t-7-17V369q0-11 7-14.5t17-3.5Z"/>
      <glyph unicode="&#xaf;" glyph-name="gid268" horiz-adv-x="337" d="M142,526q-8,0-10.5,3.5T129,540q0,12 7,24t17.5,20.5T172,593H409q17,0 17-12q0-11-8-24t-19-22t-22-9H142Z"/>
      <glyph unicode="&#xb0;" glyph-name="gid243" horiz-adv-x="328" d="M265,388q-40,0-71.5,20t-50,52.5T125,529t18.5,66t50,48T265,661q39,0 70-17.5T384.5,596T403,530t-18.5-68.5t-49.5-53T265,388Zm-1,52q33,0 56.5,24.5T344,524q0,36-23.5,60T264,608t-57-24t-24-60q0-35 24-59.5T264,440Z"/>
      <glyph unicode="&#xb1;" glyph-name="gid226" horiz-adv-x="595" d="M283,124q-4,0-8,4.5T271,139V345q0,9-9,9H55q-6,0-11,4.5T39,367q0,9 6,25.5T66,409H260q7,0 9,3t2,9V591q0,10 7,17t17,11.5t15,4.5q7,0 11-6t4-13V420q0-6 2.5-8.5T334,409H538q7,0 13-4t5-11q-1-13-9.5-26.5T524,354H334q-9,0-9-9V150q0-14-16.5-20T283,124ZM56,33q-6,0-11.5,5T39,47q0,6 3,16.5t9,19T68,91H537q8,0 14.5-5T558,75q-2-14-11-28T523,33H56Z"/>
      <glyph unicode="&#xb2;" glyph-name="gid161" horiz-adv-x="319" d="M327,438q-20,0-52.5,1.5T210,441q-18,0-39.5-0.5T131,439t-27-1q-6,0-6,5q0,6 7,12l79,66q63,54 98,94t35,68q0,17-12,27.5T273,721q-19,0-38.5-12T201,682q-4-5-7.5-8t-7.5-3q-5,0-5.5,4.5T181,686q8,23 30,43.5T263,763t61,13q37,0 59.5-18.5T406,703q0-30-20.5-53T341,604q-10-9-31-25t-43.5-31.5t-39.5-27T208,507t1.5-3t7.5-1h84q19,0 39.5,13T376,547q2,4 7.5,7.5T394,558q6,0 6.5-4T396,543q-14-21-25-39t-18.5-32T341,451q-3-6-7-9.5t-7-3.5Z"/>
      <glyph unicode="&#xb3;" glyph-name="gid162" horiz-adv-x="296" d="M172,435q-22,0-39,6t-15,20q2,10 11,23t16,13t14.5-6T176,480q6-5 15.5-9.5T209,466q17,0 34,12t28,31.5T282,551q0,18-10.5,34.5T242,602q-17,0-28.5-6.5T198,589q-5,0-8.5,3t-1.5,9q5,6 15,11.5T223.5,623t17.5,8q39,17 58,33t19,35q0,14-8.5,23T282,731q-18,0-34-8t-32-20q-5-3-8-5.5t-5-2.5q-4,0-6.5,5t-0.5,8q10,13 28,29t44.5,27.5T326,776q33-1 51.5-17.5T396,716q0-27-26.5-47.5T310,638q-2-1-3-2.5t2-1.5q26,0 42-20t16-45q0-27-18.5-51.5t-48.5-43t-64-29T172,435Z"/>
      <glyph unicode="&#xb4;" glyph-name="gid264" horiz-adv-x="225" d="M154,472q-11,0-12,9t4,18l74,154q7,16 15,24t17,8t21.5-7.5t21.5-18t9-19.5q0-7-5-16t-15-20L181,488q-5-7-12.5-11.5T154,472Z"/>
      <glyph unicode="&#xb5;" glyph-name="gid230" horiz-adv-x="548" d="M13-287q-16,0-27.5,10T-31-251t-5,31q0,29 7.5,66t19,77T13,0q5,13 17,40.5T49,92q3,10 11,38t18.5,66T100,274t20.5,74.5T135,403q4,11 13,17.5t21,6.5q22,0 41.5-10T241,394t8-23q-1-12-12-34.5t-28.5-52t-37.5-63T131,154q-5-12-7-21.5T122,118q0-17 13.5-33T170,70q22,1 44.5,16.5t48,44T315,196q19,53 36.5,100T393,399q6,16 13.5,22t17.5,6q15,0 34.5-8.5t33-21T504,374q-2-11-15-36.5T456,279t-43-66.5T367,151q-9-28 7-46.5T423,86q18,0 37,10.5t34,21T513,128t7-3t2-7q-6-40-28.5-70T442,1.5T386-15q-20,0-35.5,12T328,29.5T324,76q1,10 4.5,21t8.5,21l-3,1q-4-6-19.5-27T278,47T235,5T194-13q-33,0-49,20T113,52q-2,4-7,11.5T96.5,77T88,83q-6,0-11.5-8T66,52q-4-11-9.5-33t-9-47T44-73q0-28 8.5-53.5T74-169q9-13 17-22t8-18q0-8-10-21T64.5-256T36-278t-23-9Z"/>
      <glyph unicode="&#xb6;" glyph-name="gid238" horiz-adv-x="602" d="M128-287q-59,0-96.5,29T-6-181q0,44 19,76T64-55.5T134-38q32,0 52-15t20-44q0-30-19-48t-48-18q-12,0-24,5.5T94-146q-8,5-16,10t-16,5q-11,0-17.5-12T38-169q0-32 24-53t65-21q60,0 103.5,36T294-104L350,76q3,8 1,13.5T342,95q-88,0-151,33.5t-91,94T88,366q14,89 52.5,144.5t99.5,85T383.5,636T568,647q24,0 50-1t47-2.5t30-3.5q8-1 10-8.5t0-15.5q-3-9-8-17.5T685,590q-3,0-14,1.5T644,595t-32.5,3.5T582,600q-8,0-15.5-6.5T556,577L352-87q-19-61-48.5-106.5T231-263T128-287ZM349,138q4,0 8,3.5t6,10.5L501,583q0,1 0,1t0,1q0,5-5.5,6.5T485,593q-19,0-36.5-4t-36-23t-38-61T331,388q-38-119-38-178q0-38 14-55t42-17Z"/>
      <glyph unicode="&#xb7;" glyph-name="gid176" horiz-adv-x="237" d="M105,137q-24,0-41,18.5T47,197q0,24 12,44t31.5,32T133,285q29,0 44.5-20T193,221q0-22-11.5-41t-32-31T105,137Z"/>
      <glyph unicode="&#xb8;" glyph-name="gid269" horiz-adv-x="225" d="M-38-281q-24,0-43.5,9t-31,23.5T-124-220q0,34 26,34q13,0 24.5-7T-52-209q13-11 23-19t25-8q10,0 15.5,6.5T17-213q0,15-10,25t-21,22q-11,11-22,25.5T-47-111q0,17 19,40.5t47,47T75,17h36Q70-14 55.5-35.5T41-71q0-10 10-21t22-22q13-13 22-24.5t9-25.5q0-16-15-35.5T52-238T5.5-269T-38-281Z"/>
      <glyph unicode="&#xb9;" glyph-name="gid160" horiz-adv-x="250" d="M117,438q-4,0-6,3t-1,7q2,6 5.5,10t9.5,5q22,4 33.5,9T176,498l56,186q7,20-5,29.5T197,728q-9,3-7,11q3,15 17,17q38,4 70.5,8T331,777q2,1 5.5,2t5.5,1q9,0 5-10q-2-8-8-20t-12-32L259,498q-5-18-1-23.5T286,463q5-1 7-4.5t0-9.5q-1-4-4.5-7.5T280,438q-15,0-30.5,1t-29,1.5T198,441q-13,0-35.5-1.5T117,438Z"/>
      <glyph unicode="&#xba;" glyph-name="gid134" horiz-adv-x="356" d="M47,160q-5,0-9,5t-4,9q0,8 9.5,17.5T63,201H286q6,0 10-3.5t4-10.5q0-9-13-18t-25-9H47ZM196,282q-58,0-86.5,34.5T91,409q7,40 33.5,73.5T193,536t95,20q58,0 85-33.5T391,436q-5-41-29-76t-65.5-56.5T196,282Zm17,31q17,0 31.5,11.5T270,354t18,38.5T299,431q5,24 4,45t-8.5,34.5T271,524t-31-11.5T213,483t-20-38.5T183,405q-5-23-3-44.5T190,326t23-13Z"/>
      <glyph unicode="&#xbb;" glyph-name="gid200" horiz-adv-x="657" d="M356,405q10,0 18.5-7.5T387,386q20-23 42.5-43.5t46-39t47.5-35T570,238q10-6 14.5-10t4.5-10t-7-10.5T571,201q-56-26-107.5-54T364,89T270,27q-5-4-10.5-7T245,17q-10,0-7,9t10,18q38,40 76,70.5T396.5,169T459,212q8,5 8,7.5t-6,8.5q-17,19-37,41.5T384.5,320T349,379q-4,10-1,18t8,8Zm-211,0q10,0 18.5-7.5T176,386q20-23 42.5-43.5t46-39t47.5-35T359,238q10-6 14.5-10t4.5-10t-7-10.5T360,201q-56-26-107.5-54T153,89T59,27q-5-4-10.5-7T34,17q-10,0-7,9T37,44q38,40 76,70.5T185.5,169T248,212q8,5 8,7.5t-6,8.5q-17,19-37,41.5T173.5,320T138,379q-4,10-1,18t8,8Z"/>
      <glyph unicode="&#xbc;" glyph-name="gid165" horiz-adv-x="665" d="M68,278q-4,0-6,3t-1,7q2,6 5.5,10t9.5,5q22,4 33.5,9T127,338l56,186q7,20-5,29.5T148,568q-9,3-7,11q3,15 17,17q38,4 70.5,8T282,617q2,1 5.5,2t5.5,1q9,0 5-10q-2-8-8-20t-12-32L210,338q-5-18-1-23.5T237,303q5-1 7-4.5t0-9.5q-1-4-4.5-7.5T231,278q-15,0-30.5,1t-29,1.5T149,281q-13,0-35.5-1.5T68,278ZM66-24q-12,0-17,9.5T51,3L659,653q9,10 20.5,13.5T703,670q14,0 18.5-8T719,646L113-2Q102-14 90.5-19T66-24ZM467-9q-11,0-8,8l25,81q3,13-8,13q-36,0-70.5-1.5T330,90q-3,0-3.5,4t2.5,7q45,41 94.5,84T521,268q13,11 39.5,29.5T610,336q7,5 13,9t9,4t4-2.5t0-5.5L573,138q-2-5 4-5q21,0 31.5,0.5T625,134q5,0 5-6q-1-8-11.5-20.5T605,95q-6,0-16.5,0T570,95q-10,0-13-8L539,26q-2-6-12-12T504,3T481-5.5T467-9ZM409,134h85q6,0 8,5l31,99q1,2-0.5,2t-2.5-1q-18-15-41-33.5T445,170t-36-31q-3-5 0-5Z"/>
      <glyph unicode="&#xbd;" glyph-name="gid164" horiz-adv-x="700" d="M68,278q-4,0-6,3t-1,7q2,6 5.5,10t9.5,5q22,4 33.5,9T127,338l56,186q7,20-5,29.5T148,568q-9,3-7,11q3,15 17,17q38,4 70.5,8T282,617q2,1 5.5,2t5.5,1q9,0 5-10q-2-8-8-20t-12-32L210,338q-5-18-1-23.5T237,303q5-1 7-4.5t0-9.5q-1-4-4.5-7.5T231,278q-15,0-30.5,1t-29,1.5T149,281q-13,0-35.5-1.5T68,278ZM63-24q-12,0-17,9.5T48,3L656,653q9,10 20.5,13.5T700,670q14,0 18.5-8T716,646L110-2Q99-14 87.5-19T63-24Zm505,8q-20,0-52.5,1.5T451-13q-18,0-39.5-0.5T372-15t-27-1q-6,0-6,5q0,6 7,12l79,66q63,54 98,94t35,68q0,17-12,27.5T514,267q-19,0-38.5-12T442,228q-4-5-7.5-8t-7.5-3q-5,0-5.5,4.5T422,232q8,23 30,43.5T504,309t61,13q37,0 59.5-18.5T647,249q0-30-20.5-53T582,150q-10-9-31-25T507.5,93.5T468,66.5T449,53t1.5-3t7.5-1h84q19,0 39.5,13T617,93q2,4 7.5,7.5T635,104q6,0 6.5-4T637,89q-14-21-25-39T593.5,18T582-3q-3-6-7-9.5T568-16Z"/>
      <glyph unicode="&#xbe;" glyph-name="gid166" horiz-adv-x="680" d="M122,275q-22,0-39,6T68,301q2,10 11,23t16,13t14.5-6T126,320q6-5 15.5-9.5T159,306q17,0 34,12t28,31.5T232,391q0,18-10.5,34.5T192,442q-17,0-28.5-6.5T148,429q-5,0-8.5,3t-1.5,9q5,6 15,11.5T173.5,463t17.5,8q39,17 58,33t19,35q0,14-8.5,23T232,571q-18,0-34-8t-32-20q-5-3-8-5.5t-5-2.5q-4,0-6.5,5t-0.5,8q10,13 28,29t44.5,27.5T276,616q33-1 51.5-17.5T346,556q0-27-26.5-47.5T260,478q-2-1-3-2.5t2-1.5q26,0 42-20t16-45q0-27-18.5-51.5t-48.5-43t-64-29T122,275ZM86-24q-12,0-17,9.5T71,3L679,653q9,10 20.5,13.5T723,670q14,0 18.5-8T739,646L133-2q-11-12-22.5-17T86-24ZM482-9q-11,0-8,8l25,81q3,13-8,13q-36,0-70.5-1.5T345,90q-3,0-3.5,4t2.5,7q45,41 94.5,84T536,268q13,11 39.5,29.5T625,336q7,5 13,9t9,4t4-2.5t0-5.5L588,138q-2-5 4-5q21,0 31.5,0.5T640,134q5,0 5-6q-1-8-11.5-20.5T620,95q-6,0-16.5,0T585,95q-10,0-13-8L554,26q-2-6-12-12T519,3T496-5.5T482-9ZM424,134h85q6,0 8,5l31,99q1,2-0.5,2t-2.5-1q-18-15-41-33.5T460,170t-36-31q-3-5 0-5Z"/>
      <glyph unicode="&#xbf;" glyph-name="gid175" horiz-adv-x="364" d="M227,306q5,0 17.5-13T267,259.5T277,219q0-31-10-57t-41-49.5T130,65Q83,48 53,22.5T23-40q0-29 19-47t57-18q14,0 25,6t21,10q9,4 18,8t17,4q15,0 25-9.5t9-27.5q0-27-24.5-45.5T130-178q-40,0-73,23T4-91T-16,3q0,31 12.5,58T31,108.5T80,141l91,40q29,14 38.5,26.5T219,240q0,9-1,17t-3,15q-2,8-4.5,14T208,297q0,6 6,7.5t13,1.5Zm28,191q21,0 36-16.5T306,443q0-31-23-54.5T229,365q-25,0-39,18.5T176,422q0,30 23.5,52.5T255,497Z"/>
      <glyph unicode="&#xc0;" glyph-name="gid6" horiz-adv-x="717" d="M-41-5Q-52-5-58-1.5T-64,10q1,9 9.5,14T-34,32q23,6 47,15T59.5,70.5T98,103q69,77 131.5,150.5T353,400.5T476,549q16,18 27,35t18,28.5T534,624q23,0 41,5.5T608,646q16,12 27,20t18,8q9,0 10.5-14T661,623L560,117q-8-39 4.5-58T610,30q13-4 21-7.5T639,10q0-6-9.5-9.5T608-3q-17,0-42,1T514.5,0.5T466,2q-19,0-43.5-1t-48-2T333-2q-20,0-20,14q0,8 8,13.5T340,33q28,6 45,13.5t27.5,21T428,104l31,120q3,12-3.5,17T439,246l-139-1q-12,0-20-4.5T266,228L186,123q-22-29-26-46.5t7-27T199,34q9-3 17-8t8-14q-1-7-10-10.5T193-2q-24,0-49.5,1.5T90,1Q60,1 23.5-2T-41-5ZM338,287H454q10,0 14.5,4t7.5,15l47,219q3,9 3,14t-5,5q-2,0-6.5-2t-8.5-7L325,307q-8-10-8-15t21-5ZM672,695q-3,0-9,1t-15,6q-36,21-78.5,45.5T491,795q-15,11-17,20q-1,8 12,15.5t29.5,13T539,851q19,3 31-11q28-29 51.5-59.5T671,721q10-9 10-18q0-8-9-8Z"/>
      <glyph unicode="&#xc1;" glyph-name="gid2" horiz-adv-x="717" d="M-41-5Q-52-5-58-1.5T-64,10q1,9 9.5,14T-34,32q23,6 47,15T59.5,70.5T98,103q69,77 131.5,150.5T353,400.5T476,549q16,18 27,35t18,28.5T534,624q23,0 41,5.5T608,646q16,12 27,20t18,8q9,0 10.5-14T661,623L560,117q-8-39 4.5-58T610,30q13-4 21-7.5T639,10q0-6-9.5-9.5T608-3q-17,0-42,1T514.5,0.5T466,2q-19,0-43.5-1t-48-2T333-2q-20,0-20,14q0,8 8,13.5T340,33q28,6 45,13.5t27.5,21T428,104l31,120q3,12-3.5,17T439,246l-139-1q-12,0-20-4.5T266,228L186,123q-22-29-26-46.5t7-27T199,34q9-3 17-8t8-14q-1-7-10-10.5T193-2q-24,0-49.5,1.5T90,1Q60,1 23.5-2T-41-5ZM338,287H454q10,0 14.5,4t7.5,15l47,219q3,9 3,14t-5,5q-2,0-6.5-2t-8.5-7L325,307q-8-10-8-15t21-5ZM593,688q-9,0-10,7t7,20q21,34 42.5,65.5T679,844q10,14 31,14q7,0 24-3.5t31-10T779,830q-1-10-16-22q-34-27-73.5-56.5T616,698q-8-6-14-8t-9-2Z"/>
      <glyph unicode="&#xc2;" glyph-name="gid4" horiz-adv-x="717" d="M-41-5Q-52-5-58-1.5T-64,10q1,9 9.5,14T-34,32q23,6 47,15T59.5,70.5T98,103q69,77 131.5,150.5T353,400.5T476,549q16,18 27,35t18,28.5T534,624q23,0 41,5.5T608,646q16,12 27,20t18,8q9,0 10.5-14T661,623L560,117q-8-39 4.5-58T610,30q13-4 21-7.5T639,10q0-6-9.5-9.5T608-3q-17,0-42,1T514.5,0.5T466,2q-19,0-43.5-1t-48-2T333-2q-20,0-20,14q0,8 8,13.5T340,33q28,6 45,13.5t27.5,21T428,104l31,120q3,12-3.5,17T439,246l-139-1q-12,0-20-4.5T266,228L186,123q-22-29-26-46.5t7-27T199,34q9-3 17-8t8-14q-1-7-10-10.5T193-2q-24,0-49.5,1.5T90,1Q60,1 23.5-2T-41-5ZM338,287H454q10,0 14.5,4t7.5,15l47,219q3,9 3,14t-5,5q-2,0-6.5-2t-8.5-7L325,307q-8-10-8-15t21-5ZM495,694q-18,0-16,11q2,8 11,15l129,89q21,15 32,21t22,6q13,0 22-7t19-20l75-89q4-4 4.5-7.5T794,705q-2-12-18-12q-8,0-28.5,9.5t-42.5,22T669,745q-12,7-26,0q-12-6-33-14.5t-44.5-17t-43-14T495,694Z"/>
      <glyph unicode="&#xc3;" glyph-name="gid8" horiz-adv-x="717" d="M-41-5Q-52-5-58-1.5T-64,10q1,9 9.5,14T-34,32q23,6 47,15T59.5,70.5T98,103q69,77 131.5,150.5T353,400.5T476,549q16,18 27,35t18,28.5T534,624q23,0 41,5.5T608,646q16,12 27,20t18,8q9,0 10.5-14T661,623L560,117q-8-39 4.5-58T610,30q13-4 21-7.5T639,10q0-6-9.5-9.5T608-3q-17,0-42,1T514.5,0.5T466,2q-19,0-43.5-1t-48-2T333-2q-20,0-20,14q0,8 8,13.5T340,33q28,6 45,13.5t27.5,21T428,104l31,120q3,12-3.5,17T439,246l-139-1q-12,0-20-4.5T266,228L186,123q-22-29-26-46.5t7-27T199,34q9-3 17-8t8-14q-1-7-10-10.5T193-2q-24,0-49.5,1.5T90,1Q60,1 23.5-2T-41-5ZM338,287H454q10,0 14.5,4t7.5,15l47,219q3,9 3,14t-5,5q-2,0-6.5-2t-8.5-7L325,307q-8-10-8-15t21-5ZM511,691q-5,0-11.5,6.5T493,707q0,6 9,20.5t22.5,32t26.5,30T572,802q18,0 39-1t39-2t38-2.5t39-1.5q11,0 20.5,6.5T764,815q8,8 12.5,14.5T784,836q7,0 14-6t7-12q0-4-4.5-10T789,793q-11-14-22-30t-20-29q-6-8-15.5-11T717,720q-8,0-28.5,1.5T642,725t-48,3.5T561,730q-7,0-15.5-5T531,713q-8-7-13-14.5t-7-7.5Z"/>
      <glyph unicode="&#xc4;" glyph-name="gid5" horiz-adv-x="717" d="M-41-5Q-52-5-58-1.5T-64,10q1,9 9.5,14T-34,32q23,6 47,15T59.5,70.5T98,103q69,77 131.5,150.5T353,400.5T476,549q16,18 27,35t18,28.5T534,624q23,0 41,5.5T608,646q16,12 27,20t18,8q9,0 10.5-14T661,623L560,117q-8-39 4.5-58T610,30q13-4 21-7.5T639,10q0-6-9.5-9.5T608-3q-17,0-42,1T514.5,0.5T466,2q-19,0-43.5-1t-48-2T333-2q-20,0-20,14q0,8 8,13.5T340,33q28,6 45,13.5t27.5,21T428,104l31,120q3,12-3.5,17T439,246l-139-1q-12,0-20-4.5T266,228L186,123q-22-29-26-46.5t7-27T199,34q9-3 17-8t8-14q-1-7-10-10.5T193-2q-24,0-49.5,1.5T90,1Q60,1 23.5-2T-41-5ZM338,287H454q10,0 14.5,4t7.5,15l47,219q3,9 3,14t-5,5q-2,0-6.5-2t-8.5-7L325,307q-8-10-8-15t21-5ZM736,692q-22,0-37,15.5T684,743q0,31 23.5,54.5T766,821q22,0 36.5-16.5T817,766q0-20-11.5-36.5t-29.5-27T736,692Zm-199,0q-23,0-37.5,15.5T485,743q0,32 23.5,55T566,821q23,0 37-16.5T617,766q0-29-24-51.5T537,692Z"/>
      <glyph unicode="&#xc5;" glyph-name="gid7" horiz-adv-x="717" d="M-41-5Q-52-5-58-1.5T-64,10q1,9 9.5,14T-34,32q23,6 47,15T59.5,70.5T98,103q69,77 131.5,150.5T353,400.5T476,549q16,18 27,35t18,28.5T534,624q23,0 41,5.5T608,646q16,12 27,20t18,8q9,0 10.5-14T661,623L560,117q-8-39 4.5-58T610,30q13-4 21-7.5T639,10q0-6-9.5-9.5T608-3q-17,0-42,1T514.5,0.5T466,2q-19,0-43.5-1t-48-2T333-2q-20,0-20,14q0,8 8,13.5T340,33q28,6 45,13.5t27.5,21T428,104l31,120q3,12-3.5,17T439,246l-139-1q-12,0-20-4.5T266,228L186,123q-22-29-26-46.5t7-27T199,34q9-3 17-8t8-14q-1-7-10-10.5T193-2q-24,0-49.5,1.5T90,1Q60,1 23.5-2T-41-5ZM338,287H454q10,0 14.5,4t7.5,15l47,219q3,9 3,14t-5,5q-2,0-6.5-2t-8.5-7L325,307q-8-10-8-15t21-5ZM634,697q-32,0-59,16t-27,44q0,45 35.5,73T668,858q21,0 41-7.5T742,829t13-34q0-45-35.5-71.5T634,697Zm11,28q27,0 40.5,20T699,790q0,16-12,26.5T659,827q-26,0-41-20t-15-45q0-16 12.5-26.5T645,725Z"/>
      <glyph unicode="&#xc6;" glyph-name="gid9" horiz-adv-x="862" d="M-42-5Q-54-5-60.5-2T-65,9q3,9 11.5,13.5T-32,31q30,9 61,30.5T84,111L510,596q5,6 3,10.5T502,612l-59,11q-17,3-17,15q0,7 7.5,11t17.5,4q21,0 51.5-1t62.5-2t57-1q32,0 69,0t73,0q49,0 80,3.5t50,6.5t31,3q6,0 12-3.5t4-13.5q-2-28-8.5-63.5T919,522q-3-11-8.5-15.5T900,502t-8,3.5T889,516q-1,23-3.5,41T877,585q-7,13-22.5,21.5T816,615H719q-20,0-32-13t-17-29q-10-28-22-64.5t-22.5-73T607,372q-4-17-1-24t14-7q26,0 47.5,0t41.5,1q21,1 35.5,13.5T771,385q8,8 14,14.5T796,411q5,3 9,2t4-7q-3-12-5.5-25.5T795,353q-11-28-16.5-55T765,241q-3-11-7-17t-9-6q-8,0-12,8t-4,16q1,27-8,43t-24,16q-25,0-48,0.5T606,302q-11,0-18.5-7T575,271q-12-40-24-82.5T527,103q-9-29-1-46t35-17h92q24,0 44.5,6T736,65t33.5,32T799,137q6,7 11,10.5t11,3.5t8.5-5t0.5-11q-7-21-18-43.5T789.5,48T767,10q-4-7-10-10.5T743-4q-20,0-57,0.5T604-2T513-0.5T429,0q-21,0-42-1T344-3.5T300-5q-10,0-15,4T282,9q4,13 30,19q37,9 56.5,22.5T398,97q11,38 24,81t23,77q2,6 0.5,12T432,273H303q-9,0-16.5-5T270,253q-17-22-36-46t-38-49t-36-48q-19-25-18.5-40t14-23.5T190,32q12-3 17-8t2-13q-1-6-8-9.5T182-2q-24,0-51.5,1.5T75,1Q45,1 15.5-2T-42-5ZM344,314H448q10,0 13.5,3.5T467,328l66,225q1,4 0.5,7.5T531,564q-4,0-10-8L335,330q-8-10-5-13t14-3Z"/>
      <glyph unicode="&#xc7;" glyph-name="gid12" horiz-adv-x="654" d="M321-14q-48,0-94,19T145,59T87.5,142T66,247q0,90 34.5,166T195,545.5T333.5,633T500,664q32,0 59.5-5.5T610,645q19-6 31.5-10t23.5-4q6,0 11.5,1.5T689,637q7,4 14,7t13,3q9,0 10.5-6.5T723,626q-12-16-26.5-44T670,523t-19-55q-2-9-7.5-15.5T630,446q-10,0-13.5,12T614,486q3,23-1,46t-19,43q-16,24-41,39.5T498,630q-49,0-94-24.5t-82-67T257,441T213.5,324.5T198,201q0-48 12.5-81.5t34-55.5t50-32T355,22q44,0 79,17.5t65,48T556,157q7,10 12.5,17t12.5,7t10.5-7t1.5-17q-4-17-14-45T556,56.5T531.5,10T514-9q-8,0-13,3.5T491,2T479,8.5T460,11q-10,0-22-3.5T410-1q-16-4-38.5-8.5T321-14ZM245-281q-24,0-43.5,9t-31,23.5T159-220q0,34 26,34q13,0 24.5-7T231-209q13-11 23-19t25-8q10,0 15.5,6.5T300-213q0,15-10,25t-21,22q-11,11-22,25.5T236-111q0,17 19,40.5t47,47T358,17h36q-41-31-55.5-52.5T324-71q0-10 10-21t22-22q13-13 22-24.5t9-25.5q0-16-15-35.5T335-238t-46.5-31T245-281Z"/>
      <glyph unicode="&#xc8;" glyph-name="gid19" horiz-adv-x="574" d="M-28-5Q-39-5-43-1T-47,9q2,13 31,19Q26,38 45,51T74,97L213,550q12,37 1.5,50.5T167,621q-13,3-18,8t-3,11q1,7 10.5,10.5T184,654q11,0 32.5-1t46-2.5T307,649l164,1q49,0 76.5,3t41,6t18.5,3q6,0 10.5-5t4.5-13q0-10-6-30t-13-44.5T595,521q-1-10-6.5-15T578,501q-4,0-8.5,5.5T564,522q-2,52-14.5,74T498,618H405q-24,0-38-12t-24-47L289,379q-5-15-1-21t18-6l102,2q26,0 43.5,14T483,404q6,9 14,16.5t16,7.5q6,0 7.5-7T517,403q-9-20-16-38t-13-35q-6-18-10.5-37T468,251q-3-11-7.5-17.5T451,227q-7,0-11,8.5T436,252q1,31-7,47t-27,16l-105,1q-13,0-23-5.5T260,289L209,112q-12-43-1.5-61T254,33H364q22,0 42.5,7T444,59q19,13 35,35.5T511,142q5,7 8.5,11t9.5,4t8-6t2-16t-8-33T512,53.5T489,12q-5-9-12.5-12.5T459-4q-21,0-53,0.5t-70.5,1t-79,1T177-0.5T105,0Q84,0 61-1T16-3.5T-28-5ZM454,695q-3,0-9,1t-15,6q-36,21-78.5,45.5T273,795q-15,11-17,20q-1,8 12,15.5t29.5,13T321,851q19,3 31-11q28-29 51.5-59.5T453,721q10-9 10-18q0-8-9-8Z"/>
      <glyph unicode="&#xc9;" glyph-name="gid16" horiz-adv-x="574" d="M-28-5Q-39-5-43-1T-47,9q2,13 31,19Q26,38 45,51T74,97L213,550q12,37 1.5,50.5T167,621q-13,3-18,8t-3,11q1,7 10.5,10.5T184,654q11,0 32.5-1t46-2.5T307,649l164,1q49,0 76.5,3t41,6t18.5,3q6,0 10.5-5t4.5-13q0-10-6-30t-13-44.5T595,521q-1-10-6.5-15T578,501q-4,0-8.5,5.5T564,522q-2,52-14.5,74T498,618H405q-24,0-38-12t-24-47L289,379q-5-15-1-21t18-6l102,2q26,0 43.5,14T483,404q6,9 14,16.5t16,7.5q6,0 7.5-7T517,403q-9-20-16-38t-13-35q-6-18-10.5-37T468,251q-3-11-7.5-17.5T451,227q-7,0-11,8.5T436,252q1,31-7,47t-27,16l-105,1q-13,0-23-5.5T260,289L209,112q-12-43-1.5-61T254,33H364q22,0 42.5,7T444,59q19,13 35,35.5T511,142q5,7 8.5,11t9.5,4t8-6t2-16t-8-33T512,53.5T489,12q-5-9-12.5-12.5T459-4q-21,0-53,0.5t-70.5,1t-79,1T177-0.5T105,0Q84,0 61-1T16-3.5T-28-5ZM375,688q-9,0-10,7t7,20q21,34 42.5,65.5T461,844q10,14 31,14q7,0 24-3.5t31-10T561,830q-1-10-16-22q-34-27-73.5-56.5T398,698q-8-6-14-8t-9-2Z"/>
      <glyph unicode="&#xca;" glyph-name="gid17" horiz-adv-x="574" d="M-28-5Q-39-5-43-1T-47,9q2,13 31,19Q26,38 45,51T74,97L213,550q12,37 1.5,50.5T167,621q-13,3-18,8t-3,11q1,7 10.5,10.5T184,654q11,0 32.5-1t46-2.5T307,649l164,1q49,0 76.5,3t41,6t18.5,3q6,0 10.5-5t4.5-13q0-10-6-30t-13-44.5T595,521q-1-10-6.5-15T578,501q-4,0-8.5,5.5T564,522q-2,52-14.5,74T498,618H405q-24,0-38-12t-24-47L289,379q-5-15-1-21t18-6l102,2q26,0 43.5,14T483,404q6,9 14,16.5t16,7.5q6,0 7.5-7T517,403q-9-20-16-38t-13-35q-6-18-10.5-37T468,251q-3-11-7.5-17.5T451,227q-7,0-11,8.5T436,252q1,31-7,47t-27,16l-105,1q-13,0-23-5.5T260,289L209,112q-12-43-1.5-61T254,33H364q22,0 42.5,7T444,59q19,13 35,35.5T511,142q5,7 8.5,11t9.5,4t8-6t2-16t-8-33T512,53.5T489,12q-5-9-12.5-12.5T459-4q-21,0-53,0.5t-70.5,1t-79,1T177-0.5T105,0Q84,0 61-1T16-3.5T-28-5ZM277,694q-18,0-16,11q2,8 11,15l129,89q21,15 32,21t22,6q13,0 22-7t19-20l75-89q4-4 4.5-7.5T576,705q-2-12-18-12q-8,0-28.5,9.5t-42.5,22T451,745q-12,7-26,0q-12-6-33-14.5t-44.5-17t-43-14T277,694Z"/>
      <glyph unicode="&#xcb;" glyph-name="gid18" horiz-adv-x="574" d="M-28-5Q-39-5-43-1T-47,9q2,13 31,19Q26,38 45,51T74,97L213,550q12,37 1.5,50.5T167,621q-13,3-18,8t-3,11q1,7 10.5,10.5T184,654q11,0 32.5-1t46-2.5T307,649l164,1q49,0 76.5,3t41,6t18.5,3q6,0 10.5-5t4.5-13q0-10-6-30t-13-44.5T595,521q-1-10-6.5-15T578,501q-4,0-8.5,5.5T564,522q-2,52-14.5,74T498,618H405q-24,0-38-12t-24-47L289,379q-5-15-1-21t18-6l102,2q26,0 43.5,14T483,404q6,9 14,16.5t16,7.5q6,0 7.5-7T517,403q-9-20-16-38t-13-35q-6-18-10.5-37T468,251q-3-11-7.5-17.5T451,227q-7,0-11,8.5T436,252q1,31-7,47t-27,16l-105,1q-13,0-23-5.5T260,289L209,112q-12-43-1.5-61T254,33H364q22,0 42.5,7T444,59q19,13 35,35.5T511,142q5,7 8.5,11t9.5,4t8-6t2-16t-8-33T512,53.5T489,12q-5-9-12.5-12.5T459-4q-21,0-53,0.5t-70.5,1t-79,1T177-0.5T105,0Q84,0 61-1T16-3.5T-28-5ZM519,692q-22,0-37,15.5T467,743q0,31 23.5,54.5T549,821q22,0 36.5-16.5T600,766q0-20-11.5-36.5t-29.5-27T519,692Zm-199,0q-23,0-37.5,15.5T268,743q0,32 23.5,55T349,821q23,0 37-16.5T400,766q0-29-24-51.5T320,692Z"/>
      <glyph unicode="&#xcc;" glyph-name="gid27" horiz-adv-x="372" d="M-16-4q-9,0-14,3.5T-34,9q3,15 30,20q39,9 59.5,22.5T86,97L226,551q10,33 1,46.5T182,620q-11,2-15,7.5T165,641q1,6 9,9.5t17,3.5q23,0 45-1t43-2t42-1q20,0 41.5,1t44.5,2t46,1q20,0 17-14q-2-8-9.5-12.5T439,620q-27-6-44-14t-27-21t-16-35L221,122q-10-32-10-50t11.5-26T256,32q20-4 25.5-9T286,10q-1-7-8.5-10T261-3q-23,0-47.5,1t-48,2T121,1Q89,1 54-1.5T-16-4ZM372,695q-3,0-9,1t-15,6q-36,21-78.5,45.5T191,795q-15,11-17,20q-1,8 12,15.5t29.5,13T239,851q19,3 31-11q28-29 51.5-59.5T371,721q10-9 10-18q0-8-9-8Z"/>
      <glyph unicode="&#xcd;" glyph-name="gid24" horiz-adv-x="372" d="M-16-4q-9,0-14,3.5T-34,9q3,15 30,20q39,9 59.5,22.5T86,97L226,551q10,33 1,46.5T182,620q-11,2-15,7.5T165,641q1,6 9,9.5t17,3.5q23,0 45-1t43-2t42-1q20,0 41.5,1t44.5,2t46,1q20,0 17-14q-2-8-9.5-12.5T439,620q-27-6-44-14t-27-21t-16-35L221,122q-10-32-10-50t11.5-26T256,32q20-4 25.5-9T286,10q-1-7-8.5-10T261-3q-23,0-47.5,1t-48,2T121,1Q89,1 54-1.5T-16-4ZM293,688q-9,0-10,7t7,20q21,34 42.5,65.5T379,844q10,14 31,14q7,0 24-3.5t31-10T479,830q-1-10-16-22q-34-27-73.5-56.5T316,698q-8-6-14-8t-9-2Z"/>
      <glyph unicode="&#xce;" glyph-name="gid25" horiz-adv-x="372" d="M-16-4q-9,0-14,3.5T-34,9q3,15 30,20q39,9 59.5,22.5T86,97L226,551q10,33 1,46.5T182,620q-11,2-15,7.5T165,641q1,6 9,9.5t17,3.5q23,0 45-1t43-2t42-1q20,0 41.5,1t44.5,2t46,1q20,0 17-14q-2-8-9.5-12.5T439,620q-27-6-44-14t-27-21t-16-35L221,122q-10-32-10-50t11.5-26T256,32q20-4 25.5-9T286,10q-1-7-8.5-10T261-3q-23,0-47.5,1t-48,2T121,1Q89,1 54-1.5T-16-4ZM195,694q-18,0-16,11q2,8 11,15l129,89q21,15 32,21t22,6q13,0 22-7t19-20l75-89q4-4 4.5-7.5T494,705q-2-12-18-12q-8,0-28.5,9.5t-42.5,22T369,745q-12,7-26,0q-12-6-33-14.5t-44.5-17t-43-14T195,694Z"/>
      <glyph unicode="&#xcf;" glyph-name="gid26" horiz-adv-x="372" d="M-16-4q-9,0-14,3.5T-34,9q3,15 30,20q39,9 59.5,22.5T86,97L226,551q10,33 1,46.5T182,620q-11,2-15,7.5T165,641q1,6 9,9.5t17,3.5q23,0 45-1t43-2t42-1q20,0 41.5,1t44.5,2t46,1q20,0 17-14q-2-8-9.5-12.5T439,620q-27-6-44-14t-27-21t-16-35L221,122q-10-32-10-50t11.5-26T256,32q20-4 25.5-9T286,10q-1-7-8.5-10T261-3q-23,0-47.5,1t-48,2T121,1Q89,1 54-1.5T-16-4ZM436,692q-22,0-37,15.5T384,743q0,31 23.5,54.5T466,821q22,0 36.5-16.5T517,766q0-20-11.5-36.5t-29.5-27T436,692Zm-199,0q-23,0-37.5,15.5T185,743q0,32 23.5,55T266,821q23,0 37-16.5T317,766q0-29-24-51.5T237,692Z"/>
      <glyph unicode="&#xd0;" glyph-name="gid14" horiz-adv-x="739" d="M78,310q-10,0-11.5,9T67,335q3,11 13,18t20,7H417q8,0 12.5-5.5T430,343q-8-15-21-24t-26-9H78ZM309-7q-26,0-63,2.5T173.5,0T114,2Q95,2 73.5,1T29-2T-17-4q-9,0-14,3.5T-35,9q3,17 30,20q29,4 45.5,11.5T66.5,62T83,98L228,555q7,24-0.5,35.5t-24,18T163,620q-11,2-15,7.5T146,641q1,6 9.5,9.5T172,654q36,0 74.5-2t68.5-2q20,0 38,1t39.5,2t51.5,1q94,0 160.5-34.5t102.5-96T743,381q0-77-32.5-147T619,110T481,24.5T309-7Zm2,34q61,0 115,32t95,85.5T585.5,264T609,399q0,78-21,126t-59.5,70.5T438,618q-30,0-45.5-4.5t-23-15T357,572L221,129q-11-38-1-60.5t35-32T311,27Z"/>
      <glyph unicode="&#xd1;" glyph-name="gid34" horiz-adv-x="778" d="M9-4Q0-4-6.5-0.5T-12,9q2,8 9.5,12T18,29q38,9 58,28t30,49L251,517q13,34 10.5,56t-22,34.5T181,622q-15,2-23.5,7T149,643q0,8 10.5,11.5T178,658q24,0 53-1t59-2.5t55-1.5q11,0 19-5t12-15L585,179q2-4 6-9.5t8-5.5q6,0 13,16q3,9 10,30.5t16.5,52t19.5,65T678,397t17.5,65.5T707,514q12,53-7,75.5T629,621q-21,3-20,16q0,7 9.5,10.5T638,651q34,0 62-2.5t49-2.5q20,0 37,1.5t37,3t46,1.5q21,0 21-13q0-7-11-12t-25-7q-24-3-40-11t-27.5-27T763,528q-5-14-14-41.5t-20.5-64t-25-76.5t-26-79t-23-73T637,138q-7-25-5.5-38.5T642,68q6-11 13.5-19.5T670,34q8-7 13.5-11T689,11q0-7-4-9T673,0q-24,0-41-1.5t-30-3T574-7Q550-7 537.5,3.5T515,38q-12,26-29,65.5t-36.5,86t-40,94.5t-39,91t-33,75.5T314,499q-4,6-8,11t-8,5t-9-7.5T280,490q-11-35-27.5-82.5T219,306.5T187,201t-25-96q-8-33 5.5-49.5T221,29q12-2 19-6.5T245,10q-1-7-10-10T216-3q-26,0-41.5,1T147,0T119,1Q97,1 76,0T37.5-2.5T9-4ZM414,691q-5,0-11.5,6.5T396,707q0,6 9,20.5t22.5,32t26.5,30T475,802q18,0 39-1t39-2t38-2.5t39-1.5q11,0 20.5,6.5T667,815q8,8 12.5,14.5T687,836q7,0 14-6t7-12q0-4-4.5-10T692,793q-11-14-22-30t-20-29q-6-8-15.5-11T620,720q-8,0-28.5,1.5T545,725t-48,3.5T464,730q-7,0-15.5-5T434,713q-8-7-13-14.5t-7-7.5Z"/>
      <glyph unicode="&#xd2;" glyph-name="gid39" horiz-adv-x="693" d="M297-14q-72,0-124,33.5t-80.5,92T64,242q0,78 29.5,153.5t83.5,136T305,628t164,36q72,0 124.5-33.5T674,539t28-131q0-78-29.5-153T589,119T461,22T297-14Zm1,35q47,0 89,28.5t78,76T527,231t40,117.5T581,460q0,45-11.5,84t-37,63.5T467,632q-46,0-88-28.5T302,527T240.5,420.5T199.5,302T185,189q0-44 11.5-82T233,45t65-24ZM539,695q-3,0-9,1t-15,6q-36,21-78.5,45.5T358,795q-15,11-17,20q-1,8 12,15.5t29.5,13T406,851q19,3 31-11q28-29 51.5-59.5T538,721q10-9 10-18q0-8-9-8Z"/>
      <glyph unicode="&#xd3;" glyph-name="gid36" horiz-adv-x="693" d="M297-14q-72,0-124,33.5t-80.5,92T64,242q0,78 29.5,153.5t83.5,136T305,628t164,36q72,0 124.5-33.5T674,539t28-131q0-78-29.5-153T589,119T461,22T297-14Zm1,35q47,0 89,28.5t78,76T527,231t40,117.5T581,460q0,45-11.5,84t-37,63.5T467,632q-46,0-88-28.5T302,527T240.5,420.5T199.5,302T185,189q0-44 11.5-82T233,45t65-24ZM460,688q-9,0-10,7t7,20q21,34 42.5,65.5T546,844q10,14 31,14q7,0 24-3.5t31-10T646,830q-1-10-16-22q-34-27-73.5-56.5T483,698q-8-6-14-8t-9-2Z"/>
      <glyph unicode="&#xd4;" glyph-name="gid37" horiz-adv-x="693" d="M297-14q-72,0-124,33.5t-80.5,92T64,242q0,78 29.5,153.5t83.5,136T305,628t164,36q72,0 124.5-33.5T674,539t28-131q0-78-29.5-153T589,119T461,22T297-14Zm1,35q47,0 89,28.5t78,76T527,231t40,117.5T581,460q0,45-11.5,84t-37,63.5T467,632q-46,0-88-28.5T302,527T240.5,420.5T199.5,302T185,189q0-44 11.5-82T233,45t65-24Zm64,673q-18,0-16,11q2,8 11,15l129,89q21,15 32,21t22,6q13,0 22-7t19-20l75-89q4-4 4.5-7.5T661,705q-2-12-18-12q-8,0-28.5,9.5t-42.5,22T536,745q-12,7-26,0q-12-6-33-14.5t-44.5-17t-43-14T362,694Z"/>
      <glyph unicode="&#xd5;" glyph-name="gid41" horiz-adv-x="693" d="M297-14q-72,0-124,33.5t-80.5,92T64,242q0,78 29.5,153.5t83.5,136T305,628t164,36q72,0 124.5-33.5T674,539t28-131q0-78-29.5-153T589,119T461,22T297-14Zm1,35q47,0 89,28.5t78,76T527,231t40,117.5T581,460q0,45-11.5,84t-37,63.5T467,632q-46,0-88-28.5T302,527T240.5,420.5T199.5,302T185,189q0-44 11.5-82T233,45t65-24Zm79,670q-5,0-11.5,6.5T359,707q0,6 9,20.5t22.5,32t26.5,30T438,802q18,0 39-1t39-2t38-2.5t39-1.5q11,0 20.5,6.5T630,815q8,8 12.5,14.5T650,836q7,0 14-6t7-12q0-4-4.5-10T655,793q-11-14-22-30t-20-29q-6-8-15.5-11T583,720q-8,0-28.5,1.5T508,725t-48,3.5T427,730q-7,0-15.5-5T397,713q-8-7-13-14.5t-7-7.5Z"/>
      <glyph unicode="&#xd6;" glyph-name="gid38" horiz-adv-x="693" d="M297-14q-72,0-124,33.5t-80.5,92T64,242q0,78 29.5,153.5t83.5,136T305,628t164,36q72,0 124.5-33.5T674,539t28-131q0-78-29.5-153T589,119T461,22T297-14Zm1,35q47,0 89,28.5t78,76T527,231t40,117.5T581,460q0,45-11.5,84t-37,63.5T467,632q-46,0-88-28.5T302,527T240.5,420.5T199.5,302T185,189q0-44 11.5-82T233,45t65-24ZM603,692q-22,0-37,15.5T551,743q0,31 23.5,54.5T633,821q22,0 36.5-16.5T684,766q0-20-11.5-36.5t-29.5-27T603,692Zm-199,0q-23,0-37.5,15.5T352,743q0,32 23.5,55T433,821q23,0 37-16.5T484,766q0-29-24-51.5T404,692Z"/>
      <glyph unicode="&#xd7;" glyph-name="gid221" horiz-adv-x="582" d="M463,51q-8,0-15,7L303,203q-6,6-14-1L151,63q-4-4-9-5t-9,0q-6,2-14.5,15.5T110,100q0,10 5,15L245,245q5,4 5,7.5t-5,7.5L118,388q-5,5-5,14q0,12 7,24.5T131,443t10.5,3.5T152,442L290,303q4-4 6.5-4t6.5,3L445,445q6,5 12,5t9-4q6-7 12.5-18.5T485,405q0-8-7-14L346,258q-6-6 0-12L484,109q6-6 6-16q0-11-8.5-26.5T463,51Z"/>
      <glyph unicode="&#xd8;" glyph-name="gid40" horiz-adv-x="701" d="M58-14Q44-14 32.5-4T21,17q0,18 17,32l88,73l45,33L595,555l32,21l86,75q7,6 14,10t13,4q11,0 18-8t7-19q0-23-18-40l-83-73l-53-39L189,85L154,60L84,1Q78-4 71-9T58-14Zm239,0q-72,0-124,33.5t-80.5,92T64,242q0,78 29.5,153.5t83.5,136T305,628t164,36q72,0 124.5-33.5T674,539t28-131q0-78-29.5-153T589,119T461,22T297-14Zm1,35q47,0 89,28.5t78,76T527,231t40,117.5T581,460q0,45-11.5,84t-37,63.5T467,632q-46,0-88-28.5T302,527T240.5,420.5T199.5,302T185,189q0-44 11.5-82T233,45t65-24Z"/>
      <glyph unicode="&#xd9;" glyph-name="gid53" horiz-adv-x="708" d="M310-14Q251-14 205.5,4T132,56.5t-34,84T111,254l88,287q10,30 3,51t-27,27q-27,8-25,22q2,6 12.5,9.5T185,654q27,0 56.5-2t57.5-2q26,0 58.5,1.5T414,653q26,0 22-13q-2-10-16.5-14.5T387,614q-17-6-34-25.5T324,532L232,237q-18-60-5.5-102t46-64T350,49q61,0 107,30t78.5,79T585,264q14,42 26,80t21.5,68T646,458q17,60 18,91t-9,46t-28,23q-10,4-22,8.5T595,639q1,8 10.5,11t22.5,3q20,0 37-0.5t32.5-1T729,651q17,0 30,0.5t25,1.5t28,1q12,0 18-2.5t4-10.5q-3-13-35-21q-21-5-35-14.5T738.5,577T713,521q-23-65-43.5-130T625,256q-26-80-66.5-141T458,20T310-14ZM568,695q-3,0-9,1t-15,6q-36,21-78.5,45.5T387,795q-15,11-17,20q-1,8 12,15.5t29.5,13T435,851q19,3 31-11q28-29 51.5-59.5T567,721q10-9 10-18q0-8-9-8Z"/>
      <glyph unicode="&#xda;" glyph-name="gid50" horiz-adv-x="708" d="M310-14Q251-14 205.5,4T132,56.5t-34,84T111,254l88,287q10,30 3,51t-27,27q-27,8-25,22q2,6 12.5,9.5T185,654q27,0 56.5-2t57.5-2q26,0 58.5,1.5T414,653q26,0 22-13q-2-10-16.5-14.5T387,614q-17-6-34-25.5T324,532L232,237q-18-60-5.5-102t46-64T350,49q61,0 107,30t78.5,79T585,264q14,42 26,80t21.5,68T646,458q17,60 18,91t-9,46t-28,23q-10,4-22,8.5T595,639q1,8 10.5,11t22.5,3q20,0 37-0.5t32.5-1T729,651q17,0 30,0.5t25,1.5t28,1q12,0 18-2.5t4-10.5q-3-13-35-21q-21-5-35-14.5T738.5,577T713,521q-23-65-43.5-130T625,256q-26-80-66.5-141T458,20T310-14ZM490,688q-9,0-10,7t7,20q21,34 42.5,65.5T576,844q10,14 31,14q7,0 24-3.5t31-10T676,830q-1-10-16-22q-34-27-73.5-56.5T513,698q-8-6-14-8t-9-2Z"/>
      <glyph unicode="&#xdb;" glyph-name="gid51" horiz-adv-x="708" d="M310-14Q251-14 205.5,4T132,56.5t-34,84T111,254l88,287q10,30 3,51t-27,27q-27,8-25,22q2,6 12.5,9.5T185,654q27,0 56.5-2t57.5-2q26,0 58.5,1.5T414,653q26,0 22-13q-2-10-16.5-14.5T387,614q-17-6-34-25.5T324,532L232,237q-18-60-5.5-102t46-64T350,49q61,0 107,30t78.5,79T585,264q14,42 26,80t21.5,68T646,458q17,60 18,91t-9,46t-28,23q-10,4-22,8.5T595,639q1,8 10.5,11t22.5,3q20,0 37-0.5t32.5-1T729,651q17,0 30,0.5t25,1.5t28,1q12,0 18-2.5t4-10.5q-3-13-35-21q-21-5-35-14.5T738.5,577T713,521q-23-65-43.5-130T625,256q-26-80-66.5-141T458,20T310-14Zm82,708q-18,0-16,11q2,8 11,15l129,89q21,15 32,21t22,6q13,0 22-7t19-20l75-89q4-4 4.5-7.5T691,705q-2-12-18-12q-8,0-28.5,9.5t-42.5,22T566,745q-12,7-26,0q-12-6-33-14.5t-44.5-17t-43-14T392,694Z"/>
      <glyph unicode="&#xdc;" glyph-name="gid52" horiz-adv-x="708" d="M310-14Q251-14 205.5,4T132,56.5t-34,84T111,254l88,287q10,30 3,51t-27,27q-27,8-25,22q2,6 12.5,9.5T185,654q27,0 56.5-2t57.5-2q26,0 58.5,1.5T414,653q26,0 22-13q-2-10-16.5-14.5T387,614q-17-6-34-25.5T324,532L232,237q-18-60-5.5-102t46-64T350,49q61,0 107,30t78.5,79T585,264q14,42 26,80t21.5,68T646,458q17,60 18,91t-9,46t-28,23q-10,4-22,8.5T595,639q1,8 10.5,11t22.5,3q20,0 37-0.5t32.5-1T729,651q17,0 30,0.5t25,1.5t28,1q12,0 18-2.5t4-10.5q-3-13-35-21q-21-5-35-14.5T738.5,577T713,521q-23-65-43.5-130T625,256q-26-80-66.5-141T458,20T310-14ZM633,692q-22,0-37,15.5T581,743q0,31 23.5,54.5T663,821q22,0 36.5-16.5T714,766q0-20-11.5-36.5t-29.5-27T633,692Zm-199,0q-23,0-37.5,15.5T382,743q0,32 23.5,55T463,821q23,0 37-16.5T514,766q0-29-24-51.5T434,692Z"/>
      <glyph unicode="&#xdd;" glyph-name="gid58" horiz-adv-x="627" d="M121-6q-13,0-18.5,4T98,9q1,8 11.5,12.5T133,29q40,7 62.5,27T227,109l46,147q9,25 8.5,46T274,348L215,551q-8,27-20,43.5T162,616q-17,5-24,10.5T133,640q1,7 10.5,10.5T162,654q35,0 67-2.5t72-2.5q26,0 52,2.5t53,2.5q10,0 16.5-3.5T428,640q-1-8-11.5-13T393,619q-40-7-50.5-21.5T340,551l42-175q5-17 8.5-23t7.5-6q5,0 12,6t16,17q34,39 65.5,80T558,534q30,36 28.5,57T548,619q-10,2-17.5,7.5T524,640q1,7 11,10t21,3q22,0 43-2t46-2q30,0 56,3t50,3q12,0 19-3t6-11q-2-9-12-12.5T743,621q-20-5-43-17t-42.5-26.5T625,548q-28-31-58-65t-59-67t-55-61q-20-21-32-44t-21-53L355,110q-11-37-0.5-54.5T399,29q13-3 19-7t5-13q-1-6-10-10T392-5q-23,0-45.5,2t-45,3.5T259,2q-21,0-44.5-1.5t-47-4T121-6ZM440,688q-9,0-10,7t7,20q21,34 42.5,65.5T526,844q10,14 31,14q7,0 24-3.5t31-10T626,830q-1-10-16-22q-34-27-73.5-56.5T463,698q-8-6-14-8t-9-2Z"/>
      <glyph unicode="&#xde;" glyph-name="gid44" horiz-adv-x="594" d="M-16-4q-9,0-14,3.5T-34,9q3,15 30,20q39,9 59.5,22.5T86,97L226,551q10,33 1,46.5T182,620q-11,2-15,7.5T165,641q1,6 9,9.5t17,3.5q23,0 45-1t43-2t42-1q20,0 41.5,1t44.5,2t46,1q20,0 17-14q-2-8-9.5-12.5T439,620q-27-6-44-14t-26.5-21T352,550l-11-35l-47,25q17,2 42.5,3.5T389,545q67,0 115.5-24.5t75-68T605,351q-1-48-25-89t-64-71.5t-93.5-47T310,127q-20,0-32.5,4.5T265,146q0,6 6.5,9.5T287,160q12,2 23.5,3.5T335,167q36,7 64,26.5T446,241t28.5,59t9.5,60q0,51-15.5,83.5t-41,48.5T372,508q-14,0-22.5-5T334,484t-16-43L213,98q-9-31 2.5-44.5T261,29q11-3 15.5-7T279,10q-1-7-8-10T254-3q-23,0-46,1T163.5,0T121,1Q89,1 54-1.5T-16-4Z"/>
      <glyph unicode="&#xdf;" glyph-name="gid109" horiz-adv-x="554" d="M-87-290q-29,0-54.5,6t-41,20T-198-225q0,23 14.5,39.5T-151-169q9,0 17.5-10t18.5-21q11-13 24-27.5T-60-242q28,0 42.5,29T12-116q6,25 13.5,57T41,8.5t15.5,69T70,137q14,62 30,122.5T134,377q35,118 93.5,190t134,105.5T522,706q73,0 105.5-23.5T660,624q0-26-16.5-50T601,528t-54-41.5T496,450q-21-15-41-30t-32.5-33.5T410,342q0-12 7.5-30.5t17-38T452,239q13-27 25.5-53T490,134q0-28-19.5-55T426,32Q402,13 371-0.5T305-14q-37,0-60.5,16.5T221,44q0,22 10.5,39T258,100q9,0 19.5-9T296,71q11-12 23-24.5T350,34q18,0 32.5,13.5T397,82q0,20-9.5,43.5T364,173q-15,25-28.5,54T322,282q0,34 14,62.5T375,398t56,49q21,18 43.5,36.5t42,39.5T548,566t12,46q0,25-17.5,42.5T487,672q-42,0-80-22.5t-68.5-61T284,501T246,398q-16-55-33-122T179.5,140T151,9q-12-57-34.5-111t-54-96T-7-265t-80-25Z"/>
      <glyph unicode="&#xe0;" glyph-name="gid66" horiz-adv-x="525" d="M350,472q-7,0-14,4.5T322,488L220,604q-10,11-15.5,20T199,640q0,9 9.5,19.5t22,18T251,685q11,0 18.5-8T284,653l74-154q5-9 4-18t-12-9ZM40-14Q27-14 13.5-6.5T-9,12t-9,22q0,33 20,73t61.5,92.5T171,320q47,47 83.5,74.5T309,422q23,0 49-23q9-10 9-10t1,0q2,0 3,1t3,5q10,18 13,23.5t3,7.5q5,12 20,12q14,0 28.5-6t24-14.5T472,402q0-6-3-15L365,107q-10-29 11-29q14,0 38.5,17.5T461,138q3,2 4,2.5t2,0.5q5,0 8-3.5t3-10.5q0-12-17.5-35T418,47Q385,18 352,2T295-14q-13,0-27,7.5t-23,19T236,35q0,9 6,23q0,1 3.5,10.5t9.5,24t13,29T281,149q3,7 0.5,10.5T275,159Q221,97 178.5,59T103,3.5T40-14Zm89,92q19,0 58,33t83,86q34,41 54,74t20,48q0,8-18,23q-8,7-17.5,11T293,357q-16,0-44.5-18T195,297q-24-24-46-57.5T113,172T99,113q0-16 8-25.5T129,78Z"/>
      <glyph unicode="&#xe1;" glyph-name="gid63" horiz-adv-x="525" d="M40-14Q27-14 13.5-6.5T-9,12t-9,22q0,33 20,73t61.5,92.5T171,320q47,47 83.5,74.5T309,422q23,0 49-23q9-10 9-10t1,0q2,0 3,1t3,5q10,18 13,23.5t3,7.5q5,12 20,12q14,0 28.5-6t24-14.5T472,402q0-6-3-15L365,107q-10-29 11-29q14,0 38.5,17.5T461,138q3,2 4,2.5t2,0.5q5,0 8-3.5t3-10.5q0-12-17.5-35T418,47Q385,18 352,2T295-14q-13,0-27,7.5t-23,19T236,35q0,9 6,23q0,1 3.5,10.5t9.5,24t13,29T281,149q3,7 0.5,10.5T275,159Q221,97 178.5,59T103,3.5T40-14Zm89,92q19,0 58,33t83,86q34,41 54,74t20,48q0,8-18,23q-8,7-17.5,11T293,357q-16,0-44.5-18T195,297q-24-24-46-57.5T113,172T99,113q0-16 8-25.5T129,78ZM333,472q-11,0-12,9t4,18l74,154q7,16 15,24t17,8t21.5-7.5t21.5-18t9-19.5q0-7-5-16t-15-20L360,488q-5-7-12.5-11.5T333,472Z"/>
      <glyph unicode="&#xe2;" glyph-name="gid64" horiz-adv-x="525" d="M406,672q9,0 13-8.5T429,635q4-16 8.5-35t9-38.5t8-36.5t4.5-28q2-12-1.5-23T444,463q-13,0-26,27q-6,14-16,35.5T381,568q-3,7-10,0q-23-22-47-43.5T284,489q-13-11-23-18.5T245,463q-10,0-10,11q0,6 2.5,12.5T246,500q14,18 33.5,41.5t39.5,47T355,631q16,18 29.5,29.5T406,672ZM40-14Q27-14 13.5-6.5T-9,12t-9,22q0,33 20,73t61.5,92.5T171,320q47,47 83.5,74.5T309,422q23,0 49-23q9-10 9-10t1,0q2,0 3,1t3,5q10,18 13,23.5t3,7.5q5,12 20,12q14,0 28.5-6t24-14.5T472,402q0-6-3-15L365,107q-10-29 11-29q14,0 38.5,17.5T461,138q3,2 4,2.5t2,0.5q5,0 8-3.5t3-10.5q0-12-17.5-35T418,47Q385,18 352,2T295-14q-13,0-27,7.5t-23,19T236,35q0,9 6,23q0,1 3.5,10.5t9.5,24t13,29T281,149q3,7 0.5,10.5T275,159Q221,97 178.5,59T103,3.5T40-14Zm89,92q19,0 58,33t83,86q34,41 54,74t20,48q0,8-18,23q-8,7-17.5,11T293,357q-16,0-44.5-18T195,297q-24-24-46-57.5T113,172T99,113q0-16 8-25.5T129,78Z"/>
      <glyph unicode="&#xe3;" glyph-name="gid68" horiz-adv-x="525" d="M40-14Q27-14 13.5-6.5T-9,12t-9,22q0,33 20,73t61.5,92.5T171,320q47,47 83.5,74.5T309,422q23,0 49-23q9-10 9-10t1,0q2,0 3,1t3,5q10,18 13,23.5t3,7.5q5,12 20,12q14,0 28.5-6t24-14.5T472,402q0-6-3-15L365,107q-10-29 11-29q14,0 38.5,17.5T461,138q3,2 4,2.5t2,0.5q5,0 8-3.5t3-10.5q0-12-17.5-35T418,47Q385,18 352,2T295-14q-13,0-27,7.5t-23,19T236,35q0,9 6,23q0,1 3.5,10.5t9.5,24t13,29T281,149q3,7 0.5,10.5T275,159Q221,97 178.5,59T103,3.5T40-14Zm89,92q19,0 58,33t83,86q34,41 54,74t20,48q0,8-18,23q-8,7-17.5,11T293,357q-16,0-44.5-18T195,297q-24-24-46-57.5T113,172T99,113q0-16 8-25.5T129,78ZM229,468q-5,0-12,6t-7,12q0,5 11,20.5T248,541t31,32.5T301,587q13,0 25.5-2.5T363,580q21-1 37-2.5t27-1.5q19,0 35,18q11,11 15.5,17.5T486,618q6,0 13.5-6t7.5-12q0-4-6-11t-14-17q-11-14-22-30.5T444,511q-6-8-15.5-11T414,497q-8,0-25,1.5t-38,3t-41.5,3T276,506q-11,0-19-9q-11-13-17.5-21T229,468Z"/>
      <glyph unicode="&#xe4;" glyph-name="gid65" horiz-adv-x="525" d="M40-14Q27-14 13.5-6.5T-9,12t-9,22q0,33 20,73t61.5,92.5T171,320q47,47 83.5,74.5T309,422q23,0 49-23q9-10 9-10t1,0q2,0 3,1t3,5q10,18 13,23.5t3,7.5q5,12 20,12q14,0 28.5-6t24-14.5T472,402q0-6-3-15L365,107q-10-29 11-29q14,0 38.5,17.5T461,138q3,2 4,2.5t2,0.5q5,0 8-3.5t3-10.5q0-12-17.5-35T418,47Q385,18 352,2T295-14q-13,0-27,7.5t-23,19T236,35q0,9 6,23q0,1 3.5,10.5t9.5,24t13,29T281,149q3,7 0.5,10.5T275,159Q221,97 178.5,59T103,3.5T40-14Zm89,92q19,0 58,33t83,86q34,41 54,74t20,48q0,8-18,23q-8,7-17.5,11T293,357q-16,0-44.5-18T195,297q-24-24-46-57.5T113,172T99,113q0-16 8-25.5T129,78ZM444,500q-21,0-33.5,14.5T398,550q0,22 11.5,40t30,28.5T480,629t34.5-14.5T527,579q0-32-24.5-55.5T444,500Zm-189,0q-21,0-33.5,14.5T209,550q0,22 11.5,40t30,28.5T290,629q23,0 35.5-14.5T338,579q0-32-24.5-55.5T255,500Z"/>
      <glyph unicode="&#xe5;" glyph-name="gid67" horiz-adv-x="525" d="M40-14Q27-14 13.5-6.5T-9,12t-9,22q0,33 20,73t61.5,92.5T171,320q47,47 83.5,74.5T309,422q23,0 49-23q9-10 9-10t1,0q2,0 3,1t3,5q10,18 13,23.5t3,7.5q5,12 20,12q14,0 28.5-6t24-14.5T472,402q0-6-3-15L365,107q-10-29 11-29q14,0 38.5,17.5T461,138q3,2 4,2.5t2,0.5q5,0 8-3.5t3-10.5q0-12-17.5-35T418,47Q385,18 352,2T295-14q-13,0-27,7.5t-23,19T236,35q0,9 6,23q0,1 3.5,10.5t9.5,24t13,29T281,149q3,7 0.5,10.5T275,159Q221,97 178.5,59T103,3.5T40-14Zm89,92q19,0 58,33t83,86q34,41 54,74t20,48q0,8-18,23q-8,7-17.5,11T293,357q-16,0-44.5-18T195,297q-24-24-46-57.5T113,172T99,113q0-16 8-25.5T129,78ZM346,486q-30,0-51.5,17T273,548q0,34 19,62t49,44.5T403,671q30,0 52-16.5T477,609q0-35-19-63t-49-44t-63-16Zm15,33q16,0 30,13t23,31t9,34q0,17-9.5,27.5T387,635q-16,0-30-12t-22.5-29.5T326,559t9-28.5T361,519Z"/>
      <glyph unicode="&#xe6;" glyph-name="gid69" horiz-adv-x="551" d="M39-14Q28-14 15-8T-7.5,9T-17,35q0,41 27.5,93t75,104.5T193,327q47,34 88.5,55T360,412.5t70,9.5l-80-63q-35-1-69-14.5T209,302q-31-24-56-58t-39.5-68.5T99,114q0-20 8-28t20-8q15,0 43,23.5T234,178l24-36q-50-57-88-91.5T101,1T39-14Zm288-1q-24,0-50.5,17T232,47.5T213,109q-1,56 17,112t51.5,102.5t77.5,75T455,427q46,0 69-19t23-49q1-33-21-59.5t-56-44t-69.5-26T338,223q-9,1-11-9q-3-16-5.5-29.5T319,151q1-35 18-59t44-24q28,0 51,16.5T471,124q10,12 16,12q10,0 10-12q0-2-0.5-6.5T494,111q-17-35-41.5-63.5T397,2T327-15Zm18,268q10,0 29,6t40.5,20t36,34.5T465,363q-1,12-6,22t-19,10q-15,0-31.5-12t-31-32T353,307t-15-48q0-6 7-6Z"/>
      <glyph unicode="&#xe7;" glyph-name="gid72" horiz-adv-x="349" d="M130-14Q99-14 72,2.5t-43.5,45T12,111q1,45 14,90t36.5,85.5t56,72t73.5,50T280,427q35,0 55.5-14.5T356,376q0-18-12-36t-25-18q-8,0-14,6.5T290,350q-8,16-19.5,27.5T245,389q-23,0-45-22.5t-40.5-58t-30-78T118,149q-1-36 16-53.5T181,78q28,0 50,12.5T271,123q5,6 9.5,9t9.5,3q9,0 9-11q0-19-14.5-43T245,35T190-0.5T130-14ZM41-281q-24,0-43.5,9t-31,23.5T-45-220q0,34 26,34q13,0 24.5-7T27-209q13-11 23-19t25-8q10,0 15.5,6.5T96-213q0,15-10,25T65-166q-11,11-22,25.5T32-111q0,17 19,40.5t47,47T154,17h36q-41-31-55.5-52.5T120-71q0-10 10-21t22-22q13-13 22-24.5t9-25.5q0-16-15-35.5T131-238T84.5-269T41-281Z"/>
      <glyph unicode="&#xe8;" glyph-name="gid79" horiz-adv-x="367" d="M298,472q-6,0-13.5,4.5T271,488L168,604q-9,11-14.5,20T148,640q0,9 9.5,19.5t22,18T200,685q10,0 17.5-8T233,653l73-154q5-9 4-18t-12-9ZM126-15Q101-15 73.5,1.5t-46,43T9,101q0,58 22,116T91,322t86,76t99,29q50,0 74-19.5T374,359q0-33-21.5-57t-56-41t-76-28T141,214q-5-1-7.5-2.5T129,205q-4-13-7-27t-4-27q-1-35 16.5-58.5T186,69q31,0 55,15.5T285,122q11,11 18,11q9,0 9-10q0-3-0.5-6.5T309,111q-19-35-46-64T202,1.5T126-15Zm22,260q17,4 41,11.5T235.5,278T273,312.5T289,362q1,12-6,22t-21,10q-19,0-39-14t-37.5-35.5T156,298t-15-47q-1-7 7-6Z"/>
      <glyph unicode="&#xe9;" glyph-name="gid76" horiz-adv-x="367" d="M126-15Q101-15 73.5,1.5t-46,43T9,101q0,58 22,116T91,322t86,76t99,29q50,0 74-19.5T374,359q0-33-21.5-57t-56-41t-76-28T141,214q-5-1-7.5-2.5T129,205q-4-13-7-27t-4-27q-1-35 16.5-58.5T186,69q31,0 55,15.5T285,122q11,11 18,11q9,0 9-10q0-3-0.5-6.5T309,111q-19-35-46-64T202,1.5T126-15Zm22,260q17,4 41,11.5T235.5,278T273,312.5T289,362q1,12-6,22t-21,10q-19,0-39-14t-37.5-35.5T156,298t-15-47q-1-7 7-6ZM282,472q-11,0-12,9t4,18l74,154q7,16 15,24t17,8t21.5-7.5t21.5-18t9-19.5q0-7-5-16t-15-20L309,488q-5-7-12.5-11.5T282,472Z"/>
      <glyph unicode="&#xea;" glyph-name="gid77" horiz-adv-x="367" d="M355,672q8,0 12.5-8.5T377,635q5-16 9.5-35t8.5-38.5t7.5-36.5t5.5-28q2-12-1.5-23T392,463q-13,0-25,27q-6,14-16,35.5T330,568q-4,7-11,0q-23-22-47-43.5T233,489q-13-11-23.5-18.5T193,463q-10,0-10,11q0,6 3,12.5t8,13.5q14,18 33.5,41.5t39.5,47T304,631q15,18 28.5,29.5T355,672ZM126-15Q101-15 73.5,1.5t-46,43T9,101q0,58 22,116T91,322t86,76t99,29q50,0 74-19.5T374,359q0-33-21.5-57t-56-41t-76-28T141,214q-5-1-7.5-2.5T129,205q-4-13-7-27t-4-27q-1-35 16.5-58.5T186,69q31,0 55,15.5T285,122q11,11 18,11q9,0 9-10q0-3-0.5-6.5T309,111q-19-35-46-64T202,1.5T126-15Zm22,260q17,4 41,11.5T235.5,278T273,312.5T289,362q1,12-6,22t-21,10q-19,0-39-14t-37.5-35.5T156,298t-15-47q-1-7 7-6Z"/>
      <glyph unicode="&#xeb;" glyph-name="gid78" horiz-adv-x="367" d="M126-15Q101-15 73.5,1.5t-46,43T9,101q0,58 22,116T91,322t86,76t99,29q50,0 74-19.5T374,359q0-33-21.5-57t-56-41t-76-28T141,214q-5-1-7.5-2.5T129,205q-4-13-7-27t-4-27q-1-35 16.5-58.5T186,69q31,0 55,15.5T285,122q11,11 18,11q9,0 9-10q0-3-0.5-6.5T309,111q-19-35-46-64T202,1.5T126-15Zm22,260q17,4 41,11.5T235.5,278T273,312.5T289,362q1,12-6,22t-21,10q-19,0-39-14t-37.5-35.5T156,298t-15-47q-1-7 7-6ZM392,500q-21,0-33.5,14.5T346,550q0,22 11.5,40t30,28.5T428,629t34.5-14.5T475,579q0-32-24.5-55.5T392,500Zm-189,0q-21,0-33.5,14.5T157,550q0,22 11.5,40t30,28.5T238,629q23,0 35.5-14.5T286,579q0-32-24.5-55.5T203,500Z"/>
      <glyph unicode="&#xec;" glyph-name="gid88" horiz-adv-x="319" d="M260,470q-6,0-13.5,5T233,486L130,602q-9,11-15,20t-6,16q0,10 9.5,20t22,17.5T162,683q10,0 17.5-8T194,652l74-154q5-9 4-18.5T260,470ZM79-14Q58-14 42,1.5T26,33q0,5 0.5,9.5T30,53q33,70 59,136t49,123q3,8-4,8t-19-5T90,302.5T65,287q-10-6-15.5-2.5T44,295q0,6 11.5,19t30,28.5T127,374t46,29.5T215,425q13,5 26-2t21-18.5t4-20.5L151,103q-3-5-4-10.5T146,83q0-5 3.5-7t6.5-2q11,0 29.5,12.5t39,29.5T261,149q2,3 4,3q4,0 7-3.5t3-7.5q0-18-20.5-43.5T203,46.5t-64.5-43T79-14Z"/>
      <glyph unicode="&#xed;" glyph-name="gid85" horiz-adv-x="319" d="M79-14Q58-14 42,1.5T26,33q0,5 0.5,9.5T30,53q33,70 59,136t49,123q3,8-4,8t-19-5T90,302.5T65,287q-10-6-15.5-2.5T44,295q0,6 11.5,19t30,28.5T127,374t46,29.5T215,425q13,5 26-2t21-18.5t4-20.5L151,103q-3-5-4-10.5T146,83q0-5 3.5-7t6.5-2q11,0 29.5,12.5t39,29.5T261,149q2,3 4,3q4,0 7-3.5t3-7.5q0-18-20.5-43.5T203,46.5t-64.5-43T79-14ZM243,470q-11,0-12,9t4,18l74,154q7,16 15,24t17,8t21.5-7.5t21.5-18t9-19.5q0-7-5-16t-15-20L270,486q-5-7-12.5-11.5T243,470Z"/>
      <glyph unicode="&#xee;" glyph-name="gid86" horiz-adv-x="319" d="M316,671q9,0 13.5-9t9.5-28q4-17 8.5-36t9-38.5t8-36T370,496q2-13-2-24t-14-11q-13,0-25,27q-6,14-16,35.5T291,566q-3,7-10,0q-23-21-47-42.5T194,487q-12-11-22.5-18.5T155,461q-10,0-10,12q0,5 2.5,11.5T156,498q14,18 33.5,41.5T229,587t36,42t29.5,30T316,671ZM79-14Q58-14 42,1.5T26,33q0,5 0.5,9.5T30,53q33,70 59,136t49,123q3,8-4,8t-19-5T90,302.5T65,287q-10-6-15.5-2.5T44,295q0,6 11.5,19t30,28.5T127,374t46,29.5T215,425q13,5 26-2t21-18.5t4-20.5L151,103q-3-5-4-10.5T146,83q0-5 3.5-7t6.5-2q11,0 29.5,12.5t39,29.5T261,149q2,3 4,3q4,0 7-3.5t3-7.5q0-18-20.5-43.5T203,46.5t-64.5-43T79-14Z"/>
      <glyph unicode="&#xef;" glyph-name="gid87" horiz-adv-x="319" d="M79-14Q58-14 42,1.5T26,33q0,5 0.5,9.5T30,53q33,70 59,136t49,123q3,8-4,8t-19-5T90,302.5T65,287q-10-6-15.5-2.5T44,295q0,6 11.5,19t30,28.5T127,374t46,29.5T215,425q13,5 26-2t21-18.5t4-20.5L151,103q-3-5-4-10.5T146,83q0-5 3.5-7t6.5-2q11,0 29.5,12.5t39,29.5T261,149q2,3 4,3q4,0 7-3.5t3-7.5q0-18-20.5-43.5T203,46.5t-64.5-43T79-14ZM354,498q-21,0-33.5,14.5T308,548q0,22 11.5,40t30,28.5T390,627t34.5-14.5T437,577q0-32-24.5-55.5T354,498Zm-189,0q-21,0-33.5,14.5T119,548q0,22 11.5,40t30,28.5T200,627q23,0 35.5-14.5T248,577q0-32-24.5-55.5T165,498Z"/>
      <glyph unicode="&#xf0;" glyph-name="gid74" horiz-adv-x="438" d="M141-14Q111-14 84,2T41,47.5T27,115q2,48 21,101.5T102,318t83.5,78.5T294,427q9,0 17.5-2t14.5-5q4-1 8-3t6-2q4,0 7,16t3,36q0,42-11,75L215,479q-11-5-18.5-1.5T190,489q1,14 6,28t17,20l111,56q-14,32-36.5,51.5T231,670q-11,2-17,6.5T208,687q0,12 9.5,15t23.5,3q53,0 94.5-21T404,627l93,46q8,5 18,3t10-12q0-13-7-27t-21-21l-67-33q26-59 26-129q0-62-15.5-128t-44-127T329,90T242.5,14T141-14Zm18,36q21,0 44,21.5t44.5,57T287,178t29.5,83T330,335q1,28-6.5,42.5T295,392q-20,0-42.5-21.5t-44.5-57t-40.5-77t-30.5-83T124,80q-1-28 7.5-43T159,22Z"/>
      <glyph unicode="&#xf1;" glyph-name="gid95" horiz-adv-x="575" d="M99-15q-8,0-18,6T62,6.5T49,29t2,26L157,317q12,32-6,32q-8,0-20.5-1.5t-27.5-10T73,310q-4-5-11-4.5T54,315q0,7 5.5,18T73,355.5T86,373q21,23 52.5,38T213,427q20,0 32-10.5t15.5-27T257,355L200,211q-3-7 4.5-8t10.5,5q37,65 74.5,114t76,77T441,427q34,0 50.5-19.5t19-49T499,299L418,109q-13-33 5-33q8,0 21,7t27.5,17T497,119t16,14q3,4 7,7t7,3t6-3t3-8q0-16-10-28q-28-34-62.5-60.5t-71-42T322-14q-12,0-24,8T280.5,13T280,37q31,71 64,141t61,142q9,26 6.5,37.5T397,369q-13,1-28-12.5T336.5,321T299,273q-10-13-27-40t-38.5-60.5T191,104T153,39Q139,15 126,0T99-15ZM243,468q-5,0-12,6t-7,12q0,5 11,20.5T262,541t31,32.5T315,587q13,0 25.5-2.5T377,580q21-1 37-2.5t27-1.5q19,0 35,18q11,11 15.5,17.5T500,618q6,0 13.5-6t7.5-12q0-4-6-11t-14-17q-11-14-22-30.5T458,511q-6-8-15.5-11T428,497q-8,0-25,1.5t-38,3t-41.5,3T290,506q-11,0-19-9q-11-13-17.5-21T243,468Z"/>
      <glyph unicode="&#xf2;" glyph-name="gid100" horiz-adv-x="432" d="M324,472q-7,0-14.5,4.5T296,488L194,604q-10,11-15.5,20T173,640q0,9 9.5,19.5t22,18T225,685q10,0 18-8t15-24l74-154q4-9 3-18t-11-9ZM139-14Q106-14 76.5,3.5t-47,47T12,118q0,47 19.5,100T87,318.5t86.5,78T286,427q61,0 97.5-36.5T420,292q0-45-19-98T345,93.5T256.5,16T139-14Zm19,36q21,0 42.5,22T242,101.5T277.5,180t25,86t9.5,78q0,22-8,35t-29,13q-19,0-40.5-21T193,315.5t-36.5-77T130,153T120,72q0-26 10.5-38T158,22Z"/>
      <glyph unicode="&#xf3;" glyph-name="gid97" horiz-adv-x="432" d="M139-14Q106-14 76.5,3.5t-47,47T12,118q0,47 19.5,100T87,318.5t86.5,78T286,427q61,0 97.5-36.5T420,292q0-45-19-98T345,93.5T256.5,16T139-14Zm19,36q21,0 42.5,22T242,101.5T277.5,180t25,86t9.5,78q0,22-8,35t-29,13q-19,0-40.5-21T193,315.5t-36.5-77T130,153T120,72q0-26 10.5-38T158,22ZM307,472q-11,0-12,9t4,18l74,154q7,16 15,24t17,8t21.5-7.5t21.5-18t9-19.5q0-7-5-16t-15-20L334,488q-5-7-12.5-11.5T307,472Z"/>
      <glyph unicode="&#xf4;" glyph-name="gid98" horiz-adv-x="432" d="M380,672q9,0 13-8.5t9-28.5q5-16 9.5-35t9-38.5T428,525t5-28q2-12-1.5-23T417,463q-13,0-25,27q-6,14-16,35.5T355,568q-4,7-11,0q-22-22-46.5-43.5T258,489q-13-11-23-18.5T218,463q-10,0-10,11q0,6 3,12.5t9,13.5q14,18 33,41.5t39,47T329,631q15,18 28.5,29.5T380,672ZM139-14Q106-14 76.5,3.5t-47,47T12,118q0,47 19.5,100T87,318.5t86.5,78T286,427q61,0 97.5-36.5T420,292q0-45-19-98T345,93.5T256.5,16T139-14Zm19,36q21,0 42.5,22T242,101.5T277.5,180t25,86t9.5,78q0,22-8,35t-29,13q-19,0-40.5-21T193,315.5t-36.5-77T130,153T120,72q0-26 10.5-38T158,22Z"/>
      <glyph unicode="&#xf5;" glyph-name="gid102" horiz-adv-x="432" d="M139-14Q106-14 76.5,3.5t-47,47T12,118q0,47 19.5,100T87,318.5t86.5,78T286,427q61,0 97.5-36.5T420,292q0-45-19-98T345,93.5T256.5,16T139-14Zm19,36q21,0 42.5,22T242,101.5T277.5,180t25,86t9.5,78q0,22-8,35t-29,13q-19,0-40.5-21T193,315.5t-36.5-77T130,153T120,72q0-26 10.5-38T158,22Zm42,446q-5,0-12,6t-7,12q0,5 11,20.5T219,541t31,32.5T272,587q13,0 25.5-2.5T334,580q21-1 37-2.5t27-1.5q19,0 35,18q11,11 15.5,17.5T457,618q6,0 13.5-6t7.5-12q0-4-6-11t-14-17q-11-14-22-30.5T415,511q-6-8-15.5-11T385,497q-8,0-25,1.5t-38,3t-41.5,3T247,506q-11,0-19-9q-11-13-17.5-21T200,468Z"/>
      <glyph unicode="&#xf6;" glyph-name="gid99" horiz-adv-x="432" d="M139-14Q106-14 76.5,3.5t-47,47T12,118q0,47 19.5,100T87,318.5t86.5,78T286,427q61,0 97.5-36.5T420,292q0-45-19-98T345,93.5T256.5,16T139-14Zm19,36q21,0 42.5,22T242,101.5T277.5,180t25,86t9.5,78q0,22-8,35t-29,13q-19,0-40.5-21T193,315.5t-36.5-77T130,153T120,72q0-26 10.5-38T158,22ZM417,500q-21,0-33.5,14.5T371,550q0,22 11.5,40t30,28.5T453,629t34.5-14.5T500,579q0-32-24.5-55.5T417,500Zm-189,0q-21,0-33.5,14.5T182,550q0,22 11.5,40t30,28.5T263,629q23,0 35.5-14.5T311,579q0-32-24.5-55.5T228,500Z"/>
      <glyph unicode="&#xf7;" glyph-name="gid222" horiz-adv-x="592" d="M75,246q-6,0-11.5,4T58,258q0,5 2.5,15.5t8.5,19T86,301H556q8,0 13.5-3.5T575,288q0-13-9-27.5T542,246H75ZM319,65q-25,0-43,18.5T258,127q0,26 18,44.5T320,190t44-18.5T382,127q0-25-18-43.5T319,65Zm-1,285q-25,0-43,18.5T257,412q0,26 18,44.5T319,475t44-18.5T381,412q0-25-18-43.5T318,350Z"/>
      <glyph unicode="&#xf8;" glyph-name="gid101" horiz-adv-x="416" d="M-4-14q-10,1-19,7.5T-31,8q1,18 13,27L42,88l36,24L320,344l39,25l57,51q3,3 8,5t10,2q9-1 12-7t3-14t-4-17t-10-15l-62-56l-51-38L93,55L66,39L14-7q-3-3-7-5.5T-4-14Zm143,0Q106-14 76.5,3.5t-47,47T12,118q0,47 19.5,100T87,318.5t86.5,78T286,427q61,0 97.5-36.5T420,292q0-45-19-98T345,93.5T256.5,16T139-14Zm19,36q21,0 42.5,22T242,101.5T277.5,180t25,86t9.5,78q0,22-8,35t-29,13q-19,0-40.5-21T193,315.5t-36.5-77T130,153T120,72q0-26 10.5-38T158,22Z"/>
      <glyph unicode="&#xf9;" glyph-name="gid115" horiz-adv-x="567" d="M389,472q-6,0-13.5,4.5T362,488L260,604q-10,11-15.5,20T239,640q0,9 9.5,19.5t22,18T291,685q10,0 18-8t15-24l74-154q4-9 3-18t-12-9ZM98-14Q81-14 66,0.5T44,35T43,70l98,226q7,16 7,25t-8,9q-6,0-20-8.5T90,301T64,279q-9-9-16.5-8.5T40,278t4,16t12,19q27,35 59,61t63.5,40T235,428q11,0 22.5-10T275,393.5t1-26.5q-24-50-52.5-113T161,118q-8-17-7.5-30T164,75t29.5,20T238,146t51,64q25,31 49,63.5t43,61T410,380q13,21 24.5,34T459,427q15,0 27-9.5t18-22t1-24.5L396,101q-4-12-4-20t7-8q10,0 30.5,13T472,117t36,31q2,3 4,3q5,0 8.5-4t3.5-9q0-9-9.5-21.5T489.5,90T456,63.5T421,42T390,30q-16-11-33.5-15.5T322,11t-31,7q-6,3-9.5,13.5T282,52q10,22 22.5,48.5t24,53T349,204q4,9-1.5,10T337,208q-37-45-70.5-85.5T203,51.5t-56.5-48T98-14Z"/>
      <glyph unicode="&#xfa;" glyph-name="gid112" horiz-adv-x="567" d="M98-14Q81-14 66,0.5T44,35T43,70l98,226q7,16 7,25t-8,9q-6,0-20-8.5T90,301T64,279q-9-9-16.5-8.5T40,278t4,16t12,19q27,35 59,61t63.5,40T235,428q11,0 22.5-10T275,393.5t1-26.5q-24-50-52.5-113T161,118q-8-17-7.5-30T164,75t29.5,20T238,146t51,64q25,31 49,63.5t43,61T410,380q13,21 24.5,34T459,427q15,0 27-9.5t18-22t1-24.5L396,101q-4-12-4-20t7-8q10,0 30.5,13T472,117t36,31q2,3 4,3q5,0 8.5-4t3.5-9q0-9-9.5-21.5T489.5,90T456,63.5T421,42T390,30q-16-11-33.5-15.5T322,11t-31,7q-6,3-9.5,13.5T282,52q10,22 22.5,48.5t24,53T349,204q4,9-1.5,10T337,208q-37-45-70.5-85.5T203,51.5t-56.5-48T98-14ZM373,472q-11,0-12,9t4,18l74,154q7,16 15,24t17,8t21.5-7.5t21.5-18t9-19.5q0-7-5-16t-15-20L400,488q-5-7-12.5-11.5T373,472Z"/>
      <glyph unicode="&#xfb;" glyph-name="gid113" horiz-adv-x="567" d="M446,672q8,0 12.5-8.5T468,635q5-16 9.5-35t8.5-38.5t7.5-36.5t5.5-28q2-12-1.5-23T483,463q-13,0-25,27q-6,14-16,35.5T421,568q-4,7-11,0q-22-22-46.5-43.5T324,489q-13-11-23.5-18.5T284,463q-10,0-10,11q0,6 3,12.5t9,13.5q14,18 33,41.5t39,47T395,631q15,18 28.5,29.5T446,672ZM98-14Q81-14 66,0.5T44,35T43,70l98,226q7,16 7,25t-8,9q-6,0-20-8.5T90,301T64,279q-9-9-16.5-8.5T40,278t4,16t12,19q27,35 59,61t63.5,40T235,428q11,0 22.5-10T275,393.5t1-26.5q-24-50-52.5-113T161,118q-8-17-7.5-30T164,75t29.5,20T238,146t51,64q25,31 49,63.5t43,61T410,380q13,21 24.5,34T459,427q15,0 27-9.5t18-22t1-24.5L396,101q-4-12-4-20t7-8q10,0 30.5,13T472,117t36,31q2,3 4,3q5,0 8.5-4t3.5-9q0-9-9.5-21.5T489.5,90T456,63.5T421,42T390,30q-16-11-33.5-15.5T322,11t-31,7q-6,3-9.5,13.5T282,52q10,22 22.5,48.5t24,53T349,204q4,9-1.5,10T337,208q-37-45-70.5-85.5T203,51.5t-56.5-48T98-14Z"/>
      <glyph unicode="&#xfc;" glyph-name="gid114" horiz-adv-x="567" d="M98-14Q81-14 66,0.5T44,35T43,70l98,226q7,16 7,25t-8,9q-6,0-20-8.5T90,301T64,279q-9-9-16.5-8.5T40,278t4,16t12,19q27,35 59,61t63.5,40T235,428q11,0 22.5-10T275,393.5t1-26.5q-24-50-52.5-113T161,118q-8-17-7.5-30T164,75t29.5,20T238,146t51,64q25,31 49,63.5t43,61T410,380q13,21 24.5,34T459,427q15,0 27-9.5t18-22t1-24.5L396,101q-4-12-4-20t7-8q10,0 30.5,13T472,117t36,31q2,3 4,3q5,0 8.5-4t3.5-9q0-9-9.5-21.5T489.5,90T456,63.5T421,42T390,30q-16-11-33.5-15.5T322,11t-31,7q-6,3-9.5,13.5T282,52q10,22 22.5,48.5t24,53T349,204q4,9-1.5,10T337,208q-37-45-70.5-85.5T203,51.5t-56.5-48T98-14ZM483,500q-21,0-33.5,14.5T437,550q0,22 11.5,40t30,28.5T519,629t34.5-14.5T566,579q0-32-24.5-55.5T483,500Zm-189,0q-21,0-33.5,14.5T248,550q0,22 11.5,40t30,28.5T329,629q23,0 35.5-14.5T377,579q0-32-24.5-55.5T294,500Z"/>
      <glyph unicode="&#xfd;" glyph-name="gid120" horiz-adv-x="457" d="M-50-289q-23,0-43.5,14T-114-233q0,17 7.5,31.5t20,24.5T-61-167q11,0 21.5-6.5T-20-188q11-8 22-14.5T27-209q32,0 64,35t58,90q20,43 28.5,98.5T186,133q0,80-10,127t-23,68t-23,21q-9,0-19.5-12.5t-20-28T76,282q-2-4-7.5-14T57,258q-3,0-6,8t-3,20q0,26 12.5,51.5T92,384t41.5,33.5T176,430q28,0 45-18.5T250,357q14-43 24.5-109.5T280,81q-1-18 3.5-17T295,78q34,65 51.5,147T363,411q0,7 11,15.5t18,8.5t20-8t23.5-21T446,377q0-62-33.5-145.5T318,55T176-130q-38-43-79-79.5t-78.5-58T-50-289ZM278,472q-11,0-12,9t4,18l74,154q7,16 15,24t17,8t21.5-7.5t21.5-18t9-19.5q0-7-5-16t-15-20L305,488q-5-7-12.5-11.5T278,472Z"/>
      <glyph unicode="&#xfe;" glyph-name="gid105" horiz-adv-x="504" d="M-123-285q-5,0-9,2.5t-3,7.5q0,8 8,13t16,6q28,7 41.5,14.5T-49-211L194,551q5,16 8.5,31t3.5,28q0,10-10,15t-22,9q-9,4-17,7.5t-8,8.5t3.5,8.5T168,666q11,5 33,12t46,13.5t43.5,11T318,707q6,0 14-1.5t8-10.5q0-11-2-19.5T332,656q-7-22-19.5-56T285,524.5t-31-87T223,346t-28-89q-3-10-0.5-9.5T202,256q34,51 71.5,89.5t76,60T423,427q30,0 54-21.5T501,341q0-47-18.5-96.5T431,149T355,67T262.5,10T162-11q-18,0-37,4T93,4l29,28L53-205q-6-22 8.5-31T102-252q8-2 14-5t5-12q-1-5-7.5-8T99-280q-16,0-36.5,0.5t-39.5,0T-10-280q-25-1-55.5-3t-57.5-2ZM198,26q12,0 31,13t39.5,35.5T307,124q19,26 36.5,60T373,251.5t14.5,59T379,346q-8,5-21.5,0.5t-30-17T293,298q-15-7-34-26t-38-44.5t-35.5-52t-26.5-50T149,88q0-26 16-44t33-18Z"/>
      <glyph unicode="&#xff;" glyph-name="gid121" horiz-adv-x="457" d="M-50-289q-23,0-43.5,14T-114-233q0,17 7.5,31.5t20,24.5T-61-167q11,0 21.5-6.5T-20-188q11-8 22-14.5T27-209q32,0 64,35t58,90q20,43 28.5,98.5T186,133q0,80-10,127t-23,68t-23,21q-9,0-19.5-12.5t-20-28T76,282q-2-4-7.5-14T57,258q-3,0-6,8t-3,20q0,26 12.5,51.5T92,384t41.5,33.5T176,430q28,0 45-18.5T250,357q14-43 24.5-109.5T280,81q-1-18 3.5-17T295,78q34,65 51.5,147T363,411q0,7 11,15.5t18,8.5t20-8t23.5-21T446,377q0-62-33.5-145.5T318,55T176-130q-38-43-79-79.5t-78.5-58T-50-289ZM388,500q-21,0-33.5,14.5T342,550q0,22 11.5,40t30,28.5T424,629t34.5-14.5T471,579q0-32-24.5-55.5T388,500Zm-189,0q-21,0-33.5,14.5T153,550q0,22 11.5,40t30,28.5T234,629q23,0 35.5-14.5T282,579q0-32-24.5-55.5T199,500Z"/>
      <glyph unicode="&#x2013;" glyph-name="gid190" horiz-adv-x="591" d="M50,183q-6,0-9,4.5T39,196q2,5 7,16t13.5,20T78,241H541q8,0 12-4.5t2-10.5q-6-14-18.5-28.5T510,183H50Z"/>
      <glyph unicode="&#x2014;" glyph-name="gid191" horiz-adv-x="930" d="M42,183q-7,0-10,4.5T30,196q2,5 7.5,16t14,20T70,241H888q8,0 12-4.5t2-10.5q-6-14-18-28.5T858,183H42Z"/>
      <glyph unicode="&#x2018;" glyph-name="gid197" horiz-adv-x="251" d="M332,691q10,0 15.5-3t4.5-10q-2-6-9.5-10.5T324,660q-28-9-50.5-25T238,599.5T225,559q0-14 10-22t21-13q11-4 20-13t9-24q0-26-21.5-45T214,423q-32,0-54.5,21T137,503q0,35 17,69t46,60.5T263.5,675T332,691Z"/>
      <glyph unicode="&#x2019;" glyph-name="gid198" horiz-adv-x="251" d="M136,423q-10,0-16,3t-4,10q2,6 9.5,10.5T144,454q28,10 50.5,25.5t35,35.5T242,555q0,15-9.5,22.5T212,590t-20,13.5T183,627q0,27 21,45.5T254,691q32,0 54.5-20.5T331,612q0-35-17-69t-46-61t-63.5-43T136,423Z"/>
      <glyph unicode="&#x201a;" glyph-name="gid193" horiz-adv-x="251" d="M-41-149q-10,0-16,3t-4,10q2,6 9.5,10.5T-33-118q28,10 50.5,25.5T52.5-57T65-17Q65-2 55.5,5.5T35,18T15,31.5T6,55q0,27 21,45.5T77,119q32,0 54.5-20.5T154,40q0-35-17-69T91-90T27.5-133T-41-149Z"/>
      <glyph unicode="&#x201c;" glyph-name="gid195" horiz-adv-x="443" d="M525,692q11,0 16.5-3t3.5-10q-2-6-9.5-10.5T517,661q-28-9-50.5-25t-35-35.5T419,560q0-14 9.5-22T449,525q11-4 20-13t9-24q0-26-21-45t-50-19q-32,0-54.5,21T330,504q0,35 17,69t46,60.5T456.5,676T525,692Zm-192,0q10,0 15.5-3t3.5-10q-1-6-8.5-10.5T325,661q-28-9-50.5-25T239,600.5T226,560q0-14 9.5-22T257,525q11-4 20-13t9-24q0-26-21.5-45T215,424q-33,0-55.5,21T137,504q0,35 17,69t46,60.5T263.5,676T333,692Z"/>
      <glyph unicode="&#x201d;" glyph-name="gid196" horiz-adv-x="444" d="M136,424q-10,0-16,3t-4,10q2,6 9.5,10.5T144,455q28,10 50.5,25.5t35,35.5T242,556q0,15-9.5,22.5T212,591t-20,13.5T183,628q0,27 21,45.5T254,692q32,0 54.5-20.5T331,613q0-35-17-69t-46-61t-63.5-43T136,424Zm193,0q-10,0-16,3t-4,10q2,6 9.5,10.5T337,455q28,10 50.5,25.5t35,35.5T435,556q0,15-9.5,22.5T405,591t-20,13.5T376,628q0,27 21,45.5T447,692q32,0 54.5-20.5T524,613q0-35-17-69t-46-61t-63.5-43T329,424Z"/>
      <glyph unicode="&#x201e;" glyph-name="gid194" horiz-adv-x="443" d="M-41-149q-10,0-16,3t-4,10q2,6 9.5,10.5T-33-118q28,10 50.5,25.5T52.5-57T65-17Q65-2 55.5,5.5T35,18T15,31.5T6,55q0,27 21,45.5T77,119q32,0 54.5-20.5T154,40q0-35-17-69T91-90T27.5-133T-41-149Zm193,0q-10,0-16,3t-4,10q2,6 9.5,10.5T160-118q28,10 50.5,25.5t35,35.5T258-17q0,15-9.5,22.5T228,18T208,31.5T199,55q0,27 21,45.5T270,119q32,0 54.5-20.5T347,40q0-35-17-69T284-90t-63.5-43T152-149Z"/>
      <glyph unicode="&#x2022;" glyph-name="gid177" horiz-adv-x="362" d="M198,214q-32,0-57.5,16.5t-40,43T86,331q0,45 23,83t60.5,61.5T252,499q37,0 63-18t40-46t14-59q0-44-23.5-81t-62-59T198,214Z"/>
      <glyph unicode="&#x2039;" glyph-name="gid201" horiz-adv-x="410" d="M286,17q-10,0-18.5,8T255,36q-20,22-42.5,42.5t-46,39.5T119,153.5T72,184q-10,6-15,10t-5,10t7,11t12,6q56,26 107.5,54T278,333t94,62q5,4 10.5,7t14.5,3q10,0 7.5-9T394,378q-38-40-76-70.5T245.5,253T183,210q-8-5-8-7.5t5-8.5q18-18 38-41t39.5-50.5T293,43q4-9 1-17.5T286,17Z"/>
      <glyph unicode="&#x203a;" glyph-name="gid202" horiz-adv-x="410" d="M127,405q10,0 18.5-7.5T158,386q20-23 42-43.5t46-39t48-35T341,238q10-6 14.5-10t4.5-10t-7-10.5T342,201q-56-26-107.5-54T135,89T41,27q-5-4-10.5-7T16,17Q6,17 9,26T19,44q38,40 76,70.5T167.5,169T230,212q8,5 8,7.5t-6,8.5q-17,19-37,41.5T155.5,320T120,379q-4,10-1,18t8,8Z"/>
    </font>
</defs>
</svg>
