<?xml version="1.0" standalone="no"?>
<!DOCTYPE svg PUBLIC "-//W3C//DTD SVG 1.1//EN" "http://www.w3.org/Graphics/SVG/1.1/DTD/svg11.dtd">
<svg xmlns="http://www.w3.org/2000/svg">
  <defs>
    <font id="EBGaramond" horiz-adv-x="489">
      <font-face font-family="EB Garamond SemiBold" units-per-em="1000" panose-1="0 0 0 0 0 0 0 0 0 0" ascent="1007" descent="-298" alphabetic="0"/>
      <glyph unicode=" " glyph-name="gid236" horiz-adv-x="225"/>
      <glyph unicode="!" glyph-name="gid203" horiz-adv-x="277" d="M136,187q-10,0-16,10.5T110,234q-7,51-13.5,99.5T85.5,426T78,507.5T75,573q-1,29 18,52.5T140,649q29,0 46-22.5T203,574q0-28-4-66t-10-82t-13-93t-14-99q-3-20-9-33.5T136,187Zm0-201Q108-14 88,6T68,54q0,29 20,48.5T136,122t48-19.5T204,54q0-28-20-48T136-14Z"/>
      <glyph unicode="&quot;" glyph-name="gid234" horiz-adv-x="376" d="M77,420q-6,0-8,9.5T67,446q1,18 0.5,33T67,509q0,21-1.5,42.5t-3,39.5T61,618q0,14 8.5,24T86,658q16,11 28,17t28,6q10,0 15.5-10.5T163,646q0-30-11-68t-25-73.5T103,449q-5-10-13.5-19.5T77,420Zm151,0q-6,0-8,9.5T218,446q1,18 0.5,33T218,509q0,21-1.5,42.5t-3,39.5T212,618q0,14 8.5,24T237,658q16,11 28,17t28,6q10,0 15.5-10.5T314,646q0-30-11-68t-25-73.5T254,449q-5-10-13.5-19.5T228,420Z"/>
      <glyph unicode="#" glyph-name="gid210" horiz-adv-x="479" d="M67-88q-6,0-10,5T53-72v4L95,98L35,95q-8,0-13.5,5.5T16,112q0,18 3.5,31.5t11,22T48,174l65,3l30,120l-66-3q-8,0-13,5.5T59,311q0,18 3.5,31.5t11,22T91,373l72,3l38,156q3,14 13.5,18t24.5,4q5,0 7.5-5t2.5-11q0-2-0.5-3t-0.5-3L211,378l113,5l39,160q3,14 13.5,18t24.5,4q5,0 7.5-5t2.5-11q0-2-0.5-3t-0.5-3L372,386l59,3q9,0 14.5-4.5T451,372q0-12-4.5-26t-13-24.5T414,310l-62-3L322,186l66,3q10,1 15.5-4t5.5-13q0-12-5-26t-13.5-24T372,111l-69-3L263-55q-3-13-11.5-16.5T229-75q-5,0-9,5.5T216-59v4l40,160l-114-5L100-68Q97-82 88.5-85T67-88Zm94,267l114,5l29,121l-113-5L161,179Z"/>
      <glyph unicode="$" glyph-name="gid246" horiz-adv-x="454" d="M175-82q-10,0-15.5,7T155-58l8,66q1,4-1,5.5T157,16q-27,5-51.5,15T59,56q-5,4-9.5,9T42,76q-7,23-10,56t-2,64q0,12 18,12q7,0 11-2.5t6-8.5q15-49 39.5-81.5T160,68q4-1 6.5-0.5T170,72l22,193q1,5-1,9t-9,8q-34,20-65.5,44t-51,56T46,459q0,47 22.5,84t63,61T227,633q10,1 10,7l5,54q2,9 11.5,13.5T276,712q8,0 12-6.5t2-15.5q0-6-1.5-15.5t-2-19.5T285,639q0-6 7-8q22-4 42-10.5T366,609q10-3 15-9t8-17q5-19 9.5-45.5T403,482q0-5-5-8t-11-3q-8,0-16,3.5T361,485q-14,38-33,63t-45,35q-6,0-6-6L256,408q-1-8 3-12t19-14q44-26 74.5-52.5t47-58.5T416,196q0-85-54.5-131.5T218,13q-7,0-8-7l-8-75q-1-7-9.5-10T175-82ZM227,58q38,5 58,29.5T305,147q0,36-15.5,57.5T245,245q-7,4-7-5L218,69q-1-11 9-11ZM204,430q7-5 7,2l18,145q1,10-7,9q-30-6-48.5-25T155,503q0-21 13-38.5T204,430Z"/>
      <glyph unicode="%" glyph-name="gid261" horiz-adv-x="685" d="M158,263q-40,0-70.5,24T40,350T23,437q0,50 18,90.5T92.5,592T170,616q43,0 72.5-23.5t46-61.5T305,446q0-54-18.5-95T235,286.5T158,263Zm10,29q22,0 33,21.5T216,368t4,68t-5,69t-17.5,57T161,585q-21,0-32.5-20.5T113,512t-4-66q0-27 2.5-54t9-49.5t18-36.5T168,292ZM522,644q8,13 19,16.5t27,3.5q7,0 12-5t5-10q0-4-1-5L164-18q-6-12-17.5-15T122-36q-7,0-14,4.5T101-22q0,2 1,4L522,644ZM515-17q-40,0-70.5,24T397,70t-17,87q0,50 18,90.5T449.5,312T527,336q43,0 72.5-23.5t46-61.5T662,166q0-54-18.5-95T592,6.5T515-17Zm10,29q22,0 33,21.5T573,88t4,68t-5,69t-17.5,57T518,305q-21,0-32.5-20.5T470,232t-4-66q0-27 2.5-54t9-49.5t18-36.5T525,12Z"/>
      <glyph unicode="&amp;" glyph-name="gid267" horiz-adv-x="785" d="M209-16q-44,0-84.5,17.5T59,51T34,129q0,66 43,120.5T194,338l21,10l-11,11q-10,11-26,27.5t-28.5,40T137,479q0,35 22.5,62T220,584t85,16q45,0 77.5-16.5t50.5-42T451,486q0-43-28.5-69T345,373l-19-8l17-18q31-33 61-63t57-63l16-19l15,15q22,21 39.5,45.5t29,45.5T572,338q0,12-8.5,20.5T543,370q-6,3-11.5,6.5T526,386q0,10 9,11.5t18,1.5t24.5-1.5t32-3T640,393q19,0 41,4.5t42.5,9.5t35.5,5q5,0 9.5-4t4.5-8q0-7-9-14.5T743,376q-29-4-50-17.5T657,331q-9-8-25.5-24.5t-36.5-36T555.5,232T520,198t-24-22l18-23q32-41 61.5-68T638,58q18,0 38.5,4T716,74q5,2 10.5,4T737,80q8,0 11.5-2.5T752,66q0-11-21-31T675.5,0T600-15q-38,0-65.5,11t-50,33T436,84l-16,21l-5-6q-30-34-62-60T286-1.5T209-16Zm58,85q33,0 64,11.5T390,122l8,8l-14,19q-30,39-64.5,78T246,308l-12,14l-19-10q-28-12-42.5-32t-20-43T147,190q0-54 33-87.5T267,69Zm41,318l11,8q19,12 28,38t9,52q1,32-12.5,57T300,567q-22,0-40-16t-18-41q0-24 5.5-42T264,436t25-30l19-19Z"/>
      <glyph unicode="&apos;" glyph-name="gid235" horiz-adv-x="225" d="M77,420q-6,0-8,9.5T67,446q1,18 0.5,33T67,509q0,21-1.5,42.5t-3,39.5T61,618q0,14 8.5,24T86,658q16,11 28,17t28,6q10,0 15.5-10.5T163,646q0-30-11-68t-25-73.5T103,449q-5-10-13.5-19.5T77,420Z"/>
      <glyph unicode="(" glyph-name="gid213" horiz-adv-x="308" d="M238-215q-14,0-25,11q-21,21-44.5,59.5T121.5-56T79,49.5T48.5,161T37,268q0,63 16.5,126.5t43,121t56,102.5T208,690q7,6 18,11t22,5q8,0 20-7t12-17q0-1-4-7t-8.5-12.5T261,655q-27-34-54-90.5t-45.5-130T143,275q0-59 10-123.5t26-125t36-108T256-154q1-2 6-8t10-12.5t5-7.5q0-15-12.5-24T238-215Z"/>
      <glyph unicode=")" glyph-name="gid214" horiz-adv-x="308" d="M70-215q-15,0-27,9T31-182q0,1 4.5,7.5T46-162t6,8q21,25 41,72.5t36,108t26,125T165,275q0,86-18.5,159.5T101,564.5T47,655q-1,1-6,7.5T32,675t-4,7q0,10 12,17t20,7q11,0 22-5t18-11q26-27 55.5-72t56-102.5t43-121T271,268q0-51-11.5-107T229,49.5T186.5-56T139-144.5T94-204q-10-11-24-11Z"/>
      <glyph unicode="*" glyph-name="gid209" horiz-adv-x="352" d="M192,359q-10,0-17.5,7.5T165,386l-13,78q-11-6-30.5-18T83,422q-5-2-9.5-4T64,416q-9,0-17,6t-8,17q0,14 14,25l62,49q-11,7-31,16.5T44,550q-7,4-12.5,11.5T26,578q0,14 12.5,19.5T66,598q19-8 37.5-15.5T139,568q-1,20-2,39t-1,41q0,12 6,22t19,10q11,0 18.5-8t8.5-19l11-78q10,7 29,19.5T265,618q5,3 9.5,5t10.5,2q9,0 16.5-6t7.5-17q0-14-12-25l-61-50q12-7 31.5-16T307,492q8-4 13.5-11t5.5-15q0-15-12-20.5T287,443q-20,8-38.5,15T213,471q0-13 2-36t2-45q0-12-5.5-21.5T192,359Z"/>
      <glyph unicode="+" glyph-name="gid249" horiz-adv-x="598" d="M283-10q-4,0-8,4.5T271,5V211q0,9-9,9H55q-6,0-11,4.5T39,233q0,7 3,17t8.5,18.5T66,277H260q7,0 9,3t2,9V466q0,10 8.5,17.5t20,11T317,498q7,0 11-5.5t4-12.5V288q0-11 8-11H545q7,0 12.5-3t5.5-10q0-13-9-28.5T531,220H341q-9,0-9-9V17q0-10-9.5-16.5T301.5-8T283-10Z"/>
      <glyph unicode="," glyph-name="gid199" horiz-adv-x="242" d="M44-159q-23,0-23,15q0,6 5,9t15,6q25,6 45,18t32,31.5T130-34q0,16-12,28.5T89,10Q71,13 58,27T45,62q0,24 20,40.5T110,119q42,0 68.5-28.5T205,17q0-39-15-71.5T151-110T99-146T44-159Z"/>
      <glyph unicode="-" glyph-name="gid219" horiz-adv-x="302" d="M36,166q-9,0-9,9q0,26 5,42t15,17q52,8 107.5,15.5T262,262q8,0 10.5-3.5T275,250q0-27-4-40.5T255,194q-51-7-108.5-15T36,166Z"/>
      <glyph unicode="." glyph-name="gid198" horiz-adv-x="242" d="M120-25Q91-25 69.5-3.5T48,47q0,31 21.5,52.5T120,121q31,0 52.5-21.5T194,47q0-29-21.5-50.5T120-25Z"/>
      <glyph unicode="/" glyph-name="gid211" horiz-adv-x="403" d="M36-62q-10,0-15.5,5.5T18-44L323,646q6,13 17.5,16.5T366,666q13,0 17-6.5t1-13.5L78-44Q73-56 61-59T36-62Z"/>
      <glyph unicode="0" glyph-name="gid141" horiz-adv-x="513" d="M255-14q-57,0-99,28T86.5,88.5T45.5,191T32,302q0,57 13.5,115T87,523.5t73,78T266,631q57,0 99-28t69.5-74.5t41-102T489,317q0-57-13-115T434.5,95T362,16T255-14Zm16,39q35,0 56,38.5t30.5,101T367,299q0,53-7,105.5T337.5,499T300,566.5T249,592q-34,0-54.5-38.5T164.5,453T155,319q0-53 7.5-105.5t22-95.5t36-68T271,25Z"/>
      <glyph unicode="1" glyph-name="gid142" horiz-adv-x="513" d="M114-3q-7,0-12,4T97,11q0,13 17,18q32,8 53.5,15.5T200,65t11,37V471q0,23-12.5,34.5T167,522t-41,8q-9,1-17.5,5.5T100,551q0,10 8.5,15.5T129,573q54,6 97,19t86,42q1,1 3.5,1.5T321,636q6,0 11.5-2.5T338,626q-1-13-3-30t-2-42V98q0-22 11.5-34T378,44.5T433,28q8-2 13-6t5-11q0-13-15-13q-24,0-53,1T326,1T275,2q-24,0-52-1T166.5-1.5T114-3Z"/>
      <glyph unicode="2" glyph-name="gid143" horiz-adv-x="513" d="M440-4q-7,0-27.5,1t-48,2t-56,1.5T257,1T204.5,0.5T146-0.5T96-2T70-3Q67-3 58.5,3T50,14q0,8 4,11.5T62,33L216,201q51,55 79.5,115.5T324,445q0,46-25,75.5T234,550q-37,0-69.5-21T111,480q-5-6-12-12t-16-6q-6,0-10,7t-4,18q0,15 16,38.5T129.5,573t66,40.5T276,630q51,0 87-22.5t55-60T437,463q0-27-11.5-59.5t-29.5-63T359,287q-15-17-38.5-40.5t-49.5-49t-49-48t-37.5-37T170,96q0-4 15-6q18-2 42-3t47-1q25,0 49.5,1T371,90q25,2 41,7.5t28.5,17T463,146q3,7 10.5,14.5T490,168q7,0 9-5.5t1-11.5q-6-19-14.5-44.5T470,57.5T461,19q-1-12-9.5-17.5T440-4Z"/>
      <glyph unicode="3" glyph-name="gid144" horiz-adv-x="513" d="M169-38q-23,0-47.5,7t-41,18T64,9t5.5,24T84,55.5T102,65t16.5-5T133,48q14-14 32.5-29.5T209,3q34,0 62,18t46,50.5T335,148q0,40-12,73t-35,53t-57,20q-21,0-37.5-6.5T166,275q-7-4-15.5,0.5T143,287q5,17 15.5,28.5T181,333q23,12 44.5,26t39,31t28,38T303,475q0,35-23.5,61T219,562q-32,0-54-12.5t-36-29t-22-29T94,479q-6,0-13,7.5T74,502q0,10 11,31t35,43t61.5,37.5T273,629q37,0 69-14.5t52-41T414,511q0-23-12.5-51.5t-40-54T289,365q-3-1-3-3.5t4-2.5q49,0 87-20t60.5-55T460,202q0-55-24.5-99t-66-75.5T276-21T169-38Z"/>
      <glyph unicode="4" glyph-name="gid145" horiz-adv-x="513" d="M214-3q-6,0-13.5,3.5T193,11q0,8 7,12t14,6q42,7 56.5,19.5T285,89v69q0,5-6,7.5T269,168q-34,0-72.5-2T117,162.5T34,160q-5,0-9,3t-4,6t3,8q9,12 14,18t9.5,11.5T57,220L310,609q7,12 18.5,22.5T350,642h12q8,0 7.5-7.5T366,624L120,245q-3-5-1.5-8.5T125,233H276q3,0 6,2.5t3,4.5V372q0,15 2.5,21T299,403q23,11 49.5,14.5T385,421q17,0 20-18.5t3-53.5V235q0-6 5-6q12-1 20-1t17,0q15,0 28,0.5t30,1.5q12,0 12-8t-4.5-21T506,177.5T498,167q-12,0-24,0.5T450,168q-10,0-15.5-0.5T422,166q-4-1-8.5-3t-4.5-3V92q0-29 13-40.5T474,29q8-3 15-7t7-11q0-6-5.5-9.5T477-2q-24,0-46.5,1T387,1T345,2q-23,0-43.5-1t-42-2.5T214-3Z"/>
      <glyph unicode="5" glyph-name="gid146" horiz-adv-x="513" d="M125-38q-13,0-29,2.5T80-24Q80-14 93.5-9T120-3q67,4 115,30t73.5,63T334,165t-20.5,66.5t-66,52T128,328q-25,11-34.5,22T84,378q0,14 5.5,37.5t13.5,50T118.5,515T129,549q5,21 17,31t28,14q21,5 50.5,10t62,10.5t61.5,9t46,5.5q8,0 12-6.5t1-13.5q-2-12-9-27t-12-27q-8-18-22-29t-33-13q-17-2-41.5-3.5t-50-3T194,504t-30-3q-7-1-13.5-11.5T139,467t-5-17q0-6 2.5-10t8.5-6q56-12 100-28t79-33q62-30 89.5-74T441,198q0-56-33.5-106T318,11Q296-2 265-13T198-31t-73-7Z"/>
      <glyph unicode="6" glyph-name="gid147" horiz-adv-x="513" d="M269-15q-63,0-110,25T86,81.5T60,193q0,55 12.5,100.5T104,374t38.5,60.5T175,474q24,27 62.5,57.5T326,590t107,46q14,4 25.5,3.5T470,633q-2-10-11-16t-22-12q-59-27-99.5-61.5T262,457q-14-23-34-63.5T193.5,302T179,197q1-55 17.5-93t42-57.5T290,27q34-1 58,29.5T372,147q0,31-11,56.5T332.5,245T294,261q-17,0-29-2.5T241,250q-16-7-19,1.5t6,18.5q7,7 12,12t12,10q15,11 45,25.5T354,332q36,0 67.5-18t51-48.5T492,197q0-42-17-80T427.5,49t-71-47T269-15Z"/>
      <glyph unicode="7" glyph-name="gid148" horiz-adv-x="513" d="M155-30q-12,0-19.5,8.5T128-1q0,6 9,21t16,27L408,503q4,6 1,9t-12,3H163q-25,0-41-8.5T90,475q-3-4-9-14.5t-14.5-19T50,433q-6,0-9.5,5T37,448q0,7 3.5,20.5T45,487q6,30 13.5,65T67,612q0,9 6.5,12T84,627q9-1 35-5t58-6q21,0 47,0t52-0.5t47-0.5q41,0 77.5,0.5t64,1.5t40.5,2q4,0 6.5-6t2.5-13q0-5-6-16t-14.5-24T476,533L176,0q-5-9-11.5-19.5T155-30Z"/>
      <glyph unicode="8" glyph-name="gid149" horiz-adv-x="513" d="M257-13q-52,0-97,19.5t-71.5,55T62,143q0,40 23,67.5T140,257t60,35q8,5 6,8t-10,8q-30,24-56.5,49.5t-43,56T80,484q0,43 30,76t76.5,51T283,629q44,0 84.5-17T433,564t25-73q0-38-18.5-62T400,392q-11-7-22.5-14T353,362q-14-9-14-13.5t9-10.5q37-24 66.5-48.5t46.5-53T478,171q0-56-31-97T366,10T257-13Zm17,38q39,0 64,28.5T363,121q0,28-17,54.5T304,225t-50,41q-5,5-9,7.5t-8,2.5q-3,0-13-7q-25-22-36-48t-11-68q0-32 12-61.5t33.5-48T274,25Zm36,348q22,21 30,53t8,70q0,39-18,68t-57,29q-21,0-39.5-11T203,552.5T191,510q0-32 13.5-53.5T241,416t51-41q5-4 9.5-5t8.5,3Z"/>
      <glyph unicode="9" glyph-name="gid150" horiz-adv-x="513" d="M76-44q-12,0-17,4.5T54-31q0,10 7.5,14.5T77-11q35,2 73,23t74.5,53.5T289,134q24,32 45.5,71t35,85T383,389q0,34-9.5,68.5t-26,63T310,566t-43,17q-27,0-45.5-14t-28-39T184,472q0-30 12-58.5t31.5-47T268,348q20,0 31.5,5T324,364q15,6 18-3t-5-18q-4-8-11.5-14.5T312,316q-7-6-22.5-15t-34-15.5T218,279q-36,0-71,18.5T89.5,348T67,421q0,33 17.5,69.5t48.5,68t72,51T293,629q41,0 78-19t66-51t45.5-73.5T499,400q0-63-20.5-117.5T424.5,181T353,95q-25-25-60.5-49.5T218,0.5T142-32T76-44Z"/>
      <glyph unicode=":" glyph-name="gid200" horiz-adv-x="271" d="M130,251q-29,0-50.5,21.5T58,323q0,31 21.5,52.5T130,397q31,0 52.5-21.5T204,323q0-29-21.5-50.5T130,251Zm0-276Q101-25 79.5-3.5T58,47q0,31 21.5,52.5T130,121q31,0 52.5-21.5T204,47q0-29-21.5-50.5T130-25Z"/>
      <glyph unicode=";" glyph-name="gid201" horiz-adv-x="241" d="M110,252q-29,0-50.5,21.5T38,324q0,31 21.5,52.5T110,398q31,0 52.5-21.5T184,324q0-29-21.5-50.5T110,252ZM44-159q-23,0-23,15q0,6 5,9t15,6q25,6 45,18t32,31.5T130-34q0,16-12,28.5T89,10Q71,13 58,27T45,62q0,24 20,40.5T110,119q42,0 68.5-28.5T205,17q0-39-15-71.5T151-110T99-146T44-159Z"/>
      <glyph unicode="&lt;" glyph-name="gid255" horiz-adv-x="547" d="M482-1L89,191q-15,7-30.5,16T43,221q0,7 10,24.5T80,270L483,468q4,2 7,2q8,0 11-5t3-13q0-12-9-27t-25-23L135,237q-3-1-3-3.5t3-4.5L473,64q16-7 23.5-22T504,15q0-13-7.5-16T482-1Z"/>
      <glyph unicode="=" glyph-name="gid253" horiz-adv-x="608" d="M62,315q-6,0-10.5,4.5T47,328q0,5 2.5,15T58,361t15,8H542q8,0 13.5-3.5T561,356q0-11-9.5-26T529,315H62Zm0-177q-6,0-10.5,4T47,150q0,6 2.5,16T58,184t15,8H542q8,0 13.5-4t5.5-10q0-12-9.5-26T529,138H62Z"/>
      <glyph unicode="&gt;" glyph-name="gid254" horiz-adv-x="547" d="M65,466L458,274q15-7 30.5-15.5T504,244q0-7-10-24.5T467,195L64-3q-4-2-7-2Q50-5 47,0.5T44,13q0,12 9,27.5T78,63L413,228q3,2 3,4t-4,4L74,401q-15,7-23,22t-8,27q0,13 8,16.5T65,466Z"/>
      <glyph unicode="?" glyph-name="gid205" horiz-adv-x="389" d="M143,176q-7,0-15,8t-15,22q-6,16-13,36.5T93,294q0,32 28.5,55.5T204,399q28,13 46,31t18,43q0,37-23.5,58T184,553q-17,0-26-3t-15-5t-13-3.5T113,540q-13,0-25.5,12.5t-20,30T60,616q0,17 18,31t41,14q35,0 69.5-17.5T253,595q25-26 43-57t28.5-63T335,415q0-39-15-61t-32-31t-31-17t-27.5-16T199,272q-21-12-27.5-29T162,199q-1-10-5.5-16.5T143,176Zm4-190Q118-14 98,6T78,54q0,29 20,48.5T147,122q28,0 48-19.5T215,54q0-28-20-48T147-14Z"/>
      <glyph unicode="@" glyph-name="gid266" horiz-adv-x="770" d="M393-146q-71,0-135,24T145-54T67.5,50T39,183q0,85 31,149t84.5,107.5T277,505t145,22q62,0 117.5-22t99-61t68-91T731,240T701,132T623,59T522,33q-25,0-38.5,10T464,63T452,73q-5,0-22.5-10.5T385,41.5T323,31q-56,0-95,31.5T189,152q0,68 31.5,118t84,77T418,374q17,0 38-3t32-6q9-3 15.5-5.5T514,357q6,0 10,6t8,11.5t10,5.5q2,0 9-1t13-3t5-5q-8-21-15.5-49.5T544,279L521,144q-1-6-2-12.5T518,118q0-11 4-20t14-9q35,0 65.5,16.5t49,46.5T669,223q0,74-34,130.5t-93.5,89T406,475q-61,0-116-19.5T192.5,399t-67-89T101,194q0-61 24-113.5T191.5-11t97-61T405-94q31,0 69.5,10t76,26T614-22q7,5 15,10t13,5q21,0 21-17q0-11-25.5-31T571-96t-88-35.5T393-146ZM361,78q18,0 31,5.5T419,99q9,6 15,17t10,33l21,111q1,2 1,5t0,7q0,28-21,45t-51,17q-28,0-54-18t-42.5-53T281,178q0-36 12.5-58.5t31-32T361,78Z"/>
      <glyph unicode="A" glyph-name="gid1" horiz-adv-x="711" d="M24-5Q12-5 4-1.5T-4,10q0,9 7.5,14T23,33q29,8 50.5,24.5T108,103q25,59 48,113.5T200,325t42.5,110T286,553q11,31 15,48t7,25q15,4 28,8t29,10q14,7 24,18t15,17q3,2 6,2.5t6-4.5q3-6 5-12t4-13q22-71 45.5-143.5t46.5-143t44.5-135T601,112q9-27 22.5-43t30-24.5T690,31q13-3 20-8t7-14q0-6-6.5-9T694-3q-18,0-45.5,1T592,0.5T540,2q-20,0-44.5-1t-49-2T405-2q-10,0-17.5,3.5T380,12q0,8 8,13.5T407,33q36,6 52,18.5T471,88q-3,17-9,40.5t-12.5,49T436,224q-2,8-6,11.5T415,239H235q-7,0-11-4.5T218,221q-4-13-9.5-29.5t-11-34t-10-32.5T181,99q-5-27 9.5-42.5T241,32q27-7 27-21q0-6-6.5-9.5T243-2q-23,0-48,1.5T140,1T81.5-2T24-5ZM262,285H401q14,0 14,6q0,3-0.5,5t-1.5,6L343,533q-4,14-7,14q-2,0-7-13L245,302q-2-5-2-8q0-5 5.5-7t13.5-2Z"/>
      <glyph unicode="B" glyph-name="gid10" horiz-adv-x="613" d="M41-5Q30-5 23.5-1T17,9q0,13 26,19q35,9 51.5,22.5T111,97V550q0,34-13.5,49T48,620q-14,2-20,8t-6,12q0,7 6.5,10.5T46,654q30,0 49-1t36-2.5t40-1.5q22,0 39.5,2t38.5,4t54,2q118,0 178.5-33.5T542,508q0-32-13.5-59T497,407q-16-15-32-24t-39-16q-4-1-4-5t4-5q25-6 51.5-16t50-28t38-46.5T580,194q0-56-17.5-88.5T520.5,56T475,28Q443,12 401.5,4T302-4q-27,0-58,2T179,0q-23,0-45.5-1T88-3.5T41-5ZM307,46q35,0 65,19t48,51t18,71q0,37-10,60.5t-23.5,38T380,307q-10,7-32.5,15T290,330q-22,0-36-10t-14-23V112q0-35 17.5-50.5T307,46ZM282,369q25,0 49,6t48,22q9,7 22.5,29T415,490q0,37-10.5,66t-36,45.5T298,618q-33,0-45.5-11T240,574V405q0-21 15-28.5t27-7.5Z"/>
      <glyph unicode="C" glyph-name="gid11" horiz-adv-x="709" d="M405-14Q330-14 263,9.5T144.5,77t-81,105.5T34,319q0,70 29,132t82,110t126.5,75.5T433,664q34,0 64.5-4.5t59.5-11T614,632q11-4 17.5-11t7.5-19q4-30 6-59.5t2-58.5q1-10-7-14.5t-17-1T610,483q-8,28-18.5,52.5T560,577q-23,19-58,30.5T420,619q-54,0-98-22t-75.5-61T198,448T181,345q0-64 15.5-121t47-100.5t76.5-68T423,31q74,0 120,32t78,95q8,16 22,15.5T657,157q0-12-3-30t-8.5-38.5T633,48q-4-12-10-18T605,19Q567,3 515.5-5.5T405-14Z"/>
      <glyph unicode="D" glyph-name="gid13" horiz-adv-x="762" d="M379-7q-27,0-65,2T237.5-1.5T174,0q-20,0-40.5-0.5T91-2.5T44-4Q35-4 28-0.5T21,10q0,9 6.5,13T47,29q38,8 52,22t14,47V550q0,34-13.5,48T47,620q-13,2-19.5,6.5T21,640q0,7 7,10.5T44,654q24,0 46-0.5t43.5-2T177,650q15,0 40.5,1.5t55,3t55.5,3t42,1.5q84,0 151-24t114.5-67T708,466t25-128T708,207T636.5,97t-112-76T379-7ZM364,39q72,0 122.5,34.5t76.5,97T589,315q0,68-17.5,123.5t-49,94t-75,59.5T353,613q-36,0-60.5-2t-37-11.5T243,568V128q0-35 15.5-54.5t43-27T364,39Z"/>
      <glyph unicode="E" glyph-name="gid15" horiz-adv-x="571" d="M49-5Q38-5 31.5-1T25,9q0,13 26,19q36,9 51.5,22.5T118,97V550q0,34-13.5,48T54,620q-14,3-20,8.5T28,640q0,7 6.5,10.5T52,654q29,0 55.5-1t51.5-2t52-1q46,0 97.5,1t92.5,1q33,1 54.5,3t25.5,2q7,0 14.5-3t8.5-12q4-33 10-65t6-56q0-9-4.5-13.5T506,503t-9,3.5T490,517q-8,23-15,40t-16,26q-13,14-30,22t-41,8H295q-18,0-33-10.5T247,573V377q0-11 6.5-17t15.5-6h92q27,0 38.5,15T419,410q7,20 19,20q5,0 9-5.5t4-14.5q-1-10-2-24t-1.5-28T447,333q0-12 0.5-27t1-29.5T450,252q1-11-1.5-17t-8.5-6q-16,0-23,28q-8,28-19,42t-30,14H274q-13,0-20-5t-7-19V99q0-33 14-46t43-13h82q25,0 45.5,5T467,61q17,12 30.5,32.5T524,139q4,8 8,10.5t10,2.5q5-1 7.5-6t2.5-11q0-14-5-36T534.5,53.5T521,10q-3-7-8-10.5T501-4q-24,0-61.5,0.5T358-2T268-0.5T180,0q-21,0-42.5-1T94-3.5T49-5Z"/>
      <glyph unicode="F" glyph-name="gid20" horiz-adv-x="535" d="M45-4Q36-4 29-0.5T22,9q0,15 25,20q38,8 52.5,22T114,98V538q0,38-12.5,56T53,620q-14,3-20,8.5T27,640q0,7 6.5,10.5T51,654q28,0 54-1t51-2t51-1q36,0 78.5,0t80.5,0t68.5,5.5T486,661q6,0 13.5-3.5T508,645q2-19 3-43t1.5-46t0.5-35q0-20-11-20q-5,0-10.5,4T484,516q-6,22-13.5,39.5T452,583q-13,15-30.5,21T381,610H290q-24,0-35.5-13.5T243,562q0-18 0-43t0-47q0-23 0-49t0-47q0-10 4.5-16.5T262,353q27,0 54.5,1t48.5,1q24,0 37.5,14T424,403q4,7 9.5,12t10.5,5t9.5-5t3.5-15q-2-19-3.5-35.5T452,334q0-18 1-32t3-37q1-11-1.5-17t-8.5-6q-8,0-14.5,8T423,266q-8,27-20.5,37T374,313q-12,0-24.5,0.5T326,314q-15,0-30.5,0T265,313q-11-1-17-6.5T242,289q0-46 0.5-94T244,99q1-31 17-46t56-24q13-2 19-6.5T342,10q0-7-5.5-10T320-3q-23,0-47.5,1.5T225.5,1T184,2q-22,0-45-1T92.5-2T45-4Z"/>
      <glyph unicode="G" glyph-name="gid21" horiz-adv-x="722" d="M383-14q-71,0-134,24T137.5,77.5T61.5,181T34,313q0,71 27.5,134T139,558.5t118.5,77T409,664q19,0 47-3.5t58-8.5t55.5-11T609,629q7-3 11-7.5t5-12.5q5-33 8-63t3-52q0-8-4.5-14T620,474q-11,0-16,7.5T595,498q-8,18-18,35.5T552,567q-10,10-27.5,21.5T480,608t-66,8q-55,0-99-22.5T241,531t-46-90.5T179,335q0-69 16-124.5t45-95T309,55t90-21q36,0 56.5,10.5T485,63q11,9 18,27t8,42q0,9 0.5,23t1,28t0.5,23q0,11-3.5,19.5T496,239q-9,7-23,12.5t-28.5,8T421,263q-7,1-15,6.5T398,283t7.5,12t13.5,4q23,0 47.5-1t49-2t47.5-1q28,0 55.5,2t56.5,2q6,0 12.5-3.5T694,283q0-8-7-13t-13-6q-27-7-36.5-18T625,215q-4-22-5.5-39T618,140V109q0-5 3.5-9t7.5-9t7.5-10T640,71q0-6-3.5-12.5T622,50q-7-1-27-11T544.5,16.5T473.5-5T383-14Z"/>
      <glyph unicode="H" glyph-name="gid22" horiz-adv-x="804" d="M48-4Q39-4 32,0T25,10q0,14 25,19q36,8 48,22t12,47V551q0,33-10,47T53,620q-25,5-25,20q0,7 6.5,10.5T51,654q24,0 45-1t41-2t40-1t41.5,1t44.5,2t46,1q22,0 22-15q0-8-6-12t-19-7q-39-10-52.5-25T240,550V364q0-7 4.5-9.5T255,352H554q11,0 11,14V551q0,29-13,44t-52,25q-13,3-19.5,7T474,639q0,15 22,15q24,0 48-1t46.5-2t43.5-1q19,0 37,1t38.5,2t44.5,1q9,0 16-3.5t7-10.5q0-15-26-20q-35-8-45.5-23T695,551V98q0-33 11-47t47-22q25-5 25-19q0-6-7-10T755-4q-23,0-44,1.5T669.5,0T629,1T587,0T542-2T495-3q-9,0-15,3.5T474,11q0,8 6,11.5T498,29q36,9 51.5,24T565,98V288q0,6-1.5,11t-8.5,5H251q-11,0-11-15V102q0-30 17.5-47T311,29q13-3 19-6.5T336,11q0-7-5.5-10.5T314-3q-23,0-47,1T220.5,0T177,1T135,0T92-2.5T48-4Z"/>
      <glyph unicode="I" glyph-name="gid23" horiz-adv-x="356" d="M40-4Q31-4 24-0.5T17,9q0,15 25,20q38,8 55,22t17,46V551q0,33-14,47T47,620q-25,5-25,21q0,6 7,9.5T45,654q24,0 47-1t44.5-2t43.5-1q21,0 42.5,1t44.5,2t47,1q10,0 16-3.5t6-10.5q0-8-6.5-12.5T311,620q-40-10-54-24t-14-46V98q0-31 16.5-45T314,29q13-3 19.5-7T340,10q0-7-6-10T318-3q-24,0-48,1T223.5,0T180,1q-22,0-45-1T88-2.5T40-4Z"/>
      <glyph unicode="J" glyph-name="gid28" horiz-adv-x="360" d="M49-200q-127,0-127,55q0,19 16.5,36.5T-31-91q12,0 23-5.5T13-115q17-20 27-31.5T62-158q32,0 48,40T126,4V551q0,33-14,47T60,620q-26,5-26,21q0,6 7,9.5T57,654q25,0 47.5-1t44.5-2t43-1q20,0 40,1t42,2t46,1q10,0 16-3.5t6-10.5q0-8-6.5-12.5T316,620q-39-10-50-23.5T255,550V73q0-32-11.5-66.5t-30-67T175-119q-27-35-59-58T49-200Z"/>
      <glyph unicode="K" glyph-name="gid29" horiz-adv-x="736" d="M51-6Q40-6 31-1.5T22,9q0,15 29,20q38,8 50.5,22T114,99V551q0,33-13.5,47T48,620q-26,5-26,21q0,6 7,9.5T45,654q24,0 47-0.5t44-2t42-1.5q20,0 40.5,1t42.5,2t46,1q10,0 16-3.5t6-10.5q0-8-6.5-12.5T303,620q-39-10-49.5-25T243,550V352q0-6 2.5-11t6.5-5q5,0 11.5,4.5T277,352L472,558q8,9 12.5,16.5T489,589q0,20-34,28q-12,3-18,8t-6,13q0,6 7,9.5t16,3.5h64q32,0 65,0.5t64.5,1.5t56.5,1q10,0 17.5-3t7.5-10q0-8-9.5-13T698,621q-46-7-84-23t-70-41t-60.5-52T426,448.5T365,387q-11-10 2-26L608,97q16-18 29.5-30.5t31-21T713,29q12-3 22-7t10-12q0-7-9.5-11T709-5q-30,0-56.5,2T600,0T544,1q-29,0-52.5-1.5T433-2q-9,0-16,3.5T410,11q0,14 23,20q35,7 36,25q0,7-4.5,14T453,86L274,290q-6,7-12.5,12T251,307t-6-6t-2-13q0-46 1-89.5t3-95.5q1-19 5.5-33.5t16.5-24T307,29q13-3 21-7t8-12q0-7-9-10.5T307-4q-30,0-50,2T220.5,1.5T184,3q-21,0-40-2T103.5-3.5T51-6Z"/>
      <glyph unicode="L" glyph-name="gid30" horiz-adv-x="585" d="M46-5Q35-5 29-0.5T23,9q0,8 7,12.5T44,28q36,9 53,22.5T114,95V555q0,23-5.5,35t-19,18.5T50,620T24,641q0,6 7,9.5T47,654q25,0 47.5-1t43.5-2t42-1q23,0 46.5,1t48,2t47.5,1q10,0 16-3.5t6-10.5q0-8-6.5-12.5T319,620q-39-10-57.5-21.5T243,558V101q0-29 13-42.5T305,45H414q23,0 42,8t31,20q18,16 30,34t23,42q7,15 13,23t12,8q7,0 10-6.5t3-13.5q0-1-1-6t-1-8q-8-29-13.5-50t-9-40.5T547,13q-1-7-4-12.5T531-5q-30,0-72,1T370-2.5T275.5-1T186,0q-22,0-50.5-1T82-3.5T46-5Z"/>
      <glyph unicode="M" glyph-name="gid31" horiz-adv-x="912" d="M45-4Q33-4 26.5-0.5T20,9q0,8 8.5,11.5T49,27q24,7 41,27t21,52q8,61 15.5,133t14,145T151,521q0,7 0,16t0,18q-1,15-5.5,24.5T130,597q-14,10-29,15.5T67,622q-11,2-17.5,7.5T43,643t8,11t21,3t35-1t47.5-2.5T205,651t44-1q8,0 14-5t8-12q6-19 12-37t13-38L446,191q3-5 8-5.5t7,4.5L622,548q7,29 11.5,51t8.5,35q3,13 13,13h41q38,2 80,6t65,4q8,0 15.5-2.5T864,644t-6-12t-18-9q-8-2-19-6.5T802,608q-21-9-31.5-23T761,545q1-71 4-127.5t5.5-106t6.5-101T784,97q2-28 21.5-44T858,29q12-3 19.5-7T885,10q0-7-6.5-10T861-3q-23,0-48,1T764.5,0T720,1q-20,0-41-1T636-2.5T590-4q-10,0-17.5,3.5T565,9q0,8 7.5,13T592,29q34,7 47.5,21T651,97q-1,65-3,125t-4,119t-5,119q-1,8-4.5,7.5T627,459L423-1q-4-11-13-9.5T398-1q-46,116-96.5,229.5T202,459q-3,8-8.5,6T187,454q-5-56-9-115.5T173,220t-1-117q0-27 17.5-46T243,29q12-2 20.5-6.5T272,10q0-7-8-10T246-3q-27,0-41,1T179,0T147,1q-21,0-39.5-1T73-2.5T45-4Z"/>
      <glyph unicode="N" glyph-name="gid32" horiz-adv-x="804" d="M676-18q-12,0-40,15T579,49q-17,19-41.5,46.5t-54,60.5T422,225t-63.5,72T297,366t-55,60.5T200,474q-4,5-8.5,8.5T184,486q-4,0-6-7t-2-13q0-46 0.5-109T177,229t0-120q0-31 18-51t57-29q12-2 20.5-6.5T281,10q0-7-8-10T255-3q-27,0-43,1T183,0T150,1q-21,0-37.5-1T83-2.5T58-4Q48-4 40-0.5T32,9q0,8 7.5,12.5T60,30q26,8 38.5,29.5T114,111q4,38 8,99.5T129.5,349T133,508q0,52-26.5,75T40,620q-7,2-18,8T11,643t8,12t17,3q21,0 42-1t42.5-1.5t45-1.5t50.5-1q9,0 13.5-3.5T238,640q16-19 41-47.5t54.5-63t62-72.5t65-76T523,308.5t54.5-63T618,199q4-4 9.5-10t9.5-6q8,0 9,17q0,26 0,66.5t0.5,90t0,101.5T645,558q-1,25-20.5,39.5T576,618q-12,3-22.5,7.5T543,639q0,7 10.5,10t19.5,3q20,0 33.5,0t25.5-0.5t25-0.5q22,0 36,0.5t30.5,1.5t43.5,1q12,0 19.5-3.5T794,641q0-15-29-21q-35-7-49.5-19T700,561q0-25-0.5-64T698,412t-2.5-94t-2-94T693,141q0-24 2-49t4.5-44.5T702,20q0-22-7-30t-19-8Z"/>
      <glyph unicode="O" glyph-name="gid34" horiz-adv-x="761" d="M376-14Q308-14 246,9.5t-109.5,67t-75,104T34,315q0,68 22.5,130.5t67,111.5t110,78T385,664q68,0 129.5-23.5t109.5-67t75.5-104T727,335q0-67-22.5-130t-67-112t-110-78T376-14Zm17,44q63,0 105.5,32t64,89.5T584,284q0,64-13,124T531,515.5T463.5,591T367,619q-63,0-105.5-32T198,498T177,366q0-64 13-124t39.5-108t67-76T393,30Z"/>
      <glyph unicode="P" glyph-name="gid42" horiz-adv-x="589" d="M42-4Q33-4 26-0.5T19,9q0,15 25,20q38,8 54,22t16,47V538q0,38-12.5,56T53,620q-14,3-20,8.5T27,640q0,7 6.5,10.5T51,654q24,0 44.5-0.5T135,652t39-1q22,0 41.5,2t40,4t47.5,2q119,0 190-50t71-138q0-62-25.5-114.5t-78-84.5T328,240q-25,0-38,7.5T277,264q0,6 6.5,10.5T295,279q9,0 17.5-1.5T338,276q47,0 71.5,48T434,452q0,88-35.5,128.5T303,621q-28,0-43.5-11.5T244,573l-1-469q0-33 16.5-49.5T316,29q13-2 19-6.5T341,10q0-7-5.5-10T319-3q-23,0-47,1.5T225.5,1T183,2q-22,0-45.5-1T90-2T42-4Z"/>
      <glyph unicode="Q" glyph-name="gid44" horiz-adv-x="761" d="M734-248q-64,0-123,20.5T502-171q-38,27-70,50.5T360-63q-25,22-53.5,41.5T246,11q-35,14-72.5,38.5t-69,61t-51,87T34,315q0,68 22.5,130.5t67,111.5t110,78T385,664q68,0 129.5-23.5t109.5-67t75.5-104T727,335q0-71-25-136.5T628,83T506,8q-10-3-10-9q0-5 5-10q25-25 51-48t63-52q49-39 92-55t90-16q13,0 24.5,1.5T839-177q6,1 11,2t10,1q22,0 22-17q0-9-4-14.5T863-218q-23-15-56.5-22.5T734-248ZM393,31q95,0 143,68.5T584,284q0,66-13,125.5T531,516t-67.5,74T367,617q-95,0-142.5-68T177,366q0-66 13-125.5t39.5-107t67-75T393,31Z"/>
      <glyph unicode="R" glyph-name="gid45" horiz-adv-x="744" d="M642-21q-43,0-75,9.5T512,16T470,58q-22,30-43,58.5t-42.5,63T337,262q-13,23-33,34q-13,7-26.5,10T255,309q-6,1-9-5t-3-15V103q0-31 16.5-48T316,29q13-2 19-6.5T341,10q0-7-5.5-10T319-3q-23,0-47,1.5T225.5,1T183,2q-22,0-45.5-1T90-2T42-4Q33-4 26-0.5T19,9q0,15 25,20q38,8 54,22t16,47V540q0,29-4.5,44.5T92,608T53,620q-14,2-20,8t-6,12q0,7 6.5,10.5T51,654q30,0 48-1t34.5-2.5T173,649q22,0 39,2t38,4t54,2q115,0 176-40t61-122q0-45-19-76.5T474.5,367T416,336q-4-1-3.5-5t3.5-7q30-46 58.5-87.5t60-78.5T603,87q31-29 63.5-34.5T734,47q15,0 15-15q0-20-15-31.5T694.5-16T642-21ZM286,338q41,0 68.5,18.5t42,49.5T411,475q0,45-11,76.5t-37.5,49T290,618q-26,0-35.5-18.5T244,525q-1-23-1-60.5t0-89.5q0-22 11.5-29.5T286,338Z"/>
      <glyph unicode="S" glyph-name="gid46" horiz-adv-x="484" d="M214-15q-43,0-81.5,11T62,29q-6,5-11,10.5T43,52q-8,25-11,61.5T30,184q0,7 5.5,10T49,197t12.5-2.5T68,185q22-75 64-117t95-42q33,0 56,15t35,39t12,52q0,35-12.5,58T280,231.5T217,271q-41,24-80,50.5t-64,63T48,475q0,56 28.5,98.5T156,640t118,24q37,0 69-8t51-16q11-4 16.5-10t8.5-19q6-21 10.5-50t4.5-61q0-12-18-12q-8,0-16,4t-10,11q-18,58-49.5,88T263,621q-31,0-53-10.5t-35-32T162,523q0-26 17.5-48t49-43T299,386q48-28 80.5-56.5t49.5-63T446,185q0-66-29-110.5t-81-67T214-15Z"/>
      <glyph unicode="T" glyph-name="gid47" horiz-adv-x="687" d="M209-4q-10,0-17.5,3.5T184,9q0,8 7,13t20,7q38,8 56,22.5T285,99V504q0,41-2,62t-5.5,28.5T267,603q-10,4-25,5t-29,1H182q-29,0-56-13.5T84,559q-4-6-12.5-17t-18-20T34,513q-7,0-9.5,5T22,529q0,12 6,24q17,34 25.5,59.5T65,673q2,15 8.5,19.5T87,697q6,0 14.5-12.5T117,664q9-9 32-13.5t39-4.5l369,1q28,0 47,4.5t30,9.5q15,9 24,18.5t21,9.5q5,0 7.5-5.5T689,670q0-5-1-11.5T686,647q-4-19-8-33.5t-6.5-27T669,558V541q0-14-4-24t-13-10q-8,0-13.5,9.5T627,546q-9,32-30,47.5T531,609H463q-19,0-29.5-7t-15-30.5T414,499V100q0-32 18-46.5T489,29q12-3 19-7t7-12q0-7-6.5-10T492-3q-24,0-48,1T396.5,0T351,1T305.5,0t-48-2.5T209-4Z"/>
      <glyph unicode="U" glyph-name="gid48" horiz-adv-x="742" d="M373-14q-93,0-155,33t-93,92T94,249V541q0,30-13.5,51T45,619q-30,8-30,22q0,6 8,9.5T43,654q28,0 58.5-2t59.5-2q26,0 59.5,1.5T278,653q12,0 19.5-3t7.5-10q0-10-12.5-14.5T263,614q-14-6-26.5-24.5T224,539V270q0-72 24-118.5T312,83t90-22q95,0 141,60t46,172q0,25 0,59t-0.5,70.5T587,492q0,39-5.5,63.5t-15.5,39T538,617q-10,4-23.5,9T501,639t8,11t21,3q32,0 49.5-1t40.5-1q17,0 30.5,0.5T677,653t30,1q12,0 19-2.5t7-10.5q0-14-29-21q-31-8-43-29t-14-55q-4-79-5.5-145T639,258q-1-80-36.5-141.5T507,20.5T373-14Z"/>
      <glyph unicode="V" glyph-name="gid53" horiz-adv-x="695" d="M338-15q-12,0-17,13q-6,13-15,36T290,76L99,549q-10,25-27,43.5T27,619q-12,4-19.5,8.5T0,640q0,7 7,10.5T24,654q18,0 42.5-1t49.5-2t46-1q20,0 46,1t50.5,2t41.5,1q10,0 19-3.5t9-10.5q0-8-9-13.5T297,619q-29-5-44.5-13.5T237,580q0-10 3-19t4-16L379,177q2-5 4.5-6t5.5,7L512,502q20,52 6.5,81.5T465,619q-13,2-22.5,7.5T433,640q0,7 9,10t20,3q18,0 33-0.5t30-1t34-0.5q29,0 57.5,2t53.5,2q12,0 21-3t9-11q0-9-8.5-13T671,621q-33-8-54.5-32T579,527L415,133q-11-27-21.5-51t-19-45T357-2q-3-7-7-10t-12-3Z"/>
      <glyph unicode="W" glyph-name="gid54" horiz-adv-x="986" d="M359-17q-7,0-11,8.5T340,10L100,554q-11,24-26.5,40.5T30,619q-12,4-21,8.5T0,640q0,7 8.5,10.5T27,654q28,0 59.5-2t58.5-2q30,0 59,2t54,2q13,0 21.5-3.5T288,640q0-8-8.5-12.5T255,619q-14-3-17.5-11.5T234,588q0-9 3-20t3-14q21-51 40.5-97T319,366t39-91t41-97q5-11 8.5-11t7.5,10l63,133q3,7 4.5,12t1.5,9q0,5-1.5,10T478,353L390,547q-11,27-33.5,45.5T306,619q-12,4-19.5,8.5T279,640q0,7 7,10.5t16,3.5q19,0 41-1t44.5-2t40.5-1q27,0 54,1.5t52,1.5q14,0 22.5-3t8.5-10q0-6-6-10.5t-15.5-9T528,609q-12-3-13.5-10.5T516,583t9-24t13-34.5T552,489t11-26q6-13 9.5-11.5T581,463q7,15 15.5,38t16,44.5T624,577q3,7 3,15q0,14-11,20.5t-22.5,12T582,639q0,7 5,10.5t20,3.5q25,0 33.5-1.5T663,650q16,1 30,2.5t39,1.5q12,0 20.5-3t8.5-11q0-9-8-13t-21-7q-31-8-44-22t-25-36q-9-16-20-39t-22.5-48T600,428q-5-10-5.5-22.5T599,382l85-206q3-8 6.5-5.5T696,179q33,79 68.5,175T831,540q7,19 8.5,28.5T841,585q-1,12-7.5,21T812,619q-10,2-21,7.5T780,640q0,7 9,10t20,3q27,0 41-1.5t30-0.5q19,0 38,2t44,2q14,0 23-3t9-11q0-9-9.5-13T962,621q-21-5-36-17.5T901.5,576T886,545L672,7q-3-8-8-14.5T653-14q-7,0-12.5,5.5T631,5q-16,37-33,74.5T561.5,164T515,271q-3,7-6.5,6t-6.5-9q-21-45-41-86.5T421.5,98T381,10q-4-10-9.5-18.5T359-17Z"/>
      <glyph unicode="X" glyph-name="gid55" horiz-adv-x="736" d="M25-6Q13-6 4-3T-5,8q0,9 8.5,13T24,29q19,6 40.5,17T109,76.5T154,124L277,281q12,15 13.5,31T278,347L139,543q-16,23-30.5,38.5T79,606T45,620q-12,4-19.5,8.5T18,641q0,7 7,10t17,3q38,0 84-3t89-2q32,0 62,2.5t57,2.5q10,0 18.5-3.5T361,640q0-8-8.5-12.5T331,619q-28-7-42-14t-14-22q0-14 22-44l93-130q10-13 17-13.5T423,407l91,123q13,17 19,30.5t6,23.5q0,12-10.5,20.5T494,619q-10,2-20.5,7.5T463,640q0,7 8.5,10t21.5,3q18,0 31-0.5t26-1.5t31-1q29,0 54.5,3.5T687,657q12,0 21.5-3.5T718,642t-9-12t-22-8q-24-7-52-30.5T584,540L454,381q-12-14-13.5-23.5T448,333L611,101q18-26 40-44.5T695,31q13-2 24-8T730,8q0-6-7.5-9.5T703-5q-29,0-59.5,1.5T583.5,0T524,1q-30,0-58.5-1T411-1q-10,0-19,3.5T383,12q0,8 10.5,13.5T413,33q18,5 35.5,14.5T466,75q0,7-2,13t-8,14L349,254q-10,16-18,18t-19-14L204,111q-10-15-12.5-26T190,68q1-13 13-23t33-14q13-2 22-7.5T267,10q0-7-8.5-10T238-3q-24,0-50.5,1.5T140,0Q109,0 81-3T25-6Z"/>
      <glyph unicode="Y" glyph-name="gid56" horiz-adv-x="629" d="M189-6q-13,0-20.5,4T161,9q0,8 8.5,12.5T191,29q38,7 55,27t17,53V251q0,29-10,52.5T234,343L109,540q-8,13-20.5,29.5T61,600T27,619q-12,4-19.5,8.5T0,640q0,7 7,10.5T24,654q36,0 71.5-2.5T171,649q29,0 55.5,2.5T281,654q10,0 19-3.5t9-10.5q0-8-9-13t-21-8q-23-5-34.5-12T233,586q0-15 12-35l99-175q13-25 22-25q5,0 10,6t13,19q24,39 44,77t43,83q6,12 9.5,23.5T489,580q0,20-16,28.5T440,619q-10,1-21,7t-11,14q0,7 9,10t20,3q27,0 47.5-2t45.5-2q28,0 53.5,3t49.5,3q12,0 20.5-3t8.5-11q0-9-12-13.5T624,619q-28-8-48-27t-39-49q-17-28-32-51.5t-28.5-45t-27.5-44T419,353q-10-17-15.5-31T395,293t-3-35V110q0-37 17-54.5T464,29q14-3 22.5-7T495,9q0-6-7.5-10T468-5q-24,0-48,2T373.5,0.5T329,2T284,0.5t-47-4T189-6Z"/>
      <glyph unicode="Z" glyph-name="gid58" horiz-adv-x="599" d="M525-4q-22,0-53,0.5t-68,1t-77,1T249-1q-34,0-68.5-0.5T113-3L36-4Q28-4 25.5,7T24,20q6,11 15.5,27t21,34T82,114q41,62 79,120t75.5,114T312,462t77,121q2,3 4,6.5t2,6.5q0,4-3.5,6.5T378,606q-21,0-47.5,0.5T277,607q-22,0-42.5,0T196,606q-35-1-67-22T78,525q-6-11-14.5-22.5T41,491q-7,0-10,4.5T28,506t2.5,13.5T35,533q9,20 14.5,39t9,40.5T64,659q2,14 6.5,19T83,683t20.5-9T128,660q16-6 37.5-9t48.5-3t58,0t63,0q22,0 52,0.5t62.5,1t62,1.5t51.5,1q6,0 11.5-9t3.5-13l-66-99q-40-58-76.5-114t-71-111T295,195.5T223,83q-8-13-8-22q0-6 5-9.5T234,47q16-1 41-2t47-1q39,0 72,2.5T456,56q61,16 95,101q3,7 8.5,11.5T571,173q13,0 13-14q0-9-4-27.5T570.5,91T559,48.5T549,14q-3-8-9-13T525-4Z"/>
      <glyph unicode="[" glyph-name="gid217" horiz-adv-x="348" d="M147-201q-14,0-22.5,2.5t-11.5,11T110-159V655q0,23 3,32.5T125,699t25,2l162-1q8,0 15-2.5t7-12.5q0-9-11.5-13T302,666l-80-9q-9-1-14.5-8.5T202,633l-1-756q0-10 5.5-17.5T221-150l77-12q12-2 22.5-6.5T331-182q0-10-7-14t-15-4l-162-1Z"/>
      <glyph unicode="\" glyph-name="gid212" horiz-adv-x="403" d="M367-62q-13,0-25,3T325-44L19,646q-3,7 1.5,13.5T37,666q15,0 26-3.5T80,646L386-44q3-7-3-12.5T367-62Z"/>
      <glyph unicode="]" glyph-name="gid218" horiz-adv-x="348" d="M201-201L39-200q-7,0-14.5,4T17-182q0,9 10.5,13.5T50-162l77,12q9,2 14.5,9.5T147-123l-1,756q0,8-5.5,15.5T126,657l-80,9q-9,2-20,6T15,685q0,10 7,12.5T36,700l162,1q17,0 25.5-2T235,687.5t3-32.5V-159q0-20-3-28.5t-11-11T201-201Z"/>
      <glyph unicode="^" glyph-name="gid259" horiz-adv-x="509" d="M55,261q-6,0-11.5,3.5T38,275q0,5 3,9L251,606h5L469,284q4-8 0.5-15.5T454,261q-13,0-25.5,8.5T408,289L258,506q-4,5-5.5,5t-4.5-5L101,290q-8-12-20.5-20.5T55,261Z"/>
      <glyph unicode="_" glyph-name="gid223" horiz-adv-x="560" d="M541-129q8,0 13.5-4t5.5-10q0-12-10-27t-23-15H16q-6,0-11,4.5T0-172q0,5 3,15.5t8.5,19T27-129H541Z"/>
      <glyph unicode="`" glyph-name="gid294" horiz-adv-x="225" d="M187,454q-11,0-28,18q-18,18-40,42T76,563T38,609q-5,7-7.5,12T28,632q0,12 16.5,17.5T84,655q14,0 23.5-5T123,632q8-14 21.5-41.5t27-56.5T192,486q3-7 4-12t1-9q0-11-10-11Z"/>
      <glyph unicode="a" glyph-name="gid65" horiz-adv-x="425" d="M125-14Q101-14 79.5-1T45,33T32,76q0,34 20,55.5T112,170l93,40q20,8 24.5,15t4.5,26l2,59q1,28-11.5,45T187,372q-13,0-27-5t-22-13q-4-4-5.5-10.5T131,331q0-5 0.5-12.5T132,305t-15-15T83,274t-32-7q-7,0-11,5t-4,12q0,16 10.5,32.5T80,352q25,21 55,37.5T193.5,416T243,426q48,0 77-31.5T348,312L343,98q-1-22 8.5-37T375,46q21,0 34,12q4,4 7,4q5,0 8.5-3.5T428,50q0-11-16-27Q394,5 373.5-4.5T333-14q-53,0-86,55h-3Q211,12 183.5-1T125-14Zm55,60q14,0 24,4.5T221,63q4,5 6.5,12T231,95l2,64q1,10-2,13.5t-7,3.5q-2,0-6-0.5t-9-3.5q-37-15-53-32T140,96t13-38.5T180,46Z"/>
      <glyph unicode="b" glyph-name="gid73" horiz-adv-x="533" d="M270-14q-27,0-50.5,4.5T176,1q-18,5-31.5,8.5T123,13T107,9T93,0Q85-6 80-6Q73-6 68-2.5T63,6q0,9 5,34t4,57L70,555q0,27-9.5,46.5T28,627q-4,2-8,5.5T16,643q0,6 3.5,9t7.5,4q19,4 46,13t52,18.5T163,701q8,4 12,4q5,0 7-3t2-7q0-6-2-28.5T180,618V407q0-15 2-22.5t7-7.5q31,23 67,36t67,13q52,0 93-27t65.5-72.5T506,222q0-69-30-122.5T393,16T270-14Zm19,39q31,0 52.5,23.5T375,111t12,87q0,39-11.5,80T339,347t-65,28q-25,0-51-8t-43-23V137q0-33 15.5-58.5T236,39t53-14Z"/>
      <glyph unicode="c" glyph-name="gid74" horiz-adv-x="410" d="M212-14q-52,0-94,27T51.5,87.5T27,194q0,65 30,117.5T136.5,395T247,426q76,0 128-48q10-9 10-18q0-7-8-18t-19-19t-19-8t-15,5t-14,11q-25,20-52,34t-46,14q-41,0-64-36T125,235q0-49 17-85t48-56t72-20q30,0 51.5,9.5T359,114q4,3 7.5,5.5T374,122q11,0 11-16q0-4-2-11.5T375,78q-11-20-35.5-42T283,0T212-14Z"/>
      <glyph unicode="d" glyph-name="gid76" horiz-adv-x="537" d="M358-19q-3,0-8.5,5.5T344-5q2,14 3.5,29.5T350,51v6Q331,29 296.5,7.5T218-14q-56,0-99,28.5t-67.5,76T27,193q0,65 29.5,117.5t82.5,83T262,424q17,0 34.5-2.5T327,415q12-3 13-3q5,0 5,17V555q0,38-10,53t-32,19q-11,3-11,15q0,11 10,14q39,9 73.5,20.5T432,698q10,4 14.5,5.5T452,705q10,0 10-10q0,0-1-12t-2.5-32.5T456,604l-3-487q0-34 5-49t17-15q5,0 13,0.5T516,56q15,1 15-10q0-8-5.5-15.5T515,23q-34-4-69-13T375-13q-7-3-10.5-4.5T358-19ZM264,49q19,0 42,9.5T345,85V293q0,21-14,41.5t-37,34T245,382q-24,0-47-17.5T159.5,311T144,219q0-46 11.5-78.5T185,88t39-29.5T264,49Z"/>
      <glyph unicode="e" glyph-name="gid78" horiz-adv-x="408" d="M212-14q-55,0-97,28T49,91.5T25,204q0,61 28.5,111.5T130,396t105,30q42,0 75-17.5t52.5-48T382,292q0-36-31-36H148q-14,0-20.5-7.5T121,221q0-42 18.5-76T189,91t71-20q29,0 53.5,11.5T360,114q4,3 7,5.5t6,2.5q10,0 10-12q0-14-12-34q-12-23-34.5-44T282-1.5T212-14ZM148,295h71q26,0 39,1t25,4q5,1 7,8.5t2,17.5q0,27-20.5,45.5T221,390q-21,0-41-12.5T147,346t-12-39q0-12 13-12Z"/>
      <glyph unicode="f" glyph-name="gid83" horiz-adv-x="346" d="M42-3Q34-3 28,0.5T22,10q0,8 5.5,12T42,28q26,8 34.5,16T85,70V353q-10,0-23,0.5T33,355q-5,1-9.5,10T19,381q0,3 3,5t5,3q15,7 28.5,13T85,415q2,83 26.5,139T173,643.5t78.5,48T329,706q64,0 93.5-18.5T452,634q0-22-10-34.5T415,587q-9,0-17.5,7.5T379,614q-16,16-37.5,32T287,662q-42,0-66.5-37T196,510V425q0-7 4-9.5t10-2.5H327q7,0 11-4.5t4-10.5q0-8-2-17.5T334,365q-4-8-8-8H226q-18,0-24-4.5T196,337V81q0-24 12-34.5T261,29q21-4 21-18q0-6-5-10T264-3q-30,0-63,2.5T142,2q-17,0-32-1T78.5-1.5T42-3Z"/>
      <glyph unicode="g" glyph-name="gid84" horiz-adv-x="478" d="M209-289q-94,0-147,31T9-173q0,28 7.5,46.5T47-92Q64-79 84-63.5T121-35l47-12q-37-22-55-45.5T95-148q0-40 34.5-67T217-242q65,0 96,27q21,18 33,43t12,51q0,19-12.5,30.5T303-71.5T221-60Q120-51 78.5-25.5T37,45q0,9 5.5,18.5T63,83q18,14 30.5,23T114,123t12,16l44-18q-21-7-34.5-19.5T122,79q0-11 14-19.5T180,46t81-9Q364,30 411.5,5.5T459-66q0-41-22-80.5t-58-72T299-270t-90-19Zm13,429q33,0 54,36.5T297,271q0,34-10.5,61T258,374.5T217,390q-21,0-38.5-16T151,331.5T141,272q0-37 10.5-67T181,157.5T222,140Zm-9-41q-44,0-84.5,21.5T62,178.5T36,261q0,49 27,86.5t71,59T228,428q30,0 56-7.5T339,408q21-5 38-7t37-2q14,0 30.5,1.5T469,402q15,0 15-20q0-15-12-30q-5-6-11-6H434q-26,0-33-8q-2-3-3-7t-1.5-13T396,291q0-52-25.5-95.5t-67-70T213,99Z"/>
      <glyph unicode="h" glyph-name="gid85" horiz-adv-x="545" d="M37-3Q17-3 17,10q0,11 23,19q15,5 27.5,11.5T80,68V555q0,27-7.5,47T39,627q-10,2-10,15q0,11 9,14q20,5 46.5,13.5t52,18T178,702q7,3 10,3q6,0 8-3t2-7q0-6-2-16t-3.5-27.5T191,604V391q0-12 1-19.5t5-11.5q15,12 37,27.5t50,27T345,426q52,0 86.5-38T466,286V71q0-21 12-29t26-13q11-4 16.5-8T526,10q0-13-21-13q-23,0-36.5,1.5T443,1T410,2q-20,0-31.5-1T355-1.5T320-3q-22,0-22,14q0,7 6,11t15,7q14,4 25,13t11,30V271q0,23-11,41.5T316.5,342T281,353q-16,0-36-5t-36-17q-11-8-14.5-17.5T191,283V69q1-20 11.5-27.5T226,29q10-3 15.5-7T247,11q0-14-18-14q-20,0-35,1.5T165.5,1T134,2q-17,0-31.5-1t-30-2.5T37-3Z"/>
      <glyph unicode="i" glyph-name="gid86" horiz-adv-x="279" d="M40-3Q32-3 27,0.5T22,10q0,8 6,12t14,6q24,6 34.5,13T87,65V282q0,32-10,48T43,350q-5,1-8,5.5T32,366q0,14 11,15q48,10 83.5,27.5T181,436q14,7 18,7q11,0 11-10q-1-14-4-38.5t-5.5-52T198,291V66q0-15 11-23t35-15q8-3 14-6.5T264,10q0-12-17-12q-19,0-36.5,1t-34,2T142,2q-17,0-33-1T76.5-1.5T40-3ZM140,501q-29,0-49,20T71,569q0,31 20,51t49,20q30,0 50-20t20-51q0-28-20-48t-50-20Z"/>
      <glyph unicode="j" glyph-name="gid92" horiz-adv-x="253" d="M3-287q-14,0-24,3.5T-31-273t5,11.5t12,8.5q16,6 31,18t28,40q11,22 17,54.5t9.5,69T76-1t1,58V282q0,32-10.5,48T33,350q-6,1-8.5,5.5T22,366q0,13 10,15q47,10 83,27.5T170,436q6,3 11,5t7,2q10,0 10-10q-2-29-6-72t-4-79l1-191q0-31-2-72.5t-9.5-86T153-152q-13-34-39.5-65T58-267.5T3-287ZM127,501q-29,0-49,20T58,569q0,31 20,51t49,20q30,0 50-20t20-51q0-28-20-48t-50-20Z"/>
      <glyph unicode="k" glyph-name="gid93" horiz-adv-x="521" d="M38-3Q17-3 17,10q0,8 6.5,11.5T40,29q15,5 27.5,11.5T80,68V555q0,31-8.5,49T38,627q-10,2-10,15q0,12 9,14q26,5 52,14t49,18t38,14q8,3 12,3q5,0 7-3t2-8q0-9-3-31.5T190,604l1-359q0-11 7-11q4,0 10.5,3t12.5,9q38,33 66.5,64T326,355q5,6 7,10t2,7q0,5-8,9.5T305,388q-12,3-12,12q0,7 7,10t15,3h49q17,0 42.5,2t49,4.5T491,423q12,0 12-11q0-7-6.5-12T479,392q-18-4-38.5-13.5T399,357q-13-7-33-22t-41.5-32.5T285,268q-5-5-5-10q0-3 1.5-5t3.5-5q25-31 49.5-62T382,128t41-48q17-17 40.5-31.5T502,29q10-4 19.5-7.5T531,10q0-13-21-13Q456-3 401.5-1.5T297,0q-19,0-19,12q0,7 5.5,11.5T298,31t14,7.5T318,49q0,4-3,8.5T307,69L203,203q-4,5-7,5q-5-1-5-8q-1-14-1-30t0-32q0-17 0-35t1-35q0-18 8-26t23-13q8-3 15-6.5T244,11q0-7-7-10.5T224-3q-19,0-33,1.5T164,1T133,2q-17,0-31-1T73-1.5T38-3Z"/>
      <glyph unicode="l" glyph-name="gid94" horiz-adv-x="270" d="M37-3Q29-3 23,0T17,9q0,8 6.5,12T40,29q15,5 27.5,11T80,67V555q0,28-8.5,47.5T38,627q-10,2-10,15q0,12 9,14q25,5 51.5,14t50,18T178,702q7,3 10,3q5,0 7-3.5t2-6.5q0-8-3-30.5T191,604V68q0-21 12-27t27-11q10-4 16.5-8T253,10q0-6-6-9T233-2q-19,0-35,1.5t-31.5,2T133,2q-17,0-31.5-1T72-1.5T37-3Z"/>
      <glyph unicode="m" glyph-name="gid95" horiz-adv-x="797" d="M42-3Q35-3 28.5,0T22,10q0,8 7,12t16,7q14,5 27,11.5T85,67V291q0,23-6,40.5T51,352q-4,1-7,4.5T41,369q0,12 9,15q26,6 49.5,14t45,18T184,436q3,2 6,4t6,2q8,0 8-10q0-8-2.5-27.5T199,371q0-10 2-12h2q28,27 64.5,47T354,426q32,0 57.5-19.5T451,352h4q30,34 69,54t86,20q32,0 56-18.5T704,357t14-73V66q0-20 12-26t27-11q9-3 15.5-7T779,10q0-6-5-9.5T760-3q-20,0-35.5,1.5T695,1T663,2q-17,0-30.5-1T605-1.5T571-3q-8,0-13,3.5T553,10q0,8 6,12t15,7q14,4 23,10.5T606,63V269q0,25-8,44t-22.5,30.5T543,355q-17,0-34.5-5.5T475,331q-19-16-19-52V66q0-20 10.5-26.5T492,29q8-3 14.5-7T513,10q0-6-5.5-9.5T495-3q-20,0-34.5,1.5T433,1T402,2q-17,0-30.5-1t-28-2.5T309-3q-7,0-12.5,3.5T291,10q0,8 6.5,12T312,29q14,4 23.5,10.5T345,63V269q0,25-8,44t-22.5,30.5T282,355q-17,0-34-5.5T213,331q-17-13-17-50V66q0-18 8.5-25T228,29q8-3 14.5-7T249,10q0-6-5-9.5T231-3q-20,0-34,1.5T170,1T139,2q-17,0-31.5-1t-30-2.5T42-3Z"/>
      <glyph unicode="n" glyph-name="gid96" horiz-adv-x="553" d="M42-3Q34-3 28,0.5T22,10q0,8 6.5,12T45,29q15,4 27.5,11T85,67V291q0,23-6.5,39.5T51,352q-4,2-7,5.5T41,369q0,13 9,15q35,8 69.5,21.5T180,434q4,2 8,5t8,3q5,0 6.5-3.5T204,431q0-7-2.5-26T199,372q0-4 0.5-8.5T201,358q34,32 70.5,50T354,426q51,0 85.5-39T474,284V66q0-20 12-26t27-11q8-3 15-7.5T535,9q0-6-6.5-9T516-3q-20,0-35,1.5T451.5,1T419,2q-17,0-32-1T356.5-1.5T321-3q-5,0-11,3t-6,9q0,8 6,12.5T324,29q15,5 26.5,11T362,66V269q0,40-19.5,63T290,355q-27,0-47-8t-39-23q-4-3-6-8.5T196,304V66q0-20 11.5-26.5T234,29q21-7 21-19q0-6-5-9.5T237-3q-20,0-35,1.5T173,1T141,2q-17,0-32-1T78-1.5T42-3Z"/>
      <glyph unicode="o" glyph-name="gid98" horiz-adv-x="500" d="M236-14q-59,0-106,26.5T55,86T27,192q0,46 18,88t49,75t73,52.5T257,427q61,0 109.5-28.5T444,323t29-103q0-62-26.5-115.5t-79-86T236-14Zm20,39q25,0 44.5,10T332,66t16.5,55.5T353,196q0,53-14,96t-39,69t-59,26q-19,0-34.5-6.5T178,359q-18-21-24.5-57.5T147,217t14.5-92t39-72T256,25Z"/>
      <glyph unicode="p" glyph-name="gid106" horiz-adv-x="540" d="M37-270q-6,0-13,3t-7,10q0,8 7,12t16,7q19,6 29.5,13.5T80-200V289q0,10-5,23.5t-14.5,25T36,351q-5,2-7.5,5.5T26,368q0,7 2.5,10.5T35,383q36,8 72,20.5T170,428q3,1 6,3.5t6,2.5q5,0 6.5-3.5T190,422q0-8-2.5-26.5T185,364q0-10 2-11q10,10 35.5,26.5t59,29.5T346,422q53,0 90.5-28.5t57.5-73T514,228q0-46-17.5-89.5T447,60T373.5,4T284-17q-12,0-28.5,3.5t-33,9T194,8q-1,0-2-5.5T190.5-10T190-21V-194q0-13 8-21.5T218-229t27-9q10-3 16-7t6-12q0-6-6-9.5T249-270q-30,0-58.5,2.5T136-265q-17,0-32-1t-31-2.5T37-270ZM287,25q12,0 30,8.5T352.5,61t29,52T393,194q0,55-12,88.5T351,333t-36.5,22.5T282,361q-20,0-41-8.5t-35-20T192,313q0-14 0-36.5t-0.5-48t-1-46.5T190,152q0-29 13-58.5t35-49T287,25Z"/>
      <glyph unicode="q" glyph-name="gid108" horiz-adv-x="531" d="M303-286q-6,0-12,3t-6,9q0,8 7,12t16,7q22,7 35,15.5T356-210V14q0,14-2,20t-4,6q-2-1-4.5-1.5T341,36q-12-8-32-20T265.5-5T220-14q-53,0-97,25.5t-70,71T27,188q0,65 28.5,119.5t84,87T274,427q35,0 63-6t47.5-12t28.5-6q10,0 18,5t14,13q4,2 6.5,4t5.5,2q8,0 13-3.5t5-8.5q0-9-6-38t-6-72l2-521q0-18 12-25t31-13q10-3 16.5-7.5T531-274q0-6-6.5-9T511-286q-30,0-53,2.5T409-281q-17,0-34-1t-34.5-2.5T303-286ZM269,48q25,0 50,9t38,24q0,15 0,42.5t0,58t-0.5,57T356,278q0,47-30.5,78T254,387q-29,0-53-22t-38.5-60.5T148,215q0-39 10-70t27-52.5t39-33T269,48Z"/>
      <glyph unicode="r" glyph-name="gid109" horiz-adv-x="388" d="M44-3Q36-3 30,0.5T24,10q0,8 6.5,12T47,29q21,6 29.5,14.5T85,67V292q0,23-6.5,38.5T51,351q-4,2-8,5.5T39,367q0,13 11,16q30,8 65,21.5T174,431q5,3 11,6t9,3q8,0 8-10q0-4-0.5-18t-1-30.5T199,352q0-6 3-6q16,21 36,39t42.5,30T326,427q29,0 43.5-12T384,385q0-14-7.5-30t-19-27.5T332,316q-8,0-17,3.5T297,328q-9,4-18.5,8T261,340q-25,0-45-18.5T196,249V73q0-18 13-27.5T249,28q11-3 16.5-6.5T271,10q0-13-18-13q-30,0-56.5,2.5T144,2q-17,0-32.5-1T80-1.5T44-3Z"/>
      <glyph unicode="s" glyph-name="gid110" horiz-adv-x="348" d="M158-14q-32,0-61.5,8.5T43,20Q36,34 32.5,64T29,123q0,12 17,12q7,0 12-4t7-9q17-44 43-70.5T167,25q28,0 44,17.5T227,83q0,27-19.5,45T154,165q-31,17-55.5,36T60,244.5T46,302q0,37 19,65t53.5,44T198,427q32,0 57.5-7T291,406q8-10 13-36.5t5-55.5q0-9-15-9q-7,0-14,4t-9,8q-13,37-33,56t-46,19q-23,0-41.5-14.5T132,337q0-21 17.5-38T200,264q63-34 91-64.5T319,118q0-61-42-96.5T158-14Z"/>
      <glyph unicode="t" glyph-name="gid112" horiz-adv-x="355" d="M209-14q-60,0-91,32T87,111V342q0,8-6.5,12T55,359H44q-6,0-10,9.5T30,387q0,2 1.5,5.5T36,397q23,10 47,27.5t45,36T163,492q7,5 11.5,9t10.5,4q8,0 12.5-3.5T200,488l-6-55q-1-12 5.5-16t18.5-4H336q3,0 6-7t3-14q0-13-3.5-24T333,357H238q-23,0-31.5-5T198,331V139q0-44 17-66.5T263,50q28,0 42.5,5T332,67q3,2 5,2q5,0 7.5-6T347,50q0-5-19.5-21t-51-29.5T209-14Z"/>
      <glyph unicode="u" glyph-name="gid113" horiz-adv-x="543" d="M353-20q-8,0-8,9q0,11 2.5,31T350,52q0,3-0.5,5.5T349,61Q318,27 276.5,6T189-15q-32,0-57.5,17t-40,47T77,119V311q0,23-9,36.5T36,368q-6,1-10.5,5T21,385t4.5,12T36,402q40,2 69,7.5T167,423q4,2 8,3t8,1q13,0 12-14q-3-23-5-38.5T188,336V143q0-24 9-43t25-30t35-12q19,0 35.5,4T325,80q8,6 18,22.5T353,146V314q0,19-8.5,30.5t-22,17.5T295,368q-11,1-17,5t-6,16q0,10 7,14t16,4q44,3 71,5t45.5,5t36.5,8q3,1 6.5,1.5T460,427q14,0 14-11q0-3-0.5-6.5T471,402q-1-3-2.5-17t-3-29T464,333V101q0-24 5.5-33T482,59q6,0 17.5,0.5T516,60q8,0 13-4t5-13t-3.5-13.5T518,24q-45-4-80-15.5T377-14q-6-2-12.5-4T353-20Z"/>
      <glyph unicode="v" glyph-name="gid118" horiz-adv-x="468" d="M232-21q-6,0-12.5,14T208,21q-8,17-16,38.5T176,99q-24,59-50,116T74,332q-9,20-21.5,35.5T23,388q-9,4-13.5,7.5T5,408q0,7 8.5,8.5T28,418q22,0 34.5-1t24-2.5T118,413t34,1.5t29,2.5t37,1q6,0 14-2t8-10t-7-11.5T218,388q-11-4-16.5-15T196,346q0-8 0.5-15.5T200,315l70-179q1-1 1.5-1t1.5,1l65,170q4,9 5.5,18t1.5,17q0,18-7,29.5T315,387q-10,4-16.5,7.5T292,406q0,7 8,9.5t15,2.5q21-1 36-2.5t34-1.5q18,0 30.5,1.5T450,418q8,0 15.5-2t7.5-9q0-13-20-20q-17-6-33.5-23T393,323L315,130q-2-7-7-18.5T297.5,87t-10-23.5T281,48t-8-18.5t-12.5-28T249-21H232Z"/>
      <glyph unicode="w" glyph-name="gid119" horiz-adv-x="730" d="M233-28q-4,0-8,2.5T220-19L77,332q-8,21-21.5,35.5T25,387q-9,4-14.5,8T5,408q0,7 8.5,8.5T28,418q19,0 32.5-1t26-2.5T117,413q19,0 33,1.5t28.5,2.5t34.5,1q6,0 14-2t8-10t-7-11.5T213,388q-11-4-16-13.5T192,348q0-16 6-32l65-171q0-2 3-2t3,2l67,159q3,8 4.5,17t1.5,18q0,15-12.5,28T300,387q-9,3-15,7.5T279,407q0,7 8.5,9t16.5,2q21,0 42.5-2.5T388,413q27,0 48.5,2.5T482,418q6,0 14-2.5t8-9.5q0-8-7-11.5T482,387q-11-4-19.5-11T454,354q0-10 2.5-20t5.5-18l65-168q2-6 4-6q3,0 5,5l62,155q4,9 6,20.5t1,19.5q0,17-9,28.5T574,386q-8,3-15,7t-7,12q0,7 8,9.5t14,2.5q26-1 39-2.5t32-1.5q13,0 20.5,1t17,1.5T707,417q7,0 15-2t8-9q0-8-5.5-12.5T710,386q-17-6-31.5-23.5T654,322L514-19q-3-8-14-8q-8,0-13,8L369,258q-1,5-4,5q-2,0-4-5L247-19q-4-9-14-9Z"/>
      <glyph unicode="x" glyph-name="gid120" horiz-adv-x="480" d="M30-4Q23-4 15-2T7,7q0,8 5.5,12.5T28,27q12,4 25,14.5T86,79l87,120q7,8 6.5,13T175,224L97,339q-13,20-22.5,31.5T49,387q-9,3-14.5,7.5T29,407t9,9.5T53,418q22,0 33.5-1.5T110,414t35-1q26,0 41.5,2t43.5,2q6,0 14.5-2t8.5-10t-6.5-11T232,388t-16.5-7.5T207,366q0-5 3.5-13.5T220,335l46-67q4-9 9,0l37,61q5,8 8.5,18t2.5,18q0,15-16,21q-8,3-14.5,6.5T286,404t9,10t14,2q20,0 34-1t26-1q19,0 30.5,2t33.5,2q6,0 14-1.5t8-8.5q0-9-5.5-13T435,387q-12-4-27.5-14T375,339l-69-95q-5-7-4.5-11.5T306,221L394,81q13-20 28-33t32-20q9-3 14.5-7T474,8q0-7-8-8.5T452-2q-22,0-37,1T385,1.5T347,3q-26,0-49-2T247-1q-23,0-23,12q0,9 6,12.5T247,30q12,4 20.5,11T276,64q0,7-2,13.5T266,94l-54,81q-3,3-6,0L153,87q-3-4-7-13.5T142,55q0-10 4-17t13-10q8-4 15-7t7-12q0-7-9-9.5T158-3q-20,1-33,1.5T99-1Q80-1 66-2T30-4Z"/>
      <glyph unicode="y" glyph-name="gid121" horiz-adv-x="467" d="M78-284q-24,0-45,15.5T12-228q0,19 9.5,36T50-175q14,0 28.5-5t27.5-4q12,1 17.5,5.5T136-162q8,14 17.5,30.5t20,39.5T197-37q9,21 9,40q0,12-3,23t-7,20L75,331q-8,20-19.5,35T27,386q-9,4-14.5,8T7,406t8,9.5T29,417q23,0 37-1t26-2t26-1q21,0 34,1t27.5,2t36.5,1q7,0 15-2.5t8-10.5t-9-12.5T213,384q-10-3-16-11.5T191,348q0-7 3-17.5t7-22.5l69-167q1-4 4-4q1,0 3,4l57,163q3,7 5.5,18.5T342,342q0,18-8.5,27.5T315,383q-8,4-17,8.5T289,404t8.5,10.5T312,417q22,0 37-2t35-2q13,0 21.5,1t18.5,2t25,1q6,0 14.5-1.5T472,406t-5.5-12T452,386q-17-5-33-22.5T393,323L249-25q-6-14-16-37.5T211.5-114T187-172t-25-59q-11-26-33.5-39.5T78-284Z"/>
      <glyph unicode="z" glyph-name="gid124" horiz-adv-x="417" d="M42-5Q38-5 30,3.5T22,19q0,5 7.5,16.5t17,25T62,83q24,38 45,68.5t40.5,61T189,278t51,82q2,3 2,7t-12,4l-70,1q-14,1-24.5-4.5T116,354q-5-5-13-16T86,314.5t-16-23T59,276q-6-7-18-3T31,286q3,10 8,32t9.5,47T53,407q0,9 7,16t13,7q8,0 18-10q5-4 18.5-5t27.5-1q12,0 23,0.5t18,0.5q49,0 101,1t101,2q6,0 10-5.5t5.5-12.5T394,389q-11-14-20-26t-20-28L178,59q-4-7-1.5-11T190,44h81q13,0 25,5t24,18q14,15 25.5,32.5T374,145q7,11 19,8t12-13q0-6-3.5-21.5T393,83T382.5,43.5T373,10Q369-5 355-5q-24,0-82,3T128,1Q105,1 80.5-2T42-5Z"/>
      <glyph unicode="{" glyph-name="gid215" horiz-adv-x="374" d="M335-152q-53,1-100,14.5t-75.5,42T134-20q1,45 10,89.5t9,87.5q0,27-8,47t-26,33.5T73,261q-9,3-17.5,7T47,281t8.5,14T74,304q23,8 40,19t27,30.5T151,405q0,44-8.5,82.5T133,569q-3,47 26.5,79.5t77,49T335,714q13,0 18.5-3.5T359,698t-11.5-12.5T326,679q-33-7-51-18t-24.5-29.5T244,582q0-24 5-52.5t9.5-56.5t4.5-54q0-34-21.5-62t-53-47T127,283q-3-1-1.5-2t3.5-2q27-8 51.5-22T224,224.5t30-40T265,138t-5-53.5T249.5,28T244-25q0-34 8-53t26-28t49-14q10-1 20-4t10-13q0-9-6.5-12T335-152Z"/>
      <glyph unicode="|" glyph-name="gid276" horiz-adv-x="270" d="M108-289q-8,0-13.5,7T89-267V658q0,13 9.5,22T121,694.5t24.5,8.5t14.5,3q8,0 14.5-6t6.5-14V-252q0-12-9-19.5t-22.5-11t-25-5T108-289Z"/>
      <glyph unicode="}" glyph-name="gid216" horiz-adv-x="374" d="M39-152q-9,0-16,3t-7,12q0,10 10.5,13T47-120q31,5 49,14t25.5,28T129-25q0,25-5,53T114,84.5T109,138t11,46.5t30,40T193.5,257T244,279q2,1 4,2t-2,2q-29,8-60.5,27t-53,47T111,419q0,26 5,54t9.5,56.5T130,582q0,31-7,49.5T98.5,661T48,679q-11,3-22,6.5T15,698t6,12.5T39,714q51,0 98.5-16.5t76.5-49T241,569q-1-43-9.5-81.5T223,405q0-32 10-51.5T260.5,323T300,304q9-4 18-9t9-14t-8.5-13T300,261q-27-10-44.5-23.5t-26-33.5T221,157q0-43 8.5-87.5T240-20q2-47-26-75.5t-75-42T39-152Z"/>
      <glyph unicode="~" glyph-name="gid257" horiz-adv-x="530" d="M356,253q-24,0-47,9.5T263,283q-23,12-47.5,22.5T165,316q-25,0-47.5-14t-37-28.5T63,259q-7,0-14,9.5T42,283q0,13 10.5,32.5t29,38.5T124,386t50,13q25,0 48-9.5T267,368q24-12 48-22.5T363,335q19,0 36.5,9t32,21t24,21t11.5,9q8,0 14.5-8.5T488,368q0-14-11.5-34t-31-38.5t-43-30.5T356,253Z"/>
      <glyph unicode="&#xa0;" glyph-name="gid237" horiz-adv-x="225"/>
      <glyph unicode="&#xa1;" glyph-name="gid204" horiz-adv-x="277" d="M136,293q11,0 17-13t9-34q7-50 14-99t13-93t10-81.5T203-94q0-30-17-52.5T140-169q-28,0-47,23.5T75-93q0,29 3,66t7.5,81t11,92.5T110,246q4,26 10,36.5T136,293Zm0,201q28,0 48-20t20-48q0-29-20-48.5T136,358T88,377.5T68,426q0,28 20,48t48,20Z"/>
      <glyph unicode="&#xa2;" glyph-name="gid244" horiz-adv-x="430" d="M204-64q-8,0-14,5t-5,13l7,75q-43,8-81,36T50,137.5T27,238q0,57 27,107t74.5,82.5T237,466l6,61q1,9 8.5,14.5T268,547q7,0 12-6.5t4-13.5l-6-61q31-2 63-14.5T397,413q7-8 7-16q0-17-16.5-31T354,352q-20,0-30,14q-12,19-24,30.5T273,414L243,126q6-1 11.5-1t10.5,0q36,0 68,11t47,36q5,8 13,8q13,0 13-14q0-4-1.5-8.5T402,149q-23-53-63-86T233,27l-7-73q-1-8-7.5-13T204-64Zm-1,201l30,285h-2q-35,0-59-19.5t-36-52T124,280q0-55 22-91t57-52Z"/>
      <glyph unicode="&#xa3;" glyph-name="gid247" horiz-adv-x="542" d="M50,295q-6-1-11.5,4T33,310q0,8 8.5,16.5T62,336l341,23q6,0 10.5-5.5T418,344q0-6-11.5-15.5T381,318L50,295ZM338-37q-46,0-80,20T191,27q-11,9-26,17T137.5,58T120,64q-4,0-13.5-9.5T87,31.5T69,5Q49-26 21-25Q9-25 0.5-15T-8,16Q-8,39 5.5,59.5T42.5,95T96,114q7,1 10,5t6,9q9,23 14.5,61.5T135,273t6,84q4,47 18.5,95t43,88t74,64.5T387,629q57,0 85-27.5T500,539q0-19-10-35t-24.5-25T436,470q-8,0-12.5,5T419,487t1,14.5t1,17.5q0,30-12.5,52T372,593q-29,0-48.5-25.5T291,487T269,346q-5-47-18-90.5t-31.5-76T178,132q-3-1-2-6.5t5-5.5q46,0 82-11.5T328,83q29-13 54-24t48-11q22,0 33,10.5T474,87q0,14-4.5,29.5t-9,30.5T456,171t6.5,16t18.5,7q23,0 35-18.5T528,132q0-30-15-60T471,17.5T410-22T338-37Z"/>
      <glyph unicode="&#xa4;" glyph-name="gid245" horiz-adv-x="508" d="M67,49Q55,49 43.5,61T32,83q0,5 3,9l57,57q-18,25-28,55T54,267q0,34 10.5,64.5T93,388L35,445q-3,4-3,8q0,11 12,23t23,12q6,0 9-4l56-56q27,20 58.5,32T257,472t65.5-10.5T378,431l54,54q4,3 9,3q11,0 23-11t12-23q0-5-3-10l-54-53q19-26 30-57.5T460,267q0-34-10.5-65T420,145l53-53q3-3 3-8q0-11-12-23T441,49q-5,0-9,3l-52,52Q327,63 257,63q-35,0-67.5,12T131,107L75,52q-3-3-8-3Zm190,71q42,0 75,20t52.5,53.5T404,267q0,41-19.5,75T332,396t-75,20q-40,0-73.5-20T130,342.5T110,267q0-40 20-73.5T183.5,140T257,120Z"/>
      <glyph unicode="&#xa5;" glyph-name="gid248" horiz-adv-x="626" d="M189-6q-13,0-20.5,4T161,9q0,8 8.5,12.5T191,29q38,7 55,27t17,53v79H146q-6,0-11.5,5T129,204q1,8 10,18.5T159,233l104-1v19q0,7-0.5,13.5T261,276H146q-6,0-11.5,5T129,291q1,9 10,19t20,10h91L109,540q-10,14-22,30.5t-27,30T27,619q-12,4-19.5,8.5T0,640q0,7 7,10.5T24,654q36,0 71.5-2.5T171,649q29,0 55.5,2.5T281,654q10,0 19-3.5t9-10.5q0-8-9-12.5T279,619q-20-5-32-12.5T235,583q0-7 2.5-15.5T245,551l92-172q14-25 22-25q5,0 10,6.5T381,379t17.5,30t23,39t25,44T470,537q9,16 9,36q0,19-13.5,31T435,619q-10,2-21,7.5T403,640q0,7 9,10t20,3q27,0 48-2t46-2q30,0 54.5,3t48.5,3q12,0 21-3t9-11q0-9-8.5-13T629,621q-18-4-36-17t-32-29.5T537,543q-17-28-34.5-56t-34-54t-29-47.5T419,350q-5-8-9.5-15.5T403,320l107-1q7,0 11.5-4.5T525,305q0-7-12.5-18T486,276H393V232l116-1q7,0 11.5-4.5T525,217q-1-7-13-18t-26-11H393V110q0-37 16.5-54.5T464,29q14-3 22.5-7T495,9q0-6-7.5-10T468-5q-24,0-48,2T373.5,0.5T329,2T284,0.5t-47-4T189-6Z"/>
      <glyph unicode="&#xa6;" glyph-name="gid277" horiz-adv-x="272" d="M109-290q-8,0-13.5,7T90-268V138q0,11 9.5,19T122,171t24.5,8.5T161,182q8,0 15-7t7-17V-253q0-12-9.5-19.5t-22.5-11t-25-5T109-290Zm-1,552q-8,0-13.5,8.5T89,288V658q0,12 9.5,21T121,693.5t24.5,8.5t14.5,3q8,0 14.5-6t6.5-14V298q0-10-9-17t-22.5-11t-25-6T108,262Z"/>
      <glyph unicode="&#xa7;" glyph-name="gid269" horiz-adv-x="429" d="M137-148q-32,0-53.5,11T62-111q0,8 6.5,27T95-50q7,4 14.5,0.5T122-57q15-13 38.5-20.5T204-85q26,0 39,19t13,54q0,26-19.5,52.5t-49,54T130,149q-51,47-77,91.5T27,329q0,45 10.5,76.5t28,55.5T103,506q10,34 32,65t53.5,50T257,640q23,0 50-7t37-17q6-4 10-9.5t4-12.5q0-2-6.5-16.5t-16.5-28T313,536q-8,0-16,7q-16,17-37.5,29T224,584q-31,0-45-18t-14-42q0-18 15.5-42T223,431.5T281,378q36-31 60-64t35.5-71T388,155q0-63-23-119.5t-64.5-100T201-135q-14-7-31-10t-33-3ZM313,59q1-4 4.5-3.5T322,59q5,17 7,33t2,34q0,46-25.5,88T237,296q-19,20-43.5,46T148,395t-29,47q-1,4-4.5,3.5T109,442q-7-15-10-32t-3-35q0-44 24.5-85T187,208q20-20 46.5-47t49-54.5T313,59Z"/>
      <glyph unicode="&#xa8;" glyph-name="gid292" horiz-adv-x="337" d="M261,499q-25,0-44.5,19.5T197,563q0,27 19.5,46T261,628q28,0 47.5-19T328,563q0-25-19.5-44.5T261,499ZM73,499q-26,0-45,19.5T9,563q0,27 19,46t45,19q27,0 46.5-19T139,563q0-25-19.5-44.5T73,499Z"/>
      <glyph unicode="&#xa9;" glyph-name="gid270" horiz-adv-x="675" d="M343,19q-64,0-119.5,24t-98,66.5t-66,98T36,327T60,446.5t66.5,98t98,66.5T344,635t119.5-24t98-66.5t66.5-98T652,327T628,207.5t-66.5-98T463,43T343,19Zm14,124q-53,0-96,24.5T193,233t-25,91t26,90.5t72.5,65T375,504q23,0 49-5.5T468,485q7-2 10.5-4.5T483,470q3-18 3-35.5t0-33.5q0-7-5-12t-11-4q-5,0-9.5,4T454,400q-4,11-8.5,20T431,438t-25.5,15.5T368,460q-50,0-76.5-38T265,331q0-40 11-73t34-52.5T371,186q32,0 54,12t35,43q4,8 9.5,11.5T480,255q10-2 10-17t-4-29t-9-30q-4-8-6.5-8.5T461,165q-18-8-45.5-15T357,143ZM343,63q54,0 101,21t82,57.5t55,84T601,327q0,53-20,100t-55,83t-82,56.5T344,587T244,566.5T161.5,510T106,427T86,327q0-54 20-101.5t55-84T242.5,84T343,63Z"/>
      <glyph unicode="&#xaa;" glyph-name="gid139" horiz-adv-x="337" d="M283,201q6,0 11-3.5t5-9.5q0-1-0.5-1.5T298,184q-6-11-14.5-17.5T262,160H47q-6,0-11,5t-5,9q0,8 8,17.5T58,201H283ZM110,278q-18,0-34,9T50.5,310.5T41,340q0,21 11.5,35.5T93,401l65,25q14,5 17,9.5t3,16.5v26q0,17-7,26.5T149,514q-9,0-19.5-3T115,502q-4-5-3-13t1-14q0-5-11-10T76,455t-25-7q-5-1-7.5,4T44,464q5,12 10.5,22T74,508q12,9 30.5,19t40,17.5T184,552q35,0 60-22t24-58l-4-113q0-12 4.5-24.5T284,322q7,0 11,3t7,5q2,1 3.5,2t2.5,1q4,0 7-3.5t3-8.5q0-4-5-10t-9-10q-9-9-22-16t-30-7q-27,0-41,12t-22,23h-2q-11-11-29-23t-48-12Zm37,46q8,0 13.5,4t10.5,7q3,3 3.5,5.5T175,349l2,44q0,7-3,9t-10,0q-25-9-33.5-19.5T122,355q0-18 8.5-24.5T147,324Z"/>
      <glyph unicode="&#xab;" glyph-name="gid230" horiz-adv-x="587" d="M318,17q-11,0-20,7.5T285,36q-29,28-54,48t-49,36.5t-49.5,31T76,180q-12,7-18,16.5T52,215q0,10 8,13q42,26 72.5,45T187,309.5t48,37T287,393q5,4 14,12t19,8q7,0 7-10q0-4-2-8t-4-9q-32-47-56-76t-45-48.5T176,222q-6-5-6-7t6-8q23-19 44-39t45-49t56-77q2-3 3.5-6.5T326,29q0-12-8-12Zm211,0q-11,0-20,7.5T496,36q-29,28-54,48t-49,36.5t-49.5,31T287,180q-12,7-18,16.5T263,215q0,10 8,13q42,26 72.5,45T398,309.5t48,37T498,393q5,4 14,12t19,8q7,0 7-10q0-4-2-8t-4-9q-32-47-56-76t-45-48.5T387,222q-6-5-6-7t6-8q23-19 44-39t45-49t56-77q2-3 3.5-6.5T537,29q0-12-8-12Z"/>
      <glyph unicode="&#xac;" glyph-name="gid258" horiz-adv-x="614" d="M499,42q-4,0-8.5,5.5T486,60V301q0,17-15,17H56q-6,0-11.5,4.5T39,332q0,7 2.5,20T51,375.5T69,386H538q8,0 11.5-5.5T553,368V72q0-11-10.5-17.5T519,45t-20-3Z"/>
      <glyph unicode="&#xad;" glyph-name="gid220" horiz-adv-x="302" d="M36,166q-9,0-9,9q0,26 5,42t15,17q52,8 107.5,15.5T262,262q8,0 10.5-3.5T275,250q0-27-4-40.5T255,194q-51-7-108.5-15T36,166Z"/>
      <glyph unicode="&#xae;" glyph-name="gid271" horiz-adv-x="679" d="M344,19q-63,0-118.5,24t-98,66.5t-66,98T38,327T62,446.5t66,98T226,611t119,24q65,0 120.5-24T563,544.5t66-98T653,327T629,207.5t-66.5-98T464.5,43T344,19Zm0,44q54,0 101.5,21T528,141.5t55,84T603,327q0,53-20,100t-55.5,82t-82,55.5T345,585q-52,0-99-20.5T163.5,509T108,427T88,327q0-54 19.5-101.5t55-84t82-57.5T344,63ZM475,171q-16,0-35,12.5T402.5,216T369,260t-25,46q-2,6-8,9.5T319,319q-4,0-7-2.5t-3-7.5V229q0-16 10.5-22T347,197q6-2 10.5-5t4.5-10q0-4-4-8t-9-4q-19,0-39,2t-38,2q-12,0-23-1t-22.5-2T201,170q-3,0-8,4t-5,8q0,6 4.5,9.5T203,197q16,4 23,10t7,22V434q0,16-2.5,22.5t-8,9.5T206,472q-15,3-15,13t15,9q20,0 33.5-2t30.5-2q21,0 38,2t44,2q53,1 86-19t33-60q0-33-19.5-51.5T409,335q-4-1-3-4.5t3-6.5q14-35 35-61.5T486.5,222T521,208q3,0 7-0.5t4-6.5q0-13-15.5-21.5T475,171ZM330,351q30,0 48,16t18,40q0,27-15.5,40.5T339,461q-18,0-25-6t-7-17V369q0-11 6.5-14.5T330,351Z"/>
      <glyph unicode="&#xaf;" glyph-name="gid299" horiz-adv-x="337" d="M41,506q-8,0-13,5t-5,11q0,13 4.5,25.5t12,21.5T56,578H296q8,0 12.5-4.5T313,562q0-21-10.5-38.5T275,506H41Z"/>
      <glyph unicode="&#xb0;" glyph-name="gid273" horiz-adv-x="328" d="M165,388q-39,0-71,20T43.5,460.5T25,529t18.5,66T94,643t71,18t70-17.5T284.5,596T303,530t-18.5-68.5t-49.5-53T165,388Zm-1,52q33,0 57,24.5T245,524q0,36-24,60t-57,24t-57-24T83,524q0-35 24-59.5T164,440Z"/>
      <glyph unicode="&#xb1;" glyph-name="gid256" horiz-adv-x="597" d="M283,124q-4,0-8,4.5T271,139V345q0,9-9,9H55q-6,0-11,4.5T39,367q0,9 6,25.5T66,409H260q7,0 9,3t2,9V591q0,10 7,17t17,11.5t15,4.5q7,0 11-6t4-13V420q0-6 2.5-8.5T334,409H538q7,0 13-3.5t6-10.5q0-11-10-26t-23-15H334q-9,0-9-9V150q0-14-16.5-20T283,124ZM56,33q-6,0-11.5,5T39,47q0,6 3,16.5t9,19T68,91H537q8,0 14.5-4T558,76q0-12-10.5-27.5T523,33H56Z"/>
      <glyph unicode="&#xb2;" glyph-name="gid192" horiz-adv-x="327" d="M263,438q-13,0-33,1t-42.5,1.5T142,441q-19,0-42-0.5T58.5,439T35,438q-4,0-7.5,3T24,447q0,4 6,10l38,39q25,29 50.5,57t42,56.5T177,667q0,24-14,39t-37,15T87.5,709.5T59,682q-7-11-15-11q-5,0-7.5,4.5T34,688q0,13 15,34t43,37.5T159,776q49,0 76-26.5T262,686q0-20-10.5-42.5T222,599q-10-11-25.5-25.5t-32-28.5T136,520.5T121,507q-2-2 1.5-3t7.5-1h87q20,0 35,13t27,31q2,5 5.5,8.5T295,559q6,0 7.5-4.5T302,547q-8-21-16.5-50.5T274,451q-1-6-4.5-9.5T263,438Z"/>
      <glyph unicode="&#xb3;" glyph-name="gid193" horiz-adv-x="292" d="M96,435q-24,0-44,8.5T32,468q0,12 5,22t13,10q4,0 8-2t6-5q12-11 25-20.5t29-9.5q24,0 39,20.5T172,539q0,20-15,40.5T115,600q-17,0-26-5.5T75,589t-10.5,2.5T60,598q1,9 10.5,16T91,626t17,7q32,16 43.5,30.5T163,698q0,15-13,25.5T119,734q-20,0-36-9T56,703q-2-3-5-6t-6-3t-7,5.5T34,709q0,7 13,23t37.5,30T144,776q33,0 61.5-18.5T234,708q0-22-14.5-39T174,640q-3-1-3-2t3-2q31-4 55-23.5T253,558q0-37-22.5-65T172,450T96,435Z"/>
      <glyph unicode="&#xb4;" glyph-name="gid295" horiz-adv-x="225" d="M39,454q-10,0-10,11q0,4 1,9t4,12q7,19 20.5,48t27,56.5T103,632q6,13 15.5,18t23.5,5q22,0 38.5-5.5T197,632q0-6-2-11t-8-12q-16-21-37.5-46t-43-49T67,472T39,454Z"/>
      <glyph unicode="&#xb5;" glyph-name="gid260" horiz-adv-x="552" d="M145-285q-18,0-29.5,10T97-250T86-220q-2,9-3,33.5t-2,57t-1.5,67T78,0q0,53 0,100t-1,88.5T75.5,266t-1,67T74,388q0,20 7.5,29t37.5,9q32,0 54-10t22-28q0-22-6.5-58.5t-15.5-75T158,185t-6-44q0-15 6-29.5t18-24T204,78q34,0 60,31.5T316,215q4,32 6.5,66.5T327,348t3,56q1,13 7,18t19,5q29,0 49.5-8T437,400t11-22q0-39-17-93.5T392,168q0-19 9-35.5T426,105t37-11q19,0 33.5,8T521,117.5t14,7.5t8-3t4-7q0-42-16.5-71.5t-40-44T444-15q-28,1-48.5,30.5T369,90q-1,8-1.5,17t0.5,18l-3,1q-3-6-15.5-28.5t-31-48T280.5,5T246-14q-17,0-33,9T184,17T159,41q-9,11-18.5,22T128,74q-11,0-11-29q0-10 1-30t1.5-44.5t1.5-46t1-35.5q0-23 14.5-40.5t33-30.5t33-23T217-224q0-14-12-28t-28.5-23.5T145-285Z"/>
      <glyph unicode="&#xb6;" glyph-name="gid268" horiz-adv-x="617" d="M300-304q-38,0-69.5,15t-50,42.5T162-183q0,37 19,63.5T228-78t55,15q33-1 53-15.5T356-120q0-25-14.5-40.5T309-176q-12,0-20.5,6T272-157q-7,7-13.5,12.5T246-139q-12,0-24-13t-12-39q0-29 25.5-52T304-266q23,0 45,12t36.5,39T400-144V57q0,8-2.5,17T386,83q-72,0-136.5,18.5T134.5,156T55,244.5T26,364q0,105 49.5,167T215,620.5T428,648q31,0 62-1.5t55.5-3T578,640q8-1 12-8.5t4-16.5t-4.5-22T579,580q-5,0-38.5,8T466,596q-8,0-14-7t-6-16V-143q0-45-17.5-81.5t-50.5-58T300-304Z"/>
      <glyph unicode="&#xb7;" glyph-name="gid207" horiz-adv-x="237" d="M118,137q-29,0-50.5,21.5T46,209q0,31 21.5,52.5T118,283q31,0 52.5-21.5T192,209q0-29-21.5-50.5T118,137Z"/>
      <glyph unicode="&#xb8;" glyph-name="gid300" horiz-adv-x="249" d="M80-274q-20,0-30,9T40-229q0,13 4.5,18T56-206q10,0 24.5-7t37.5-7q17,0 25,11.5t8,30.5q0,23-18,35T94-131q-12,0-18.5-4T63-139t-13.5,5.5T42-118q0,6 11,19L143,8h39L146-37q-6-7-6-11q0-5 13-11q24-10 40-30t16-51q0-27-13.5-51.5t-34-42.5t-42-29T80-274Z"/>
      <glyph unicode="&#xb9;" glyph-name="gid191" horiz-adv-x="252" d="M47,440q-4,0-7.5,3.5T36,452t3,9.5t8,5.5q15,2 24,4t13.5,8.5T89,500V671q0,20-14,31T46,715q-5,1-8.5,4T34,727q0,15 13,16q38,3 63,12t45,23q1,1 4.5,2.5T165,782q10,0 9-10q-1-8-2.5-20T170,720V500q0-17 6-22t33-11q5-2 8-5.5t3-9.5q0-4-2.5-7.5T210,441q-18,0-32,0.5t-26.5,1T127,443t-23.5-0.5T79,441t-32-1Z"/>
      <glyph unicode="&#xba;" glyph-name="gid140" horiz-adv-x="321" d="M287,201q6,0 11.5-3.5T304,188q0-1-0.5-1.5T303,184q-6-11-15-17.5T267,160H35q-6,0-11,5t-5,9q0,8 8.5,17.5T47,201H287ZM169,278q-40,0-72.5,16.5T45,340T26,406q0,42 21,75t56.5,52T184,552q40,0 73-17.5T310.5,488T331,424q0-39-18.5-72t-54-53.5T169,278Zm13,35q20,0 30.5,14t15,36t4.5,46q0,26-7,50.5T205,500t-31,16q-20,0-31-14.5t-15-36T124,421q0-27 7-52t20.5-40.5T182,313Z"/>
      <glyph unicode="&#xbb;" glyph-name="gid231" horiz-adv-x="587" d="M269,17q-8,0-8,12q0,3 1.5,6.5T266,42q31,48 55.5,77T367,168t43,39q8,6 8,8t-8,7q-22,20-43,39.5T321.5,310T266,386q-2,5-4,9t-2,8q0,10 7,10q10,0 19-8t13-12q29-27 53-46.5t48-37T454.5,273T527,228q8-3 8-13q0-9-6-18.5T510,180q-30-14-55.5-28.5t-50-31T355.5,84T302,36q-4-4-13.5-11.5T269,17ZM58,17q-8,0-8,12q0,3 1.5,6.5T55,42q31,48 55.5,77T156,168t43,39q8,6 8,8t-8,7q-22,20-43,39.5T110.5,310T55,386q-2,5-4,9t-2,8q0,10 7,10q10,0 19-8t13-12q29-27 53-46.5t48-37T243.5,273T316,228q8-3 8-13q0-9-6-18.5T299,180q-30-14-55.5-28.5t-50-31T144.5,84T91,36q-4-4-13.5-11.5T58,17Z"/>
      <glyph unicode="&#xbc;" glyph-name="gid196" horiz-adv-x="649" d="M47,278q-4,0-7.5,3.5T36,290t3,9.5t8,5.5q15,2 24,4t13.5,8.5T89,338V509q0,20-14,31T46,553q-5,1-8.5,4T34,565q0,15 13,16q38,3 63,12t45,23q1,1 4.5,2.5T165,620q10,0 9-10q-1-8-2.5-20T170,558V338q0-17 6-22t33-11q5-2 8-5.5t3-9.5q0-4-2.5-7.5T210,279q-18,0-32,0.5t-26.5,1T127,281t-23.5-0.5T79,279t-32-1ZM531,644q8,13 19,16.5t27,3.5q7,0 12-5t5-10q0-4-1-5L173-18q-6-12-17.5-15T131-36q-7,0-14,4.5T110-22q0,2 1,4L531,644ZM510-9q-10,0-10,8V87q0,3-5,4.5T489,93q-37,0-69-1.5T346,90q-2,0-5.5,1.5T337,95t0.5,2.5T339,99q34,43 72,86t74,84q9,12 26,30t36,37q6,6 11.5,10t9.5,4q3,0 4-3t1-6l-1-203q0-6 6-6h19q8,0 16,0.5t16,0.5q7,0 7-7q0-8-5.5-19.5T620,95H583q-6,0-8.5-1.5T572,88V26q0-8-14-16T529-3.5T510-9ZM412,133h81q2,0 4.5,1.5T500,137v95q0,1-1.5,1.5T495,232q-14-15-29.5-31.5T436,168t-25-31q-2-4 1-4Z"/>
      <glyph unicode="&#xbd;" glyph-name="gid195" horiz-adv-x="718" d="M47,278q-4,0-7.5,3.5T36,290t3,9.5t8,5.5q15,2 24,4t13.5,8.5T89,338V509q0,20-14,31T46,553q-5,1-8.5,4T34,565q0,15 13,16q38,3 63,12t45,23q1,1 4.5,2.5T165,620q10,0 9-10q-1-8-2.5-20T170,558V338q0-17 6-22t33-11q5-2 8-5.5t3-9.5q0-4-2.5-7.5T210,279q-18,0-32,0.5t-26.5,1T127,281t-23.5-0.5T79,279t-32-1ZM531,644q8,13 19,16.5t27,3.5q7,0 12-5t5-10q0-4-1-5L173-18q-6-12-17.5-15T131-36q-7,0-14,4.5T110-22q0,2 1,4L531,644ZM654-16q-13,0-33,1t-42.5,1.5T533-13q-19,0-42-0.5T449.5-15T426-16q-4,0-7.5,3T415-7q0,4 6,10l38,39q25,29 50.5,57t42,56.5T568,213q0,24-14,39t-37,15t-38.5-11.5T450,228q-7-11-15-11q-5,0-7.5,4.5T425,234q0,13 15,34t43,37.5T550,322q49,0 76-26.5T653,232q0-20-10.5-42.5T613,145q-10-11-25.5-25.5T555.5,91T527,66.5T512,53q-2-2 1.5-3t7.5-1h87q20,0 35,13t27,31q2,5 5.5,8.5T686,105q6,0 7.5-4.5T693,93q-8-21-16.5-50.5T665-3q-1-6-4.5-9.5T654-16Z"/>
      <glyph unicode="&#xbe;" glyph-name="gid197" horiz-adv-x="652" d="M96,275q-24,0-44,8.5T32,308q0,12 5,22t13,10q4,0 8-2t6-5q12-11 25-20.5t29-9.5q24,0 39,20.5T172,379q0,20-15,40.5T115,440q-17,0-26-5.5T75,429t-10.5,2.5T60,438q1,9 10.5,16T91,466t17,7q32,16 43.5,30.5T163,538q0,15-13,25.5T119,574q-20,0-36-9T56,543q-2-3-5-6t-6-3t-7,5.5T34,549q0,7 13,23t37.5,30T144,616q33,0 61.5-18.5T234,548q0-22-14.5-39T174,480q-3-1-3-2t3-2q31-4 55-23.5T253,398q0-37-22.5-65T172,290T96,275ZM532,644q8,13 19,16.5t27,3.5q7,0 12-5t5-10q0-4-1-5L174-18q-6-12-17.5-15T132-36q-7,0-14,4.5T111-22q0,2 1,4L532,644ZM513-9q-10,0-10,8V87q0,3-5,4.5T492,93q-37,0-69-1.5T349,90q-2,0-5.5,1.5T340,95t0.5,2.5T342,99q34,43 72,86t74,84q9,12 26,30t36,37q6,6 11.5,10t9.5,4q3,0 4-3t1-6l-1-203q0-6 6-6h19q8,0 16,0.5t16,0.5q7,0 7-7q0-8-5.5-19.5T623,95H586q-6,0-8.5-1.5T575,88V26q0-8-14-16T532-3.5T513-9ZM415,133h81q2,0 4.5,1.5T503,137v95q0,1-1.5,1.5T498,232q-14-15-29.5-31.5T439,168t-25-31q-2-4 1-4Z"/>
      <glyph unicode="&#xbf;" glyph-name="gid206" horiz-adv-x="389" d="M246,304q7,0 15-8t14-22q7-16 14-36.5t7-51.5t-28.5-55T184,81q-26-12-44.5-30.5T121,7q0-36 23.5-57.5T205-73q16,0 25,3t15,5q7,2 14.5,3.5T276-60q13,0 25-12.5t20-30t8-33.5q0-17-18.5-31T270-181q-35,0-69.5,17.5T136-115Q111-89 92.5-58T64,5.5T54,65q0,39 14.5,61T100,157q18,9 32,17t27.5,16.5T189,208q22,12 28.5,29t9.5,44q1,10 5.5,16.5T246,304Zm-4,190q28,0 48-20t20-48q0-29-20-48.5T242,358t-48,19.5T174,426q0,28 20,48t48,20Z"/>
      <glyph unicode="&#xc0;" glyph-name="gid6" horiz-adv-x="711" d="M402,683q-3-1-9,1t-14,7q-35,24-76.5,49.5T225,792q-15,11-17,20q-1,8 12.5,15.5t30,12.5t24.5,5q20,2 31-12q27-30 50.5-60.5T403,710q8-12 8-19t-9-8ZM24-5Q12-5 4-1.5T-4,10q0,9 7.5,14T23,33q29,8 50.5,24.5T108,103q25,59 48,113.5T200,325t42.5,110T286,553q11,31 15,48t7,25q15,4 28,8t29,10q14,7 24,18t15,17q3,2 6,2.5t6-4.5q3-6 5-12t4-13q22-71 45.5-143.5t46.5-143t44.5-135T601,112q9-27 22.5-43t30-24.5T690,31q13-3 20-8t7-14q0-6-6.5-9T694-3q-18,0-45.5,1T592,0.5T540,2q-20,0-44.5-1t-49-2T405-2q-10,0-17.5,3.5T380,12q0,8 8,13.5T407,33q36,6 52,18.5T471,88q-3,17-9,40.5t-12.5,49T436,224q-2,8-6,11.5T415,239H235q-7,0-11-4.5T218,221q-4-13-9.5-29.5t-11-34t-10-32.5T181,99q-5-27 9.5-42.5T241,32q27-7 27-21q0-6-6.5-9.5T243-2q-23,0-48,1.5T140,1T81.5-2T24-5ZM262,285H401q14,0 14,6q0,3-0.5,5t-1.5,6L343,533q-4,14-7,14q-2,0-7-13L245,302q-2-5-2-8q0-5 5.5-7t13.5-2Z"/>
      <glyph unicode="&#xc1;" glyph-name="gid2" horiz-adv-x="711" d="M24-5Q12-5 4-1.5T-4,10q0,9 7.5,14T23,33q29,8 50.5,24.5T108,103q25,59 48,113.5T200,325t42.5,110T286,553q11,31 15,48t7,25q15,4 28,8t29,10q14,7 24,18t15,17q3,2 6,2.5t6-4.5q3-6 5-12t4-13q22-71 45.5-143.5t46.5-143t44.5-135T601,112q9-27 22.5-43t30-24.5T690,31q13-3 20-8t7-14q0-6-6.5-9T694-3q-18,0-45.5,1T592,0.5T540,2q-20,0-44.5-1t-49-2T405-2q-10,0-17.5,3.5T380,12q0,8 8,13.5T407,33q36,6 52,18.5T471,88q-3,17-9,40.5t-12.5,49T436,224q-2,8-6,11.5T415,239H235q-7,0-11-4.5T218,221q-4-13-9.5-29.5t-11-34t-10-32.5T181,99q-5-27 9.5-42.5T241,32q27-7 27-21q0-6-6.5-9.5T243-2q-23,0-48,1.5T140,1T81.5-2T24-5ZM262,285H401q14,0 14,6q0,3-0.5,5t-1.5,6L343,533q-4,14-7,14q-2,0-7-13L245,302q-2-5-2-8q0-5 5.5-7t13.5-2Zm68,398q-10,1-10,8t9,19q23,32 46.5,62.5T425,833q12,14 31,12q8,0 24.5-5t30-12.5T523,812q-2-9-17-20q-35-26-76.5-51.5T353,691q-8-5-14.5-7t-8.5-1Z"/>
      <glyph unicode="&#xc2;" glyph-name="gid4" horiz-adv-x="711" d="M24-5Q12-5 4-1.5T-4,10q0,9 7.5,14T23,33q29,8 50.5,24.5T108,103q25,59 48,113.5T200,325t42.5,110T286,553q11,31 15,48t7,25q15,4 28,8t29,10q14,7 24,18t15,17q3,2 6,2.5t6-4.5q3-6 5-12t4-13q22-71 45.5-143.5t46.5-143t44.5-135T601,112q9-27 22.5-43t30-24.5T690,31q13-3 20-8t7-14q0-6-6.5-9T694-3q-18,0-45.5,1T592,0.5T540,2q-20,0-44.5-1t-49-2T405-2q-10,0-17.5,3.5T380,12q0,8 8,13.5T407,33q36,6 52,18.5T471,88q-3,17-9,40.5t-12.5,49T436,224q-2,8-6,11.5T415,239H235q-7,0-11-4.5T218,221q-4-13-9.5-29.5t-11-34t-10-32.5T181,99q-5-27 9.5-42.5T241,32q27-7 27-21q0-6-6.5-9.5T243-2q-23,0-48,1.5T140,1T81.5-2T24-5ZM262,285H401q14,0 14,6q0,3-0.5,5t-1.5,6L343,533q-4,14-7,14q-2,0-7-13L245,302q-2-5-2-8q0-5 5.5-7t13.5-2ZM232,694q-18,0-18,11q0,8 9,15l102,90q16,15 25,20.5t22,5.5t22-5.5T420,810l101-90q8-6 8-15q0-12-16-12q-6,0-22.5,5.5t-37,14t-39.5,17T384,745q-7,4-12,4t-12-4q-11-7-30-15t-39.5-16.5t-36.5-14T232,694Z"/>
      <glyph unicode="&#xc3;" glyph-name="gid8" horiz-adv-x="711" d="M24-5Q12-5 4-1.5T-4,10q0,9 7.5,14T23,33q29,8 50.5,24.5T108,103q25,59 48,113.5T200,325t42.5,110T286,553q11,31 15,48t7,25q15,4 28,8t29,10q14,7 24,18t15,17q3,2 6,2.5t6-4.5q3-6 5-12t4-13q22-71 45.5-143.5t46.5-143t44.5-135T601,112q9-27 22.5-43t30-24.5T690,31q13-3 20-8t7-14q0-6-6.5-9T694-3q-18,0-45.5,1T592,0.5T540,2q-20,0-44.5-1t-49-2T405-2q-10,0-17.5,3.5T380,12q0,8 8,13.5T407,33q36,6 52,18.5T471,88q-3,17-9,40.5t-12.5,49T436,224q-2,8-6,11.5T415,239H235q-7,0-11-4.5T218,221q-4-13-9.5-29.5t-11-34t-10-32.5T181,99q-5-27 9.5-42.5T241,32q27-7 27-21q0-6-6.5-9.5T243-2q-23,0-48,1.5T140,1T81.5-2T24-5ZM262,285H401q14,0 14,6q0,3-0.5,5t-1.5,6L343,533q-4,14-7,14q-2,0-7-13L245,302q-2-5-2-8q0-5 5.5-7t13.5-2ZM243,691q-5,0-11.5,6.5T225,707q0,6 9,20.5t22.5,32t26.5,30T304,802q18,0 39-1t39-2t38-2.5t39-1.5q11,0 20.5,6.5T496,815q8,8 12.5,14.5T516,836q7,0 14-6t7-12q0-4-4.5-10T521,793q-11-14-22-30t-20-29q-6-8-15.5-11T449,720q-8,0-28.5,1.5T374,725t-48,3.5T293,730q-7,0-15.5-5T263,713q-8-7-13-14.5t-7-7.5Z"/>
      <glyph unicode="&#xc4;" glyph-name="gid5" horiz-adv-x="711" d="M24-5Q12-5 4-1.5T-4,10q0,9 7.5,14T23,33q29,8 50.5,24.5T108,103q25,59 48,113.5T200,325t42.5,110T286,553q11,31 15,48t7,25q15,4 28,8t29,10q14,7 24,18t15,17q3,2 6,2.5t6-4.5q3-6 5-12t4-13q22-71 45.5-143.5t46.5-143t44.5-135T601,112q9-27 22.5-43t30-24.5T690,31q13-3 20-8t7-14q0-6-6.5-9T694-3q-18,0-45.5,1T592,0.5T540,2q-20,0-44.5-1t-49-2T405-2q-10,0-17.5,3.5T380,12q0,8 8,13.5T407,33q36,6 52,18.5T471,88q-3,17-9,40.5t-12.5,49T436,224q-2,8-6,11.5T415,239H235q-7,0-11-4.5T218,221q-4-13-9.5-29.5t-11-34t-10-32.5T181,99q-5-27 9.5-42.5T241,32q27-7 27-21q0-6-6.5-9.5T243-2q-23,0-48,1.5T140,1T81.5-2T24-5ZM262,285H401q14,0 14,6q0,3-0.5,5t-1.5,6L343,533q-4,14-7,14q-2,0-7-13L245,302q-2-5-2-8q0-5 5.5-7t13.5-2ZM470,690q-26,0-45,19t-19,45q0,28 19,46.5T470,819q29,0 48-18.5T537,754q0-26-19-45t-48-19Zm-196,0q-27,0-45.5,19T210,754q0,28 18.5,46.5T274,819q28,0 47-18.5T340,754q0-26-19-45t-47-19Z"/>
      <glyph unicode="&#xc5;" glyph-name="gid7" horiz-adv-x="711" d="M24-5Q12-5 4-1.5T-4,10q0,9 7.5,14T23,33q29,8 50.5,24.5T108,103q25,59 48,113.5T200,325t42.5,110T286,553q11,31 15,48t7,25q15,4 28,8t29,10q14,7 24,18t15,17q3,2 6,2.5t6-4.5q3-6 5-12t4-13q22-71 45.5-143.5t46.5-143t44.5-135T601,112q9-27 22.5-43t30-24.5T690,31q13-3 20-8t7-14q0-6-6.5-9T694-3q-18,0-45.5,1T592,0.5T540,2q-20,0-44.5-1t-49-2T405-2q-10,0-17.5,3.5T380,12q0,8 8,13.5T407,33q36,6 52,18.5T471,88q-3,17-9,40.5t-12.5,49T436,224q-2,8-6,11.5T415,239H235q-7,0-11-4.5T218,221q-4-13-9.5-29.5t-11-34t-10-32.5T181,99q-5-27 9.5-42.5T241,32q27-7 27-21q0-6-6.5-9.5T243-2q-23,0-48,1.5T140,1T81.5-2T24-5ZM262,285H401q14,0 14,6q0,3-0.5,5t-1.5,6L343,533q-4,14-7,14q-2,0-7-13L245,302q-2-5-2-8q0-5 5.5-7t13.5-2Zm61,486q0-21 15-36t37-15q20,0 31,16t11,35q0,22-14.5,36.5T367,822t-32.5-15T323,771Zm52,81q38,0 68-19.5T473,778q0-26-15.5-45T418,703t-53-11q-38,0-68,20.5T267,769q0,25 15.5,43.5t40.5,29T375,852Z"/>
      <glyph unicode="&#xc6;" glyph-name="gid9" horiz-adv-x="897" d="M22-5Q10-5 2.5-2T-5,9q0,9 7.5,13.5T22,31q28,9 53.5,30.5T117,111L403,597q3,5 0.5,9.5T393,612l-51,10q-9,2-12.5,7T326,639q0,14 15,14q33,0 76-2t82-2q43,0 92.5,1t94.5,1.5t78,1.5t45,1q6,0 13.5-3.5T831,638q6-33 10-63.5t5-57.5q0-7-4.5-11t-9.5-4t-9,3.5T816,516q-9,25-17,43.5T780,589q-12,13-28.5,18.5T714,613H620q-17,0-32-9.5T573,576V365q0-11 6-17t16-6q26,0 48,0t42,1q21,0 32,13t20,29q8,11 13.5,20t13.5,9q5,0 9-5.5t3-14.5q-1-20-2.5-37.5T772,322q0-19 1-37.5t3-41.5q1-11-1.5-17t-8.5-6q-8,0-14.5,8T743,244q-8,28-21,41.5T694,300q-27,1-50,1t-48,0q-11,0-17-6t-6-17V103q0-28 13.5-45.5T629,40h96q9,0 23,2.5T775.5,50T797,60q17,14 29.5,36T849,139q3,7 6,10.5t9,3.5q14-1 14-13q0-28-8.5-63.5T853,10q-2-7-7-10.5T833-4q-22,0-58.5,0.5T692.5-2T599-0.5T507,0q-21,0-42.5-1T421-3.5T376-5q-11,0-17.5,4T352,9q0,13 26,19q35,9 50.5,22T444,95V249q0,7-3,12.5T425,267H284q-9,0-15.5-4.5T257,248q-18-33-34.5-68T191,110q-7-17-7-30q0-20 17.5-31T248,32q27-7 27-21q0-6-6.5-9.5T250-2q-24,0-52,1.5T142,1Q111,1 81-2T22-5ZM321,319H429q7,0 11,3t4,11V559q0,12-2.5,15T431,562L307,335q-4-7-2-11q1-3 5.5-4t10.5-1Z"/>
      <glyph unicode="&#xc7;" glyph-name="gid12" horiz-adv-x="709" d="M405-14Q330-14 263,9.5T144.5,77t-81,105.5T34,319q0,70 29,132t82,110t126.5,75.5T433,664q34,0 64.5-4.5t59.5-11T614,632q11-4 17.5-11t7.5-19q4-30 6-59.5t2-58.5q1-10-7-14.5t-17-1T610,483q-8,28-18.5,52.5T560,577q-23,19-58,30.5T420,619q-54,0-98-22t-75.5-61T198,448T181,345q0-64 15.5-121t47-100.5t76.5-68T423,31q74,0 120,32t78,95q8,16 22,15.5T657,157q0-12-3-30t-8.5-38.5T633,48q-4-12-10-18T605,19Q567,3 515.5-5.5T405-14ZM329-275q-24,0-37,8t-13,32q0,16 6,23.5t13,7.5q6,0 17-6.5t44-6.5q18,0 31,9.5T403-178q0,22-12,33.5T355-133q-9,0-13.5-2.5T330-138q-14,0-21,7.5T302-118q0,6 1.5,10t4.5,8L397,8h40L402-42q-11-15 4-21q25-10 45-31t20-55t-23.5-63T391-258t-62-17Z"/>
      <glyph unicode="&#xc8;" glyph-name="gid19" horiz-adv-x="571" d="M328,683q-3-1-9,1t-14,7q-35,24-76.5,49.5T151,792q-15,11-17,20q-1,8 13,15.5T177.5,840t23.5,5q20,2 32-12q26-30 49.5-60.5T329,710q9-12 9-19t-10-8ZM49-5Q38-5 31.5-1T25,9q0,13 26,19q36,9 51.5,22.5T118,97V550q0,34-13.5,48T54,620q-14,3-20,8.5T28,640q0,7 6.5,10.5T52,654q29,0 55.5-1t51.5-2t52-1q46,0 97.5,1t92.5,1q33,1 54.5,3t25.5,2q7,0 14.5-3t8.5-12q4-33 10-65t6-56q0-9-4.5-13.5T506,503t-9,3.5T490,517q-8,23-15,40t-16,26q-13,14-30,22t-41,8H295q-18,0-33-10.5T247,573V377q0-11 6.5-17t15.5-6h92q27,0 38.5,15T419,410q7,20 19,20q5,0 9-5.5t4-14.5q-1-10-2-24t-1.5-28T447,333q0-12 0.5-27t1-29.5T450,252q1-11-1.5-17t-8.5-6q-16,0-23,28q-8,28-19,42t-30,14H274q-13,0-20-5t-7-19V99q0-33 14-46t43-13h82q25,0 45.5,5T467,61q17,12 30.5,32.5T524,139q4,8 8,10.5t10,2.5q5-1 7.5-6t2.5-11q0-14-5-36T534.5,53.5T521,10q-3-7-8-10.5T501-4q-24,0-61.5,0.5T358-2T268-0.5T180,0q-21,0-42.5-1T94-3.5T49-5Z"/>
      <glyph unicode="&#xc9;" glyph-name="gid16" horiz-adv-x="571" d="M49-5Q38-5 31.5-1T25,9q0,13 26,19q36,9 51.5,22.5T118,97V550q0,34-13.5,48T54,620q-14,3-20,8.5T28,640q0,7 6.5,10.5T52,654q29,0 55.5-1t51.5-2t52-1q46,0 97.5,1t92.5,1q33,1 54.5,3t25.5,2q7,0 14.5-3t8.5-12q4-33 10-65t6-56q0-9-4.5-13.5T506,503t-9,3.5T490,517q-8,23-15,40t-16,26q-13,14-30,22t-41,8H295q-18,0-33-10.5T247,573V377q0-11 6.5-17t15.5-6h92q27,0 38.5,15T419,410q7,20 19,20q5,0 9-5.5t4-14.5q-1-10-2-24t-1.5-28T447,333q0-12 0.5-27t1-29.5T450,252q1-11-1.5-17t-8.5-6q-16,0-23,28q-8,28-19,42t-30,14H274q-13,0-20-5t-7-19V99q0-33 14-46t43-13h82q25,0 45.5,5T467,61q17,12 30.5,32.5T524,139q4,8 8,10.5t10,2.5q5-1 7.5-6t2.5-11q0-14-5-36T534.5,53.5T521,10q-3-7-8-10.5T501-4q-24,0-61.5,0.5T358-2T268-0.5T180,0q-21,0-42.5-1T94-3.5T49-5ZM256,683q-10,1-10,8t9,19q23,32 46.5,62.5T351,833q12,14 31,12q8,0 24.5-5t30-12.5T449,812q-2-9-17-20q-35-26-76.5-51.5T279,691q-8-5-14.5-7t-8.5-1Z"/>
      <glyph unicode="&#xca;" glyph-name="gid17" horiz-adv-x="571" d="M49-5Q38-5 31.5-1T25,9q0,13 26,19q36,9 51.5,22.5T118,97V550q0,34-13.5,48T54,620q-14,3-20,8.5T28,640q0,7 6.5,10.5T52,654q29,0 55.5-1t51.5-2t52-1q46,0 97.5,1t92.5,1q33,1 54.5,3t25.5,2q7,0 14.5-3t8.5-12q4-33 10-65t6-56q0-9-4.5-13.5T506,503t-9,3.5T490,517q-8,23-15,40t-16,26q-13,14-30,22t-41,8H295q-18,0-33-10.5T247,573V377q0-11 6.5-17t15.5-6h92q27,0 38.5,15T419,410q7,20 19,20q5,0 9-5.5t4-14.5q-1-10-2-24t-1.5-28T447,333q0-12 0.5-27t1-29.5T450,252q1-11-1.5-17t-8.5-6q-16,0-23,28q-8,28-19,42t-30,14H274q-13,0-20-5t-7-19V99q0-33 14-46t43-13h82q25,0 45.5,5T467,61q17,12 30.5,32.5T524,139q4,8 8,10.5t10,2.5q5-1 7.5-6t2.5-11q0-14-5-36T534.5,53.5T521,10q-3-7-8-10.5T501-4q-24,0-61.5,0.5T358-2T268-0.5T180,0q-21,0-42.5-1T94-3.5T49-5ZM159,694q-18,0-18,11q0,8 9,15l102,90q16,15 25,20.5t22,5.5t22-5.5T347,810l101-90q8-6 8-15q0-12-16-12q-6,0-22.5,5.5t-37,14t-39.5,17T311,745q-7,4-12,4t-12-4q-11-7-30-15t-39.5-16.5t-36.5-14T159,694Z"/>
      <glyph unicode="&#xcb;" glyph-name="gid18" horiz-adv-x="571" d="M49-5Q38-5 31.5-1T25,9q0,13 26,19q36,9 51.5,22.5T118,97V550q0,34-13.5,48T54,620q-14,3-20,8.5T28,640q0,7 6.5,10.5T52,654q29,0 55.5-1t51.5-2t52-1q46,0 97.5,1t92.5,1q33,1 54.5,3t25.5,2q7,0 14.5-3t8.5-12q4-33 10-65t6-56q0-9-4.5-13.5T506,503t-9,3.5T490,517q-8,23-15,40t-16,26q-13,14-30,22t-41,8H295q-18,0-33-10.5T247,573V377q0-11 6.5-17t15.5-6h92q27,0 38.5,15T419,410q7,20 19,20q5,0 9-5.5t4-14.5q-1-10-2-24t-1.5-28T447,333q0-12 0.5-27t1-29.5T450,252q1-11-1.5-17t-8.5-6q-16,0-23,28q-8,28-19,42t-30,14H274q-13,0-20-5t-7-19V99q0-33 14-46t43-13h82q25,0 45.5,5T467,61q17,12 30.5,32.5T524,139q4,8 8,10.5t10,2.5q5-1 7.5-6t2.5-11q0-14-5-36T534.5,53.5T521,10q-3-7-8-10.5T501-4q-24,0-61.5,0.5T358-2T268-0.5T180,0q-21,0-42.5-1T94-3.5T49-5ZM396,690q-26,0-45,19t-19,45q0,28 19,46.5T396,819q29,0 48-18.5T463,754q0-26-19-45t-48-19Zm-196,0q-27,0-45.5,19T136,754q0,28 18.5,46.5T200,819q28,0 47-18.5T266,754q0-26-19-45t-47-19Z"/>
      <glyph unicode="&#xcc;" glyph-name="gid27" horiz-adv-x="356" d="M209,683q-2-1-8.5,1T186,691q-35,24-76.5,49.5T33,792q-16,11-17,20q-1,8 12.5,15.5t30,12.5T83,845q19,2 31-12q27-30 50-60.5T210,710q9-12 9-19t-10-8ZM40-4Q31-4 24-0.5T17,9q0,15 25,20q38,8 55,22t17,46V551q0,33-14,47T47,620q-25,5-25,21q0,6 7,9.5T45,654q24,0 47-1t44.5-2t43.5-1q21,0 42.5,1t44.5,2t47,1q10,0 16-3.5t6-10.5q0-8-6.5-12.5T311,620q-40-10-54-24t-14-46V98q0-31 16.5-45T314,29q13-3 19.5-7T340,10q0-7-6-10T318-3q-24,0-48,1T223.5,0T180,1q-22,0-45-1T88-2.5T40-4Z"/>
      <glyph unicode="&#xcd;" glyph-name="gid24" horiz-adv-x="356" d="M40-4Q31-4 24-0.5T17,9q0,15 25,20q38,8 55,22t17,46V551q0,33-14,47T47,620q-25,5-25,21q0,6 7,9.5T45,654q24,0 47-1t44.5-2t43.5-1q21,0 42.5,1t44.5,2t47,1q10,0 16-3.5t6-10.5q0-8-6.5-12.5T311,620q-40-10-54-24t-14-46V98q0-31 16.5-45T314,29q13-3 19.5-7T340,10q0-7-6-10T318-3q-24,0-48,1T223.5,0T180,1q-22,0-45-1T88-2.5T40-4Zm97,687q-10,1-10,8t9,19q23,32 46.5,62.5T232,833q12,14 31,12q8,0 24.5-5t30-12.5T330,812q-2-9-17-20q-35-26-76.5-51.5T160,691q-8-5-14.5-7t-8.5-1Z"/>
      <glyph unicode="&#xce;" glyph-name="gid25" horiz-adv-x="356" d="M40-4Q31-4 24-0.5T17,9q0,15 25,20q38,8 55,22t17,46V551q0,33-14,47T47,620q-25,5-25,21q0,6 7,9.5T45,654q24,0 47-1t44.5-2t43.5-1q21,0 42.5,1t44.5,2t47,1q10,0 16-3.5t6-10.5q0-8-6.5-12.5T311,620q-40-10-54-24t-14-46V98q0-31 16.5-45T314,29q13-3 19.5-7T340,10q0-7-6-10T318-3q-24,0-48,1T223.5,0T180,1q-22,0-45-1T88-2.5T40-4Zm0,698q-18,0-18,11q0,8 9,15l102,90q16,15 25,20.5t22,5.5t22-5.5T228,810l101-90q8-6 8-15q0-12-16-12q-6,0-22.5,5.5t-37,14t-39.5,17T192,745q-7,4-12,4t-12-4q-11-7-30-15T98.5,713.5T62,699.5T40,694Z"/>
      <glyph unicode="&#xcf;" glyph-name="gid26" horiz-adv-x="356" d="M40-4Q31-4 24-0.5T17,9q0,15 25,20q38,8 55,22t17,46V551q0,33-14,47T47,620q-25,5-25,21q0,6 7,9.5T45,654q24,0 47-1t44.5-2t43.5-1q21,0 42.5,1t44.5,2t47,1q10,0 16-3.5t6-10.5q0-8-6.5-12.5T311,620q-40-10-54-24t-14-46V98q0-31 16.5-45T314,29q13-3 19.5-7T340,10q0-7-6-10T318-3q-24,0-48,1T223.5,0T180,1q-22,0-45-1T88-2.5T40-4ZM277,690q-26,0-45,19t-19,45q0,28 19,46.5T277,819q29,0 48-18.5T344,754q0-26-19-45t-48-19ZM81,690q-27,0-45.5,19T17,754q0,28 18.5,46.5T81,819q28,0 47-18.5T147,754q0-26-19-45T81,690Z"/>
      <glyph unicode="&#xd0;" glyph-name="gid14" horiz-adv-x="762" d="M58,310q-10,0-14.5,9T39,335q0,11 7.5,18T66,360H369q8,0 13.5-4.5T388,345q0-1-0.5-2t-0.5-2q-4-12-13.5-21.5T350,310H58ZM379-7q-27,0-65,2T237.5-1.5T174,0q-20,0-40.5-0.5T91-2.5T44-4Q35-4 28-0.5T21,10q0,9 6.5,13T47,29q38,8 52,22t14,47V550q0,34-13.5,48T47,620q-13,2-19.5,6.5T21,640q0,7 7,10.5T44,654q24,0 46-0.5t43.5-2T177,650q15,0 40.5,1.5t55,3t55.5,3t42,1.5q84,0 151-24t114.5-67T708,466t25-128T708,207T636.5,97t-112-76T379-7ZM364,39q72,0 122.5,34.5t76.5,97T589,315q0,68-17.5,123.5t-49,94t-75,59.5T353,613q-36,0-60.5-2t-37-11.5T243,568V128q0-35 15.5-54.5t43-27T364,39Z"/>
      <glyph unicode="&#xd1;" glyph-name="gid33" horiz-adv-x="804" d="M676-18q-12,0-40,15T579,49q-17,19-41.5,46.5t-54,60.5T422,225t-63.5,72T297,366t-55,60.5T200,474q-4,5-8.5,8.5T184,486q-4,0-6-7t-2-13q0-46 0.5-109T177,229t0-120q0-31 18-51t57-29q12-2 20.5-6.5T281,10q0-7-8-10T255-3q-27,0-43,1T183,0T150,1q-21,0-37.5-1T83-2.5T58-4Q48-4 40-0.5T32,9q0,8 7.5,12.5T60,30q26,8 38.5,29.5T114,111q4,38 8,99.5T129.5,349T133,508q0,52-26.5,75T40,620q-7,2-18,8T11,643t8,12t17,3q21,0 42-1t42.5-1.5t45-1.5t50.5-1q9,0 13.5-3.5T238,640q16-19 41-47.5t54.5-63t62-72.5t65-76T523,308.5t54.5-63T618,199q4-4 9.5-10t9.5-6q8,0 9,17q0,26 0,66.5t0.5,90t0,101.5T645,558q-1,25-20.5,39.5T576,618q-12,3-22.5,7.5T543,639q0,7 10.5,10t19.5,3q20,0 33.5,0t25.5-0.5t25-0.5q22,0 36,0.5t30.5,1.5t43.5,1q12,0 19.5-3.5T794,641q0-15-29-21q-35-7-49.5-19T700,561q0-25-0.5-64T698,412t-2.5-94t-2-94T693,141q0-24 2-49t4.5-44.5T702,20q0-22-7-30t-19-8ZM289,691q-5,0-11.5,6.5T271,707q0,6 9,20.5t22.5,32t26.5,30T350,802q18,0 39-1t39-2t38-2.5t39-1.5q11,0 20.5,6.5T542,815q8,8 12.5,14.5T562,836q7,0 14-6t7-12q0-4-4.5-10T567,793q-11-14-22-30t-20-29q-6-8-15.5-11T495,720q-8,0-28.5,1.5T420,725t-48,3.5T339,730q-7,0-15.5-5T309,713q-8-7-13-14.5t-7-7.5Z"/>
      <glyph unicode="&#xd2;" glyph-name="gid38" horiz-adv-x="761" d="M421,683q-3-1-9,1t-14,7q-35,24-76.5,49.5T244,792q-15,11-17,20q-1,8 13,15.5T270.5,840t23.5,5q20,2 32-12q26-30 49.5-60.5T422,710q9-12 9-19t-10-8ZM376-14Q308-14 246,9.5t-109.5,67t-75,104T34,315q0,68 22.5,130.5t67,111.5t110,78T385,664q68,0 129.5-23.5t109.5-67t75.5-104T727,335q0-67-22.5-130t-67-112t-110-78T376-14Zm17,44q63,0 105.5,32t64,89.5T584,284q0,64-13,124T531,515.5T463.5,591T367,619q-63,0-105.5-32T198,498T177,366q0-64 13-124t39.5-108t67-76T393,30Z"/>
      <glyph unicode="&#xd3;" glyph-name="gid35" horiz-adv-x="761" d="M376-14Q308-14 246,9.5t-109.5,67t-75,104T34,315q0,68 22.5,130.5t67,111.5t110,78T385,664q68,0 129.5-23.5t109.5-67t75.5-104T727,335q0-67-22.5-130t-67-112t-110-78T376-14Zm17,44q63,0 105.5,32t64,89.5T584,284q0,64-13,124T531,515.5T463.5,591T367,619q-63,0-105.5-32T198,498T177,366q0-64 13-124t39.5-108t67-76T393,30ZM349,683q-10,1-10,8t9,19q23,32 46.5,62.5T444,833q12,14 31,12q8,0 24.5-5t30-12.5T542,812q-2-9-17-20q-35-26-76.5-51.5T372,691q-8-5-14.5-7t-8.5-1Z"/>
      <glyph unicode="&#xd4;" glyph-name="gid36" horiz-adv-x="761" d="M376-14Q308-14 246,9.5t-109.5,67t-75,104T34,315q0,68 22.5,130.5t67,111.5t110,78T385,664q68,0 129.5-23.5t109.5-67t75.5-104T727,335q0-67-22.5-130t-67-112t-110-78T376-14Zm17,44q63,0 105.5,32t64,89.5T584,284q0,64-13,124T531,515.5T463.5,591T367,619q-63,0-105.5-32T198,498T177,366q0-64 13-124t39.5-108t67-76T393,30ZM252,694q-18,0-18,11q0,8 9,15l102,90q16,15 25,20.5t22,5.5t22-5.5T440,810l101-90q8-6 8-15q0-12-16-12q-6,0-22.5,5.5t-37,14t-39.5,17T404,745q-7,4-12,4t-12-4q-11-7-30-15t-39.5-16.5t-36.5-14T252,694Z"/>
      <glyph unicode="&#xd5;" glyph-name="gid40" horiz-adv-x="761" d="M376-14Q308-14 246,9.5t-109.5,67t-75,104T34,315q0,68 22.5,130.5t67,111.5t110,78T385,664q68,0 129.5-23.5t109.5-67t75.5-104T727,335q0-67-22.5-130t-67-112t-110-78T376-14Zm17,44q63,0 105.5,32t64,89.5T584,284q0,64-13,124T531,515.5T463.5,591T367,619q-63,0-105.5-32T198,498T177,366q0-64 13-124t39.5-108t67-76T393,30ZM262,691q-5,0-11.5,6.5T244,707q0,6 9,20.5t22.5,32t26.5,30T323,802q18,0 39-1t39-2t38-2.5t39-1.5q11,0 20.5,6.5T515,815q8,8 12.5,14.5T535,836q7,0 14-6t7-12q0-4-4.5-10T540,793q-11-14-22-30t-20-29q-6-8-15.5-11T468,720q-8,0-28.5,1.5T393,725t-48,3.5T312,730q-7,0-15.5-5T282,713q-8-7-13-14.5t-7-7.5Z"/>
      <glyph unicode="&#xd6;" glyph-name="gid37" horiz-adv-x="761" d="M376-14Q308-14 246,9.5t-109.5,67t-75,104T34,315q0,68 22.5,130.5t67,111.5t110,78T385,664q68,0 129.5-23.5t109.5-67t75.5-104T727,335q0-67-22.5-130t-67-112t-110-78T376-14Zm17,44q63,0 105.5,32t64,89.5T584,284q0,64-13,124T531,515.5T463.5,591T367,619q-63,0-105.5-32T198,498T177,366q0-64 13-124t39.5-108t67-76T393,30Zm96,660q-26,0-45,19t-19,45q0,28 19,46.5T489,819q29,0 48-18.5T556,754q0-26-19-45t-48-19Zm-196,0q-27,0-45.5,19T229,754q0,28 18.5,46.5T293,819q28,0 47-18.5T359,754q0-26-19-45t-47-19Z"/>
      <glyph unicode="&#xd7;" glyph-name="gid251" horiz-adv-x="559" d="M442,54q-8,0-15,7L285,203q-6,6-13-1L134,63q-4-4-9.5-5T115,58q-6,2-14.5,15.5T92,100q0,10 6,15L228,245q4,4 4,7.5t-5,7.5L97,391q-5,5-5,14q0,12 7,24.5T110,446t10,3.5t10-4.5L272,303q4-4 7-4t6,3L428,445q5,5 11,5t9-4q5-7 12-18.5t7-22.5q0-8-6-14L329,258q-6-6 0-12L463,112q7-6 7-15q0-12-9-27.5T442,54Z"/>
      <glyph unicode="&#xd8;" glyph-name="gid39" horiz-adv-x="765" d="M74-14Q59-14 46.5-4.5T34,15q0,16 14,30L689,657q7,8 19.5,6.5T724,651q1-4 2.5-10t1.5-12q0-7-2-14t-8-13L88-9q-2-2-5-3.5T74-14Zm302,0Q308-14 246,9.5t-109.5,67t-75,104T34,315q0,68 22.5,130.5t67,111.5t110,78T385,664q68,0 129.5-23.5t109.5-67t75.5-104T727,335q0-67-22.5-130t-67-112t-110-78T376-14Zm17,44q63,0 105.5,32t64,89.5T584,284q0,64-13,124T531,515.5T463.5,591T367,619q-63,0-105.5-32T198,498T177,366q0-64 13-124t39.5-108t67-76T393,30Z"/>
      <glyph unicode="&#xd9;" glyph-name="gid52" horiz-adv-x="742" d="M430,683q-2-1-8.5,1T407,691q-35,24-76.5,49.5T254,792q-16,11-17,20q-1,8 12.5,15.5t30,12.5t24.5,5q19,2 31-12q27-30 50-60.5T431,710q9-12 9-19t-10-8ZM373-14q-93,0-155,33t-93,92T94,249V541q0,30-13.5,51T45,619q-30,8-30,22q0,6 8,9.5T43,654q28,0 58.5-2t59.5-2q26,0 59.5,1.5T278,653q12,0 19.5-3t7.5-10q0-10-12.5-14.5T263,614q-14-6-26.5-24.5T224,539V270q0-72 24-118.5T312,83t90-22q95,0 141,60t46,172q0,25 0,59t-0.5,70.5T587,492q0,39-5.5,63.5t-15.5,39T538,617q-10,4-23.5,9T501,639t8,11t21,3q32,0 49.5-1t40.5-1q17,0 30.5,0.5T677,653t30,1q12,0 19-2.5t7-10.5q0-14-29-21q-31-8-43-29t-14-55q-4-79-5.5-145T639,258q-1-80-36.5-141.5T507,20.5T373-14Z"/>
      <glyph unicode="&#xda;" glyph-name="gid49" horiz-adv-x="742" d="M373-14q-93,0-155,33t-93,92T94,249V541q0,30-13.5,51T45,619q-30,8-30,22q0,6 8,9.5T43,654q28,0 58.5-2t59.5-2q26,0 59.5,1.5T278,653q12,0 19.5-3t7.5-10q0-10-12.5-14.5T263,614q-14-6-26.5-24.5T224,539V270q0-72 24-118.5T312,83t90-22q95,0 141,60t46,172q0,25 0,59t-0.5,70.5T587,492q0,39-5.5,63.5t-15.5,39T538,617q-10,4-23.5,9T501,639t8,11t21,3q32,0 49.5-1t40.5-1q17,0 30.5,0.5T677,653t30,1q12,0 19-2.5t7-10.5q0-14-29-21q-31-8-43-29t-14-55q-4-79-5.5-145T639,258q-1-80-36.5-141.5T507,20.5T373-14ZM358,683q-10,1-10,8t9,19q23,32 46.5,62.5T453,833q12,14 31,12q8,0 24.5-5t30-12.5T551,812q-2-9-17-20q-35-26-76.5-51.5T381,691q-8-5-14.5-7t-8.5-1Z"/>
      <glyph unicode="&#xdb;" glyph-name="gid50" horiz-adv-x="742" d="M373-14q-93,0-155,33t-93,92T94,249V541q0,30-13.5,51T45,619q-30,8-30,22q0,6 8,9.5T43,654q28,0 58.5-2t59.5-2q26,0 59.5,1.5T278,653q12,0 19.5-3t7.5-10q0-10-12.5-14.5T263,614q-14-6-26.5-24.5T224,539V270q0-72 24-118.5T312,83t90-22q95,0 141,60t46,172q0,25 0,59t-0.5,70.5T587,492q0,39-5.5,63.5t-15.5,39T538,617q-10,4-23.5,9T501,639t8,11t21,3q32,0 49.5-1t40.5-1q17,0 30.5,0.5T677,653t30,1q12,0 19-2.5t7-10.5q0-14-29-21q-31-8-43-29t-14-55q-4-79-5.5-145T639,258q-1-80-36.5-141.5T507,20.5T373-14ZM261,694q-18,0-18,11q0,8 9,15l102,90q16,15 25,20.5t22,5.5t22-5.5T449,810l101-90q8-6 8-15q0-12-16-12q-6,0-22.5,5.5t-37,14t-39.5,17T413,745q-7,4-12,4t-12-4q-11-7-30-15t-39.5-16.5t-36.5-14T261,694Z"/>
      <glyph unicode="&#xdc;" glyph-name="gid51" horiz-adv-x="742" d="M373-14q-93,0-155,33t-93,92T94,249V541q0,30-13.5,51T45,619q-30,8-30,22q0,6 8,9.5T43,654q28,0 58.5-2t59.5-2q26,0 59.5,1.5T278,653q12,0 19.5-3t7.5-10q0-10-12.5-14.5T263,614q-14-6-26.5-24.5T224,539V270q0-72 24-118.5T312,83t90-22q95,0 141,60t46,172q0,25 0,59t-0.5,70.5T587,492q0,39-5.5,63.5t-15.5,39T538,617q-10,4-23.5,9T501,639t8,11t21,3q32,0 49.5-1t40.5-1q17,0 30.5,0.5T677,653t30,1q12,0 19-2.5t7-10.5q0-14-29-21q-31-8-43-29t-14-55q-4-79-5.5-145T639,258q-1-80-36.5-141.5T507,20.5T373-14ZM499,690q-26,0-45,19t-19,45q0,28 19,46.5T499,819q29,0 48-18.5T566,754q0-26-19-45t-48-19Zm-196,0q-27,0-45.5,19T239,754q0,28 18.5,46.5T303,819q28,0 47-18.5T369,754q0-26-19-45t-47-19Z"/>
      <glyph unicode="&#xdd;" glyph-name="gid57" horiz-adv-x="629" d="M189-6q-13,0-20.5,4T161,9q0,8 8.5,12.5T191,29q38,7 55,27t17,53V251q0,29-10,52.5T234,343L109,540q-8,13-20.5,29.5T61,600T27,619q-12,4-19.5,8.5T0,640q0,7 7,10.5T24,654q36,0 71.5-2.5T171,649q29,0 55.5,2.5T281,654q10,0 19-3.5t9-10.5q0-8-9-13t-21-8q-23-5-34.5-12T233,586q0-15 12-35l99-175q13-25 22-25q5,0 10,6t13,19q24,39 44,77t43,83q6,12 9.5,23.5T489,580q0,20-16,28.5T440,619q-10,1-21,7t-11,14q0,7 9,10t20,3q27,0 47.5-2t45.5-2q28,0 53.5,3t49.5,3q12,0 20.5-3t8.5-11q0-9-12-13.5T624,619q-28-8-48-27t-39-49q-17-28-32-51.5t-28.5-45t-27.5-44T419,353q-10-17-15.5-31T395,293t-3-35V110q0-37 17-54.5T464,29q14-3 22.5-7T495,9q0-6-7.5-10T468-5q-24,0-48,2T373.5,0.5T329,2T284,0.5t-47-4T189-6ZM313,683q-10,1-10,8t9,19q23,32 46.5,62.5T408,833q12,14 31,12q8,0 24.5-5t30-12.5T506,812q-2-9-17-20q-35-26-76.5-51.5T336,691q-8-5-14.5-7t-8.5-1Z"/>
      <glyph unicode="&#xde;" glyph-name="gid43" horiz-adv-x="580" d="M41-4Q32-4 25-0.5T18,9q0,15 25,20q38,8 55,22t17,47V550q0,31-11.5,46.5T53,620q-25,5-25,21q0,6 7,9.5T51,654q24,0 46-1t42.5-2t40.5-1q22,0 44.5,1t46.5,2t48,1q10,0 16-3.5t6-10.5q0-8-6.5-12.5T316,620q-38-9-54-22t-17-42V543q0-5 1-9t5-4q2,0 7.5,1.5t11,3T274,536q17,4 36,5.5t39,1.5q55,0 101-22t73.5-66T551,345q0-72-36-120t-95.5-72.5T290,128q-10,0-20,1.5T253,131q-8,0-8-9V97q0-29 16.5-43.5T316,29q13-3 19-7t6-12q0-7-5.5-10T320-3q-24,0-48,1T225.5,0T182,1q-23,0-46-1T89-2.5T41-4ZM288,165q67,0 99.5,45.5T420,335q0,50-12,88t-35.5,60T314,505q-25,0-40.5-6.5t-22-23T245,429V228q0-39 14-51t29-12Z"/>
      <glyph unicode="&#xdf;" glyph-name="gid111" horiz-adv-x="555" d="M367-14q-41,0-65,15.5T278,42q0,19 8,37t23,18q8,0 16-5t18-16q16-15 30-23.5T409,44q16,0 32.5,11T458,90q0,19-11,36.5t-31,37T368,207q-31,28-52,48.5T284,294t-11,40q0,24 14,42t34,34.5T360,446q21,20 34,46t13,57q0,50-24.5,83T305,665q-52,0-81-43.5T195,473V72q0-20 14.5-29T244,29q8-3 14.5-7.5T265,9q0-6-7-9T246-3q-20,0-37.5,1.5T175,1T141,2q-17,0-31.5-1T79-1.5T43-3Q38-3 30-0.5T22,9q0,8 7.5,12.5T45,29q15,5 27,13T84,70V353q-10,0-23,0.5T32,355q-5,1-9,10t-4,16q0,6 8,8q17,6 30.5,11.5T84,414q3,82 27,138t61.5,90T253,691t84,15t73-16.5T460.5,646T479,587q0-40-15.5-67T418,464q-19-19-30.5-38.5T376,372q0-15 8.5-28t25-28.5T449,278q26-23 44-43.5T521,194t10-44q0-33-16-63T474,34T420.5-1.5T367-14Z"/>
      <glyph unicode="&#xe0;" glyph-name="gid69" horiz-adv-x="425" d="M248,454q-11,0-29,18t-39.5,42T137,563T99,609q-5,7-7.5,12T89,632q0,12 16.5,17.5T144,655q15,0 24-5t15-18q8-14 22-41.5T232.5,534T253,486q2-7 3-12t1-9q0-11-9-11ZM125-14Q101-14 79.5-1T45,33T32,76q0,34 20,55.5T112,170l93,40q20,8 24.5,15t4.5,26l2,59q1,28-11.5,45T187,372q-13,0-27-5t-22-13q-4-4-5.5-10.5T131,331q0-5 0.5-12.5T132,305t-15-15T83,274t-32-7q-7,0-11,5t-4,12q0,16 10.5,32.5T80,352q25,21 55,37.5T193.5,416T243,426q48,0 77-31.5T348,312L343,98q-1-22 8.5-37T375,46q21,0 34,12q4,4 7,4q5,0 8.5-3.5T428,50q0-11-16-27Q394,5 373.5-4.5T333-14q-53,0-86,55h-3Q211,12 183.5-1T125-14Zm55,60q14,0 24,4.5T221,63q4,5 6.5,12T231,95l2,64q1,10-2,13.5t-7,3.5q-2,0-6-0.5t-9-3.5q-37-15-53-32T140,96t13-38.5T180,46Z"/>
      <glyph unicode="&#xe1;" glyph-name="gid66" horiz-adv-x="425" d="M125-14Q101-14 79.5-1T45,33T32,76q0,34 20,55.5T112,170l93,40q20,8 24.5,15t4.5,26l2,59q1,28-11.5,45T187,372q-13,0-27-5t-22-13q-4-4-5.5-10.5T131,331q0-5 0.5-12.5T132,305t-15-15T83,274t-32-7q-7,0-11,5t-4,12q0,16 10.5,32.5T80,352q25,21 55,37.5T193.5,416T243,426q48,0 77-31.5T348,312L343,98q-1-22 8.5-37T375,46q21,0 34,12q4,4 7,4q5,0 8.5-3.5T428,50q0-11-16-27Q394,5 373.5-4.5T333-14q-53,0-86,55h-3Q211,12 183.5-1T125-14Zm55,60q14,0 24,4.5T221,63q4,5 6.5,12T231,95l2,64q1,10-2,13.5t-7,3.5q-2,0-6-0.5t-9-3.5q-37-15-53-32T140,96t13-38.5T180,46Zm10,408q-10,0-10,11q0,4 1,9t4,12q7,19 20.5,48t27,56.5T254,632q6,13 15.5,18t23.5,5q22,0 38.5-5.5T348,632q0-6-2-11t-8-12q-16-21-37.5-46t-43-49T218,472t-28-18Z"/>
      <glyph unicode="&#xe2;" glyph-name="gid67" horiz-adv-x="425" d="M216,663q9,0 15.5-8.5T246,633q9-15 20.5-35t24-41.5t23-40.5T329,486q5-14 2-22.5T319,455q-6,0-16,8.5T283,484q-10,11-27,32t-35,41q-3,4-4.5,4t-5.5-4q-17-20-34-41t-27-32q-11-12-20.5-20.5T112,455q-12,0-13.5,9t4.5,22q5,11 15,29.5t22.5,40T165,597t20,35q9,14 16,22.5t15,8.5ZM125-14Q101-14 79.5-1T45,33T32,76q0,34 20,55.5T112,170l93,40q20,8 24.5,15t4.5,26l2,59q1,28-11.5,45T187,372q-13,0-27-5t-22-13q-4-4-5.5-10.5T131,331q0-5 0.5-12.5T132,305t-15-15T83,274t-32-7q-7,0-11,5t-4,12q0,16 10.5,32.5T80,352q25,21 55,37.5T193.5,416T243,426q48,0 77-31.5T348,312L343,98q-1-22 8.5-37T375,46q21,0 34,12q4,4 7,4q5,0 8.5-3.5T428,50q0-11-16-27Q394,5 373.5-4.5T333-14q-53,0-86,55h-3Q211,12 183.5-1T125-14Zm55,60q14,0 24,4.5T221,63q4,5 6.5,12T231,95l2,64q1,10-2,13.5t-7,3.5q-2,0-6-0.5t-9-3.5q-37-15-53-32T140,96t13-38.5T180,46Z"/>
      <glyph unicode="&#xe3;" glyph-name="gid71" horiz-adv-x="425" d="M125-14Q101-14 79.5-1T45,33T32,76q0,34 20,55.5T112,170l93,40q20,8 24.5,15t4.5,26l2,59q1,28-11.5,45T187,372q-13,0-27-5t-22-13q-4-4-5.5-10.5T131,331q0-5 0.5-12.5T132,305t-15-15T83,274t-32-7q-7,0-11,5t-4,12q0,16 10.5,32.5T80,352q25,21 55,37.5T193.5,416T243,426q48,0 77-31.5T348,312L343,98q-1-22 8.5-37T375,46q21,0 34,12q4,4 7,4q5,0 8.5-3.5T428,50q0-11-16-27Q394,5 373.5-4.5T333-14q-53,0-86,55h-3Q211,12 183.5-1T125-14Zm55,60q14,0 24,4.5T221,63q4,5 6.5,12T231,95l2,64q1,10-2,13.5t-7,3.5q-2,0-6-0.5t-9-3.5q-37-15-53-32T140,96t13-38.5T180,46ZM92,463q-5,0-12.5,6T72,481q0,5 12,21.5t28,36t32,34T167,587q13,0 25.5-2.5T229,580q21-1 37-2.5t27-1.5q10,0 19.5,5.5T330,596q10,11 16,18.5t9,7.5q7,0 14-6t7-13q0-3-5.5-10T355,574q-11-14-23-31.5T310,511q-6-8-15.5-11T280,497q-8,0-25,1.5t-38,3t-40.5,3T146,506q-8,0-15-5t-13-11q-10-13-16-20t-10-7Z"/>
      <glyph unicode="&#xe4;" glyph-name="gid68" horiz-adv-x="425" d="M125-14Q101-14 79.5-1T45,33T32,76q0,34 20,55.5T112,170l93,40q20,8 24.5,15t4.5,26l2,59q1,28-11.5,45T187,372q-13,0-27-5t-22-13q-4-4-5.5-10.5T131,331q0-5 0.5-12.5T132,305t-15-15T83,274t-32-7q-7,0-11,5t-4,12q0,16 10.5,32.5T80,352q25,21 55,37.5T193.5,416T243,426q48,0 77-31.5T348,312L343,98q-1-22 8.5-37T375,46q21,0 34,12q4,4 7,4q5,0 8.5-3.5T428,50q0-11-16-27Q394,5 373.5-4.5T333-14q-53,0-86,55h-3Q211,12 183.5-1T125-14Zm55,60q14,0 24,4.5T221,63q4,5 6.5,12T231,95l2,64q1,10-2,13.5t-7,3.5q-2,0-6-0.5t-9-3.5q-37-15-53-32T140,96t13-38.5T180,46ZM307,499q-25,0-44.5,19.5T243,563q0,27 19.5,46T307,628q28,0 47.5-19T374,563q0-25-19.5-44.5T307,499Zm-188,0q-26,0-45,19.5T55,563q0,27 19,46t45,19q27,0 46.5-19T185,563q0-25-19.5-44.5T119,499Z"/>
      <glyph unicode="&#xe5;" glyph-name="gid70" horiz-adv-x="425" d="M125-14Q101-14 79.5-1T45,33T32,76q0,34 20,55.5T112,170l93,40q20,8 24.5,15t4.5,26l2,59q1,28-11.5,45T187,372q-13,0-27-5t-22-13q-4-4-5.5-10.5T131,331q0-5 0.5-12.5T132,305t-15-15T83,274t-32-7q-7,0-11,5t-4,12q0,16 10.5,32.5T80,352q25,21 55,37.5T193.5,416T243,426q48,0 77-31.5T348,312L343,98q-1-22 8.5-37T375,46q21,0 34,12q4,4 7,4q5,0 8.5-3.5T428,50q0-11-16-27Q394,5 373.5-4.5T333-14q-53,0-86,55h-3Q211,12 183.5-1T125-14Zm55,60q14,0 24,4.5T221,63q4,5 6.5,12T231,95l2,64q1,10-2,13.5t-7,3.5q-2,0-6-0.5t-9-3.5q-37-15-53-32T140,96t13-38.5T180,46Zm31,434q-38,0-66.5,25T116,570q0,27 15,48.5t38.5,34T220,665q37,0 65.5-24T314,578q0-29-15-51t-38.5-34.5T211,480Zm9,33q21,0 30.5,17.5T260,571q0,24-14,41.5T210,630q-20,0-30-17t-10-40q0-24 14-42t36-18Z"/>
      <glyph unicode="&#xe6;" glyph-name="gid72" horiz-adv-x="602" d="M130-14Q105-14 82.5-2T46,30T32,73q0,34 19.5,57.5T113,170l94,38q20,9 24.5,15.5T236,246l1,62q1,28-12,45.5T188,371q-15,0-30.5-8T136,346q-4-7-4-19q0-5 0.5-11t0.5-11q0-8-16.5-16.5t-36-15T51,267q-7,0-10.5,5T37,283q0,33 43,70q18,15 45,32t58,29.5T241,427q21,0 41.5-8.5T316,396q4-4 7-4q2,0 7,3q21,13 48.5,22t57.5,9q37,0 69.5-13t52-38T577,316q0-16-6.5-23.5T553,282q-6-2-31.5-11T463,251t-62.5-22T357,213q-4-2-7.5-7T346,195V158q0-26 13-46.5T393.5,80T440,69q29,0 58,11.5T550,120q5,5 12,5q12,0 12-12q0-3-1-8t-3-8q-30-51-70-81T391-14q-37,0-68.5,12T264,35q-2,2-5.5,5T253,43q-3,0-8-5q-12-11-27-23.5T182-6t-52-8Zm51,59q14,0 24,5.5T224,64q4,4 7.5,10.5T235,94v58q0,10-1,15t-6,5q-4,0-12-3q-17-6-34.5-16.5t-29-24T141,96q0-28 14-39.5T181,45ZM359,259q30,10 60,19.5T474,296q8,3 10,8.5t2,12.5q0,28-16.5,49T420,387q-14,0-30.5-7.5t-28.5-21T348,326V268q0-6 3.5-8t7.5-1Z"/>
      <glyph unicode="&#xe7;" glyph-name="gid75" horiz-adv-x="410" d="M212-14q-52,0-94,27T51.5,87.5T27,194q0,65 30,117.5T136.5,395T247,426q76,0 128-48q10-9 10-18q0-7-8-18t-19-19t-19-8t-15,5t-14,11q-25,20-52,34t-46,14q-41,0-64-36T125,235q0-49 17-85t48-56t72-20q30,0 51.5,9.5T359,114q4,3 7.5,5.5T374,122q11,0 11-16q0-4-2-11.5T375,78q-11-20-35.5-42T283,0T212-14ZM160-274q-20,0-30,9t-10,36q0,13 4.5,18t11.5,5q10,0 24.5-7t37.5-7q17,0 25,11.5t8,30.5q0,23-18,35t-39,12q-12,0-18.5-4T143-139t-13.5,5.5T122-118q0,6 11,19L223,8h39L226-37q-6-7-6-11q0-5 13-11q24-10 40-30t16-51q0-27-13.5-51.5t-34-42.5t-42-29T160-274Z"/>
      <glyph unicode="&#xe8;" glyph-name="gid82" horiz-adv-x="408" d="M263,454q-10,0-28,18t-40,42t-43,49t-38,46q-5,7-7.5,12T104,632q0,12 17,17.5t39,5.5q14,0 23.5-5T199,632q8-14 21.5-41.5t27-56.5T268,486q3-7 4-12t1-9q0-11-10-11ZM212-14q-55,0-97,28T49,91.5T25,204q0,61 28.5,111.5T130,396t105,30q42,0 75-17.5t52.5-48T382,292q0-36-31-36H148q-14,0-20.5-7.5T121,221q0-42 18.5-76T189,91t71-20q29,0 53.5,11.5T360,114q4,3 7,5.5t6,2.5q10,0 10-12q0-14-12-34q-12-23-34.5-44T282-1.5T212-14ZM148,295h71q26,0 39,1t25,4q5,1 7,8.5t2,17.5q0,27-20.5,45.5T221,390q-21,0-41-12.5T147,346t-12-39q0-12 13-12Z"/>
      <glyph unicode="&#xe9;" glyph-name="gid79" horiz-adv-x="408" d="M212-14q-55,0-97,28T49,91.5T25,204q0,61 28.5,111.5T130,396t105,30q42,0 75-17.5t52.5-48T382,292q0-36-31-36H148q-14,0-20.5-7.5T121,221q0-42 18.5-76T189,91t71-20q29,0 53.5,11.5T360,114q4,3 7,5.5t6,2.5q10,0 10-12q0-14-12-34q-12-23-34.5-44T282-1.5T212-14ZM148,295h71q26,0 39,1t25,4q5,1 7,8.5t2,17.5q0,27-20.5,45.5T221,390q-21,0-41-12.5T147,346t-12-39q0-12 13-12Zm58,159q-10,0-10,11q0,4 1,9t4,12q7,19 20.5,48t27,56.5T270,632q6,13 15.5,18t23.5,5q22,0 38.5-5.5T364,632q0-6-2-11t-8-12q-16-21-37.5-46t-43-49T234,472t-28-18Z"/>
      <glyph unicode="&#xea;" glyph-name="gid80" horiz-adv-x="408" d="M231,663q9,0 15.5-8.5T261,633q9-15 21-35t24.5-41.5T329,516t15-30q6-14 2.5-22.5T335,455q-7,0-16.5,8.5T298,484q-10,11-26.5,32T236,557q-3,4-4.5,4t-4.5-4q-18-20-34.5-41T165,484q-11-12-20.5-20.5T128,455q-12,0-13.5,9t3.5,22q5,11 15,29.5t22.5,40T180,597t21,35q9,14 15.5,22.5T231,663ZM212-14q-55,0-97,28T49,91.5T25,204q0,61 28.5,111.5T130,396t105,30q42,0 75-17.5t52.5-48T382,292q0-36-31-36H148q-14,0-20.5-7.5T121,221q0-42 18.5-76T189,91t71-20q29,0 53.5,11.5T360,114q4,3 7,5.5t6,2.5q10,0 10-12q0-14-12-34q-12-23-34.5-44T282-1.5T212-14ZM148,295h71q26,0 39,1t25,4q5,1 7,8.5t2,17.5q0,27-20.5,45.5T221,390q-21,0-41-12.5T147,346t-12-39q0-12 13-12Z"/>
      <glyph unicode="&#xeb;" glyph-name="gid81" horiz-adv-x="408" d="M212-14q-55,0-97,28T49,91.5T25,204q0,61 28.5,111.5T130,396t105,30q42,0 75-17.5t52.5-48T382,292q0-36-31-36H148q-14,0-20.5-7.5T121,221q0-42 18.5-76T189,91t71-20q29,0 53.5,11.5T360,114q4,3 7,5.5t6,2.5q10,0 10-12q0-14-12-34q-12-23-34.5-44T282-1.5T212-14ZM148,295h71q26,0 39,1t25,4q5,1 7,8.5t2,17.5q0,27-20.5,45.5T221,390q-21,0-41-12.5T147,346t-12-39q0-12 13-12ZM323,499q-25,0-44.5,19.5T259,563q0,27 19.5,46T323,628q28,0 47.5-19T390,563q0-25-19.5-44.5T323,499Zm-188,0q-26,0-45,19.5T71,563q0,27 19,46t45,19q27,0 46.5-19T201,563q0-25-19.5-44.5T135,499Z"/>
      <glyph unicode="&#xec;" glyph-name="gid91" horiz-adv-x="279" d="M172,454q-11,0-29,18q-17,18-39,42T61,563T23,609q-5,7-7.5,12T13,632q0,12 16.5,17.5T68,655q15,0 24-5t16-18q8-14 21.5-41.5t27-56.5T177,486q2-7 3-12t1-9q0-11-9-11ZM40-3Q32-3 27,0.5T22,10q0,8 6,12t14,6q24,6 34.5,13T87,65V282q0,32-10,48T43,350q-5,1-8,5.5T32,366q0,14 11,15q48,10 83.5,27.5T181,436q14,7 18,7q11,0 11-10q-1-14-4-38.5t-5.5-52T198,291V66q0-15 11-23t35-15q8-3 14-6.5T264,10q0-12-17-12q-19,0-36.5,1t-34,2T142,2q-17,0-33-1T76.5-1.5T40-3Z"/>
      <glyph unicode="&#xed;" glyph-name="gid88" horiz-adv-x="279" d="M40-3Q32-3 27,0.5T22,10q0,8 6,12t14,6q24,6 34.5,13T87,65V282q0,32-10,48T43,350q-5,1-8,5.5T32,366q0,14 11,15q48,10 83.5,27.5T181,436q14,7 18,7q11,0 11-10q-1-14-4-38.5t-5.5-52T198,291V66q0-15 11-23t35-15q8-3 14-6.5T264,10q0-12-17-12q-19,0-36.5,1t-34,2T142,2q-17,0-33-1T76.5-1.5T40-3Zm74,457q-10,0-10,11q0,4 1,9t4,12q7,19 20.5,48t27,56.5T178,632q6,13 15.5,18t23.5,5q22,0 38.5-5.5T272,632q0-6-2-11t-8-12q-16-21-37.5-46t-43-49T142,472t-28-18Z"/>
      <glyph unicode="&#xee;" glyph-name="gid89" horiz-adv-x="279" d="M140,663q9,0 15.5-8.5T170,633q9-15 21-35t24-41.5T237.5,516T253,486q5-14 2-22.5T243,455q-6,0-15.5,8.5T207,484q-10,11-27,32t-35,41q-3,4-4.5,4t-5.5-4q-17-20-34-41T74,484q-11-12-20.5-20.5T37,455q-12,0-14,9t4,22q5,11 15,29.5t22.5,40T89,597t20,35q9,14 16,22.5t15,8.5ZM40-3Q32-3 27,0.5T22,10q0,8 6,12t14,6q24,6 34.5,13T87,65V282q0,32-10,48T43,350q-5,1-8,5.5T32,366q0,14 11,15q48,10 83.5,27.5T181,436q14,7 18,7q11,0 11-10q-1-14-4-38.5t-5.5-52T198,291V66q0-15 11-23t35-15q8-3 14-6.5T264,10q0-12-17-12q-19,0-36.5,1t-34,2T142,2q-17,0-33-1T76.5-1.5T40-3Z"/>
      <glyph unicode="&#xef;" glyph-name="gid90" horiz-adv-x="279" d="M40-3Q32-3 27,0.5T22,10q0,8 6,12t14,6q24,6 34.5,13T87,65V282q0,32-10,48T43,350q-5,1-8,5.5T32,366q0,14 11,15q48,10 83.5,27.5T181,436q14,7 18,7q11,0 11-10q-1-14-4-38.5t-5.5-52T198,291V66q0-15 11-23t35-15q8-3 14-6.5T264,10q0-12-17-12q-19,0-36.5,1t-34,2T142,2q-17,0-33-1T76.5-1.5T40-3ZM231,499q-25,0-44.5,19.5T167,563q0,27 19.5,46T231,628q28,0 47.5-19T298,563q0-25-19.5-44.5T231,499ZM43,499q-26,0-45,19.5T-21,563q0,27 19,46t45,19q27,0 46.5-19T109,563q0-25-19.5-44.5T43,499Z"/>
      <glyph unicode="&#xf0;" glyph-name="gid77" horiz-adv-x="505" d="M241-14q-59,0-108.5,26t-80,72.5T22,192q0,64 32,117.5T141.5,395T264,427q14,0 26-3t23-9q4-2 5.5-0.5T319,421q-9,32-21.5,66.5T270,544L135,474q-9-5-15.5,0T113,485q0,12 3.5,22T130,522l113,59q-31,35-69,58T94,671q-8,2-18,6T66,690q0,8 11,11t26,3q53,0 109.5-21.5T319,620l105,55q7,5 18,4t11-11q0-13-4.5-22.5T430,628l-74-40q33-34 60-83.5t43-113T475,250q0-44-15-90T415.5,74.5t-73-64T241-14Zm18,41q29,0 50.5,22T343,115t12,109q0,32-7,64t-19,53q-18,21-38.5,31.5T245,383q-31,0-54-22t-35-59.5T144,217q0-48 15.5-91.5t41.5-71T259,27Z"/>
      <glyph unicode="&#xf1;" glyph-name="gid97" horiz-adv-x="553" d="M42-3Q34-3 28,0.5T22,10q0,8 6.5,12T45,29q15,4 27.5,11T85,67V291q0,23-6.5,39.5T51,352q-4,2-7,5.5T41,369q0,13 9,15q35,8 69.5,21.5T180,434q4,2 8,5t8,3q5,0 6.5-3.5T204,431q0-7-2.5-26T199,372q0-4 0.5-8.5T201,358q34,32 70.5,50T354,426q51,0 85.5-39T474,284V66q0-20 12-26t27-11q8-3 15-7.5T535,9q0-6-6.5-9T516-3q-20,0-35,1.5T451.5,1T419,2q-17,0-32-1T356.5-1.5T321-3q-5,0-11,3t-6,9q0,8 6,12.5T324,29q15,5 26.5,11T362,66V269q0,40-19.5,63T290,355q-27,0-47-8t-39-23q-4-3-6-8.5T196,304V66q0-20 11.5-26.5T234,29q21-7 21-19q0-6-5-9.5T237-3q-20,0-35,1.5T173,1T141,2q-17,0-32-1T78-1.5T42-3ZM154,463q-5,0-12.5,6T134,481q0,5 12,21.5t28,36t32,34T229,587q13,0 25.5-2.5T291,580q21-1 37-2.5t27-1.5q10,0 19.5,5.5T392,596q10,11 16,18.5t9,7.5q7,0 14-6t7-13q0-3-5.5-10T417,574q-11-14-23-31.5T372,511q-6-8-15.5-11T342,497q-8,0-25,1.5t-38,3t-40.5,3T208,506q-8,0-15-5t-13-11q-10-13-16-20t-10-7Z"/>
      <glyph unicode="&#xf2;" glyph-name="gid102" horiz-adv-x="500" d="M289,454q-10,0-28,18t-40,42t-43,49t-38,46q-5,7-7.5,12T130,632q0,12 16.5,17.5T186,655q14,0 23.5-5T225,632q8-14 21.5-41.5t27-56.5T294,486q3-7 4-12t1-9q0-11-10-11ZM236-14q-59,0-106,26.5T55,86T27,192q0,46 18,88t49,75t73,52.5T257,427q61,0 109.5-28.5T444,323t29-103q0-62-26.5-115.5t-79-86T236-14Zm20,39q25,0 44.5,10T332,66t16.5,55.5T353,196q0,53-14,96t-39,69t-59,26q-19,0-34.5-6.5T178,359q-18-21-24.5-57.5T147,217t14.5-92t39-72T256,25Z"/>
      <glyph unicode="&#xf3;" glyph-name="gid99" horiz-adv-x="500" d="M236-14q-59,0-106,26.5T55,86T27,192q0,46 18,88t49,75t73,52.5T257,427q61,0 109.5-28.5T444,323t29-103q0-62-26.5-115.5t-79-86T236-14Zm20,39q25,0 44.5,10T332,66t16.5,55.5T353,196q0,53-14,96t-39,69t-59,26q-19,0-34.5-6.5T178,359q-18-21-24.5-57.5T147,217t14.5-92t39-72T256,25ZM231,454q-10,0-10,11q0,4 1,9t4,12q7,19 20.5,48t27,56.5T295,632q6,13 15.5,18t23.5,5q22,0 38.5-5.5T389,632q0-6-2-11t-8-12q-16-21-37.5-46t-43-49T259,472t-28-18Z"/>
      <glyph unicode="&#xf4;" glyph-name="gid100" horiz-adv-x="500" d="M257,663q9,0 15.5-8.5T287,633q9-15 21-35t24.5-41.5T355,516t15-30q6-14 2.5-22.5T361,455q-7,0-16.5,8.5T324,484q-10,11-27,32t-35,41q-3,4-4.5,4t-4.5-4q-18-20-34.5-41T191,484q-11-12-20.5-20.5T154,455q-12,0-13.5,9t3.5,22q5,11 15,29.5t22.5,40T206,597t21,35q9,14 15.5,22.5T257,663ZM236-14q-59,0-106,26.5T55,86T27,192q0,46 18,88t49,75t73,52.5T257,427q61,0 109.5-28.5T444,323t29-103q0-62-26.5-115.5t-79-86T236-14Zm20,39q25,0 44.5,10T332,66t16.5,55.5T353,196q0,53-14,96t-39,69t-59,26q-19,0-34.5-6.5T178,359q-18-21-24.5-57.5T147,217t14.5-92t39-72T256,25Z"/>
      <glyph unicode="&#xf5;" glyph-name="gid104" horiz-adv-x="500" d="M236-14q-59,0-106,26.5T55,86T27,192q0,46 18,88t49,75t73,52.5T257,427q61,0 109.5-28.5T444,323t29-103q0-62-26.5-115.5t-79-86T236-14Zm20,39q25,0 44.5,10T332,66t16.5,55.5T353,196q0,53-14,96t-39,69t-59,26q-19,0-34.5-6.5T178,359q-18-21-24.5-57.5T147,217t14.5-92t39-72T256,25ZM125,463q-5,0-12.5,6T105,481q0,5 12,21.5t28,36t32,34T200,587q13,0 25.5-2.5T262,580q21-1 37-2.5t27-1.5q10,0 19.5,5.5T363,596q10,11 16,18.5t9,7.5q7,0 14-6t7-13q0-3-5.5-10T388,574q-11-14-23-31.5T343,511q-6-8-15.5-11T313,497q-8,0-25,1.5t-38,3t-40.5,3T179,506q-8,0-15-5t-13-11q-10-13-16-20t-10-7Z"/>
      <glyph unicode="&#xf6;" glyph-name="gid101" horiz-adv-x="500" d="M236-14q-59,0-106,26.5T55,86T27,192q0,46 18,88t49,75t73,52.5T257,427q61,0 109.5-28.5T444,323t29-103q0-62-26.5-115.5t-79-86T236-14Zm20,39q25,0 44.5,10T332,66t16.5,55.5T353,196q0,53-14,96t-39,69t-59,26q-19,0-34.5-6.5T178,359q-18-21-24.5-57.5T147,217t14.5-92t39-72T256,25Zm93,474q-25,0-44.5,19.5T285,563q0,27 19.5,46T349,628q28,0 47.5-19T416,563q0-25-19.5-44.5T349,499Zm-188,0q-26,0-45,19.5T97,563q0,27 19,46t45,19q27,0 46.5-19T227,563q0-25-19.5-44.5T161,499Z"/>
      <glyph unicode="&#xf7;" glyph-name="gid252" horiz-adv-x="597" d="M65,246q-6,0-11.5,4T48,258q0,5 2.5,15.5t8.5,19T76,301H530q8,0 14-3.5t6-9.5q0-13-9.5-27.5T516,246H65ZM301,65q-25,0-43.5,18.5T239,127q0,26 18.5,44.5T301,190q26,0 44.5-18.5T364,127q0-25-18.5-43.5T301,65Zm-1,285q-25,0-43.5,18.5T238,412q0,26 18.5,44.5T300,475q26,0 44.5-18.5T363,412q0-25-18.5-43.5T300,350Z"/>
      <glyph unicode="&#xf8;" glyph-name="gid103" horiz-adv-x="495" d="M52-15Q41-15 32-8.5T23,7q0,18 12,27L441,420q7,7 17,7q17,0 17-20q0-7-3.5-16.5T461,375L70-7q-4-3-8-5.5T52-15Zm184,1q-59,0-106,26.5T55,86T27,192q0,46 18,88t49,75t73,52.5T257,427q61,0 109.5-28.5T444,323t29-103q0-62-26.5-115.5t-79-86T236-14Zm20,39q25,0 44.5,10T332,66t16.5,55.5T353,196q0,53-14,96t-39,69t-59,26q-19,0-34.5-6.5T178,359q-18-21-24.5-57.5T147,217t14.5-92t39-72T256,25Z"/>
      <glyph unicode="&#xf9;" glyph-name="gid117" horiz-adv-x="543" d="M305,454q-11,0-29,18t-39.5,42T194,563t-38,46q-5,7-7.5,12T146,632q0,12 16.5,17.5T201,655q15,0 24-5t15-18q8-14 22-41.5T289.5,534T310,486q2-7 3-12t1-9q0-11-9-11ZM353-20q-8,0-8,9q0,11 2.5,31T350,52q0,3-0.5,5.5T349,61Q318,27 276.5,6T189-15q-32,0-57.5,17t-40,47T77,119V311q0,23-9,36.5T36,368q-6,1-10.5,5T21,385t4.5,12T36,402q40,2 69,7.5T167,423q4,2 8,3t8,1q13,0 12-14q-3-23-5-38.5T188,336V143q0-24 9-43t25-30t35-12q19,0 35.5,4T325,80q8,6 18,22.5T353,146V314q0,19-8.5,30.5t-22,17.5T295,368q-11,1-17,5t-6,16q0,10 7,14t16,4q44,3 71,5t45.5,5t36.5,8q3,1 6.5,1.5T460,427q14,0 14-11q0-3-0.5-6.5T471,402q-1-3-2.5-17t-3-29T464,333V101q0-24 5.5-33T482,59q6,0 17.5,0.5T516,60q8,0 13-4t5-13t-3.5-13.5T518,24q-45-4-80-15.5T377-14q-6-2-12.5-4T353-20Z"/>
      <glyph unicode="&#xfa;" glyph-name="gid114" horiz-adv-x="543" d="M353-20q-8,0-8,9q0,11 2.5,31T350,52q0,3-0.5,5.5T349,61Q318,27 276.5,6T189-15q-32,0-57.5,17t-40,47T77,119V311q0,23-9,36.5T36,368q-6,1-10.5,5T21,385t4.5,12T36,402q40,2 69,7.5T167,423q4,2 8,3t8,1q13,0 12-14q-3-23-5-38.5T188,336V143q0-24 9-43t25-30t35-12q19,0 35.5,4T325,80q8,6 18,22.5T353,146V314q0,19-8.5,30.5t-22,17.5T295,368q-11,1-17,5t-6,16q0,10 7,14t16,4q44,3 71,5t45.5,5t36.5,8q3,1 6.5,1.5T460,427q14,0 14-11q0-3-0.5-6.5T471,402q-1-3-2.5-17t-3-29T464,333V101q0-24 5.5-33T482,59q6,0 17.5,0.5T516,60q8,0 13-4t5-13t-3.5-13.5T518,24q-45-4-80-15.5T377-14q-6-2-12.5-4T353-20ZM247,454q-10,0-10,11q0,4 1,9t4,12q7,19 20.5,48t27,56.5T311,632q6,13 15.5,18t23.5,5q22,0 38.5-5.5T405,632q0-6-2-11t-8-12q-16-21-37.5-46t-43-49T275,472t-28-18Z"/>
      <glyph unicode="&#xfb;" glyph-name="gid115" horiz-adv-x="543" d="M273,663q9,0 15.5-8.5T303,633q9-15 20.5-35t24-41.5t23-40.5T386,486q5-14 2-22.5T376,455q-6,0-15.5,8.5T340,484q-10,11-27,32t-35,41q-3,4-4.5,4t-5.5-4q-17-20-34-41t-27-32q-11-12-20.5-20.5T169,455q-11,0-13,9t4,22q5,11 15,29.5t22.5,40T222,597t20,35q9,14 16,22.5t15,8.5ZM353-20q-8,0-8,9q0,11 2.5,31T350,52q0,3-0.5,5.5T349,61Q318,27 276.5,6T189-15q-32,0-57.5,17t-40,47T77,119V311q0,23-9,36.5T36,368q-6,1-10.5,5T21,385t4.5,12T36,402q40,2 69,7.5T167,423q4,2 8,3t8,1q13,0 12-14q-3-23-5-38.5T188,336V143q0-24 9-43t25-30t35-12q19,0 35.5,4T325,80q8,6 18,22.5T353,146V314q0,19-8.5,30.5t-22,17.5T295,368q-11,1-17,5t-6,16q0,10 7,14t16,4q44,3 71,5t45.5,5t36.5,8q3,1 6.5,1.5T460,427q14,0 14-11q0-3-0.5-6.5T471,402q-1-3-2.5-17t-3-29T464,333V101q0-24 5.5-33T482,59q6,0 17.5,0.5T516,60q8,0 13-4t5-13t-3.5-13.5T518,24q-45-4-80-15.5T377-14q-6-2-12.5-4T353-20Z"/>
      <glyph unicode="&#xfc;" glyph-name="gid116" horiz-adv-x="543" d="M353-20q-8,0-8,9q0,11 2.5,31T350,52q0,3-0.5,5.5T349,61Q318,27 276.5,6T189-15q-32,0-57.5,17t-40,47T77,119V311q0,23-9,36.5T36,368q-6,1-10.5,5T21,385t4.5,12T36,402q40,2 69,7.5T167,423q4,2 8,3t8,1q13,0 12-14q-3-23-5-38.5T188,336V143q0-24 9-43t25-30t35-12q19,0 35.5,4T325,80q8,6 18,22.5T353,146V314q0,19-8.5,30.5t-22,17.5T295,368q-11,1-17,5t-6,16q0,10 7,14t16,4q44,3 71,5t45.5,5t36.5,8q3,1 6.5,1.5T460,427q14,0 14-11q0-3-0.5-6.5T471,402q-1-3-2.5-17t-3-29T464,333V101q0-24 5.5-33T482,59q6,0 17.5,0.5T516,60q8,0 13-4t5-13t-3.5-13.5T518,24q-45-4-80-15.5T377-14q-6-2-12.5-4T353-20Zm11,519q-25,0-44.5,19.5T300,563q0,27 19.5,46T364,628q28,0 47.5-19T431,563q0-25-19.5-44.5T364,499Zm-188,0q-26,0-45,19.5T112,563q0,27 19,46t45,19q27,0 46.5-19T242,563q0-25-19.5-44.5T176,499Z"/>
      <glyph unicode="&#xfd;" glyph-name="gid122" horiz-adv-x="467" d="M78-284q-24,0-45,15.5T12-228q0,19 9.5,36T50-175q14,0 28.5-5t27.5-4q12,1 17.5,5.5T136-162q8,14 17.5,30.5t20,39.5T197-37q9,21 9,40q0,12-3,23t-7,20L75,331q-8,20-19.5,35T27,386q-9,4-14.5,8T7,406t8,9.5T29,417q23,0 37-1t26-2t26-1q21,0 34,1t27.5,2t36.5,1q7,0 15-2.5t8-10.5t-9-12.5T213,384q-10-3-16-11.5T191,348q0-7 3-17.5t7-22.5l69-167q1-4 4-4q1,0 3,4l57,163q3,7 5.5,18.5T342,342q0,18-8.5,27.5T315,383q-8,4-17,8.5T289,404t8.5,10.5T312,417q22,0 37-2t35-2q13,0 21.5,1t18.5,2t25,1q6,0 14.5-1.5T472,406t-5.5-12T452,386q-17-5-33-22.5T393,323L249-25q-6-14-16-37.5T211.5-114T187-172t-25-59q-11-26-33.5-39.5T78-284ZM241,454q-10,0-10,11q0,4 1,9t4,12q7,19 20.5,48t27,56.5T305,632q6,13 15.5,18t23.5,5q22,0 38.5-5.5T399,632q0-6-2-11t-8-12q-16-21-37.5-46t-43-49T269,472t-28-18Z"/>
      <glyph unicode="&#xfe;" glyph-name="gid107" horiz-adv-x="534" d="M37-270q-7,0-14.5,3T15-257q0,8 7,12t16,7q20,6 31,13.5T80-199V555q0,26-8.5,46.5T38,627q-10,2-10,15q0,12 9,14q25,5 52,14t50.5,18T179,703q3,1 4.5,1.5T187,705q5,0 7-3.5t2-6.5q0-8-2.5-30.5T190,604l1-203q0-14 0-25t1-18q12,11 37,26t56,26.5T345,422q53,0 90.5-28.5t57-73T512,228q0-46-17.5-89.5T445.5,60t-73-56T283-17q-18,0-45,7.5T194,8q-1,0-2-5.5T190.5-10T190-21V-193q0-22 12.5-30.5T237-238q9-3 15.5-7t6.5-12q0-7-6-10t-13-3q-19,0-37,1.5T169-266t-34,1q-17,0-32-1t-30.5-2.5T37-270ZM286,25q12,0 29.5,8.5t35,27.5T380,113t12,81q0,55-12.5,88.5T349,333t-36.5,22.5T281,361q-21,0-38-7.5T211,333q-9-8-14.5-23T191,265V119q0-14 4-35.5T210,49q9-10 29-17t47-7Z"/>
      <glyph unicode="&#xff;" glyph-name="gid123" horiz-adv-x="467" d="M78-284q-24,0-45,15.5T12-228q0,19 9.5,36T50-175q14,0 28.5-5t27.5-4q12,1 17.5,5.5T136-162q8,14 17.5,30.5t20,39.5T197-37q9,21 9,40q0,12-3,23t-7,20L75,331q-8,20-19.5,35T27,386q-9,4-14.5,8T7,406t8,9.5T29,417q23,0 37-1t26-2t26-1q21,0 34,1t27.5,2t36.5,1q7,0 15-2.5t8-10.5t-9-12.5T213,384q-10-3-16-11.5T191,348q0-7 3-17.5t7-22.5l69-167q1-4 4-4q1,0 3,4l57,163q3,7 5.5,18.5T342,342q0,18-8.5,27.5T315,383q-8,4-17,8.5T289,404t8.5,10.5T312,417q22,0 37-2t35-2q13,0 21.5,1t18.5,2t25,1q6,0 14.5-1.5T472,406t-5.5-12T452,386q-17-5-33-22.5T393,323L249-25q-6-14-16-37.5T211.5-114T187-172t-25-59q-11-26-33.5-39.5T78-284ZM358,499q-25,0-44.5,19.5T294,563q0,27 19.5,46T358,628q28,0 47.5-19T425,563q0-25-19.5-44.5T358,499Zm-188,0q-26,0-45,19.5T106,563q0,27 19,46t45,19q27,0 46.5-19T236,563q0-25-19.5-44.5T170,499Z"/>
      <glyph unicode="&#x2013;" glyph-name="gid221" horiz-adv-x="605" d="M57,183q-6,0-10.5,4.5T42,196q0,5 2.5,16T53,232t16,9H544q8,0 13.5-4t5.5-11q0-13-9.5-28T531,183H57Z"/>
      <glyph unicode="&#x2014;" glyph-name="gid222" horiz-adv-x="957" d="M49,183q-6,0-10.5,4.5T34,196q0,5 2.5,16T45,232t15,9H904q8,0 13.5-4t5.5-11q0-13-9.5-28T890,183H49Z"/>
      <glyph unicode="&#x2018;" glyph-name="gid228" horiz-adv-x="240" d="M186,696q23,0 23-14q0-7-5-10t-14-5q-25-6-45.5-18.5T112,617t-12-45q0-16 12.5-28.5T141,528q19-4 31.5-17.5T185,475q0-24-19.5-40T120,419q-42,0-68.5,28.5T25,520q0,40 15,72t39,55.5t52.5,36T186,696Z"/>
      <glyph unicode="&#x2019;" glyph-name="gid229" horiz-adv-x="240" d="M53,414q-23,0-23,15q0,6 5,9t15,6q25,6 45,18t32,31.5T139,539q0,16-12,28.5T98,583q-18,3-31,17T54,635q0,24 20,40.5T119,692q42,0 68.5-28.5T214,590q0-39-15-71.5T160,463t-52-36T53,414Z"/>
      <glyph unicode="&#x201a;" glyph-name="gid224" horiz-adv-x="240" d="M53-159q-23,0-23,15q0,6 5,9t15,6q25,6 45,18t32,31.5T139-34q0,16-12,28.5T98,10Q80,13 67,27T54,62q0,24 20,40.5T119,119q42,0 68.5-28.5T214,17q0-39-15-71.5T160-110t-52-36T53-159Z"/>
      <glyph unicode="&#x201c;" glyph-name="gid226" horiz-adv-x="432" d="M384,696q23,0 23-14q0-6-5-9t-14-6q-25-6-45.5-18.5T310,617t-12-45q0-16 12.5-28.5T339,528q19-4 31.5-17.5T383,475q0-24-20-40t-45-16q-42,0-68.5,28.5T223,520q0,40 15,72t39,55.5t52,36T384,696Zm-192,0q23,0 23-14q0-6-5.5-9T195,667q-24-6-44.5-18.5T118,617t-12-45q0-16 12-28.5T146,528q20-4 32.5-17.5T191,475q0-24-20-40t-45-16q-42,0-68.5,28.5T31,520q0,40 15,72t39,55.5t52,36T192,696Z"/>
      <glyph unicode="&#x201d;" glyph-name="gid227" horiz-adv-x="432" d="M53,414q-23,0-23,15q0,6 5,9t15,6q25,6 45,18t32,31.5T139,539q0,16-12,28.5T98,583q-18,3-31,17T54,635q0,24 20,40.5T119,692q42,0 68.5-28.5T214,590q0-39-15-71.5T160,463t-52-36T53,414Zm193,0q-23,0-23,15q0,6 5,9t15,6q25,6 45,18t32,31.5T332,539q0,16-12,28.5T291,583q-18,3-31,17t-13,35q0,24 20,40.5T312,692q42,0 68.5-28.5T407,590q0-39-15-71.5T353,463t-52-36t-55-13Z"/>
      <glyph unicode="&#x201e;" glyph-name="gid225" horiz-adv-x="432" d="M53-159q-23,0-23,15q0,6 5,9t15,6q25,6 45,18t32,31.5T139-34q0,16-12,28.5T98,10Q80,13 67,27T54,62q0,24 20,40.5T119,119q42,0 68.5-28.5T214,17q0-39-15-71.5T160-110t-52-36T53-159Zm193,0q-23,0-23,15q0,6 5,9t15,6q25,6 45,18t32,31.5T332-34q0,16-12,28.5T291,10q-18,3-31,17T247,62q0,24 20,40.5T312,119q42,0 68.5-28.5T407,17q0-39-15-71.5T353-110t-52-36t-55-13Z"/>
      <glyph unicode="&#x2022;" glyph-name="gid208" horiz-adv-x="365" d="M183,213q-40,0-72.5,19.5T59,284.5T40,356q0,41 19,73.5t51.5,51T183,499t72-18.5t51.5-51T326,356q0-39-19.5-71.5t-51.5-52T183,213Z"/>
      <glyph unicode="&#x2039;" glyph-name="gid232" horiz-adv-x="376" d="M318,17q-11,0-20,7.5T285,36q-29,28-54,48t-49,36.5t-49.5,31T76,180q-12,7-18,16.5T52,215q0,10 8,13q42,26 72.5,45T187,309.5t48,37T287,393q5,4 14,12t19,8q7,0 7-10q0-4-2-8t-4-9q-32-47-56-76t-45-48.5T176,222q-6-5-6-7t6-8q23-19 44-39t45-49t56-77q2-3 3.5-6.5T326,29q0-12-8-12Z"/>
      <glyph unicode="&#x203a;" glyph-name="gid233" horiz-adv-x="376" d="M58,17q-8,0-8,12q0,3 1.5,6.5T55,42q31,48 55.5,77T156,168t43,39q8,6 8,8t-8,7q-22,20-43,39.5T110.5,310T55,386q-2,5-4,9t-2,8q0,10 7,10q10,0 19-8t13-12q29-27 53-46.5t48-37T243.5,273T316,228q8-3 8-13q0-9-6-18.5T299,180q-30-14-55.5-28.5t-50-31T144.5,84T91,36q-4-4-13.5-11.5T58,17Z"/>
    </font>
</defs>
</svg>
